G04 #@! TF.GenerationSoftware,KiCad,Pcbnew,(5.1.4)-1*
G04 #@! TF.CreationDate,2020-04-22T13:58:57+02:00*
G04 #@! TF.ProjectId,sara-rx-ab,73617261-2d72-4782-9d61-622e6b696361,rev?*
G04 #@! TF.SameCoordinates,Original*
G04 #@! TF.FileFunction,Legend,Bot*
G04 #@! TF.FilePolarity,Positive*
%FSLAX46Y46*%
G04 Gerber Fmt 4.6, Leading zero omitted, Abs format (unit mm)*
G04 Created by KiCad (PCBNEW (5.1.4)-1) date 2020-04-22 13:58:57*
%MOMM*%
%LPD*%
G04 APERTURE LIST*
%ADD10C,0.152400*%
%ADD11C,0.200000*%
%ADD12C,0.100000*%
%ADD13C,0.150000*%
G04 APERTURE END LIST*
D10*
X143650304Y-121730104D02*
X144037352Y-122001038D01*
X143650304Y-122194561D02*
X144463104Y-122194561D01*
X144463104Y-121884923D01*
X144424400Y-121807514D01*
X144385695Y-121768809D01*
X144308285Y-121730104D01*
X144192171Y-121730104D01*
X144114761Y-121768809D01*
X144076057Y-121807514D01*
X144037352Y-121884923D01*
X144037352Y-122194561D01*
X143689009Y-121420466D02*
X143650304Y-121304352D01*
X143650304Y-121110828D01*
X143689009Y-121033419D01*
X143727714Y-120994714D01*
X143805123Y-120956009D01*
X143882533Y-120956009D01*
X143959942Y-120994714D01*
X143998647Y-121033419D01*
X144037352Y-121110828D01*
X144076057Y-121265647D01*
X144114761Y-121343057D01*
X144153466Y-121381761D01*
X144230876Y-121420466D01*
X144308285Y-121420466D01*
X144385695Y-121381761D01*
X144424400Y-121343057D01*
X144463104Y-121265647D01*
X144463104Y-121072123D01*
X144424400Y-120956009D01*
X144463104Y-120723780D02*
X144463104Y-120259323D01*
X143650304Y-120491552D02*
X144463104Y-120491552D01*
X146499942Y-122209076D02*
X146499942Y-121589800D01*
X146190304Y-121899438D02*
X146809580Y-121899438D01*
X147003104Y-121280161D02*
X147003104Y-120777000D01*
X146693466Y-121047933D01*
X146693466Y-120931819D01*
X146654761Y-120854409D01*
X146616057Y-120815704D01*
X146538647Y-120777000D01*
X146345123Y-120777000D01*
X146267714Y-120815704D01*
X146229009Y-120854409D01*
X146190304Y-120931819D01*
X146190304Y-121164047D01*
X146229009Y-121241457D01*
X146267714Y-121280161D01*
X147003104Y-120544771D02*
X146190304Y-120273838D01*
X147003104Y-120002904D01*
X147003104Y-119809380D02*
X147003104Y-119306219D01*
X146693466Y-119577152D01*
X146693466Y-119461038D01*
X146654761Y-119383628D01*
X146616057Y-119344923D01*
X146538647Y-119306219D01*
X146345123Y-119306219D01*
X146267714Y-119344923D01*
X146229009Y-119383628D01*
X146190304Y-119461038D01*
X146190304Y-119693266D01*
X146229009Y-119770676D01*
X146267714Y-119809380D01*
X149543104Y-122267133D02*
X148730304Y-121996200D01*
X149543104Y-121725266D01*
X149156057Y-121183400D02*
X149117352Y-121067285D01*
X149078647Y-121028580D01*
X149001238Y-120989876D01*
X148885123Y-120989876D01*
X148807714Y-121028580D01*
X148769009Y-121067285D01*
X148730304Y-121144695D01*
X148730304Y-121454333D01*
X149543104Y-121454333D01*
X149543104Y-121183400D01*
X149504400Y-121105990D01*
X149465695Y-121067285D01*
X149388285Y-121028580D01*
X149310876Y-121028580D01*
X149233466Y-121067285D01*
X149194761Y-121105990D01*
X149156057Y-121183400D01*
X149156057Y-121454333D01*
X149543104Y-120641533D02*
X148885123Y-120641533D01*
X148807714Y-120602828D01*
X148769009Y-120564123D01*
X148730304Y-120486714D01*
X148730304Y-120331895D01*
X148769009Y-120254485D01*
X148807714Y-120215780D01*
X148885123Y-120177076D01*
X149543104Y-120177076D01*
X148769009Y-119828733D02*
X148730304Y-119712619D01*
X148730304Y-119519095D01*
X148769009Y-119441685D01*
X148807714Y-119402980D01*
X148885123Y-119364276D01*
X148962533Y-119364276D01*
X149039942Y-119402980D01*
X149078647Y-119441685D01*
X149117352Y-119519095D01*
X149156057Y-119673914D01*
X149194761Y-119751323D01*
X149233466Y-119790028D01*
X149310876Y-119828733D01*
X149388285Y-119828733D01*
X149465695Y-119790028D01*
X149504400Y-119751323D01*
X149543104Y-119673914D01*
X149543104Y-119480390D01*
X149504400Y-119364276D01*
X152044400Y-121904276D02*
X152083104Y-121981685D01*
X152083104Y-122097800D01*
X152044400Y-122213914D01*
X151966990Y-122291323D01*
X151889580Y-122330028D01*
X151734761Y-122368733D01*
X151618647Y-122368733D01*
X151463828Y-122330028D01*
X151386419Y-122291323D01*
X151309009Y-122213914D01*
X151270304Y-122097800D01*
X151270304Y-122020390D01*
X151309009Y-121904276D01*
X151347714Y-121865571D01*
X151618647Y-121865571D01*
X151618647Y-122020390D01*
X151270304Y-121517228D02*
X152083104Y-121517228D01*
X151270304Y-121052771D01*
X152083104Y-121052771D01*
X151270304Y-120665723D02*
X152083104Y-120665723D01*
X152083104Y-120472200D01*
X152044400Y-120356085D01*
X151966990Y-120278676D01*
X151889580Y-120239971D01*
X151734761Y-120201266D01*
X151618647Y-120201266D01*
X151463828Y-120239971D01*
X151386419Y-120278676D01*
X151309009Y-120356085D01*
X151270304Y-120472200D01*
X151270304Y-120665723D01*
X154584400Y-121904276D02*
X154623104Y-121981685D01*
X154623104Y-122097800D01*
X154584400Y-122213914D01*
X154506990Y-122291323D01*
X154429580Y-122330028D01*
X154274761Y-122368733D01*
X154158647Y-122368733D01*
X154003828Y-122330028D01*
X153926419Y-122291323D01*
X153849009Y-122213914D01*
X153810304Y-122097800D01*
X153810304Y-122020390D01*
X153849009Y-121904276D01*
X153887714Y-121865571D01*
X154158647Y-121865571D01*
X154158647Y-122020390D01*
X153810304Y-121517228D02*
X154623104Y-121517228D01*
X153810304Y-121052771D01*
X154623104Y-121052771D01*
X153810304Y-120665723D02*
X154623104Y-120665723D01*
X154623104Y-120472200D01*
X154584400Y-120356085D01*
X154506990Y-120278676D01*
X154429580Y-120239971D01*
X154274761Y-120201266D01*
X154158647Y-120201266D01*
X154003828Y-120239971D01*
X153926419Y-120278676D01*
X153849009Y-120356085D01*
X153810304Y-120472200D01*
X153810304Y-120665723D01*
X156350304Y-122431628D02*
X157163104Y-122431628D01*
X156350304Y-121967171D01*
X157163104Y-121967171D01*
X156427714Y-121115666D02*
X156389009Y-121154371D01*
X156350304Y-121270485D01*
X156350304Y-121347895D01*
X156389009Y-121464009D01*
X156466419Y-121541419D01*
X156543828Y-121580123D01*
X156698647Y-121618828D01*
X156814761Y-121618828D01*
X156969580Y-121580123D01*
X157046990Y-121541419D01*
X157124400Y-121464009D01*
X157163104Y-121347895D01*
X157163104Y-121270485D01*
X157124400Y-121154371D01*
X157085695Y-121115666D01*
X161662533Y-122373571D02*
X161662533Y-121986523D01*
X161430304Y-122450980D02*
X162243104Y-122180047D01*
X161430304Y-121909114D01*
X162243104Y-121483361D02*
X162243104Y-121405952D01*
X162204400Y-121328542D01*
X162165695Y-121289838D01*
X162088285Y-121251133D01*
X161933466Y-121212428D01*
X161739942Y-121212428D01*
X161585123Y-121251133D01*
X161507714Y-121289838D01*
X161469009Y-121328542D01*
X161430304Y-121405952D01*
X161430304Y-121483361D01*
X161469009Y-121560771D01*
X161507714Y-121599476D01*
X161585123Y-121638180D01*
X161739942Y-121676885D01*
X161933466Y-121676885D01*
X162088285Y-121638180D01*
X162165695Y-121599476D01*
X162204400Y-121560771D01*
X162243104Y-121483361D01*
X164202533Y-122373571D02*
X164202533Y-121986523D01*
X163970304Y-122450980D02*
X164783104Y-122180047D01*
X163970304Y-121909114D01*
X163970304Y-121212428D02*
X163970304Y-121676885D01*
X163970304Y-121444657D02*
X164783104Y-121444657D01*
X164666990Y-121522066D01*
X164589580Y-121599476D01*
X164550876Y-121676885D01*
X166742533Y-122373571D02*
X166742533Y-121986523D01*
X166510304Y-122450980D02*
X167323104Y-122180047D01*
X166510304Y-121909114D01*
X167245695Y-121676885D02*
X167284400Y-121638180D01*
X167323104Y-121560771D01*
X167323104Y-121367247D01*
X167284400Y-121289838D01*
X167245695Y-121251133D01*
X167168285Y-121212428D01*
X167090876Y-121212428D01*
X166974761Y-121251133D01*
X166510304Y-121715590D01*
X166510304Y-121212428D01*
X169282533Y-122373571D02*
X169282533Y-121986523D01*
X169050304Y-122450980D02*
X169863104Y-122180047D01*
X169050304Y-121909114D01*
X169863104Y-121715590D02*
X169863104Y-121212428D01*
X169553466Y-121483361D01*
X169553466Y-121367247D01*
X169514761Y-121289838D01*
X169476057Y-121251133D01*
X169398647Y-121212428D01*
X169205123Y-121212428D01*
X169127714Y-121251133D01*
X169089009Y-121289838D01*
X169050304Y-121367247D01*
X169050304Y-121599476D01*
X169089009Y-121676885D01*
X169127714Y-121715590D01*
X171629009Y-122271971D02*
X171590304Y-122155857D01*
X171590304Y-121962333D01*
X171629009Y-121884923D01*
X171667714Y-121846219D01*
X171745123Y-121807514D01*
X171822533Y-121807514D01*
X171899942Y-121846219D01*
X171938647Y-121884923D01*
X171977352Y-121962333D01*
X172016057Y-122117152D01*
X172054761Y-122194561D01*
X172093466Y-122233266D01*
X172170876Y-122271971D01*
X172248285Y-122271971D01*
X172325695Y-122233266D01*
X172364400Y-122194561D01*
X172403104Y-122117152D01*
X172403104Y-121923628D01*
X172364400Y-121807514D01*
X171590304Y-121459171D02*
X172403104Y-121459171D01*
X172403104Y-121265647D01*
X172364400Y-121149533D01*
X172286990Y-121072123D01*
X172209580Y-121033419D01*
X172054761Y-120994714D01*
X171938647Y-120994714D01*
X171783828Y-121033419D01*
X171706419Y-121072123D01*
X171629009Y-121149533D01*
X171590304Y-121265647D01*
X171590304Y-121459171D01*
X171822533Y-120685076D02*
X171822533Y-120298028D01*
X171590304Y-120762485D02*
X172403104Y-120491552D01*
X171590304Y-120220619D01*
X174169009Y-122252619D02*
X174130304Y-122136504D01*
X174130304Y-121942980D01*
X174169009Y-121865571D01*
X174207714Y-121826866D01*
X174285123Y-121788161D01*
X174362533Y-121788161D01*
X174439942Y-121826866D01*
X174478647Y-121865571D01*
X174517352Y-121942980D01*
X174556057Y-122097800D01*
X174594761Y-122175209D01*
X174633466Y-122213914D01*
X174710876Y-122252619D01*
X174788285Y-122252619D01*
X174865695Y-122213914D01*
X174904400Y-122175209D01*
X174943104Y-122097800D01*
X174943104Y-121904276D01*
X174904400Y-121788161D01*
X174207714Y-120975361D02*
X174169009Y-121014066D01*
X174130304Y-121130180D01*
X174130304Y-121207590D01*
X174169009Y-121323704D01*
X174246419Y-121401114D01*
X174323828Y-121439819D01*
X174478647Y-121478523D01*
X174594761Y-121478523D01*
X174749580Y-121439819D01*
X174826990Y-121401114D01*
X174904400Y-121323704D01*
X174943104Y-121207590D01*
X174943104Y-121130180D01*
X174904400Y-121014066D01*
X174865695Y-120975361D01*
X174130304Y-120239971D02*
X174130304Y-120627019D01*
X174943104Y-120627019D01*
X156350304Y-78704923D02*
X157163104Y-78704923D01*
X157163104Y-78511400D01*
X157124400Y-78395285D01*
X157046990Y-78317876D01*
X156969580Y-78279171D01*
X156814761Y-78240466D01*
X156698647Y-78240466D01*
X156543828Y-78279171D01*
X156466419Y-78317876D01*
X156389009Y-78395285D01*
X156350304Y-78511400D01*
X156350304Y-78704923D01*
X157163104Y-77969533D02*
X157163104Y-77427666D01*
X156350304Y-77776009D01*
X158890304Y-78704923D02*
X159703104Y-78704923D01*
X159703104Y-78511400D01*
X159664400Y-78395285D01*
X159586990Y-78317876D01*
X159509580Y-78279171D01*
X159354761Y-78240466D01*
X159238647Y-78240466D01*
X159083828Y-78279171D01*
X159006419Y-78317876D01*
X158929009Y-78395285D01*
X158890304Y-78511400D01*
X158890304Y-78704923D01*
X159703104Y-77543780D02*
X159703104Y-77698600D01*
X159664400Y-77776009D01*
X159625695Y-77814714D01*
X159509580Y-77892123D01*
X159354761Y-77930828D01*
X159045123Y-77930828D01*
X158967714Y-77892123D01*
X158929009Y-77853419D01*
X158890304Y-77776009D01*
X158890304Y-77621190D01*
X158929009Y-77543780D01*
X158967714Y-77505076D01*
X159045123Y-77466371D01*
X159238647Y-77466371D01*
X159316057Y-77505076D01*
X159354761Y-77543780D01*
X159393466Y-77621190D01*
X159393466Y-77776009D01*
X159354761Y-77853419D01*
X159316057Y-77892123D01*
X159238647Y-77930828D01*
X161430304Y-78743628D02*
X162243104Y-78743628D01*
X161430304Y-78279171D01*
X162243104Y-78279171D01*
X161507714Y-77427666D02*
X161469009Y-77466371D01*
X161430304Y-77582485D01*
X161430304Y-77659895D01*
X161469009Y-77776009D01*
X161546419Y-77853419D01*
X161623828Y-77892123D01*
X161778647Y-77930828D01*
X161894761Y-77930828D01*
X162049580Y-77892123D01*
X162126990Y-77853419D01*
X162204400Y-77776009D01*
X162243104Y-77659895D01*
X162243104Y-77582485D01*
X162204400Y-77466371D01*
X162165695Y-77427666D01*
X163970304Y-78704923D02*
X164783104Y-78704923D01*
X164783104Y-78511400D01*
X164744400Y-78395285D01*
X164666990Y-78317876D01*
X164589580Y-78279171D01*
X164434761Y-78240466D01*
X164318647Y-78240466D01*
X164163828Y-78279171D01*
X164086419Y-78317876D01*
X164009009Y-78395285D01*
X163970304Y-78511400D01*
X163970304Y-78704923D01*
X164512171Y-77543780D02*
X163970304Y-77543780D01*
X164821809Y-77737304D02*
X164241238Y-77930828D01*
X164241238Y-77427666D01*
X166510304Y-78550104D02*
X166897352Y-78821038D01*
X166510304Y-79014561D02*
X167323104Y-79014561D01*
X167323104Y-78704923D01*
X167284400Y-78627514D01*
X167245695Y-78588809D01*
X167168285Y-78550104D01*
X167052171Y-78550104D01*
X166974761Y-78588809D01*
X166936057Y-78627514D01*
X166897352Y-78704923D01*
X166897352Y-79014561D01*
X167323104Y-78317876D02*
X167323104Y-77853419D01*
X166510304Y-78085647D02*
X167323104Y-78085647D01*
X166549009Y-77621190D02*
X166510304Y-77505076D01*
X166510304Y-77311552D01*
X166549009Y-77234142D01*
X166587714Y-77195438D01*
X166665123Y-77156733D01*
X166742533Y-77156733D01*
X166819942Y-77195438D01*
X166858647Y-77234142D01*
X166897352Y-77311552D01*
X166936057Y-77466371D01*
X166974761Y-77543780D01*
X167013466Y-77582485D01*
X167090876Y-77621190D01*
X167168285Y-77621190D01*
X167245695Y-77582485D01*
X167284400Y-77543780D01*
X167323104Y-77466371D01*
X167323104Y-77272847D01*
X167284400Y-77156733D01*
X169127714Y-78550104D02*
X169089009Y-78588809D01*
X169050304Y-78704923D01*
X169050304Y-78782333D01*
X169089009Y-78898447D01*
X169166419Y-78975857D01*
X169243828Y-79014561D01*
X169398647Y-79053266D01*
X169514761Y-79053266D01*
X169669580Y-79014561D01*
X169746990Y-78975857D01*
X169824400Y-78898447D01*
X169863104Y-78782333D01*
X169863104Y-78704923D01*
X169824400Y-78588809D01*
X169785695Y-78550104D01*
X169863104Y-78317876D02*
X169863104Y-77853419D01*
X169050304Y-78085647D02*
X169863104Y-78085647D01*
X169089009Y-77621190D02*
X169050304Y-77505076D01*
X169050304Y-77311552D01*
X169089009Y-77234142D01*
X169127714Y-77195438D01*
X169205123Y-77156733D01*
X169282533Y-77156733D01*
X169359942Y-77195438D01*
X169398647Y-77234142D01*
X169437352Y-77311552D01*
X169476057Y-77466371D01*
X169514761Y-77543780D01*
X169553466Y-77582485D01*
X169630876Y-77621190D01*
X169708285Y-77621190D01*
X169785695Y-77582485D01*
X169824400Y-77543780D01*
X169863104Y-77466371D01*
X169863104Y-77272847D01*
X169824400Y-77156733D01*
X172403104Y-78724276D02*
X172403104Y-78259819D01*
X171590304Y-78492047D02*
X172403104Y-78492047D01*
X172403104Y-78066295D02*
X171590304Y-77524428D01*
X172403104Y-77524428D02*
X171590304Y-78066295D01*
X174130304Y-78240466D02*
X174517352Y-78511400D01*
X174130304Y-78704923D02*
X174943104Y-78704923D01*
X174943104Y-78395285D01*
X174904400Y-78317876D01*
X174865695Y-78279171D01*
X174788285Y-78240466D01*
X174672171Y-78240466D01*
X174594761Y-78279171D01*
X174556057Y-78317876D01*
X174517352Y-78395285D01*
X174517352Y-78704923D01*
X174943104Y-77969533D02*
X174130304Y-77427666D01*
X174943104Y-77427666D02*
X174130304Y-77969533D01*
X112265580Y-122238104D02*
X112536514Y-121425304D01*
X112807447Y-122238104D01*
X112884857Y-121347895D02*
X113504133Y-121347895D01*
X113658952Y-121464009D02*
X113775066Y-121425304D01*
X113968590Y-121425304D01*
X114046000Y-121464009D01*
X114084704Y-121502714D01*
X114123409Y-121580123D01*
X114123409Y-121657533D01*
X114084704Y-121734942D01*
X114046000Y-121773647D01*
X113968590Y-121812352D01*
X113813771Y-121851057D01*
X113736361Y-121889761D01*
X113697657Y-121928466D01*
X113658952Y-122005876D01*
X113658952Y-122083285D01*
X113697657Y-122160695D01*
X113736361Y-122199400D01*
X113813771Y-122238104D01*
X114007295Y-122238104D01*
X114123409Y-122199400D01*
X114936209Y-121425304D02*
X114665276Y-121812352D01*
X114471752Y-121425304D02*
X114471752Y-122238104D01*
X114781390Y-122238104D01*
X114858800Y-122199400D01*
X114897504Y-122160695D01*
X114936209Y-122083285D01*
X114936209Y-121967171D01*
X114897504Y-121889761D01*
X114858800Y-121851057D01*
X114781390Y-121812352D01*
X114471752Y-121812352D01*
X115749009Y-121502714D02*
X115710304Y-121464009D01*
X115594190Y-121425304D01*
X115516780Y-121425304D01*
X115400666Y-121464009D01*
X115323257Y-121541419D01*
X115284552Y-121618828D01*
X115245847Y-121773647D01*
X115245847Y-121889761D01*
X115284552Y-122044580D01*
X115323257Y-122121990D01*
X115400666Y-122199400D01*
X115516780Y-122238104D01*
X115594190Y-122238104D01*
X115710304Y-122199400D01*
X115749009Y-122160695D01*
X112936866Y-122949304D02*
X112936866Y-123762104D01*
X113246504Y-123762104D01*
X113323914Y-123723400D01*
X113362619Y-123684695D01*
X113401323Y-123607285D01*
X113401323Y-123491171D01*
X113362619Y-123413761D01*
X113323914Y-123375057D01*
X113246504Y-123336352D01*
X112936866Y-123336352D01*
X113633552Y-123762104D02*
X113904485Y-122949304D01*
X114175419Y-123762104D01*
X115065628Y-122949304D02*
X115065628Y-123762104D01*
X115452676Y-122949304D02*
X115452676Y-123762104D01*
X115917133Y-122949304D01*
X115917133Y-123762104D01*
X186041695Y-95880161D02*
X186080400Y-95841457D01*
X186119104Y-95764047D01*
X186119104Y-95570523D01*
X186080400Y-95493114D01*
X186041695Y-95454409D01*
X185964285Y-95415704D01*
X185886876Y-95415704D01*
X185770761Y-95454409D01*
X185306304Y-95918866D01*
X185306304Y-95415704D01*
X186119104Y-94912542D02*
X186119104Y-94835133D01*
X186080400Y-94757723D01*
X186041695Y-94719019D01*
X185964285Y-94680314D01*
X185809466Y-94641609D01*
X185615942Y-94641609D01*
X185461123Y-94680314D01*
X185383714Y-94719019D01*
X185345009Y-94757723D01*
X185306304Y-94835133D01*
X185306304Y-94912542D01*
X185345009Y-94989952D01*
X185383714Y-95028657D01*
X185461123Y-95067361D01*
X185615942Y-95106066D01*
X185809466Y-95106066D01*
X185964285Y-95067361D01*
X186041695Y-95028657D01*
X186080400Y-94989952D01*
X186119104Y-94912542D01*
X186041695Y-94331971D02*
X186080400Y-94293266D01*
X186119104Y-94215857D01*
X186119104Y-94022333D01*
X186080400Y-93944923D01*
X186041695Y-93906219D01*
X185964285Y-93867514D01*
X185886876Y-93867514D01*
X185770761Y-93906219D01*
X185306304Y-94370676D01*
X185306304Y-93867514D01*
X186119104Y-93364352D02*
X186119104Y-93286942D01*
X186080400Y-93209533D01*
X186041695Y-93170828D01*
X185964285Y-93132123D01*
X185809466Y-93093419D01*
X185615942Y-93093419D01*
X185461123Y-93132123D01*
X185383714Y-93170828D01*
X185345009Y-93209533D01*
X185306304Y-93286942D01*
X185306304Y-93364352D01*
X185345009Y-93441761D01*
X185383714Y-93480466D01*
X185461123Y-93519171D01*
X185615942Y-93557876D01*
X185809466Y-93557876D01*
X185964285Y-93519171D01*
X186041695Y-93480466D01*
X186080400Y-93441761D01*
X186119104Y-93364352D01*
X186119104Y-92590257D02*
X186119104Y-92512847D01*
X186080400Y-92435438D01*
X186041695Y-92396733D01*
X185964285Y-92358028D01*
X185809466Y-92319323D01*
X185615942Y-92319323D01*
X185461123Y-92358028D01*
X185383714Y-92396733D01*
X185345009Y-92435438D01*
X185306304Y-92512847D01*
X185306304Y-92590257D01*
X185345009Y-92667666D01*
X185383714Y-92706371D01*
X185461123Y-92745076D01*
X185615942Y-92783780D01*
X185809466Y-92783780D01*
X185964285Y-92745076D01*
X186041695Y-92706371D01*
X186080400Y-92667666D01*
X186119104Y-92590257D01*
X185848171Y-91622638D02*
X185306304Y-91622638D01*
X186157809Y-91816161D02*
X185577238Y-92009685D01*
X185577238Y-91506523D01*
X185228895Y-91390409D02*
X185228895Y-90771133D01*
X185306304Y-90113152D02*
X185693352Y-90384085D01*
X185306304Y-90577609D02*
X186119104Y-90577609D01*
X186119104Y-90267971D01*
X186080400Y-90190561D01*
X186041695Y-90151857D01*
X185964285Y-90113152D01*
X185848171Y-90113152D01*
X185770761Y-90151857D01*
X185732057Y-90190561D01*
X185693352Y-90267971D01*
X185693352Y-90577609D01*
X185732057Y-89764809D02*
X185732057Y-89493876D01*
X185306304Y-89377761D02*
X185306304Y-89764809D01*
X186119104Y-89764809D01*
X186119104Y-89377761D01*
X186119104Y-89145533D02*
X185306304Y-88874600D01*
X186119104Y-88603666D01*
X186119104Y-88177914D02*
X186119104Y-88100504D01*
X186080400Y-88023095D01*
X186041695Y-87984390D01*
X185964285Y-87945685D01*
X185809466Y-87906980D01*
X185615942Y-87906980D01*
X185461123Y-87945685D01*
X185383714Y-87984390D01*
X185345009Y-88023095D01*
X185306304Y-88100504D01*
X185306304Y-88177914D01*
X185345009Y-88255323D01*
X185383714Y-88294028D01*
X185461123Y-88332733D01*
X185615942Y-88371438D01*
X185809466Y-88371438D01*
X185964285Y-88332733D01*
X186041695Y-88294028D01*
X186080400Y-88255323D01*
X186119104Y-88177914D01*
X185383714Y-87558638D02*
X185345009Y-87519933D01*
X185306304Y-87558638D01*
X185345009Y-87597342D01*
X185383714Y-87558638D01*
X185306304Y-87558638D01*
X185306304Y-86745838D02*
X185306304Y-87210295D01*
X185306304Y-86978066D02*
X186119104Y-86978066D01*
X186002990Y-87055476D01*
X185925580Y-87132885D01*
X185886876Y-87210295D01*
D11*
X152390000Y-111447000D02*
G75*
G03X152390000Y-111547000I0J-50000D01*
G01*
X152390000Y-111547000D02*
G75*
G03X152390000Y-111447000I0J50000D01*
G01*
X152390000Y-111447000D02*
G75*
G03X152390000Y-111547000I0J-50000D01*
G01*
X152390000Y-111547000D02*
X152390000Y-111547000D01*
X152390000Y-111447000D02*
X152390000Y-111447000D01*
X152390000Y-111547000D02*
X152390000Y-111547000D01*
D12*
X162540000Y-116677000D02*
X153140000Y-116677000D01*
X162540000Y-116677000D02*
X162540000Y-116677000D01*
X153140000Y-116677000D02*
X162540000Y-116677000D01*
X153140000Y-116677000D02*
X153140000Y-116677000D01*
X153140000Y-114347000D02*
X153140000Y-114347000D01*
X153140000Y-116677000D02*
X153140000Y-114347000D01*
X153140000Y-116677000D02*
X153140000Y-116677000D01*
X153140000Y-114347000D02*
X153140000Y-116677000D01*
X153140000Y-102017000D02*
X153140000Y-102017000D01*
X153140000Y-105097000D02*
X153140000Y-102017000D01*
X153140000Y-105097000D02*
X153140000Y-105097000D01*
X153140000Y-102017000D02*
X153140000Y-105097000D01*
X153140000Y-102017000D02*
X162540000Y-102017000D01*
X153140000Y-102017000D02*
X153140000Y-102017000D01*
X162540000Y-102017000D02*
X153140000Y-102017000D01*
X162540000Y-102017000D02*
X162540000Y-102017000D01*
X166040000Y-102017000D02*
X169440000Y-102017000D01*
X166040000Y-102017000D02*
X166040000Y-102017000D01*
X169440000Y-102017000D02*
X166040000Y-102017000D01*
X169440000Y-102017000D02*
X169440000Y-102017000D01*
X169440000Y-116677000D02*
X169440000Y-116677000D01*
X169440000Y-102017000D02*
X169440000Y-116677000D01*
X169440000Y-102017000D02*
X169440000Y-102017000D01*
X169440000Y-116677000D02*
X169440000Y-102017000D01*
X166040000Y-116677000D02*
X169440000Y-116677000D01*
X166040000Y-116677000D02*
X166040000Y-116677000D01*
X169440000Y-116677000D02*
X166040000Y-116677000D01*
X169440000Y-116677000D02*
X169440000Y-116677000D01*
D13*
X114808000Y-125095000D02*
X114299000Y-125095000D01*
X116808000Y-125095000D02*
G75*
G03X116808000Y-125095000I-1000000J0D01*
G01*
X114284000Y-125095000D02*
G75*
G03X114284000Y-125095000I-1000000J0D01*
G01*
X113792000Y-125095000D02*
X112776000Y-125095000D01*
X116332000Y-125095000D02*
X115316000Y-125095000D01*
X115824000Y-124587000D02*
X115824000Y-125603000D01*
G36*
X190144803Y-105698570D02*
G01*
X190057720Y-105699189D01*
X189598760Y-106150914D01*
X189139799Y-106602639D01*
X188929180Y-106602968D01*
X188718562Y-106603297D01*
X188718562Y-106878390D01*
X188665121Y-106885478D01*
X188640763Y-106888162D01*
X188594892Y-106892687D01*
X188530246Y-106898809D01*
X188449560Y-106906288D01*
X188355570Y-106914881D01*
X188251014Y-106924346D01*
X188138626Y-106934442D01*
X188021144Y-106944926D01*
X187901303Y-106955556D01*
X187781840Y-106966091D01*
X187665492Y-106976287D01*
X187554994Y-106985905D01*
X187453082Y-106994700D01*
X187362493Y-107002432D01*
X187285964Y-107008858D01*
X187226230Y-107013737D01*
X187186027Y-107016825D01*
X187168092Y-107017883D01*
X187168007Y-107017882D01*
X187153616Y-107010173D01*
X187123903Y-106987019D01*
X187078520Y-106948105D01*
X187017122Y-106893116D01*
X186939363Y-106821736D01*
X186844897Y-106733651D01*
X186733379Y-106628546D01*
X186604463Y-106506105D01*
X186568364Y-106471690D01*
X185996235Y-105925863D01*
X185908215Y-106014119D01*
X185985893Y-106085515D01*
X186013965Y-106111634D01*
X186057377Y-106152434D01*
X186113285Y-106205223D01*
X186178843Y-106267309D01*
X186251210Y-106336000D01*
X186327539Y-106408604D01*
X186373127Y-106452040D01*
X186458532Y-106533584D01*
X186526941Y-106599496D01*
X186579598Y-106651456D01*
X186617746Y-106691145D01*
X186642631Y-106720243D01*
X186655495Y-106740431D01*
X186657583Y-106753390D01*
X186650138Y-106760800D01*
X186634405Y-106764342D01*
X186611628Y-106765697D01*
X186605412Y-106765879D01*
X186562590Y-106775297D01*
X186510832Y-106798503D01*
X186458323Y-106830864D01*
X186413248Y-106867748D01*
X186399323Y-106882507D01*
X186350604Y-106958233D01*
X186323345Y-107046692D01*
X186316878Y-107124900D01*
X186329075Y-107213532D01*
X186364838Y-107295388D01*
X186422929Y-107367836D01*
X186437389Y-107381203D01*
X186492918Y-107430082D01*
X186492918Y-108275674D01*
X186316878Y-108275674D01*
X186316878Y-108502010D01*
X186399120Y-108502010D01*
X186455265Y-108504850D01*
X186494235Y-108514393D01*
X186515432Y-108525991D01*
X186530599Y-108534277D01*
X186552589Y-108541373D01*
X186584664Y-108547748D01*
X186630082Y-108553872D01*
X186692103Y-108560216D01*
X186773989Y-108567250D01*
X186834905Y-108572066D01*
X187120308Y-108594161D01*
X186570846Y-109136565D01*
X186471423Y-109234637D01*
X186375836Y-109328784D01*
X186285841Y-109417285D01*
X186203194Y-109498420D01*
X186129650Y-109570469D01*
X186066967Y-109631712D01*
X186016899Y-109680427D01*
X185981203Y-109714896D01*
X185961656Y-109733379D01*
X185930707Y-109763743D01*
X185909121Y-109789071D01*
X185901928Y-109802695D01*
X185910354Y-109820095D01*
X185931406Y-109845460D01*
X185939980Y-109854058D01*
X185978031Y-109890514D01*
X186181993Y-109689802D01*
X186233952Y-109638596D01*
X186300831Y-109572569D01*
X186379701Y-109494618D01*
X186467637Y-109407638D01*
X186561710Y-109314526D01*
X186658993Y-109218179D01*
X186756558Y-109121492D01*
X186826506Y-109052134D01*
X186933101Y-108946703D01*
X187023344Y-108858129D01*
X187098459Y-108785281D01*
X187159665Y-108727023D01*
X187208185Y-108682225D01*
X187233522Y-108660021D01*
X187233522Y-108481724D01*
X186948096Y-108459401D01*
X186864432Y-108452669D01*
X186787924Y-108446157D01*
X186722570Y-108440234D01*
X186672370Y-108435268D01*
X186641322Y-108431629D01*
X186634378Y-108430458D01*
X186606086Y-108423838D01*
X186606086Y-107474364D01*
X186685045Y-107468026D01*
X186778336Y-107448890D01*
X186860860Y-107408846D01*
X186929613Y-107350418D01*
X186981588Y-107276129D01*
X187012788Y-107192748D01*
X187027423Y-107165698D01*
X187058832Y-107152156D01*
X187060217Y-107151872D01*
X187073477Y-107150247D01*
X187087056Y-107152256D01*
X187103470Y-107159858D01*
X187125240Y-107175016D01*
X187154884Y-107199688D01*
X187194919Y-107235836D01*
X187247866Y-107285420D01*
X187316242Y-107350401D01*
X187320646Y-107354599D01*
X187394040Y-107424493D01*
X187472214Y-107498800D01*
X187549787Y-107572414D01*
X187621376Y-107640229D01*
X187681600Y-107697140D01*
X187695064Y-107709832D01*
X187745831Y-107758487D01*
X187789276Y-107801709D01*
X187822410Y-107836395D01*
X187842246Y-107859444D01*
X187846605Y-107867182D01*
X187837481Y-107878722D01*
X187812451Y-107905710D01*
X187773599Y-107946021D01*
X187723008Y-107997529D01*
X187662763Y-108058109D01*
X187594947Y-108125636D01*
X187539086Y-108180826D01*
X187233522Y-108481724D01*
X187233522Y-108660021D01*
X187245240Y-108649751D01*
X187272052Y-108628471D01*
X187289843Y-108617251D01*
X187298081Y-108614754D01*
X187316061Y-108615700D01*
X187356759Y-108618573D01*
X187417832Y-108623187D01*
X187496938Y-108629358D01*
X187591737Y-108636898D01*
X187699884Y-108645621D01*
X187819039Y-108655343D01*
X187946860Y-108665876D01*
X188049016Y-108674365D01*
X188624977Y-108722396D01*
X188624977Y-108598805D01*
X188612547Y-108598273D01*
X188577541Y-108595769D01*
X188522436Y-108591496D01*
X188449708Y-108585653D01*
X188361837Y-108578443D01*
X188261300Y-108570066D01*
X188150574Y-108560723D01*
X188045446Y-108551758D01*
X187926168Y-108541602D01*
X187813571Y-108532142D01*
X187710346Y-108523596D01*
X187619178Y-108516179D01*
X187542756Y-108510108D01*
X187483768Y-108505601D01*
X187444902Y-108502873D01*
X187429807Y-108502116D01*
X187420413Y-108500935D01*
X187416685Y-108496256D01*
X187420180Y-108486276D01*
X187432452Y-108469190D01*
X187455057Y-108443196D01*
X187489551Y-108406490D01*
X187537489Y-108357267D01*
X187600427Y-108293726D01*
X187667683Y-108226305D01*
X187943174Y-107950601D01*
X187945245Y-107952533D01*
X187945245Y-107770290D01*
X187933871Y-107761984D01*
X187907088Y-107738733D01*
X187867359Y-107702865D01*
X187817144Y-107656713D01*
X187758905Y-107602606D01*
X187695104Y-107542874D01*
X187628202Y-107479848D01*
X187560661Y-107415858D01*
X187494941Y-107353236D01*
X187433505Y-107294310D01*
X187378814Y-107241412D01*
X187333329Y-107196872D01*
X187299513Y-107163020D01*
X187279825Y-107142188D01*
X187275814Y-107136506D01*
X187288760Y-107134634D01*
X187324517Y-107130746D01*
X187380847Y-107125057D01*
X187455511Y-107117781D01*
X187546271Y-107109131D01*
X187650889Y-107099322D01*
X187767125Y-107088566D01*
X187892743Y-107077079D01*
X187994033Y-107067907D01*
X188125372Y-107056174D01*
X188249099Y-107045335D01*
X188362970Y-107035570D01*
X188464740Y-107027063D01*
X188552164Y-107019995D01*
X188622998Y-107014549D01*
X188674998Y-107010908D01*
X188705919Y-107009253D01*
X188713948Y-107009442D01*
X188706797Y-107019334D01*
X188683810Y-107044524D01*
X188647212Y-107082810D01*
X188599229Y-107131989D01*
X188542085Y-107189861D01*
X188478004Y-107254222D01*
X188409213Y-107322871D01*
X188337935Y-107393605D01*
X188266396Y-107464222D01*
X188196821Y-107532520D01*
X188131434Y-107596296D01*
X188072460Y-107653350D01*
X188022124Y-107701478D01*
X187982652Y-107738478D01*
X187956268Y-107762148D01*
X187945245Y-107770290D01*
X187945245Y-107952533D01*
X188053356Y-108053409D01*
X188109274Y-108105768D01*
X188171703Y-108164535D01*
X188238208Y-108227385D01*
X188306353Y-108291995D01*
X188373703Y-108356042D01*
X188437823Y-108417203D01*
X188496279Y-108473153D01*
X188546633Y-108521570D01*
X188586453Y-108560130D01*
X188613301Y-108586509D01*
X188624743Y-108598384D01*
X188624977Y-108598805D01*
X188624977Y-108722396D01*
X188768925Y-108734401D01*
X189400493Y-109334938D01*
X190032062Y-109935475D01*
X190120336Y-109935034D01*
X190208611Y-109934592D01*
X190104985Y-109837583D01*
X190047188Y-109783291D01*
X189979283Y-109719192D01*
X189903079Y-109647016D01*
X189820382Y-109568492D01*
X189732998Y-109485349D01*
X189642736Y-109399319D01*
X189551401Y-109312130D01*
X189460802Y-109225513D01*
X189372744Y-109141197D01*
X189289036Y-109060912D01*
X189211484Y-108986387D01*
X189141894Y-108919354D01*
X189082075Y-108861541D01*
X189033833Y-108814679D01*
X188998975Y-108780496D01*
X188979308Y-108760724D01*
X188975535Y-108756390D01*
X188988659Y-108756092D01*
X189022262Y-108757731D01*
X189071771Y-108761023D01*
X189132614Y-108765682D01*
X189156919Y-108767682D01*
X189334700Y-108782577D01*
X189334700Y-108665955D01*
X189306408Y-108659934D01*
X189284033Y-108656863D01*
X189241934Y-108652548D01*
X189185473Y-108647488D01*
X189120016Y-108642181D01*
X189095789Y-108640344D01*
X189026230Y-108634927D01*
X188961633Y-108629459D01*
X188908103Y-108624488D01*
X188871741Y-108620561D01*
X188865142Y-108619675D01*
X188851595Y-108616334D01*
X188835737Y-108609101D01*
X188815790Y-108596440D01*
X188789978Y-108576811D01*
X188756522Y-108548678D01*
X188713644Y-108510502D01*
X188659568Y-108460746D01*
X188592515Y-108397871D01*
X188510708Y-108320341D01*
X188427701Y-108241251D01*
X188345557Y-108162564D01*
X188269482Y-108089112D01*
X188201326Y-108022724D01*
X188142939Y-107965227D01*
X188096170Y-107918451D01*
X188062869Y-107884224D01*
X188044884Y-107864373D01*
X188042209Y-107860140D01*
X188051910Y-107849003D01*
X188077210Y-107822971D01*
X188115569Y-107784570D01*
X188164451Y-107736328D01*
X188221317Y-107680770D01*
X188262745Y-107640592D01*
X188479651Y-107430831D01*
X188479651Y-108049337D01*
X188718562Y-108049337D01*
X188718562Y-107294881D01*
X188612109Y-107294881D01*
X188749997Y-107156565D01*
X188847811Y-107058447D01*
X188847811Y-106867357D01*
X188832381Y-106865529D01*
X188823784Y-106856277D01*
X188820038Y-106833950D01*
X188819162Y-106792895D01*
X188819156Y-106785624D01*
X188819156Y-106703891D01*
X189038479Y-106703891D01*
X188957472Y-106785624D01*
X188908223Y-106831730D01*
X188870492Y-106859306D01*
X188847811Y-106867357D01*
X188847811Y-107058447D01*
X188887885Y-107018248D01*
X189010699Y-107018248D01*
X189067201Y-107017863D01*
X189103146Y-107016100D01*
X189123121Y-107012050D01*
X189131714Y-107004801D01*
X189133512Y-106993870D01*
X189136153Y-106981712D01*
X189146739Y-106972727D01*
X189169270Y-106965826D01*
X189207742Y-106959924D01*
X189266153Y-106953935D01*
X189287547Y-106952013D01*
X189334700Y-106947852D01*
X189334700Y-108665955D01*
X189334700Y-108782577D01*
X189334700Y-108942109D01*
X189447869Y-108942109D01*
X189447869Y-108874314D01*
X189448955Y-108834662D01*
X189454197Y-108813116D01*
X189457317Y-108810480D01*
X189457317Y-108671616D01*
X189450189Y-108664308D01*
X189447989Y-108638993D01*
X189447869Y-108621908D01*
X189447869Y-108564881D01*
X189447869Y-108352221D01*
X189447869Y-106937698D01*
X189496865Y-106985542D01*
X189557327Y-107059850D01*
X189603960Y-107151816D01*
X189637402Y-107262998D01*
X189655898Y-107373471D01*
X189664529Y-107445773D01*
X189573611Y-107445773D01*
X189573611Y-108024188D01*
X189676758Y-108024188D01*
X189668155Y-108109065D01*
X189660895Y-108168368D01*
X189651272Y-108231551D01*
X189644399Y-108269386D01*
X189629244Y-108344832D01*
X189538556Y-108348526D01*
X189447869Y-108352221D01*
X189447869Y-108564881D01*
X189498166Y-108564881D01*
X189529675Y-108566544D01*
X189547188Y-108570697D01*
X189548463Y-108572371D01*
X189540397Y-108590987D01*
X189520831Y-108618183D01*
X189496707Y-108645448D01*
X189474969Y-108664267D01*
X189472143Y-108665943D01*
X189457317Y-108671616D01*
X189457317Y-108810480D01*
X189466570Y-108802662D01*
X189480047Y-108798442D01*
X189515024Y-108781219D01*
X189557072Y-108748138D01*
X189600295Y-108704893D01*
X189638797Y-108657174D01*
X189658850Y-108625830D01*
X189680800Y-108590123D01*
X189699240Y-108571819D01*
X189720983Y-108565388D01*
X189733933Y-108564894D01*
X189737076Y-108564894D01*
X189737076Y-107923594D01*
X189674205Y-107923594D01*
X189674205Y-107546367D01*
X189737076Y-107546367D01*
X189737076Y-107923594D01*
X189737076Y-108564894D01*
X189774799Y-108564881D01*
X189774799Y-108459048D01*
X189773622Y-108410355D01*
X189770486Y-108372405D01*
X189765980Y-108351308D01*
X189764156Y-108349023D01*
X189761356Y-108335641D01*
X189762503Y-108303074D01*
X189767258Y-108256916D01*
X189771648Y-108225376D01*
X189780273Y-108168188D01*
X189788060Y-108115886D01*
X189793804Y-108076582D01*
X189795436Y-108065055D01*
X189804763Y-108034937D01*
X189819379Y-108024188D01*
X189825331Y-108020920D01*
X189829873Y-108009230D01*
X189833181Y-107986288D01*
X189835436Y-107949265D01*
X189836817Y-107895332D01*
X189837501Y-107821660D01*
X189837671Y-107734980D01*
X189837574Y-107642471D01*
X189837121Y-107572094D01*
X189836061Y-107520836D01*
X189834148Y-107485680D01*
X189831132Y-107463611D01*
X189826766Y-107451615D01*
X189820802Y-107446676D01*
X189813867Y-107445773D01*
X189791856Y-107438079D01*
X189779330Y-107412879D01*
X189774863Y-107366991D01*
X189774799Y-107358736D01*
X189766783Y-107281027D01*
X189744715Y-107192767D01*
X189711567Y-107101915D01*
X189670312Y-107016430D01*
X189623920Y-106944274D01*
X189616569Y-106934928D01*
X189592653Y-106904467D01*
X189583075Y-106886428D01*
X189586171Y-106873831D01*
X189598947Y-106860900D01*
X189623973Y-106822707D01*
X189633580Y-106773002D01*
X189628584Y-106719476D01*
X189609800Y-106669822D01*
X189578045Y-106631733D01*
X189574354Y-106628975D01*
X189515076Y-106600474D01*
X189453717Y-106595172D01*
X189395224Y-106612482D01*
X189344547Y-106651820D01*
X189340362Y-106656630D01*
X189320484Y-106684560D01*
X189311730Y-106712898D01*
X189311098Y-106752737D01*
X189311659Y-106762689D01*
X189313089Y-106801668D01*
X189309812Y-106821746D01*
X189299923Y-106829015D01*
X189290690Y-106829760D01*
X189263907Y-106831284D01*
X189223626Y-106835065D01*
X189199527Y-106837782D01*
X189161250Y-106841723D01*
X189141655Y-106840084D01*
X189134493Y-106830579D01*
X189133512Y-106813649D01*
X189136750Y-106803608D01*
X189147231Y-106787410D01*
X189166103Y-106763855D01*
X189194516Y-106731743D01*
X189233616Y-106689872D01*
X189284554Y-106637043D01*
X189348478Y-106572055D01*
X189426537Y-106493709D01*
X189519879Y-106400803D01*
X189629653Y-106292137D01*
X189682699Y-106239769D01*
X190231884Y-105697951D01*
X190144803Y-105698570D01*
X190144803Y-105698570D01*
G37*
X190144803Y-105698570D02*
X190057720Y-105699189D01*
X189598760Y-106150914D01*
X189139799Y-106602639D01*
X188929180Y-106602968D01*
X188718562Y-106603297D01*
X188718562Y-106878390D01*
X188665121Y-106885478D01*
X188640763Y-106888162D01*
X188594892Y-106892687D01*
X188530246Y-106898809D01*
X188449560Y-106906288D01*
X188355570Y-106914881D01*
X188251014Y-106924346D01*
X188138626Y-106934442D01*
X188021144Y-106944926D01*
X187901303Y-106955556D01*
X187781840Y-106966091D01*
X187665492Y-106976287D01*
X187554994Y-106985905D01*
X187453082Y-106994700D01*
X187362493Y-107002432D01*
X187285964Y-107008858D01*
X187226230Y-107013737D01*
X187186027Y-107016825D01*
X187168092Y-107017883D01*
X187168007Y-107017882D01*
X187153616Y-107010173D01*
X187123903Y-106987019D01*
X187078520Y-106948105D01*
X187017122Y-106893116D01*
X186939363Y-106821736D01*
X186844897Y-106733651D01*
X186733379Y-106628546D01*
X186604463Y-106506105D01*
X186568364Y-106471690D01*
X185996235Y-105925863D01*
X185908215Y-106014119D01*
X185985893Y-106085515D01*
X186013965Y-106111634D01*
X186057377Y-106152434D01*
X186113285Y-106205223D01*
X186178843Y-106267309D01*
X186251210Y-106336000D01*
X186327539Y-106408604D01*
X186373127Y-106452040D01*
X186458532Y-106533584D01*
X186526941Y-106599496D01*
X186579598Y-106651456D01*
X186617746Y-106691145D01*
X186642631Y-106720243D01*
X186655495Y-106740431D01*
X186657583Y-106753390D01*
X186650138Y-106760800D01*
X186634405Y-106764342D01*
X186611628Y-106765697D01*
X186605412Y-106765879D01*
X186562590Y-106775297D01*
X186510832Y-106798503D01*
X186458323Y-106830864D01*
X186413248Y-106867748D01*
X186399323Y-106882507D01*
X186350604Y-106958233D01*
X186323345Y-107046692D01*
X186316878Y-107124900D01*
X186329075Y-107213532D01*
X186364838Y-107295388D01*
X186422929Y-107367836D01*
X186437389Y-107381203D01*
X186492918Y-107430082D01*
X186492918Y-108275674D01*
X186316878Y-108275674D01*
X186316878Y-108502010D01*
X186399120Y-108502010D01*
X186455265Y-108504850D01*
X186494235Y-108514393D01*
X186515432Y-108525991D01*
X186530599Y-108534277D01*
X186552589Y-108541373D01*
X186584664Y-108547748D01*
X186630082Y-108553872D01*
X186692103Y-108560216D01*
X186773989Y-108567250D01*
X186834905Y-108572066D01*
X187120308Y-108594161D01*
X186570846Y-109136565D01*
X186471423Y-109234637D01*
X186375836Y-109328784D01*
X186285841Y-109417285D01*
X186203194Y-109498420D01*
X186129650Y-109570469D01*
X186066967Y-109631712D01*
X186016899Y-109680427D01*
X185981203Y-109714896D01*
X185961656Y-109733379D01*
X185930707Y-109763743D01*
X185909121Y-109789071D01*
X185901928Y-109802695D01*
X185910354Y-109820095D01*
X185931406Y-109845460D01*
X185939980Y-109854058D01*
X185978031Y-109890514D01*
X186181993Y-109689802D01*
X186233952Y-109638596D01*
X186300831Y-109572569D01*
X186379701Y-109494618D01*
X186467637Y-109407638D01*
X186561710Y-109314526D01*
X186658993Y-109218179D01*
X186756558Y-109121492D01*
X186826506Y-109052134D01*
X186933101Y-108946703D01*
X187023344Y-108858129D01*
X187098459Y-108785281D01*
X187159665Y-108727023D01*
X187208185Y-108682225D01*
X187233522Y-108660021D01*
X187233522Y-108481724D01*
X186948096Y-108459401D01*
X186864432Y-108452669D01*
X186787924Y-108446157D01*
X186722570Y-108440234D01*
X186672370Y-108435268D01*
X186641322Y-108431629D01*
X186634378Y-108430458D01*
X186606086Y-108423838D01*
X186606086Y-107474364D01*
X186685045Y-107468026D01*
X186778336Y-107448890D01*
X186860860Y-107408846D01*
X186929613Y-107350418D01*
X186981588Y-107276129D01*
X187012788Y-107192748D01*
X187027423Y-107165698D01*
X187058832Y-107152156D01*
X187060217Y-107151872D01*
X187073477Y-107150247D01*
X187087056Y-107152256D01*
X187103470Y-107159858D01*
X187125240Y-107175016D01*
X187154884Y-107199688D01*
X187194919Y-107235836D01*
X187247866Y-107285420D01*
X187316242Y-107350401D01*
X187320646Y-107354599D01*
X187394040Y-107424493D01*
X187472214Y-107498800D01*
X187549787Y-107572414D01*
X187621376Y-107640229D01*
X187681600Y-107697140D01*
X187695064Y-107709832D01*
X187745831Y-107758487D01*
X187789276Y-107801709D01*
X187822410Y-107836395D01*
X187842246Y-107859444D01*
X187846605Y-107867182D01*
X187837481Y-107878722D01*
X187812451Y-107905710D01*
X187773599Y-107946021D01*
X187723008Y-107997529D01*
X187662763Y-108058109D01*
X187594947Y-108125636D01*
X187539086Y-108180826D01*
X187233522Y-108481724D01*
X187233522Y-108660021D01*
X187245240Y-108649751D01*
X187272052Y-108628471D01*
X187289843Y-108617251D01*
X187298081Y-108614754D01*
X187316061Y-108615700D01*
X187356759Y-108618573D01*
X187417832Y-108623187D01*
X187496938Y-108629358D01*
X187591737Y-108636898D01*
X187699884Y-108645621D01*
X187819039Y-108655343D01*
X187946860Y-108665876D01*
X188049016Y-108674365D01*
X188624977Y-108722396D01*
X188624977Y-108598805D01*
X188612547Y-108598273D01*
X188577541Y-108595769D01*
X188522436Y-108591496D01*
X188449708Y-108585653D01*
X188361837Y-108578443D01*
X188261300Y-108570066D01*
X188150574Y-108560723D01*
X188045446Y-108551758D01*
X187926168Y-108541602D01*
X187813571Y-108532142D01*
X187710346Y-108523596D01*
X187619178Y-108516179D01*
X187542756Y-108510108D01*
X187483768Y-108505601D01*
X187444902Y-108502873D01*
X187429807Y-108502116D01*
X187420413Y-108500935D01*
X187416685Y-108496256D01*
X187420180Y-108486276D01*
X187432452Y-108469190D01*
X187455057Y-108443196D01*
X187489551Y-108406490D01*
X187537489Y-108357267D01*
X187600427Y-108293726D01*
X187667683Y-108226305D01*
X187943174Y-107950601D01*
X187945245Y-107952533D01*
X187945245Y-107770290D01*
X187933871Y-107761984D01*
X187907088Y-107738733D01*
X187867359Y-107702865D01*
X187817144Y-107656713D01*
X187758905Y-107602606D01*
X187695104Y-107542874D01*
X187628202Y-107479848D01*
X187560661Y-107415858D01*
X187494941Y-107353236D01*
X187433505Y-107294310D01*
X187378814Y-107241412D01*
X187333329Y-107196872D01*
X187299513Y-107163020D01*
X187279825Y-107142188D01*
X187275814Y-107136506D01*
X187288760Y-107134634D01*
X187324517Y-107130746D01*
X187380847Y-107125057D01*
X187455511Y-107117781D01*
X187546271Y-107109131D01*
X187650889Y-107099322D01*
X187767125Y-107088566D01*
X187892743Y-107077079D01*
X187994033Y-107067907D01*
X188125372Y-107056174D01*
X188249099Y-107045335D01*
X188362970Y-107035570D01*
X188464740Y-107027063D01*
X188552164Y-107019995D01*
X188622998Y-107014549D01*
X188674998Y-107010908D01*
X188705919Y-107009253D01*
X188713948Y-107009442D01*
X188706797Y-107019334D01*
X188683810Y-107044524D01*
X188647212Y-107082810D01*
X188599229Y-107131989D01*
X188542085Y-107189861D01*
X188478004Y-107254222D01*
X188409213Y-107322871D01*
X188337935Y-107393605D01*
X188266396Y-107464222D01*
X188196821Y-107532520D01*
X188131434Y-107596296D01*
X188072460Y-107653350D01*
X188022124Y-107701478D01*
X187982652Y-107738478D01*
X187956268Y-107762148D01*
X187945245Y-107770290D01*
X187945245Y-107952533D01*
X188053356Y-108053409D01*
X188109274Y-108105768D01*
X188171703Y-108164535D01*
X188238208Y-108227385D01*
X188306353Y-108291995D01*
X188373703Y-108356042D01*
X188437823Y-108417203D01*
X188496279Y-108473153D01*
X188546633Y-108521570D01*
X188586453Y-108560130D01*
X188613301Y-108586509D01*
X188624743Y-108598384D01*
X188624977Y-108598805D01*
X188624977Y-108722396D01*
X188768925Y-108734401D01*
X189400493Y-109334938D01*
X190032062Y-109935475D01*
X190120336Y-109935034D01*
X190208611Y-109934592D01*
X190104985Y-109837583D01*
X190047188Y-109783291D01*
X189979283Y-109719192D01*
X189903079Y-109647016D01*
X189820382Y-109568492D01*
X189732998Y-109485349D01*
X189642736Y-109399319D01*
X189551401Y-109312130D01*
X189460802Y-109225513D01*
X189372744Y-109141197D01*
X189289036Y-109060912D01*
X189211484Y-108986387D01*
X189141894Y-108919354D01*
X189082075Y-108861541D01*
X189033833Y-108814679D01*
X188998975Y-108780496D01*
X188979308Y-108760724D01*
X188975535Y-108756390D01*
X188988659Y-108756092D01*
X189022262Y-108757731D01*
X189071771Y-108761023D01*
X189132614Y-108765682D01*
X189156919Y-108767682D01*
X189334700Y-108782577D01*
X189334700Y-108665955D01*
X189306408Y-108659934D01*
X189284033Y-108656863D01*
X189241934Y-108652548D01*
X189185473Y-108647488D01*
X189120016Y-108642181D01*
X189095789Y-108640344D01*
X189026230Y-108634927D01*
X188961633Y-108629459D01*
X188908103Y-108624488D01*
X188871741Y-108620561D01*
X188865142Y-108619675D01*
X188851595Y-108616334D01*
X188835737Y-108609101D01*
X188815790Y-108596440D01*
X188789978Y-108576811D01*
X188756522Y-108548678D01*
X188713644Y-108510502D01*
X188659568Y-108460746D01*
X188592515Y-108397871D01*
X188510708Y-108320341D01*
X188427701Y-108241251D01*
X188345557Y-108162564D01*
X188269482Y-108089112D01*
X188201326Y-108022724D01*
X188142939Y-107965227D01*
X188096170Y-107918451D01*
X188062869Y-107884224D01*
X188044884Y-107864373D01*
X188042209Y-107860140D01*
X188051910Y-107849003D01*
X188077210Y-107822971D01*
X188115569Y-107784570D01*
X188164451Y-107736328D01*
X188221317Y-107680770D01*
X188262745Y-107640592D01*
X188479651Y-107430831D01*
X188479651Y-108049337D01*
X188718562Y-108049337D01*
X188718562Y-107294881D01*
X188612109Y-107294881D01*
X188749997Y-107156565D01*
X188847811Y-107058447D01*
X188847811Y-106867357D01*
X188832381Y-106865529D01*
X188823784Y-106856277D01*
X188820038Y-106833950D01*
X188819162Y-106792895D01*
X188819156Y-106785624D01*
X188819156Y-106703891D01*
X189038479Y-106703891D01*
X188957472Y-106785624D01*
X188908223Y-106831730D01*
X188870492Y-106859306D01*
X188847811Y-106867357D01*
X188847811Y-107058447D01*
X188887885Y-107018248D01*
X189010699Y-107018248D01*
X189067201Y-107017863D01*
X189103146Y-107016100D01*
X189123121Y-107012050D01*
X189131714Y-107004801D01*
X189133512Y-106993870D01*
X189136153Y-106981712D01*
X189146739Y-106972727D01*
X189169270Y-106965826D01*
X189207742Y-106959924D01*
X189266153Y-106953935D01*
X189287547Y-106952013D01*
X189334700Y-106947852D01*
X189334700Y-108665955D01*
X189334700Y-108782577D01*
X189334700Y-108942109D01*
X189447869Y-108942109D01*
X189447869Y-108874314D01*
X189448955Y-108834662D01*
X189454197Y-108813116D01*
X189457317Y-108810480D01*
X189457317Y-108671616D01*
X189450189Y-108664308D01*
X189447989Y-108638993D01*
X189447869Y-108621908D01*
X189447869Y-108564881D01*
X189447869Y-108352221D01*
X189447869Y-106937698D01*
X189496865Y-106985542D01*
X189557327Y-107059850D01*
X189603960Y-107151816D01*
X189637402Y-107262998D01*
X189655898Y-107373471D01*
X189664529Y-107445773D01*
X189573611Y-107445773D01*
X189573611Y-108024188D01*
X189676758Y-108024188D01*
X189668155Y-108109065D01*
X189660895Y-108168368D01*
X189651272Y-108231551D01*
X189644399Y-108269386D01*
X189629244Y-108344832D01*
X189538556Y-108348526D01*
X189447869Y-108352221D01*
X189447869Y-108564881D01*
X189498166Y-108564881D01*
X189529675Y-108566544D01*
X189547188Y-108570697D01*
X189548463Y-108572371D01*
X189540397Y-108590987D01*
X189520831Y-108618183D01*
X189496707Y-108645448D01*
X189474969Y-108664267D01*
X189472143Y-108665943D01*
X189457317Y-108671616D01*
X189457317Y-108810480D01*
X189466570Y-108802662D01*
X189480047Y-108798442D01*
X189515024Y-108781219D01*
X189557072Y-108748138D01*
X189600295Y-108704893D01*
X189638797Y-108657174D01*
X189658850Y-108625830D01*
X189680800Y-108590123D01*
X189699240Y-108571819D01*
X189720983Y-108565388D01*
X189733933Y-108564894D01*
X189737076Y-108564894D01*
X189737076Y-107923594D01*
X189674205Y-107923594D01*
X189674205Y-107546367D01*
X189737076Y-107546367D01*
X189737076Y-107923594D01*
X189737076Y-108564894D01*
X189774799Y-108564881D01*
X189774799Y-108459048D01*
X189773622Y-108410355D01*
X189770486Y-108372405D01*
X189765980Y-108351308D01*
X189764156Y-108349023D01*
X189761356Y-108335641D01*
X189762503Y-108303074D01*
X189767258Y-108256916D01*
X189771648Y-108225376D01*
X189780273Y-108168188D01*
X189788060Y-108115886D01*
X189793804Y-108076582D01*
X189795436Y-108065055D01*
X189804763Y-108034937D01*
X189819379Y-108024188D01*
X189825331Y-108020920D01*
X189829873Y-108009230D01*
X189833181Y-107986288D01*
X189835436Y-107949265D01*
X189836817Y-107895332D01*
X189837501Y-107821660D01*
X189837671Y-107734980D01*
X189837574Y-107642471D01*
X189837121Y-107572094D01*
X189836061Y-107520836D01*
X189834148Y-107485680D01*
X189831132Y-107463611D01*
X189826766Y-107451615D01*
X189820802Y-107446676D01*
X189813867Y-107445773D01*
X189791856Y-107438079D01*
X189779330Y-107412879D01*
X189774863Y-107366991D01*
X189774799Y-107358736D01*
X189766783Y-107281027D01*
X189744715Y-107192767D01*
X189711567Y-107101915D01*
X189670312Y-107016430D01*
X189623920Y-106944274D01*
X189616569Y-106934928D01*
X189592653Y-106904467D01*
X189583075Y-106886428D01*
X189586171Y-106873831D01*
X189598947Y-106860900D01*
X189623973Y-106822707D01*
X189633580Y-106773002D01*
X189628584Y-106719476D01*
X189609800Y-106669822D01*
X189578045Y-106631733D01*
X189574354Y-106628975D01*
X189515076Y-106600474D01*
X189453717Y-106595172D01*
X189395224Y-106612482D01*
X189344547Y-106651820D01*
X189340362Y-106656630D01*
X189320484Y-106684560D01*
X189311730Y-106712898D01*
X189311098Y-106752737D01*
X189311659Y-106762689D01*
X189313089Y-106801668D01*
X189309812Y-106821746D01*
X189299923Y-106829015D01*
X189290690Y-106829760D01*
X189263907Y-106831284D01*
X189223626Y-106835065D01*
X189199527Y-106837782D01*
X189161250Y-106841723D01*
X189141655Y-106840084D01*
X189134493Y-106830579D01*
X189133512Y-106813649D01*
X189136750Y-106803608D01*
X189147231Y-106787410D01*
X189166103Y-106763855D01*
X189194516Y-106731743D01*
X189233616Y-106689872D01*
X189284554Y-106637043D01*
X189348478Y-106572055D01*
X189426537Y-106493709D01*
X189519879Y-106400803D01*
X189629653Y-106292137D01*
X189682699Y-106239769D01*
X190231884Y-105697951D01*
X190144803Y-105698570D01*
G36*
X184191829Y-106075178D02*
G01*
X184191829Y-109595971D01*
X185059453Y-109595971D01*
X185059453Y-106075178D01*
X184191829Y-106075178D01*
X184191829Y-106075178D01*
G37*
X184191829Y-106075178D02*
X184191829Y-109595971D01*
X185059453Y-109595971D01*
X185059453Y-106075178D01*
X184191829Y-106075178D01*
X118427500Y-75882500D02*
X120840500Y-75882500D01*
X114427000Y-75882500D02*
X116713000Y-75882500D01*
X114432000Y-76031000D02*
X114427000Y-75882500D01*
X120772000Y-80886000D02*
X120837000Y-80886000D01*
X120772000Y-77356000D02*
X120837000Y-77356000D01*
X114367000Y-80886000D02*
X114432000Y-80886000D01*
X114367000Y-77356000D02*
X114432000Y-77356000D01*
X114432000Y-76031000D02*
X114432000Y-77356000D01*
X120837000Y-77356000D02*
X120837000Y-80886000D01*
X114367000Y-77356000D02*
X114367000Y-80886000D01*
X132398000Y-112545000D02*
X129098000Y-112545000D01*
X138248000Y-103645000D02*
X132398000Y-112545000D01*
X139048000Y-103645000D02*
X138248000Y-103645000D01*
X139048000Y-103645000D02*
X139048000Y-95745000D01*
X139048000Y-95745000D02*
X138248000Y-95745000D01*
X138248000Y-95745000D02*
X132398000Y-86845000D01*
X132398000Y-86845000D02*
X129098000Y-86845000D01*
X122898000Y-112545000D02*
X118698000Y-112545000D01*
X122898000Y-86845000D02*
X118698000Y-86845000D01*
X118748000Y-86845000D02*
G75*
G03X116048000Y-89545000I0J-2700000D01*
G01*
X118748000Y-112545000D02*
G75*
G02X116048000Y-109845000I0J2700000D01*
G01*
X116326249Y-109173249D02*
G75*
G03X116048000Y-109845000I671751J-671751D01*
G01*
X116326249Y-90216751D02*
G75*
G02X116048000Y-89545000I671751J671751D01*
G01*
X116359929Y-90254556D02*
G75*
G02X116268000Y-109245000I-11361929J-9440444D01*
G01*
X148681221Y-101217000D02*
X149006779Y-101217000D01*
X148681221Y-102237000D02*
X149006779Y-102237000D01*
X148681221Y-102741000D02*
X149006779Y-102741000D01*
X148681221Y-103761000D02*
X149006779Y-103761000D01*
X148681221Y-104265000D02*
X149006779Y-104265000D01*
X148681221Y-105285000D02*
X149006779Y-105285000D01*
X148681221Y-107821000D02*
X149006779Y-107821000D01*
X148681221Y-108841000D02*
X149006779Y-108841000D01*
X148681221Y-106043000D02*
X149006779Y-106043000D01*
X148681221Y-107063000D02*
X149006779Y-107063000D01*
G36*
X190438207Y-92748100D02*
G01*
X190429120Y-92703420D01*
X190422206Y-92749733D01*
X190418572Y-92876438D01*
X190418280Y-92938600D01*
X190420486Y-93091238D01*
X190426366Y-93167237D01*
X190434810Y-93155998D01*
X190438207Y-93129100D01*
X190446427Y-92938350D01*
X190438207Y-92748100D01*
X190438207Y-92748100D01*
G37*
X190438207Y-92748100D02*
X190429120Y-92703420D01*
X190422206Y-92749733D01*
X190418572Y-92876438D01*
X190418280Y-92938600D01*
X190420486Y-93091238D01*
X190426366Y-93167237D01*
X190434810Y-93155998D01*
X190438207Y-93129100D01*
X190446427Y-92938350D01*
X190438207Y-92748100D01*
G36*
X190387108Y-93534949D02*
G01*
X190373911Y-93440408D01*
X190366111Y-93436018D01*
X190359962Y-93526730D01*
X190357863Y-93573600D01*
X190343447Y-93714460D01*
X190312322Y-93919430D01*
X190270057Y-94153494D01*
X190248800Y-94259400D01*
X190197633Y-94508930D01*
X190166997Y-94668960D01*
X190155748Y-94749250D01*
X190162738Y-94759559D01*
X190186822Y-94709649D01*
X190199582Y-94678506D01*
X190243114Y-94535917D01*
X190288691Y-94332168D01*
X190331118Y-94098931D01*
X190365203Y-93867875D01*
X190385752Y-93670673D01*
X190387571Y-93538995D01*
X190387108Y-93534949D01*
X190387108Y-93534949D01*
G37*
X190387108Y-93534949D02*
X190373911Y-93440408D01*
X190366111Y-93436018D01*
X190359962Y-93526730D01*
X190357863Y-93573600D01*
X190343447Y-93714460D01*
X190312322Y-93919430D01*
X190270057Y-94153494D01*
X190248800Y-94259400D01*
X190197633Y-94508930D01*
X190166997Y-94668960D01*
X190155748Y-94749250D01*
X190162738Y-94759559D01*
X190186822Y-94709649D01*
X190199582Y-94678506D01*
X190243114Y-94535917D01*
X190288691Y-94332168D01*
X190331118Y-94098931D01*
X190365203Y-93867875D01*
X190385752Y-93670673D01*
X190387571Y-93538995D01*
X190387108Y-93534949D01*
G36*
X188825189Y-84548534D02*
G01*
X188766988Y-84560891D01*
X188733776Y-84630117D01*
X188758320Y-84697897D01*
X188801000Y-84709000D01*
X188865054Y-84672481D01*
X188867530Y-84620100D01*
X188825189Y-84548534D01*
X188825189Y-84548534D01*
G37*
X188825189Y-84548534D02*
X188766988Y-84560891D01*
X188733776Y-84630117D01*
X188758320Y-84697897D01*
X188801000Y-84709000D01*
X188865054Y-84672481D01*
X188867530Y-84620100D01*
X188825189Y-84548534D01*
G36*
X188503783Y-84595626D02*
G01*
X188438757Y-84572470D01*
X188309159Y-84560439D01*
X188097625Y-84556641D01*
X188064400Y-84556600D01*
X187841351Y-84559570D01*
X187702416Y-84570408D01*
X187630234Y-84592007D01*
X187607442Y-84627263D01*
X187607200Y-84632800D01*
X187625018Y-84669975D01*
X187690044Y-84693131D01*
X187819642Y-84705162D01*
X188031176Y-84708960D01*
X188064400Y-84709000D01*
X188287450Y-84706031D01*
X188426385Y-84695193D01*
X188498567Y-84673594D01*
X188521359Y-84638338D01*
X188521600Y-84632800D01*
X188503783Y-84595626D01*
X188503783Y-84595626D01*
G37*
X188503783Y-84595626D02*
X188438757Y-84572470D01*
X188309159Y-84560439D01*
X188097625Y-84556641D01*
X188064400Y-84556600D01*
X187841351Y-84559570D01*
X187702416Y-84570408D01*
X187630234Y-84592007D01*
X187607442Y-84627263D01*
X187607200Y-84632800D01*
X187625018Y-84669975D01*
X187690044Y-84693131D01*
X187819642Y-84705162D01*
X188031176Y-84708960D01*
X188064400Y-84709000D01*
X188287450Y-84706031D01*
X188426385Y-84695193D01*
X188498567Y-84673594D01*
X188521359Y-84638338D01*
X188521600Y-84632800D01*
X188503783Y-84595626D01*
G36*
X188512040Y-82955090D02*
G01*
X188476807Y-82886152D01*
X188457609Y-82880200D01*
X188411214Y-82925892D01*
X188394109Y-83045300D01*
X188366536Y-83171216D01*
X188297495Y-83216771D01*
X188208982Y-83180942D01*
X188122995Y-83062707D01*
X188120743Y-83058000D01*
X188037063Y-82915519D01*
X187940692Y-82847745D01*
X187799488Y-82830178D01*
X187665382Y-82867196D01*
X187608988Y-82927661D01*
X187565059Y-83078531D01*
X187563678Y-83250418D01*
X187605246Y-83386777D01*
X187648509Y-83433317D01*
X187681751Y-83385265D01*
X187685169Y-83376509D01*
X187696764Y-83275748D01*
X187684623Y-83237779D01*
X187669274Y-83137724D01*
X187712249Y-83037060D01*
X187791299Y-82982979D01*
X187805313Y-82981800D01*
X187885768Y-83021648D01*
X187982247Y-83121881D01*
X188018020Y-83172300D01*
X188144099Y-83316196D01*
X188276030Y-83381275D01*
X188395985Y-83362042D01*
X188455254Y-83307116D01*
X188501063Y-83201949D01*
X188520058Y-83072482D01*
X188512040Y-82955090D01*
X188512040Y-82955090D01*
G37*
X188512040Y-82955090D02*
X188476807Y-82886152D01*
X188457609Y-82880200D01*
X188411214Y-82925892D01*
X188394109Y-83045300D01*
X188366536Y-83171216D01*
X188297495Y-83216771D01*
X188208982Y-83180942D01*
X188122995Y-83062707D01*
X188120743Y-83058000D01*
X188037063Y-82915519D01*
X187940692Y-82847745D01*
X187799488Y-82830178D01*
X187665382Y-82867196D01*
X187608988Y-82927661D01*
X187565059Y-83078531D01*
X187563678Y-83250418D01*
X187605246Y-83386777D01*
X187648509Y-83433317D01*
X187681751Y-83385265D01*
X187685169Y-83376509D01*
X187696764Y-83275748D01*
X187684623Y-83237779D01*
X187669274Y-83137724D01*
X187712249Y-83037060D01*
X187791299Y-82982979D01*
X187805313Y-82981800D01*
X187885768Y-83021648D01*
X187982247Y-83121881D01*
X188018020Y-83172300D01*
X188144099Y-83316196D01*
X188276030Y-83381275D01*
X188395985Y-83362042D01*
X188455254Y-83307116D01*
X188501063Y-83201949D01*
X188520058Y-83072482D01*
X188512040Y-82955090D01*
G36*
X188508210Y-83657841D02*
G01*
X188467070Y-83593510D01*
X188454199Y-83591400D01*
X188407571Y-83632344D01*
X188408722Y-83740786D01*
X188399068Y-83880557D01*
X188312041Y-84008560D01*
X188300633Y-84020186D01*
X188140978Y-84123780D01*
X187976971Y-84141617D01*
X187832080Y-84083251D01*
X187729773Y-83958234D01*
X187693518Y-83776119D01*
X187693594Y-83773090D01*
X187683601Y-83643684D01*
X187645517Y-83604183D01*
X187640346Y-83605446D01*
X187595534Y-83666996D01*
X187573644Y-83789560D01*
X187576759Y-83934709D01*
X187606963Y-84064017D01*
X187614565Y-84080905D01*
X187732669Y-84215603D01*
X187903819Y-84286594D01*
X188099256Y-84290423D01*
X188290221Y-84223636D01*
X188365303Y-84171085D01*
X188468877Y-84064821D01*
X188513528Y-83948898D01*
X188521600Y-83815485D01*
X188508210Y-83657841D01*
X188508210Y-83657841D01*
G37*
X188508210Y-83657841D02*
X188467070Y-83593510D01*
X188454199Y-83591400D01*
X188407571Y-83632344D01*
X188408722Y-83740786D01*
X188399068Y-83880557D01*
X188312041Y-84008560D01*
X188300633Y-84020186D01*
X188140978Y-84123780D01*
X187976971Y-84141617D01*
X187832080Y-84083251D01*
X187729773Y-83958234D01*
X187693518Y-83776119D01*
X187693594Y-83773090D01*
X187683601Y-83643684D01*
X187645517Y-83604183D01*
X187640346Y-83605446D01*
X187595534Y-83666996D01*
X187573644Y-83789560D01*
X187576759Y-83934709D01*
X187606963Y-84064017D01*
X187614565Y-84080905D01*
X187732669Y-84215603D01*
X187903819Y-84286594D01*
X188099256Y-84290423D01*
X188290221Y-84223636D01*
X188365303Y-84171085D01*
X188468877Y-84064821D01*
X188513528Y-83948898D01*
X188521600Y-83815485D01*
X188508210Y-83657841D01*
G36*
X188481377Y-85672060D02*
G01*
X188458100Y-85659384D01*
X188420075Y-85625462D01*
X188458100Y-85568790D01*
X188512344Y-85448239D01*
X188514786Y-85291638D01*
X188468514Y-85148435D01*
X188428700Y-85097874D01*
X188332955Y-85051825D01*
X188183813Y-85021834D01*
X188009451Y-85008173D01*
X187838043Y-85011111D01*
X187697763Y-85030917D01*
X187616786Y-85067863D01*
X187607200Y-85090000D01*
X187629424Y-85132946D01*
X187708752Y-85156707D01*
X187864170Y-85165712D01*
X187933772Y-85166200D01*
X188155824Y-85177651D01*
X188294028Y-85214013D01*
X188340172Y-85246029D01*
X188417167Y-85366575D01*
X188399527Y-85471472D01*
X188293728Y-85555021D01*
X188106246Y-85611524D01*
X187899772Y-85633516D01*
X187709702Y-85647909D01*
X187611377Y-85671181D01*
X187595147Y-85705707D01*
X187596593Y-85708221D01*
X187660870Y-85739508D01*
X187792854Y-85763945D01*
X187965433Y-85780547D01*
X188151496Y-85788324D01*
X188323931Y-85786289D01*
X188455626Y-85773454D01*
X188519469Y-85748831D01*
X188521719Y-85741934D01*
X188481377Y-85672060D01*
X188481377Y-85672060D01*
G37*
X188481377Y-85672060D02*
X188458100Y-85659384D01*
X188420075Y-85625462D01*
X188458100Y-85568790D01*
X188512344Y-85448239D01*
X188514786Y-85291638D01*
X188468514Y-85148435D01*
X188428700Y-85097874D01*
X188332955Y-85051825D01*
X188183813Y-85021834D01*
X188009451Y-85008173D01*
X187838043Y-85011111D01*
X187697763Y-85030917D01*
X187616786Y-85067863D01*
X187607200Y-85090000D01*
X187629424Y-85132946D01*
X187708752Y-85156707D01*
X187864170Y-85165712D01*
X187933772Y-85166200D01*
X188155824Y-85177651D01*
X188294028Y-85214013D01*
X188340172Y-85246029D01*
X188417167Y-85366575D01*
X188399527Y-85471472D01*
X188293728Y-85555021D01*
X188106246Y-85611524D01*
X187899772Y-85633516D01*
X187709702Y-85647909D01*
X187611377Y-85671181D01*
X187595147Y-85705707D01*
X187596593Y-85708221D01*
X187660870Y-85739508D01*
X187792854Y-85763945D01*
X187965433Y-85780547D01*
X188151496Y-85788324D01*
X188323931Y-85786289D01*
X188455626Y-85773454D01*
X188519469Y-85748831D01*
X188521719Y-85741934D01*
X188481377Y-85672060D01*
G36*
X188485637Y-86276133D02*
G01*
X188374997Y-86135306D01*
X188185555Y-86056957D01*
X188102921Y-86043833D01*
X187947484Y-86034645D01*
X187843238Y-86062041D01*
X187741930Y-86141805D01*
X187711226Y-86171960D01*
X187585901Y-86352021D01*
X187561293Y-86537467D01*
X187637685Y-86722961D01*
X187679002Y-86776268D01*
X187781963Y-86870953D01*
X187902205Y-86911875D01*
X188008901Y-86917633D01*
X188008901Y-86791800D01*
X187908568Y-86757251D01*
X187792877Y-86674245D01*
X187697473Y-86573744D01*
X187658000Y-86487000D01*
X187691104Y-86416388D01*
X187771888Y-86317903D01*
X187782691Y-86306891D01*
X187930560Y-86211777D01*
X188090094Y-86188438D01*
X188238401Y-86226664D01*
X188352587Y-86316245D01*
X188409760Y-86446970D01*
X188397047Y-86580891D01*
X188321348Y-86678076D01*
X188184498Y-86755551D01*
X188026922Y-86791348D01*
X188008901Y-86791800D01*
X188008901Y-86917633D01*
X188030509Y-86918800D01*
X188258207Y-86880950D01*
X188420478Y-86772726D01*
X188508300Y-86602120D01*
X188521600Y-86483773D01*
X188485637Y-86276133D01*
X188485637Y-86276133D01*
G37*
X188485637Y-86276133D02*
X188374997Y-86135306D01*
X188185555Y-86056957D01*
X188102921Y-86043833D01*
X187947484Y-86034645D01*
X187843238Y-86062041D01*
X187741930Y-86141805D01*
X187711226Y-86171960D01*
X187585901Y-86352021D01*
X187561293Y-86537467D01*
X187637685Y-86722961D01*
X187679002Y-86776268D01*
X187781963Y-86870953D01*
X187902205Y-86911875D01*
X188008901Y-86917633D01*
X188008901Y-86791800D01*
X187908568Y-86757251D01*
X187792877Y-86674245D01*
X187697473Y-86573744D01*
X187658000Y-86487000D01*
X187691104Y-86416388D01*
X187771888Y-86317903D01*
X187782691Y-86306891D01*
X187930560Y-86211777D01*
X188090094Y-86188438D01*
X188238401Y-86226664D01*
X188352587Y-86316245D01*
X188409760Y-86446970D01*
X188397047Y-86580891D01*
X188321348Y-86678076D01*
X188184498Y-86755551D01*
X188026922Y-86791348D01*
X188008901Y-86791800D01*
X188008901Y-86917633D01*
X188030509Y-86918800D01*
X188258207Y-86880950D01*
X188420478Y-86772726D01*
X188508300Y-86602120D01*
X188521600Y-86483773D01*
X188485637Y-86276133D01*
G36*
X188483443Y-87351091D02*
G01*
X188458100Y-87335784D01*
X188420075Y-87301862D01*
X188458100Y-87245190D01*
X188515205Y-87147955D01*
X188505154Y-87071175D01*
X188445400Y-87045800D01*
X188383042Y-87087907D01*
X188369200Y-87144402D01*
X188352141Y-87228688D01*
X188289291Y-87285291D01*
X188163143Y-87322027D01*
X187956190Y-87346716D01*
X187907467Y-87350600D01*
X187714400Y-87372173D01*
X187613458Y-87401891D01*
X187594200Y-87439500D01*
X187651886Y-87473623D01*
X187779713Y-87496082D01*
X187950442Y-87507125D01*
X188136831Y-87507001D01*
X188311642Y-87495959D01*
X188447633Y-87474248D01*
X188517565Y-87442115D01*
X188521600Y-87431034D01*
X188483443Y-87351091D01*
X188483443Y-87351091D01*
G37*
X188483443Y-87351091D02*
X188458100Y-87335784D01*
X188420075Y-87301862D01*
X188458100Y-87245190D01*
X188515205Y-87147955D01*
X188505154Y-87071175D01*
X188445400Y-87045800D01*
X188383042Y-87087907D01*
X188369200Y-87144402D01*
X188352141Y-87228688D01*
X188289291Y-87285291D01*
X188163143Y-87322027D01*
X187956190Y-87346716D01*
X187907467Y-87350600D01*
X187714400Y-87372173D01*
X187613458Y-87401891D01*
X187594200Y-87439500D01*
X187651886Y-87473623D01*
X187779713Y-87496082D01*
X187950442Y-87507125D01*
X188136831Y-87507001D01*
X188311642Y-87495959D01*
X188447633Y-87474248D01*
X188517565Y-87442115D01*
X188521600Y-87431034D01*
X188483443Y-87351091D01*
G36*
X188682449Y-87974344D02*
G01*
X188623200Y-87960200D01*
X188543530Y-87930435D01*
X188521600Y-87833200D01*
X188498350Y-87736188D01*
X188454067Y-87706200D01*
X188402855Y-87748972D01*
X188390567Y-87820500D01*
X188384149Y-87883442D01*
X188344079Y-87919760D01*
X188247537Y-87938866D01*
X188076768Y-87949933D01*
X187901642Y-87955308D01*
X187800625Y-87944715D01*
X187746502Y-87909679D01*
X187712059Y-87841726D01*
X187709725Y-87835633D01*
X187647909Y-87728414D01*
X187592432Y-87718345D01*
X187559571Y-87802856D01*
X187556400Y-87859858D01*
X187580244Y-87985319D01*
X187668189Y-88055563D01*
X187686708Y-88063058D01*
X187812655Y-88091572D01*
X187989759Y-88109481D01*
X188094702Y-88112600D01*
X188276673Y-88122617D01*
X188375237Y-88155393D01*
X188401630Y-88188800D01*
X188451494Y-88256023D01*
X188476236Y-88265000D01*
X188516507Y-88223775D01*
X188521600Y-88188800D01*
X188563952Y-88126744D01*
X188623200Y-88112600D01*
X188705943Y-88080837D01*
X188724800Y-88036400D01*
X188682449Y-87974344D01*
X188682449Y-87974344D01*
G37*
X188682449Y-87974344D02*
X188623200Y-87960200D01*
X188543530Y-87930435D01*
X188521600Y-87833200D01*
X188498350Y-87736188D01*
X188454067Y-87706200D01*
X188402855Y-87748972D01*
X188390567Y-87820500D01*
X188384149Y-87883442D01*
X188344079Y-87919760D01*
X188247537Y-87938866D01*
X188076768Y-87949933D01*
X187901642Y-87955308D01*
X187800625Y-87944715D01*
X187746502Y-87909679D01*
X187712059Y-87841726D01*
X187709725Y-87835633D01*
X187647909Y-87728414D01*
X187592432Y-87718345D01*
X187559571Y-87802856D01*
X187556400Y-87859858D01*
X187580244Y-87985319D01*
X187668189Y-88055563D01*
X187686708Y-88063058D01*
X187812655Y-88091572D01*
X187989759Y-88109481D01*
X188094702Y-88112600D01*
X188276673Y-88122617D01*
X188375237Y-88155393D01*
X188401630Y-88188800D01*
X188451494Y-88256023D01*
X188476236Y-88265000D01*
X188516507Y-88223775D01*
X188521600Y-88188800D01*
X188563952Y-88126744D01*
X188623200Y-88112600D01*
X188705943Y-88080837D01*
X188724800Y-88036400D01*
X188682449Y-87974344D01*
G36*
X188507007Y-88455506D02*
G01*
X188454199Y-88417400D01*
X188407571Y-88458344D01*
X188408722Y-88566786D01*
X188399068Y-88706557D01*
X188312041Y-88834560D01*
X188300633Y-88846186D01*
X188140978Y-88949780D01*
X187976971Y-88967617D01*
X187832080Y-88909251D01*
X187729773Y-88784234D01*
X187693518Y-88602119D01*
X187693594Y-88599090D01*
X187680940Y-88470422D01*
X187644592Y-88430375D01*
X187601807Y-88474585D01*
X187569842Y-88598691D01*
X187566391Y-88631244D01*
X187582234Y-88803812D01*
X187675844Y-88956996D01*
X187676292Y-88957517D01*
X187776656Y-89051974D01*
X187890514Y-89094338D01*
X188039000Y-89103200D01*
X188203582Y-89091309D01*
X188313633Y-89043625D01*
X188398999Y-88960668D01*
X188469988Y-88841224D01*
X188513679Y-88697274D01*
X188527032Y-88558730D01*
X188507007Y-88455506D01*
X188507007Y-88455506D01*
G37*
X188507007Y-88455506D02*
X188454199Y-88417400D01*
X188407571Y-88458344D01*
X188408722Y-88566786D01*
X188399068Y-88706557D01*
X188312041Y-88834560D01*
X188300633Y-88846186D01*
X188140978Y-88949780D01*
X187976971Y-88967617D01*
X187832080Y-88909251D01*
X187729773Y-88784234D01*
X187693518Y-88602119D01*
X187693594Y-88599090D01*
X187680940Y-88470422D01*
X187644592Y-88430375D01*
X187601807Y-88474585D01*
X187569842Y-88598691D01*
X187566391Y-88631244D01*
X187582234Y-88803812D01*
X187675844Y-88956996D01*
X187676292Y-88957517D01*
X187776656Y-89051974D01*
X187890514Y-89094338D01*
X188039000Y-89103200D01*
X188203582Y-89091309D01*
X188313633Y-89043625D01*
X188398999Y-88960668D01*
X188469988Y-88841224D01*
X188513679Y-88697274D01*
X188527032Y-88558730D01*
X188507007Y-88455506D01*
G36*
X188487905Y-89507483D02*
G01*
X188380218Y-89384040D01*
X188188637Y-89310180D01*
X188178700Y-89308018D01*
X188013600Y-89272928D01*
X188013600Y-89630927D01*
X188012041Y-89816678D01*
X188002683Y-89920250D01*
X187978507Y-89961064D01*
X187932495Y-89958539D01*
X187899300Y-89947163D01*
X187768122Y-89850002D01*
X187692394Y-89693921D01*
X187688850Y-89516281D01*
X187699275Y-89414110D01*
X187665590Y-89389493D01*
X187650659Y-89393229D01*
X187602393Y-89455604D01*
X187570407Y-89585794D01*
X187566208Y-89627265D01*
X187570078Y-89788008D01*
X187622561Y-89903496D01*
X187678199Y-89966217D01*
X187802315Y-90056861D01*
X187957830Y-90091622D01*
X188029841Y-90093800D01*
X188228681Y-90064300D01*
X188228681Y-89932091D01*
X188198747Y-89925849D01*
X188147036Y-89859373D01*
X188117785Y-89736049D01*
X188114100Y-89598770D01*
X188139089Y-89490428D01*
X188164951Y-89459449D01*
X188255510Y-89454136D01*
X188350391Y-89513359D01*
X188412553Y-89608855D01*
X188420000Y-89654078D01*
X188391222Y-89792745D01*
X188319927Y-89894655D01*
X188228681Y-89932091D01*
X188228681Y-90064300D01*
X188263014Y-90059206D01*
X188425146Y-89958802D01*
X188510039Y-89797658D01*
X188521600Y-89691587D01*
X188487905Y-89507483D01*
X188487905Y-89507483D01*
G37*
X188487905Y-89507483D02*
X188380218Y-89384040D01*
X188188637Y-89310180D01*
X188178700Y-89308018D01*
X188013600Y-89272928D01*
X188013600Y-89630927D01*
X188012041Y-89816678D01*
X188002683Y-89920250D01*
X187978507Y-89961064D01*
X187932495Y-89958539D01*
X187899300Y-89947163D01*
X187768122Y-89850002D01*
X187692394Y-89693921D01*
X187688850Y-89516281D01*
X187699275Y-89414110D01*
X187665590Y-89389493D01*
X187650659Y-89393229D01*
X187602393Y-89455604D01*
X187570407Y-89585794D01*
X187566208Y-89627265D01*
X187570078Y-89788008D01*
X187622561Y-89903496D01*
X187678199Y-89966217D01*
X187802315Y-90056861D01*
X187957830Y-90091622D01*
X188029841Y-90093800D01*
X188228681Y-90064300D01*
X188228681Y-89932091D01*
X188198747Y-89925849D01*
X188147036Y-89859373D01*
X188117785Y-89736049D01*
X188114100Y-89598770D01*
X188139089Y-89490428D01*
X188164951Y-89459449D01*
X188255510Y-89454136D01*
X188350391Y-89513359D01*
X188412553Y-89608855D01*
X188420000Y-89654078D01*
X188391222Y-89792745D01*
X188319927Y-89894655D01*
X188228681Y-89932091D01*
X188228681Y-90064300D01*
X188263014Y-90059206D01*
X188425146Y-89958802D01*
X188510039Y-89797658D01*
X188521600Y-89691587D01*
X188487905Y-89507483D01*
G36*
X188964281Y-90392672D02*
G01*
X188910830Y-90371056D01*
X188803610Y-90357491D01*
X188627783Y-90350317D01*
X188368511Y-90347869D01*
X188298436Y-90347800D01*
X188014679Y-90349693D01*
X187817187Y-90356464D01*
X187690673Y-90369756D01*
X187619854Y-90391209D01*
X187589444Y-90422464D01*
X187588830Y-90424000D01*
X187589425Y-90454501D01*
X187627970Y-90475761D01*
X187718570Y-90489359D01*
X187875326Y-90496875D01*
X188112342Y-90499888D01*
X188269195Y-90500200D01*
X188555664Y-90498670D01*
X188755135Y-90493036D01*
X188882179Y-90481734D01*
X188951365Y-90463199D01*
X188977265Y-90435867D01*
X188978800Y-90424000D01*
X188964281Y-90392672D01*
X188964281Y-90392672D01*
G37*
X188964281Y-90392672D02*
X188910830Y-90371056D01*
X188803610Y-90357491D01*
X188627783Y-90350317D01*
X188368511Y-90347869D01*
X188298436Y-90347800D01*
X188014679Y-90349693D01*
X187817187Y-90356464D01*
X187690673Y-90369756D01*
X187619854Y-90391209D01*
X187589444Y-90422464D01*
X187588830Y-90424000D01*
X187589425Y-90454501D01*
X187627970Y-90475761D01*
X187718570Y-90489359D01*
X187875326Y-90496875D01*
X188112342Y-90499888D01*
X188269195Y-90500200D01*
X188555664Y-90498670D01*
X188755135Y-90493036D01*
X188882179Y-90481734D01*
X188951365Y-90463199D01*
X188977265Y-90435867D01*
X188978800Y-90424000D01*
X188964281Y-90392672D01*
G36*
X188870023Y-90962651D02*
G01*
X188851009Y-90844515D01*
X188826400Y-90805000D01*
X188797422Y-90850689D01*
X188779029Y-90967506D01*
X188775600Y-91059000D01*
X188775600Y-91313000D01*
X188318400Y-91313000D01*
X188318400Y-91059000D01*
X188309263Y-90914108D01*
X188285899Y-90822142D01*
X188267600Y-90805000D01*
X188238622Y-90850689D01*
X188220229Y-90967506D01*
X188216800Y-91059000D01*
X188216800Y-91313000D01*
X187708800Y-91313000D01*
X187708800Y-91033600D01*
X187698483Y-90850828D01*
X187666903Y-90763477D01*
X187645300Y-90754200D01*
X187608420Y-90792116D01*
X187587828Y-90912228D01*
X187581800Y-91109800D01*
X187581800Y-91465400D01*
X188877200Y-91465400D01*
X188877200Y-91135200D01*
X188870023Y-90962651D01*
X188870023Y-90962651D01*
G37*
X188870023Y-90962651D02*
X188851009Y-90844515D01*
X188826400Y-90805000D01*
X188797422Y-90850689D01*
X188779029Y-90967506D01*
X188775600Y-91059000D01*
X188775600Y-91313000D01*
X188318400Y-91313000D01*
X188318400Y-91059000D01*
X188309263Y-90914108D01*
X188285899Y-90822142D01*
X188267600Y-90805000D01*
X188238622Y-90850689D01*
X188220229Y-90967506D01*
X188216800Y-91059000D01*
X188216800Y-91313000D01*
X187708800Y-91313000D01*
X187708800Y-91033600D01*
X187698483Y-90850828D01*
X187666903Y-90763477D01*
X187645300Y-90754200D01*
X187608420Y-90792116D01*
X187587828Y-90912228D01*
X187581800Y-91109800D01*
X187581800Y-91465400D01*
X188877200Y-91465400D01*
X188877200Y-91135200D01*
X188870023Y-90962651D01*
G36*
X188483727Y-92343698D02*
G01*
X188366939Y-92215975D01*
X188175367Y-92145454D01*
X188013600Y-92113100D01*
X188013600Y-92473414D01*
X188012061Y-92659915D01*
X188002808Y-92764195D01*
X187978890Y-92805630D01*
X187933353Y-92803594D01*
X187899300Y-92791963D01*
X187770354Y-92696784D01*
X187691325Y-92547033D01*
X187684476Y-92390164D01*
X187693764Y-92276944D01*
X187669913Y-92207979D01*
X187625364Y-92206619D01*
X187601628Y-92234677D01*
X187560463Y-92374069D01*
X187565028Y-92552505D01*
X187610752Y-92720756D01*
X187653512Y-92793273D01*
X187730809Y-92865894D01*
X187832970Y-92902071D01*
X187995172Y-92913036D01*
X188029179Y-92913200D01*
X188244938Y-92891015D01*
X188244938Y-92769811D01*
X188158723Y-92756303D01*
X188131634Y-92691199D01*
X188122971Y-92564853D01*
X188125207Y-92514838D01*
X188145177Y-92376021D01*
X188186612Y-92314146D01*
X188236664Y-92303600D01*
X188348534Y-92346351D01*
X188407578Y-92456949D01*
X188402520Y-92594935D01*
X188340410Y-92711399D01*
X188244938Y-92769811D01*
X188244938Y-92891015D01*
X188267238Y-92888721D01*
X188423065Y-92811216D01*
X188504541Y-92674588D01*
X188521600Y-92532200D01*
X188483727Y-92343698D01*
X188483727Y-92343698D01*
G37*
X188483727Y-92343698D02*
X188366939Y-92215975D01*
X188175367Y-92145454D01*
X188013600Y-92113100D01*
X188013600Y-92473414D01*
X188012061Y-92659915D01*
X188002808Y-92764195D01*
X187978890Y-92805630D01*
X187933353Y-92803594D01*
X187899300Y-92791963D01*
X187770354Y-92696784D01*
X187691325Y-92547033D01*
X187684476Y-92390164D01*
X187693764Y-92276944D01*
X187669913Y-92207979D01*
X187625364Y-92206619D01*
X187601628Y-92234677D01*
X187560463Y-92374069D01*
X187565028Y-92552505D01*
X187610752Y-92720756D01*
X187653512Y-92793273D01*
X187730809Y-92865894D01*
X187832970Y-92902071D01*
X187995172Y-92913036D01*
X188029179Y-92913200D01*
X188244938Y-92891015D01*
X188244938Y-92769811D01*
X188158723Y-92756303D01*
X188131634Y-92691199D01*
X188122971Y-92564853D01*
X188125207Y-92514838D01*
X188145177Y-92376021D01*
X188186612Y-92314146D01*
X188236664Y-92303600D01*
X188348534Y-92346351D01*
X188407578Y-92456949D01*
X188402520Y-92594935D01*
X188340410Y-92711399D01*
X188244938Y-92769811D01*
X188244938Y-92891015D01*
X188267238Y-92888721D01*
X188423065Y-92811216D01*
X188504541Y-92674588D01*
X188521600Y-92532200D01*
X188483727Y-92343698D01*
G36*
X188498538Y-93364516D02*
G01*
X188474311Y-93368231D01*
X188408974Y-93363520D01*
X188398402Y-93351152D01*
X188411463Y-93296656D01*
X188445692Y-93275718D01*
X188505250Y-93215011D01*
X188519107Y-93126444D01*
X188487320Y-93055457D01*
X188445400Y-93040200D01*
X188381537Y-93081913D01*
X188369200Y-93131640D01*
X188341553Y-93240672D01*
X188249836Y-93307990D01*
X188080884Y-93340030D01*
X187932676Y-93345000D01*
X187741094Y-93352627D01*
X187632008Y-93378187D01*
X187588830Y-93421200D01*
X187589180Y-93457045D01*
X187634390Y-93479782D01*
X187740834Y-93492172D01*
X187924883Y-93496977D01*
X188040595Y-93497400D01*
X188268818Y-93494867D01*
X188413063Y-93485340D01*
X188490872Y-93465932D01*
X188519784Y-93433755D01*
X188521600Y-93418202D01*
X188498538Y-93364516D01*
X188498538Y-93364516D01*
G37*
X188498538Y-93364516D02*
X188474311Y-93368231D01*
X188408974Y-93363520D01*
X188398402Y-93351152D01*
X188411463Y-93296656D01*
X188445692Y-93275718D01*
X188505250Y-93215011D01*
X188519107Y-93126444D01*
X188487320Y-93055457D01*
X188445400Y-93040200D01*
X188381537Y-93081913D01*
X188369200Y-93131640D01*
X188341553Y-93240672D01*
X188249836Y-93307990D01*
X188080884Y-93340030D01*
X187932676Y-93345000D01*
X187741094Y-93352627D01*
X187632008Y-93378187D01*
X187588830Y-93421200D01*
X187589180Y-93457045D01*
X187634390Y-93479782D01*
X187740834Y-93492172D01*
X187924883Y-93496977D01*
X188040595Y-93497400D01*
X188268818Y-93494867D01*
X188413063Y-93485340D01*
X188490872Y-93465932D01*
X188519784Y-93433755D01*
X188521600Y-93418202D01*
X188498538Y-93364516D01*
G36*
X188479571Y-93997559D02*
G01*
X188368063Y-93850121D01*
X188208950Y-93763092D01*
X188024103Y-93744441D01*
X187835394Y-93802135D01*
X187704893Y-93899893D01*
X187583521Y-94078051D01*
X187562478Y-94264346D01*
X187642113Y-94450770D01*
X187679002Y-94497868D01*
X187781963Y-94592553D01*
X187902205Y-94633475D01*
X188030509Y-94640400D01*
X188109300Y-94627410D01*
X188109300Y-94469782D01*
X187935952Y-94452045D01*
X187784230Y-94384138D01*
X187721500Y-94323963D01*
X187665824Y-94221989D01*
X187682288Y-94130174D01*
X187768456Y-94021375D01*
X187905762Y-93928670D01*
X188059140Y-93903543D01*
X188207796Y-93934801D01*
X188330937Y-94011254D01*
X188407770Y-94121708D01*
X188417503Y-94254972D01*
X188377551Y-94349229D01*
X188268443Y-94435970D01*
X188109300Y-94469782D01*
X188109300Y-94627410D01*
X188259341Y-94602672D01*
X188421015Y-94493933D01*
X188508135Y-94320857D01*
X188521600Y-94197436D01*
X188479571Y-93997559D01*
X188479571Y-93997559D01*
G37*
X188479571Y-93997559D02*
X188368063Y-93850121D01*
X188208950Y-93763092D01*
X188024103Y-93744441D01*
X187835394Y-93802135D01*
X187704893Y-93899893D01*
X187583521Y-94078051D01*
X187562478Y-94264346D01*
X187642113Y-94450770D01*
X187679002Y-94497868D01*
X187781963Y-94592553D01*
X187902205Y-94633475D01*
X188030509Y-94640400D01*
X188109300Y-94627410D01*
X188109300Y-94469782D01*
X187935952Y-94452045D01*
X187784230Y-94384138D01*
X187721500Y-94323963D01*
X187665824Y-94221989D01*
X187682288Y-94130174D01*
X187768456Y-94021375D01*
X187905762Y-93928670D01*
X188059140Y-93903543D01*
X188207796Y-93934801D01*
X188330937Y-94011254D01*
X188407770Y-94121708D01*
X188417503Y-94254972D01*
X188377551Y-94349229D01*
X188268443Y-94435970D01*
X188109300Y-94469782D01*
X188109300Y-94627410D01*
X188259341Y-94602672D01*
X188421015Y-94493933D01*
X188508135Y-94320857D01*
X188521600Y-94197436D01*
X188479571Y-93997559D01*
G36*
X188872886Y-95013108D02*
G01*
X188849388Y-94975866D01*
X188790874Y-94949901D01*
X188681513Y-94931388D01*
X188505474Y-94916502D01*
X188246924Y-94901419D01*
X188184350Y-94898065D01*
X187929501Y-94886728D01*
X187759060Y-94885799D01*
X187656252Y-94896473D01*
X187604304Y-94919945D01*
X187590691Y-94940352D01*
X187596349Y-94977583D01*
X187657093Y-95004832D01*
X187788458Y-95026030D01*
X188004141Y-95044974D01*
X188221720Y-95061024D01*
X188413711Y-95075531D01*
X188547426Y-95086015D01*
X188572400Y-95088101D01*
X188621896Y-95101545D01*
X188589016Y-95129876D01*
X188466734Y-95177982D01*
X188420000Y-95194138D01*
X188107748Y-95302579D01*
X187881676Y-95386874D01*
X187730623Y-95451989D01*
X187643431Y-95502891D01*
X187608940Y-95544546D01*
X187607200Y-95555885D01*
X187655266Y-95604827D01*
X187793775Y-95672852D01*
X188014200Y-95756087D01*
X188143498Y-95799305D01*
X188372933Y-95874837D01*
X188516095Y-95926780D01*
X188583907Y-95961133D01*
X188587292Y-95983895D01*
X188537174Y-96001066D01*
X188518148Y-96005071D01*
X188385419Y-96021353D01*
X188192800Y-96032967D01*
X187981976Y-96037400D01*
X187981850Y-96037400D01*
X187782804Y-96041505D01*
X187666665Y-96056322D01*
X187614978Y-96085605D01*
X187607200Y-96113600D01*
X187618290Y-96150845D01*
X187660923Y-96174991D01*
X187749148Y-96186794D01*
X187897014Y-96187007D01*
X188118570Y-96176384D01*
X188412196Y-96156794D01*
X188631125Y-96139692D01*
X188767850Y-96122125D01*
X188841611Y-96097964D01*
X188871646Y-96061077D01*
X188877200Y-96008627D01*
X188866325Y-95953502D01*
X188822685Y-95905167D01*
X188729765Y-95854387D01*
X188571047Y-95791928D01*
X188356500Y-95717489D01*
X188130341Y-95639463D01*
X187989139Y-95585124D01*
X187920939Y-95547666D01*
X187913782Y-95520285D01*
X187955709Y-95496174D01*
X187962800Y-95493430D01*
X188070407Y-95453669D01*
X188240692Y-95391791D01*
X188440627Y-95319783D01*
X188483500Y-95304421D01*
X188688456Y-95225503D01*
X188811234Y-95162208D01*
X188868016Y-95104715D01*
X188877200Y-95065452D01*
X188872886Y-95013108D01*
X188872886Y-95013108D01*
G37*
X188872886Y-95013108D02*
X188849388Y-94975866D01*
X188790874Y-94949901D01*
X188681513Y-94931388D01*
X188505474Y-94916502D01*
X188246924Y-94901419D01*
X188184350Y-94898065D01*
X187929501Y-94886728D01*
X187759060Y-94885799D01*
X187656252Y-94896473D01*
X187604304Y-94919945D01*
X187590691Y-94940352D01*
X187596349Y-94977583D01*
X187657093Y-95004832D01*
X187788458Y-95026030D01*
X188004141Y-95044974D01*
X188221720Y-95061024D01*
X188413711Y-95075531D01*
X188547426Y-95086015D01*
X188572400Y-95088101D01*
X188621896Y-95101545D01*
X188589016Y-95129876D01*
X188466734Y-95177982D01*
X188420000Y-95194138D01*
X188107748Y-95302579D01*
X187881676Y-95386874D01*
X187730623Y-95451989D01*
X187643431Y-95502891D01*
X187608940Y-95544546D01*
X187607200Y-95555885D01*
X187655266Y-95604827D01*
X187793775Y-95672852D01*
X188014200Y-95756087D01*
X188143498Y-95799305D01*
X188372933Y-95874837D01*
X188516095Y-95926780D01*
X188583907Y-95961133D01*
X188587292Y-95983895D01*
X188537174Y-96001066D01*
X188518148Y-96005071D01*
X188385419Y-96021353D01*
X188192800Y-96032967D01*
X187981976Y-96037400D01*
X187981850Y-96037400D01*
X187782804Y-96041505D01*
X187666665Y-96056322D01*
X187614978Y-96085605D01*
X187607200Y-96113600D01*
X187618290Y-96150845D01*
X187660923Y-96174991D01*
X187749148Y-96186794D01*
X187897014Y-96187007D01*
X188118570Y-96176384D01*
X188412196Y-96156794D01*
X188631125Y-96139692D01*
X188767850Y-96122125D01*
X188841611Y-96097964D01*
X188871646Y-96061077D01*
X188877200Y-96008627D01*
X188866325Y-95953502D01*
X188822685Y-95905167D01*
X188729765Y-95854387D01*
X188571047Y-95791928D01*
X188356500Y-95717489D01*
X188130341Y-95639463D01*
X187989139Y-95585124D01*
X187920939Y-95547666D01*
X187913782Y-95520285D01*
X187955709Y-95496174D01*
X187962800Y-95493430D01*
X188070407Y-95453669D01*
X188240692Y-95391791D01*
X188440627Y-95319783D01*
X188483500Y-95304421D01*
X188688456Y-95225503D01*
X188811234Y-95162208D01*
X188868016Y-95104715D01*
X188877200Y-95065452D01*
X188872886Y-95013108D01*
G36*
X186926692Y-93815959D02*
G01*
X186903603Y-93831109D01*
X186900011Y-93882634D01*
X186912417Y-93936839D01*
X186930703Y-93913325D01*
X186936759Y-93833931D01*
X186926692Y-93815959D01*
X186926692Y-93815959D01*
G37*
X186926692Y-93815959D02*
X186903603Y-93831109D01*
X186900011Y-93882634D01*
X186912417Y-93936839D01*
X186930703Y-93913325D01*
X186936759Y-93833931D01*
X186926692Y-93815959D01*
G36*
X186878522Y-94042534D02*
G01*
X186861845Y-94040845D01*
X186855034Y-94120370D01*
X186855104Y-94132400D01*
X186862429Y-94211189D01*
X186877891Y-94203668D01*
X186880404Y-94194934D01*
X186887841Y-94084276D01*
X186878522Y-94042534D01*
X186878522Y-94042534D01*
G37*
X186878522Y-94042534D02*
X186861845Y-94040845D01*
X186855034Y-94120370D01*
X186855104Y-94132400D01*
X186862429Y-94211189D01*
X186877891Y-94203668D01*
X186880404Y-94194934D01*
X186887841Y-94084276D01*
X186878522Y-94042534D01*
G36*
X186829304Y-94373108D02*
G01*
X186815573Y-94361233D01*
X186807868Y-94434185D01*
X186807211Y-94488000D01*
X186812213Y-94586379D01*
X186823687Y-94601304D01*
X186830329Y-94576308D01*
X186838508Y-94443942D01*
X186829304Y-94373108D01*
X186829304Y-94373108D01*
G37*
X186829304Y-94373108D02*
X186815573Y-94361233D01*
X186807868Y-94434185D01*
X186807211Y-94488000D01*
X186812213Y-94586379D01*
X186823687Y-94601304D01*
X186830329Y-94576308D01*
X186838508Y-94443942D01*
X186829304Y-94373108D01*
G36*
X190118469Y-94918047D02*
G01*
X190087438Y-94974253D01*
X190033271Y-95101845D01*
X190002733Y-95179917D01*
X189758723Y-95742647D01*
X189483860Y-96243147D01*
X189185068Y-96671395D01*
X188869272Y-97017367D01*
X188569278Y-97254636D01*
X188279186Y-97413351D01*
X188028168Y-97483501D01*
X187804114Y-97464285D01*
X187594915Y-97354904D01*
X187408699Y-97177991D01*
X187201622Y-96875144D01*
X187035010Y-96483706D01*
X186908378Y-96002101D01*
X186821243Y-95428755D01*
X186799417Y-95199200D01*
X186757818Y-94691200D01*
X186754283Y-95300800D01*
X186774557Y-95866165D01*
X186842312Y-96342200D01*
X186919169Y-96666772D01*
X187001345Y-96922306D01*
X187101524Y-97141093D01*
X187232395Y-97355430D01*
X187251169Y-97382973D01*
X187456082Y-97608612D01*
X187691873Y-97738701D01*
X187954314Y-97773034D01*
X188239180Y-97711405D01*
X188542246Y-97553607D01*
X188681334Y-97452822D01*
X188825610Y-97316509D01*
X189001194Y-97116094D01*
X189189361Y-96875899D01*
X189371384Y-96620248D01*
X189528539Y-96373464D01*
X189575463Y-96291400D01*
X189671171Y-96101894D01*
X189779542Y-95862798D01*
X189889449Y-95601599D01*
X189989763Y-95345788D01*
X190069359Y-95122855D01*
X190117111Y-94960287D01*
X190120363Y-94945200D01*
X190118469Y-94918047D01*
X190118469Y-94918047D01*
G37*
X190118469Y-94918047D02*
X190087438Y-94974253D01*
X190033271Y-95101845D01*
X190002733Y-95179917D01*
X189758723Y-95742647D01*
X189483860Y-96243147D01*
X189185068Y-96671395D01*
X188869272Y-97017367D01*
X188569278Y-97254636D01*
X188279186Y-97413351D01*
X188028168Y-97483501D01*
X187804114Y-97464285D01*
X187594915Y-97354904D01*
X187408699Y-97177991D01*
X187201622Y-96875144D01*
X187035010Y-96483706D01*
X186908378Y-96002101D01*
X186821243Y-95428755D01*
X186799417Y-95199200D01*
X186757818Y-94691200D01*
X186754283Y-95300800D01*
X186774557Y-95866165D01*
X186842312Y-96342200D01*
X186919169Y-96666772D01*
X187001345Y-96922306D01*
X187101524Y-97141093D01*
X187232395Y-97355430D01*
X187251169Y-97382973D01*
X187456082Y-97608612D01*
X187691873Y-97738701D01*
X187954314Y-97773034D01*
X188239180Y-97711405D01*
X188542246Y-97553607D01*
X188681334Y-97452822D01*
X188825610Y-97316509D01*
X189001194Y-97116094D01*
X189189361Y-96875899D01*
X189371384Y-96620248D01*
X189528539Y-96373464D01*
X189575463Y-96291400D01*
X189671171Y-96101894D01*
X189779542Y-95862798D01*
X189889449Y-95601599D01*
X189989763Y-95345788D01*
X190069359Y-95122855D01*
X190117111Y-94960287D01*
X190120363Y-94945200D01*
X190118469Y-94918047D01*
G36*
X190064165Y-113500957D02*
G01*
X190026755Y-113477935D01*
X189967486Y-113442466D01*
X189888882Y-113396004D01*
X189793462Y-113340004D01*
X189683750Y-113275919D01*
X189562266Y-113205204D01*
X189431532Y-113129313D01*
X189294070Y-113049701D01*
X189152402Y-112967822D01*
X189009049Y-112885130D01*
X188866533Y-112803079D01*
X188727376Y-112723124D01*
X188594099Y-112646719D01*
X188469224Y-112575318D01*
X188355273Y-112510376D01*
X188254767Y-112453347D01*
X188170228Y-112405685D01*
X188104178Y-112368845D01*
X188059138Y-112344280D01*
X188037630Y-112333446D01*
X188036286Y-112333049D01*
X188018035Y-112346499D01*
X187990118Y-112383886D01*
X187955275Y-112440765D01*
X187916246Y-112512688D01*
X187879157Y-112587985D01*
X187834183Y-112690440D01*
X187793774Y-112798183D01*
X187757031Y-112914927D01*
X187723058Y-113044382D01*
X187690956Y-113190260D01*
X187659827Y-113356274D01*
X187628773Y-113546134D01*
X187599855Y-113742531D01*
X187574200Y-113913166D01*
X187548802Y-114056455D01*
X187522398Y-114175992D01*
X187493727Y-114275370D01*
X187461527Y-114358182D01*
X187424535Y-114428022D01*
X187381488Y-114488482D01*
X187331125Y-114543155D01*
X187312417Y-114560786D01*
X187268861Y-114599000D01*
X187233318Y-114627268D01*
X187212417Y-114640382D01*
X187210703Y-114640732D01*
X187200194Y-114645320D01*
X187200076Y-114661242D01*
X187211746Y-114691734D01*
X187236604Y-114740032D01*
X187276048Y-114809373D01*
X187304413Y-114857561D01*
X187348753Y-114929417D01*
X187386721Y-114985258D01*
X187415584Y-115021333D01*
X187432612Y-115033887D01*
X187432736Y-115033879D01*
X187448963Y-115026094D01*
X187489600Y-115004108D01*
X187552433Y-114969197D01*
X187635248Y-114922637D01*
X187735828Y-114865705D01*
X187851960Y-114799677D01*
X187981429Y-114725828D01*
X188122020Y-114645436D01*
X188271518Y-114559776D01*
X188427708Y-114470124D01*
X188588376Y-114377757D01*
X188751307Y-114283951D01*
X188914287Y-114189982D01*
X189075100Y-114097126D01*
X189231532Y-114006660D01*
X189381367Y-113919859D01*
X189522392Y-113838000D01*
X189652391Y-113762359D01*
X189769151Y-113694213D01*
X189870455Y-113634837D01*
X189954089Y-113585507D01*
X190017838Y-113547500D01*
X190059489Y-113522093D01*
X190076825Y-113510560D01*
X190077195Y-113510077D01*
X190064165Y-113500957D01*
X190064165Y-113500957D01*
G37*
X190064165Y-113500957D02*
X190026755Y-113477935D01*
X189967486Y-113442466D01*
X189888882Y-113396004D01*
X189793462Y-113340004D01*
X189683750Y-113275919D01*
X189562266Y-113205204D01*
X189431532Y-113129313D01*
X189294070Y-113049701D01*
X189152402Y-112967822D01*
X189009049Y-112885130D01*
X188866533Y-112803079D01*
X188727376Y-112723124D01*
X188594099Y-112646719D01*
X188469224Y-112575318D01*
X188355273Y-112510376D01*
X188254767Y-112453347D01*
X188170228Y-112405685D01*
X188104178Y-112368845D01*
X188059138Y-112344280D01*
X188037630Y-112333446D01*
X188036286Y-112333049D01*
X188018035Y-112346499D01*
X187990118Y-112383886D01*
X187955275Y-112440765D01*
X187916246Y-112512688D01*
X187879157Y-112587985D01*
X187834183Y-112690440D01*
X187793774Y-112798183D01*
X187757031Y-112914927D01*
X187723058Y-113044382D01*
X187690956Y-113190260D01*
X187659827Y-113356274D01*
X187628773Y-113546134D01*
X187599855Y-113742531D01*
X187574200Y-113913166D01*
X187548802Y-114056455D01*
X187522398Y-114175992D01*
X187493727Y-114275370D01*
X187461527Y-114358182D01*
X187424535Y-114428022D01*
X187381488Y-114488482D01*
X187331125Y-114543155D01*
X187312417Y-114560786D01*
X187268861Y-114599000D01*
X187233318Y-114627268D01*
X187212417Y-114640382D01*
X187210703Y-114640732D01*
X187200194Y-114645320D01*
X187200076Y-114661242D01*
X187211746Y-114691734D01*
X187236604Y-114740032D01*
X187276048Y-114809373D01*
X187304413Y-114857561D01*
X187348753Y-114929417D01*
X187386721Y-114985258D01*
X187415584Y-115021333D01*
X187432612Y-115033887D01*
X187432736Y-115033879D01*
X187448963Y-115026094D01*
X187489600Y-115004108D01*
X187552433Y-114969197D01*
X187635248Y-114922637D01*
X187735828Y-114865705D01*
X187851960Y-114799677D01*
X187981429Y-114725828D01*
X188122020Y-114645436D01*
X188271518Y-114559776D01*
X188427708Y-114470124D01*
X188588376Y-114377757D01*
X188751307Y-114283951D01*
X188914287Y-114189982D01*
X189075100Y-114097126D01*
X189231532Y-114006660D01*
X189381367Y-113919859D01*
X189522392Y-113838000D01*
X189652391Y-113762359D01*
X189769151Y-113694213D01*
X189870455Y-113634837D01*
X189954089Y-113585507D01*
X190017838Y-113547500D01*
X190059489Y-113522093D01*
X190076825Y-113510560D01*
X190077195Y-113510077D01*
X190064165Y-113500957D01*
G36*
X186915381Y-111677472D02*
G01*
X186896307Y-111666092D01*
X186852579Y-111640512D01*
X186786381Y-111601998D01*
X186699898Y-111551814D01*
X186595315Y-111491225D01*
X186474817Y-111421497D01*
X186340588Y-111343893D01*
X186194813Y-111259680D01*
X186039677Y-111170121D01*
X185880000Y-111078002D01*
X185716883Y-110983924D01*
X185560291Y-110893598D01*
X185412494Y-110808335D01*
X185275760Y-110729443D01*
X185152358Y-110658231D01*
X185044556Y-110596009D01*
X184954623Y-110544087D01*
X184884827Y-110503772D01*
X184837436Y-110476376D01*
X184815214Y-110463493D01*
X184777670Y-110442493D01*
X184754169Y-110431075D01*
X184750080Y-110430449D01*
X184757758Y-110444364D01*
X184779797Y-110483059D01*
X184815029Y-110544513D01*
X184862289Y-110626702D01*
X184920411Y-110727604D01*
X184988229Y-110845195D01*
X185064576Y-110977454D01*
X185148286Y-111122358D01*
X185238194Y-111277883D01*
X185333133Y-111442008D01*
X185369268Y-111504451D01*
X185465917Y-111671513D01*
X185558062Y-111830926D01*
X185644525Y-111980645D01*
X185724129Y-112118624D01*
X185795695Y-112242815D01*
X185858045Y-112351173D01*
X185910002Y-112441652D01*
X185950387Y-112512204D01*
X185978022Y-112560785D01*
X185991728Y-112585346D01*
X185993026Y-112587915D01*
X186004780Y-112580431D01*
X186036205Y-112554386D01*
X186084406Y-112512441D01*
X186146490Y-112457254D01*
X186219561Y-112391483D01*
X186300724Y-112317788D01*
X186387084Y-112238827D01*
X186475747Y-112157260D01*
X186563818Y-112075746D01*
X186648401Y-111996943D01*
X186726603Y-111923510D01*
X186795528Y-111858107D01*
X186852281Y-111803392D01*
X186893968Y-111762023D01*
X186907637Y-111747836D01*
X186951799Y-111700820D01*
X186915381Y-111677472D01*
X186915381Y-111677472D01*
G37*
X186915381Y-111677472D02*
X186896307Y-111666092D01*
X186852579Y-111640512D01*
X186786381Y-111601998D01*
X186699898Y-111551814D01*
X186595315Y-111491225D01*
X186474817Y-111421497D01*
X186340588Y-111343893D01*
X186194813Y-111259680D01*
X186039677Y-111170121D01*
X185880000Y-111078002D01*
X185716883Y-110983924D01*
X185560291Y-110893598D01*
X185412494Y-110808335D01*
X185275760Y-110729443D01*
X185152358Y-110658231D01*
X185044556Y-110596009D01*
X184954623Y-110544087D01*
X184884827Y-110503772D01*
X184837436Y-110476376D01*
X184815214Y-110463493D01*
X184777670Y-110442493D01*
X184754169Y-110431075D01*
X184750080Y-110430449D01*
X184757758Y-110444364D01*
X184779797Y-110483059D01*
X184815029Y-110544513D01*
X184862289Y-110626702D01*
X184920411Y-110727604D01*
X184988229Y-110845195D01*
X185064576Y-110977454D01*
X185148286Y-111122358D01*
X185238194Y-111277883D01*
X185333133Y-111442008D01*
X185369268Y-111504451D01*
X185465917Y-111671513D01*
X185558062Y-111830926D01*
X185644525Y-111980645D01*
X185724129Y-112118624D01*
X185795695Y-112242815D01*
X185858045Y-112351173D01*
X185910002Y-112441652D01*
X185950387Y-112512204D01*
X185978022Y-112560785D01*
X185991728Y-112585346D01*
X185993026Y-112587915D01*
X186004780Y-112580431D01*
X186036205Y-112554386D01*
X186084406Y-112512441D01*
X186146490Y-112457254D01*
X186219561Y-112391483D01*
X186300724Y-112317788D01*
X186387084Y-112238827D01*
X186475747Y-112157260D01*
X186563818Y-112075746D01*
X186648401Y-111996943D01*
X186726603Y-111923510D01*
X186795528Y-111858107D01*
X186852281Y-111803392D01*
X186893968Y-111762023D01*
X186907637Y-111747836D01*
X186951799Y-111700820D01*
X186915381Y-111677472D01*
G36*
X186858842Y-115342906D02*
G01*
X186846264Y-115310381D01*
X186821288Y-115260807D01*
X186782124Y-115189626D01*
X186779012Y-115184084D01*
X186741524Y-115118526D01*
X186708681Y-115063202D01*
X186683795Y-115023545D01*
X186670180Y-115004988D01*
X186669513Y-115004469D01*
X186650610Y-115008952D01*
X186608395Y-115029514D01*
X186545168Y-115064817D01*
X186463228Y-115113520D01*
X186364878Y-115174282D01*
X186252415Y-115245764D01*
X186224835Y-115263555D01*
X186148301Y-115309907D01*
X186082444Y-115343658D01*
X186033218Y-115361847D01*
X186023493Y-115363714D01*
X185980688Y-115362885D01*
X185912791Y-115353606D01*
X185824157Y-115337032D01*
X185719141Y-115314320D01*
X185602098Y-115286627D01*
X185477384Y-115255110D01*
X185349355Y-115220925D01*
X185222366Y-115185229D01*
X185100772Y-115149179D01*
X184988928Y-115113932D01*
X184891190Y-115080644D01*
X184811913Y-115050472D01*
X184764878Y-115029439D01*
X184714775Y-115004663D01*
X184666832Y-114981270D01*
X184664207Y-114980003D01*
X184615780Y-114941301D01*
X184583172Y-114884816D01*
X184567546Y-114819061D01*
X184570063Y-114752549D01*
X184591886Y-114693795D01*
X184620618Y-114660742D01*
X184699417Y-114613141D01*
X184797622Y-114578261D01*
X184905221Y-114559123D01*
X184966220Y-114556412D01*
X185080065Y-114567330D01*
X185174340Y-114599376D01*
X185253621Y-114654274D01*
X185271267Y-114671393D01*
X185320765Y-114722339D01*
X185670638Y-114725837D01*
X186020511Y-114729336D01*
X186155469Y-114640182D01*
X186216555Y-114598346D01*
X186271507Y-114558055D01*
X186312664Y-114525057D01*
X186327808Y-114510874D01*
X186365190Y-114470719D01*
X186335902Y-114416335D01*
X186314916Y-114381961D01*
X186298622Y-114363154D01*
X186295693Y-114361951D01*
X186283272Y-114349097D01*
X186274023Y-114327104D01*
X186265687Y-114305850D01*
X186249851Y-114273306D01*
X186224967Y-114226678D01*
X186189491Y-114163171D01*
X186141877Y-114079992D01*
X186080578Y-113974347D01*
X186047068Y-113916938D01*
X186006929Y-113849406D01*
X185978341Y-113805115D01*
X185957961Y-113780145D01*
X185942447Y-113770577D01*
X185928454Y-113772492D01*
X185925204Y-113774089D01*
X185904734Y-113789624D01*
X185866335Y-113822864D01*
X185814304Y-113869938D01*
X185752934Y-113926972D01*
X185700910Y-113976300D01*
X185577433Y-114089970D01*
X185470409Y-114178895D01*
X185378760Y-114243866D01*
X185301412Y-114285679D01*
X185262134Y-114299783D01*
X185227751Y-114305608D01*
X185169101Y-114311625D01*
X185092883Y-114317304D01*
X185005798Y-114322116D01*
X184950732Y-114324381D01*
X184855536Y-114327541D01*
X184785938Y-114328931D01*
X184736591Y-114328142D01*
X184702146Y-114324765D01*
X184677257Y-114318392D01*
X184656575Y-114308613D01*
X184643947Y-114300933D01*
X184595274Y-114256579D01*
X184561355Y-114199426D01*
X184546562Y-114139292D01*
X184551914Y-114094227D01*
X184575070Y-114053424D01*
X184616538Y-114002276D01*
X184669088Y-113947958D01*
X184725484Y-113897643D01*
X184778495Y-113858506D01*
X184804111Y-113844095D01*
X184839186Y-113822509D01*
X184892611Y-113783247D01*
X184960211Y-113729898D01*
X185037810Y-113666048D01*
X185121232Y-113595285D01*
X185206302Y-113521196D01*
X185288845Y-113447368D01*
X185364684Y-113377389D01*
X185429644Y-113314845D01*
X185477331Y-113265740D01*
X185524968Y-113211221D01*
X185560092Y-113165358D01*
X185579051Y-113133189D01*
X185581136Y-113122511D01*
X185572726Y-113106147D01*
X185550154Y-113065329D01*
X185514776Y-113002414D01*
X185467946Y-112919756D01*
X185411019Y-112819711D01*
X185345351Y-112704634D01*
X185272297Y-112576881D01*
X185193212Y-112438806D01*
X185109452Y-112292766D01*
X185022371Y-112141116D01*
X184933324Y-111986210D01*
X184843668Y-111830405D01*
X184754757Y-111676056D01*
X184667946Y-111525518D01*
X184584591Y-111381146D01*
X184506046Y-111245296D01*
X184433667Y-111120323D01*
X184368810Y-111008583D01*
X184312829Y-110912430D01*
X184267080Y-110834221D01*
X184232917Y-110776311D01*
X184211696Y-110741054D01*
X184205037Y-110730835D01*
X184203720Y-110744598D01*
X184202441Y-110787896D01*
X184201204Y-110859286D01*
X184200017Y-110957327D01*
X184198885Y-111080578D01*
X184197814Y-111227597D01*
X184196811Y-111396943D01*
X184195881Y-111587174D01*
X184195032Y-111796849D01*
X184194268Y-112024527D01*
X184193597Y-112268765D01*
X184193024Y-112528123D01*
X184192556Y-112801159D01*
X184192198Y-113086432D01*
X184191958Y-113382500D01*
X184191841Y-113687921D01*
X184191829Y-113816076D01*
X184191829Y-116916030D01*
X184575153Y-116694947D01*
X184656320Y-116648144D01*
X184760834Y-116587898D01*
X184885199Y-116516222D01*
X185025918Y-116435131D01*
X185179497Y-116346638D01*
X185342438Y-116252760D01*
X185511246Y-116155509D01*
X185682425Y-116056900D01*
X185852479Y-115958947D01*
X185895488Y-115934175D01*
X186052143Y-115843848D01*
X186201197Y-115757711D01*
X186340432Y-115677058D01*
X186467629Y-115603184D01*
X186580568Y-115537383D01*
X186677032Y-115480950D01*
X186754800Y-115435179D01*
X186811654Y-115401365D01*
X186845375Y-115380802D01*
X186853960Y-115375047D01*
X186860811Y-115362942D01*
X186858842Y-115342906D01*
X186858842Y-115342906D01*
G37*
X186858842Y-115342906D02*
X186846264Y-115310381D01*
X186821288Y-115260807D01*
X186782124Y-115189626D01*
X186779012Y-115184084D01*
X186741524Y-115118526D01*
X186708681Y-115063202D01*
X186683795Y-115023545D01*
X186670180Y-115004988D01*
X186669513Y-115004469D01*
X186650610Y-115008952D01*
X186608395Y-115029514D01*
X186545168Y-115064817D01*
X186463228Y-115113520D01*
X186364878Y-115174282D01*
X186252415Y-115245764D01*
X186224835Y-115263555D01*
X186148301Y-115309907D01*
X186082444Y-115343658D01*
X186033218Y-115361847D01*
X186023493Y-115363714D01*
X185980688Y-115362885D01*
X185912791Y-115353606D01*
X185824157Y-115337032D01*
X185719141Y-115314320D01*
X185602098Y-115286627D01*
X185477384Y-115255110D01*
X185349355Y-115220925D01*
X185222366Y-115185229D01*
X185100772Y-115149179D01*
X184988928Y-115113932D01*
X184891190Y-115080644D01*
X184811913Y-115050472D01*
X184764878Y-115029439D01*
X184714775Y-115004663D01*
X184666832Y-114981270D01*
X184664207Y-114980003D01*
X184615780Y-114941301D01*
X184583172Y-114884816D01*
X184567546Y-114819061D01*
X184570063Y-114752549D01*
X184591886Y-114693795D01*
X184620618Y-114660742D01*
X184699417Y-114613141D01*
X184797622Y-114578261D01*
X184905221Y-114559123D01*
X184966220Y-114556412D01*
X185080065Y-114567330D01*
X185174340Y-114599376D01*
X185253621Y-114654274D01*
X185271267Y-114671393D01*
X185320765Y-114722339D01*
X185670638Y-114725837D01*
X186020511Y-114729336D01*
X186155469Y-114640182D01*
X186216555Y-114598346D01*
X186271507Y-114558055D01*
X186312664Y-114525057D01*
X186327808Y-114510874D01*
X186365190Y-114470719D01*
X186335902Y-114416335D01*
X186314916Y-114381961D01*
X186298622Y-114363154D01*
X186295693Y-114361951D01*
X186283272Y-114349097D01*
X186274023Y-114327104D01*
X186265687Y-114305850D01*
X186249851Y-114273306D01*
X186224967Y-114226678D01*
X186189491Y-114163171D01*
X186141877Y-114079992D01*
X186080578Y-113974347D01*
X186047068Y-113916938D01*
X186006929Y-113849406D01*
X185978341Y-113805115D01*
X185957961Y-113780145D01*
X185942447Y-113770577D01*
X185928454Y-113772492D01*
X185925204Y-113774089D01*
X185904734Y-113789624D01*
X185866335Y-113822864D01*
X185814304Y-113869938D01*
X185752934Y-113926972D01*
X185700910Y-113976300D01*
X185577433Y-114089970D01*
X185470409Y-114178895D01*
X185378760Y-114243866D01*
X185301412Y-114285679D01*
X185262134Y-114299783D01*
X185227751Y-114305608D01*
X185169101Y-114311625D01*
X185092883Y-114317304D01*
X185005798Y-114322116D01*
X184950732Y-114324381D01*
X184855536Y-114327541D01*
X184785938Y-114328931D01*
X184736591Y-114328142D01*
X184702146Y-114324765D01*
X184677257Y-114318392D01*
X184656575Y-114308613D01*
X184643947Y-114300933D01*
X184595274Y-114256579D01*
X184561355Y-114199426D01*
X184546562Y-114139292D01*
X184551914Y-114094227D01*
X184575070Y-114053424D01*
X184616538Y-114002276D01*
X184669088Y-113947958D01*
X184725484Y-113897643D01*
X184778495Y-113858506D01*
X184804111Y-113844095D01*
X184839186Y-113822509D01*
X184892611Y-113783247D01*
X184960211Y-113729898D01*
X185037810Y-113666048D01*
X185121232Y-113595285D01*
X185206302Y-113521196D01*
X185288845Y-113447368D01*
X185364684Y-113377389D01*
X185429644Y-113314845D01*
X185477331Y-113265740D01*
X185524968Y-113211221D01*
X185560092Y-113165358D01*
X185579051Y-113133189D01*
X185581136Y-113122511D01*
X185572726Y-113106147D01*
X185550154Y-113065329D01*
X185514776Y-113002414D01*
X185467946Y-112919756D01*
X185411019Y-112819711D01*
X185345351Y-112704634D01*
X185272297Y-112576881D01*
X185193212Y-112438806D01*
X185109452Y-112292766D01*
X185022371Y-112141116D01*
X184933324Y-111986210D01*
X184843668Y-111830405D01*
X184754757Y-111676056D01*
X184667946Y-111525518D01*
X184584591Y-111381146D01*
X184506046Y-111245296D01*
X184433667Y-111120323D01*
X184368810Y-111008583D01*
X184312829Y-110912430D01*
X184267080Y-110834221D01*
X184232917Y-110776311D01*
X184211696Y-110741054D01*
X184205037Y-110730835D01*
X184203720Y-110744598D01*
X184202441Y-110787896D01*
X184201204Y-110859286D01*
X184200017Y-110957327D01*
X184198885Y-111080578D01*
X184197814Y-111227597D01*
X184196811Y-111396943D01*
X184195881Y-111587174D01*
X184195032Y-111796849D01*
X184194268Y-112024527D01*
X184193597Y-112268765D01*
X184193024Y-112528123D01*
X184192556Y-112801159D01*
X184192198Y-113086432D01*
X184191958Y-113382500D01*
X184191841Y-113687921D01*
X184191829Y-113816076D01*
X184191829Y-116916030D01*
X184575153Y-116694947D01*
X184656320Y-116648144D01*
X184760834Y-116587898D01*
X184885199Y-116516222D01*
X185025918Y-116435131D01*
X185179497Y-116346638D01*
X185342438Y-116252760D01*
X185511246Y-116155509D01*
X185682425Y-116056900D01*
X185852479Y-115958947D01*
X185895488Y-115934175D01*
X186052143Y-115843848D01*
X186201197Y-115757711D01*
X186340432Y-115677058D01*
X186467629Y-115603184D01*
X186580568Y-115537383D01*
X186677032Y-115480950D01*
X186754800Y-115435179D01*
X186811654Y-115401365D01*
X186845375Y-115380802D01*
X186853960Y-115375047D01*
X186860811Y-115362942D01*
X186858842Y-115342906D01*
X147830000Y-117531000D02*
X149290000Y-117531000D01*
X147830000Y-114371000D02*
X149990000Y-114371000D01*
X147830000Y-114371000D02*
X147830000Y-115301000D01*
X147830000Y-117531000D02*
X147830000Y-116601000D01*
X147830000Y-112832000D02*
X149290000Y-112832000D01*
X147830000Y-109672000D02*
X149990000Y-109672000D01*
X147830000Y-109672000D02*
X147830000Y-110602000D01*
X147830000Y-112832000D02*
X147830000Y-111902000D01*
D10*
X160344895Y-109076066D02*
X160925466Y-109076066D01*
X161041580Y-109037361D01*
X161118990Y-108959952D01*
X161157695Y-108843838D01*
X161157695Y-108766428D01*
X160344895Y-109850161D02*
X160344895Y-109463114D01*
X160731942Y-109424409D01*
X160693238Y-109463114D01*
X160654533Y-109540523D01*
X160654533Y-109734047D01*
X160693238Y-109811457D01*
X160731942Y-109850161D01*
X160809352Y-109888866D01*
X161002876Y-109888866D01*
X161080285Y-109850161D01*
X161118990Y-109811457D01*
X161157695Y-109734047D01*
X161157695Y-109540523D01*
X161118990Y-109463114D01*
X161080285Y-109424409D01*
X154192514Y-88124695D02*
X154463447Y-87737647D01*
X154656971Y-88124695D02*
X154656971Y-87311895D01*
X154347333Y-87311895D01*
X154269923Y-87350600D01*
X154231219Y-87389304D01*
X154192514Y-87466714D01*
X154192514Y-87582828D01*
X154231219Y-87660238D01*
X154269923Y-87698942D01*
X154347333Y-87737647D01*
X154656971Y-87737647D01*
X153882876Y-87389304D02*
X153844171Y-87350600D01*
X153766761Y-87311895D01*
X153573238Y-87311895D01*
X153495828Y-87350600D01*
X153457123Y-87389304D01*
X153418419Y-87466714D01*
X153418419Y-87544123D01*
X153457123Y-87660238D01*
X153921580Y-88124695D01*
X153418419Y-88124695D01*
X153147485Y-87311895D02*
X152605619Y-87311895D01*
X152953961Y-88124695D01*
X147715514Y-87870695D02*
X147986447Y-87483647D01*
X148179971Y-87870695D02*
X148179971Y-87057895D01*
X147870333Y-87057895D01*
X147792923Y-87096600D01*
X147754219Y-87135304D01*
X147715514Y-87212714D01*
X147715514Y-87328828D01*
X147754219Y-87406238D01*
X147792923Y-87444942D01*
X147870333Y-87483647D01*
X148179971Y-87483647D01*
X147405876Y-87135304D02*
X147367171Y-87096600D01*
X147289761Y-87057895D01*
X147096238Y-87057895D01*
X147018828Y-87096600D01*
X146980123Y-87135304D01*
X146941419Y-87212714D01*
X146941419Y-87290123D01*
X146980123Y-87406238D01*
X147444580Y-87870695D01*
X146941419Y-87870695D01*
X146244733Y-87057895D02*
X146399552Y-87057895D01*
X146476961Y-87096600D01*
X146515666Y-87135304D01*
X146593076Y-87251419D01*
X146631780Y-87406238D01*
X146631780Y-87715876D01*
X146593076Y-87793285D01*
X146554371Y-87831990D01*
X146476961Y-87870695D01*
X146322142Y-87870695D01*
X146244733Y-87831990D01*
X146206028Y-87793285D01*
X146167323Y-87715876D01*
X146167323Y-87522352D01*
X146206028Y-87444942D01*
X146244733Y-87406238D01*
X146322142Y-87367533D01*
X146476961Y-87367533D01*
X146554371Y-87406238D01*
X146593076Y-87444942D01*
X146631780Y-87522352D01*
X154319514Y-89394695D02*
X154590447Y-89007647D01*
X154783971Y-89394695D02*
X154783971Y-88581895D01*
X154474333Y-88581895D01*
X154396923Y-88620600D01*
X154358219Y-88659304D01*
X154319514Y-88736714D01*
X154319514Y-88852828D01*
X154358219Y-88930238D01*
X154396923Y-88968942D01*
X154474333Y-89007647D01*
X154783971Y-89007647D01*
X154009876Y-88659304D02*
X153971171Y-88620600D01*
X153893761Y-88581895D01*
X153700238Y-88581895D01*
X153622828Y-88620600D01*
X153584123Y-88659304D01*
X153545419Y-88736714D01*
X153545419Y-88814123D01*
X153584123Y-88930238D01*
X154048580Y-89394695D01*
X153545419Y-89394695D01*
X152810028Y-88581895D02*
X153197076Y-88581895D01*
X153235780Y-88968942D01*
X153197076Y-88930238D01*
X153119666Y-88891533D01*
X152926142Y-88891533D01*
X152848733Y-88930238D01*
X152810028Y-88968942D01*
X152771323Y-89046352D01*
X152771323Y-89239876D01*
X152810028Y-89317285D01*
X152848733Y-89355990D01*
X152926142Y-89394695D01*
X153119666Y-89394695D01*
X153197076Y-89355990D01*
X153235780Y-89317285D01*
X147715514Y-89013695D02*
X147986447Y-88626647D01*
X148179971Y-89013695D02*
X148179971Y-88200895D01*
X147870333Y-88200895D01*
X147792923Y-88239600D01*
X147754219Y-88278304D01*
X147715514Y-88355714D01*
X147715514Y-88471828D01*
X147754219Y-88549238D01*
X147792923Y-88587942D01*
X147870333Y-88626647D01*
X148179971Y-88626647D01*
X147405876Y-88278304D02*
X147367171Y-88239600D01*
X147289761Y-88200895D01*
X147096238Y-88200895D01*
X147018828Y-88239600D01*
X146980123Y-88278304D01*
X146941419Y-88355714D01*
X146941419Y-88433123D01*
X146980123Y-88549238D01*
X147444580Y-89013695D01*
X146941419Y-89013695D01*
X146244733Y-88471828D02*
X146244733Y-89013695D01*
X146438257Y-88162190D02*
X146631780Y-88742761D01*
X146128619Y-88742761D01*
X113812104Y-79391933D02*
X113231533Y-79391933D01*
X113115419Y-79430638D01*
X113038009Y-79508047D01*
X112999304Y-79624161D01*
X112999304Y-79701571D01*
X113812104Y-79082295D02*
X113812104Y-78579133D01*
X113502466Y-78850066D01*
X113502466Y-78733952D01*
X113463761Y-78656542D01*
X113425057Y-78617838D01*
X113347647Y-78579133D01*
X113154123Y-78579133D01*
X113076714Y-78617838D01*
X113038009Y-78656542D01*
X112999304Y-78733952D01*
X112999304Y-78966180D01*
X113038009Y-79043590D01*
X113076714Y-79082295D01*
X140456057Y-100333628D02*
X140417352Y-100217514D01*
X140378647Y-100178809D01*
X140301238Y-100140104D01*
X140185123Y-100140104D01*
X140107714Y-100178809D01*
X140069009Y-100217514D01*
X140030304Y-100294923D01*
X140030304Y-100604561D01*
X140843104Y-100604561D01*
X140843104Y-100333628D01*
X140804400Y-100256219D01*
X140765695Y-100217514D01*
X140688285Y-100178809D01*
X140610876Y-100178809D01*
X140533466Y-100217514D01*
X140494761Y-100256219D01*
X140456057Y-100333628D01*
X140456057Y-100604561D01*
X140843104Y-99907876D02*
X140843104Y-99443419D01*
X140030304Y-99675647D02*
X140843104Y-99675647D01*
X140030304Y-98746733D02*
X140030304Y-99211190D01*
X140030304Y-98978961D02*
X140843104Y-98978961D01*
X140726990Y-99056371D01*
X140649580Y-99133780D01*
X140610876Y-99211190D01*
X190386304Y-117235514D02*
X190773352Y-117506447D01*
X190386304Y-117699971D02*
X191199104Y-117699971D01*
X191199104Y-117390333D01*
X191160400Y-117312923D01*
X191121695Y-117274219D01*
X191044285Y-117235514D01*
X190928171Y-117235514D01*
X190850761Y-117274219D01*
X190812057Y-117312923D01*
X190773352Y-117390333D01*
X190773352Y-117699971D01*
X190386304Y-116461419D02*
X190386304Y-116925876D01*
X190386304Y-116693647D02*
X191199104Y-116693647D01*
X191082990Y-116771057D01*
X191005580Y-116848466D01*
X190966876Y-116925876D01*
X191199104Y-115726028D02*
X191199104Y-116113076D01*
X190812057Y-116151780D01*
X190850761Y-116113076D01*
X190889466Y-116035666D01*
X190889466Y-115842142D01*
X190850761Y-115764733D01*
X190812057Y-115726028D01*
X190734647Y-115687323D01*
X190541123Y-115687323D01*
X190463714Y-115726028D01*
X190425009Y-115764733D01*
X190386304Y-115842142D01*
X190386304Y-116035666D01*
X190425009Y-116113076D01*
X190463714Y-116151780D01*
X145527485Y-101436714D02*
X145488780Y-101398009D01*
X145372666Y-101359304D01*
X145295257Y-101359304D01*
X145179142Y-101398009D01*
X145101733Y-101475419D01*
X145063028Y-101552828D01*
X145024323Y-101707647D01*
X145024323Y-101823761D01*
X145063028Y-101978580D01*
X145101733Y-102055990D01*
X145179142Y-102133400D01*
X145295257Y-102172104D01*
X145372666Y-102172104D01*
X145488780Y-102133400D01*
X145527485Y-102094695D01*
X145837123Y-102094695D02*
X145875828Y-102133400D01*
X145953238Y-102172104D01*
X146146761Y-102172104D01*
X146224171Y-102133400D01*
X146262876Y-102094695D01*
X146301580Y-102017285D01*
X146301580Y-101939876D01*
X146262876Y-101823761D01*
X145798419Y-101359304D01*
X146301580Y-101359304D01*
X146572514Y-102172104D02*
X147075676Y-102172104D01*
X146804742Y-101862466D01*
X146920857Y-101862466D01*
X146998266Y-101823761D01*
X147036971Y-101785057D01*
X147075676Y-101707647D01*
X147075676Y-101514123D01*
X147036971Y-101436714D01*
X146998266Y-101398009D01*
X146920857Y-101359304D01*
X146688628Y-101359304D01*
X146611219Y-101398009D01*
X146572514Y-101436714D01*
X145527485Y-102960714D02*
X145488780Y-102922009D01*
X145372666Y-102883304D01*
X145295257Y-102883304D01*
X145179142Y-102922009D01*
X145101733Y-102999419D01*
X145063028Y-103076828D01*
X145024323Y-103231647D01*
X145024323Y-103347761D01*
X145063028Y-103502580D01*
X145101733Y-103579990D01*
X145179142Y-103657400D01*
X145295257Y-103696104D01*
X145372666Y-103696104D01*
X145488780Y-103657400D01*
X145527485Y-103618695D01*
X145837123Y-103618695D02*
X145875828Y-103657400D01*
X145953238Y-103696104D01*
X146146761Y-103696104D01*
X146224171Y-103657400D01*
X146262876Y-103618695D01*
X146301580Y-103541285D01*
X146301580Y-103463876D01*
X146262876Y-103347761D01*
X145798419Y-102883304D01*
X146301580Y-102883304D01*
X147075676Y-102883304D02*
X146611219Y-102883304D01*
X146843447Y-102883304D02*
X146843447Y-103696104D01*
X146766038Y-103579990D01*
X146688628Y-103502580D01*
X146611219Y-103463876D01*
X145527485Y-104484714D02*
X145488780Y-104446009D01*
X145372666Y-104407304D01*
X145295257Y-104407304D01*
X145179142Y-104446009D01*
X145101733Y-104523419D01*
X145063028Y-104600828D01*
X145024323Y-104755647D01*
X145024323Y-104871761D01*
X145063028Y-105026580D01*
X145101733Y-105103990D01*
X145179142Y-105181400D01*
X145295257Y-105220104D01*
X145372666Y-105220104D01*
X145488780Y-105181400D01*
X145527485Y-105142695D01*
X145837123Y-105142695D02*
X145875828Y-105181400D01*
X145953238Y-105220104D01*
X146146761Y-105220104D01*
X146224171Y-105181400D01*
X146262876Y-105142695D01*
X146301580Y-105065285D01*
X146301580Y-104987876D01*
X146262876Y-104871761D01*
X145798419Y-104407304D01*
X146301580Y-104407304D01*
X146804742Y-105220104D02*
X146882152Y-105220104D01*
X146959561Y-105181400D01*
X146998266Y-105142695D01*
X147036971Y-105065285D01*
X147075676Y-104910466D01*
X147075676Y-104716942D01*
X147036971Y-104562123D01*
X146998266Y-104484714D01*
X146959561Y-104446009D01*
X146882152Y-104407304D01*
X146804742Y-104407304D01*
X146727333Y-104446009D01*
X146688628Y-104484714D01*
X146649923Y-104562123D01*
X146611219Y-104716942D01*
X146611219Y-104910466D01*
X146649923Y-105065285D01*
X146688628Y-105142695D01*
X146727333Y-105181400D01*
X146804742Y-105220104D01*
X145527485Y-108040714D02*
X145488780Y-108002009D01*
X145372666Y-107963304D01*
X145295257Y-107963304D01*
X145179142Y-108002009D01*
X145101733Y-108079419D01*
X145063028Y-108156828D01*
X145024323Y-108311647D01*
X145024323Y-108427761D01*
X145063028Y-108582580D01*
X145101733Y-108659990D01*
X145179142Y-108737400D01*
X145295257Y-108776104D01*
X145372666Y-108776104D01*
X145488780Y-108737400D01*
X145527485Y-108698695D01*
X146301580Y-107963304D02*
X145837123Y-107963304D01*
X146069352Y-107963304D02*
X146069352Y-108776104D01*
X145991942Y-108659990D01*
X145914533Y-108582580D01*
X145837123Y-108543876D01*
X146766038Y-108427761D02*
X146688628Y-108466466D01*
X146649923Y-108505171D01*
X146611219Y-108582580D01*
X146611219Y-108621285D01*
X146649923Y-108698695D01*
X146688628Y-108737400D01*
X146766038Y-108776104D01*
X146920857Y-108776104D01*
X146998266Y-108737400D01*
X147036971Y-108698695D01*
X147075676Y-108621285D01*
X147075676Y-108582580D01*
X147036971Y-108505171D01*
X146998266Y-108466466D01*
X146920857Y-108427761D01*
X146766038Y-108427761D01*
X146688628Y-108389057D01*
X146649923Y-108350352D01*
X146611219Y-108272942D01*
X146611219Y-108118123D01*
X146649923Y-108040714D01*
X146688628Y-108002009D01*
X146766038Y-107963304D01*
X146920857Y-107963304D01*
X146998266Y-108002009D01*
X147036971Y-108040714D01*
X147075676Y-108118123D01*
X147075676Y-108272942D01*
X147036971Y-108350352D01*
X146998266Y-108389057D01*
X146920857Y-108427761D01*
X145527485Y-106262714D02*
X145488780Y-106224009D01*
X145372666Y-106185304D01*
X145295257Y-106185304D01*
X145179142Y-106224009D01*
X145101733Y-106301419D01*
X145063028Y-106378828D01*
X145024323Y-106533647D01*
X145024323Y-106649761D01*
X145063028Y-106804580D01*
X145101733Y-106881990D01*
X145179142Y-106959400D01*
X145295257Y-106998104D01*
X145372666Y-106998104D01*
X145488780Y-106959400D01*
X145527485Y-106920695D01*
X146301580Y-106185304D02*
X145837123Y-106185304D01*
X146069352Y-106185304D02*
X146069352Y-106998104D01*
X145991942Y-106881990D01*
X145914533Y-106804580D01*
X145837123Y-106765876D01*
X146572514Y-106998104D02*
X147114380Y-106998104D01*
X146766038Y-106185304D01*
X144942076Y-115583304D02*
X144942076Y-116396104D01*
X145135600Y-116396104D01*
X145251714Y-116357400D01*
X145329123Y-116279990D01*
X145367828Y-116202580D01*
X145406533Y-116047761D01*
X145406533Y-115931647D01*
X145367828Y-115776828D01*
X145329123Y-115699419D01*
X145251714Y-115622009D01*
X145135600Y-115583304D01*
X144942076Y-115583304D01*
X146141923Y-116396104D02*
X145754876Y-116396104D01*
X145716171Y-116009057D01*
X145754876Y-116047761D01*
X145832285Y-116086466D01*
X146025809Y-116086466D01*
X146103219Y-116047761D01*
X146141923Y-116009057D01*
X146180628Y-115931647D01*
X146180628Y-115738123D01*
X146141923Y-115660714D01*
X146103219Y-115622009D01*
X146025809Y-115583304D01*
X145832285Y-115583304D01*
X145754876Y-115622009D01*
X145716171Y-115660714D01*
X144942076Y-111011304D02*
X144942076Y-111824104D01*
X145135600Y-111824104D01*
X145251714Y-111785400D01*
X145329123Y-111707990D01*
X145367828Y-111630580D01*
X145406533Y-111475761D01*
X145406533Y-111359647D01*
X145367828Y-111204828D01*
X145329123Y-111127419D01*
X145251714Y-111050009D01*
X145135600Y-111011304D01*
X144942076Y-111011304D01*
X146103219Y-111553171D02*
X146103219Y-111011304D01*
X145909695Y-111862809D02*
X145716171Y-111282238D01*
X146219333Y-111282238D01*
X191608304Y-119267514D02*
X191995352Y-119538447D01*
X191608304Y-119731971D02*
X192421104Y-119731971D01*
X192421104Y-119422333D01*
X192382400Y-119344923D01*
X192343695Y-119306219D01*
X192266285Y-119267514D01*
X192150171Y-119267514D01*
X192072761Y-119306219D01*
X192034057Y-119344923D01*
X191995352Y-119422333D01*
X191995352Y-119731971D01*
X191608304Y-118493419D02*
X191608304Y-118957876D01*
X191608304Y-118725647D02*
X192421104Y-118725647D01*
X192304990Y-118803057D01*
X192227580Y-118880466D01*
X192188876Y-118957876D01*
X192421104Y-117796733D02*
X192421104Y-117951552D01*
X192382400Y-118028961D01*
X192343695Y-118067666D01*
X192227580Y-118145076D01*
X192072761Y-118183780D01*
X191763123Y-118183780D01*
X191685714Y-118145076D01*
X191647009Y-118106371D01*
X191608304Y-118028961D01*
X191608304Y-117874142D01*
X191647009Y-117796733D01*
X191685714Y-117758028D01*
X191763123Y-117719323D01*
X191956647Y-117719323D01*
X192034057Y-117758028D01*
X192072761Y-117796733D01*
X192111466Y-117874142D01*
X192111466Y-118028961D01*
X192072761Y-118106371D01*
X192034057Y-118145076D01*
X191956647Y-118183780D01*
M02*
