G04 #@! TF.GenerationSoftware,KiCad,Pcbnew,(5.1.4)-1*
G04 #@! TF.CreationDate,2020-01-22T15:00:03+01:00*
G04 #@! TF.ProjectId,sara-rx-ab,73617261-2d72-4782-9d61-622e6b696361,rev?*
G04 #@! TF.SameCoordinates,Original*
G04 #@! TF.FileFunction,Legend,Top*
G04 #@! TF.FilePolarity,Positive*
%FSLAX46Y46*%
G04 Gerber Fmt 4.6, Leading zero omitted, Abs format (unit mm)*
G04 Created by KiCad (PCBNEW (5.1.4)-1) date 2020-01-22 15:00:03*
%MOMM*%
%LPD*%
G04 APERTURE LIST*
%ADD10C,0.152400*%
%ADD11C,0.150000*%
%ADD12C,0.200000*%
%ADD13C,0.120000*%
G04 APERTURE END LIST*
D10*
X143650304Y-120839895D02*
X144037352Y-120568961D01*
X143650304Y-120375438D02*
X144463104Y-120375438D01*
X144463104Y-120685076D01*
X144424400Y-120762485D01*
X144385695Y-120801190D01*
X144308285Y-120839895D01*
X144192171Y-120839895D01*
X144114761Y-120801190D01*
X144076057Y-120762485D01*
X144037352Y-120685076D01*
X144037352Y-120375438D01*
X143689009Y-121149533D02*
X143650304Y-121265647D01*
X143650304Y-121459171D01*
X143689009Y-121536580D01*
X143727714Y-121575285D01*
X143805123Y-121613990D01*
X143882533Y-121613990D01*
X143959942Y-121575285D01*
X143998647Y-121536580D01*
X144037352Y-121459171D01*
X144076057Y-121304352D01*
X144114761Y-121226942D01*
X144153466Y-121188238D01*
X144230876Y-121149533D01*
X144308285Y-121149533D01*
X144385695Y-121188238D01*
X144424400Y-121226942D01*
X144463104Y-121304352D01*
X144463104Y-121497876D01*
X144424400Y-121613990D01*
X144463104Y-121846219D02*
X144463104Y-122310676D01*
X143650304Y-122078447D02*
X144463104Y-122078447D01*
X146499942Y-119344923D02*
X146499942Y-119964200D01*
X146190304Y-119654561D02*
X146809580Y-119654561D01*
X146925695Y-120312542D02*
X146964400Y-120351247D01*
X147003104Y-120428657D01*
X147003104Y-120622180D01*
X146964400Y-120699590D01*
X146925695Y-120738295D01*
X146848285Y-120777000D01*
X146770876Y-120777000D01*
X146654761Y-120738295D01*
X146190304Y-120273838D01*
X146190304Y-120777000D01*
X147003104Y-121009228D02*
X146190304Y-121280161D01*
X147003104Y-121551095D01*
X147003104Y-122209076D02*
X147003104Y-121822028D01*
X146616057Y-121783323D01*
X146654761Y-121822028D01*
X146693466Y-121899438D01*
X146693466Y-122092961D01*
X146654761Y-122170371D01*
X146616057Y-122209076D01*
X146538647Y-122247780D01*
X146345123Y-122247780D01*
X146267714Y-122209076D01*
X146229009Y-122170371D01*
X146190304Y-122092961D01*
X146190304Y-121899438D01*
X146229009Y-121822028D01*
X146267714Y-121783323D01*
X149543104Y-119286866D02*
X148730304Y-119557800D01*
X149543104Y-119828733D01*
X149156057Y-120370600D02*
X149117352Y-120486714D01*
X149078647Y-120525419D01*
X149001238Y-120564123D01*
X148885123Y-120564123D01*
X148807714Y-120525419D01*
X148769009Y-120486714D01*
X148730304Y-120409304D01*
X148730304Y-120099666D01*
X149543104Y-120099666D01*
X149543104Y-120370600D01*
X149504400Y-120448009D01*
X149465695Y-120486714D01*
X149388285Y-120525419D01*
X149310876Y-120525419D01*
X149233466Y-120486714D01*
X149194761Y-120448009D01*
X149156057Y-120370600D01*
X149156057Y-120099666D01*
X149543104Y-120912466D02*
X148885123Y-120912466D01*
X148807714Y-120951171D01*
X148769009Y-120989876D01*
X148730304Y-121067285D01*
X148730304Y-121222104D01*
X148769009Y-121299514D01*
X148807714Y-121338219D01*
X148885123Y-121376923D01*
X149543104Y-121376923D01*
X148769009Y-121725266D02*
X148730304Y-121841380D01*
X148730304Y-122034904D01*
X148769009Y-122112314D01*
X148807714Y-122151019D01*
X148885123Y-122189723D01*
X148962533Y-122189723D01*
X149039942Y-122151019D01*
X149078647Y-122112314D01*
X149117352Y-122034904D01*
X149156057Y-121880085D01*
X149194761Y-121802676D01*
X149233466Y-121763971D01*
X149310876Y-121725266D01*
X149388285Y-121725266D01*
X149465695Y-121763971D01*
X149504400Y-121802676D01*
X149543104Y-121880085D01*
X149543104Y-122073609D01*
X149504400Y-122189723D01*
X152044400Y-120665723D02*
X152083104Y-120588314D01*
X152083104Y-120472200D01*
X152044400Y-120356085D01*
X151966990Y-120278676D01*
X151889580Y-120239971D01*
X151734761Y-120201266D01*
X151618647Y-120201266D01*
X151463828Y-120239971D01*
X151386419Y-120278676D01*
X151309009Y-120356085D01*
X151270304Y-120472200D01*
X151270304Y-120549609D01*
X151309009Y-120665723D01*
X151347714Y-120704428D01*
X151618647Y-120704428D01*
X151618647Y-120549609D01*
X151270304Y-121052771D02*
X152083104Y-121052771D01*
X151270304Y-121517228D01*
X152083104Y-121517228D01*
X151270304Y-121904276D02*
X152083104Y-121904276D01*
X152083104Y-122097800D01*
X152044400Y-122213914D01*
X151966990Y-122291323D01*
X151889580Y-122330028D01*
X151734761Y-122368733D01*
X151618647Y-122368733D01*
X151463828Y-122330028D01*
X151386419Y-122291323D01*
X151309009Y-122213914D01*
X151270304Y-122097800D01*
X151270304Y-121904276D01*
X154584400Y-120665723D02*
X154623104Y-120588314D01*
X154623104Y-120472200D01*
X154584400Y-120356085D01*
X154506990Y-120278676D01*
X154429580Y-120239971D01*
X154274761Y-120201266D01*
X154158647Y-120201266D01*
X154003828Y-120239971D01*
X153926419Y-120278676D01*
X153849009Y-120356085D01*
X153810304Y-120472200D01*
X153810304Y-120549609D01*
X153849009Y-120665723D01*
X153887714Y-120704428D01*
X154158647Y-120704428D01*
X154158647Y-120549609D01*
X153810304Y-121052771D02*
X154623104Y-121052771D01*
X153810304Y-121517228D01*
X154623104Y-121517228D01*
X153810304Y-121904276D02*
X154623104Y-121904276D01*
X154623104Y-122097800D01*
X154584400Y-122213914D01*
X154506990Y-122291323D01*
X154429580Y-122330028D01*
X154274761Y-122368733D01*
X154158647Y-122368733D01*
X154003828Y-122330028D01*
X153926419Y-122291323D01*
X153849009Y-122213914D01*
X153810304Y-122097800D01*
X153810304Y-121904276D01*
X156350304Y-121154371D02*
X157163104Y-121154371D01*
X156350304Y-121618828D01*
X157163104Y-121618828D01*
X156427714Y-122470333D02*
X156389009Y-122431628D01*
X156350304Y-122315514D01*
X156350304Y-122238104D01*
X156389009Y-122121990D01*
X156466419Y-122044580D01*
X156543828Y-122005876D01*
X156698647Y-121967171D01*
X156814761Y-121967171D01*
X156969580Y-122005876D01*
X157046990Y-122044580D01*
X157124400Y-122121990D01*
X157163104Y-122238104D01*
X157163104Y-122315514D01*
X157124400Y-122431628D01*
X157085695Y-122470333D01*
X161662533Y-121212428D02*
X161662533Y-121599476D01*
X161430304Y-121135019D02*
X162243104Y-121405952D01*
X161430304Y-121676885D01*
X162243104Y-122102638D02*
X162243104Y-122180047D01*
X162204400Y-122257457D01*
X162165695Y-122296161D01*
X162088285Y-122334866D01*
X161933466Y-122373571D01*
X161739942Y-122373571D01*
X161585123Y-122334866D01*
X161507714Y-122296161D01*
X161469009Y-122257457D01*
X161430304Y-122180047D01*
X161430304Y-122102638D01*
X161469009Y-122025228D01*
X161507714Y-121986523D01*
X161585123Y-121947819D01*
X161739942Y-121909114D01*
X161933466Y-121909114D01*
X162088285Y-121947819D01*
X162165695Y-121986523D01*
X162204400Y-122025228D01*
X162243104Y-122102638D01*
X164202533Y-121212428D02*
X164202533Y-121599476D01*
X163970304Y-121135019D02*
X164783104Y-121405952D01*
X163970304Y-121676885D01*
X163970304Y-122373571D02*
X163970304Y-121909114D01*
X163970304Y-122141342D02*
X164783104Y-122141342D01*
X164666990Y-122063933D01*
X164589580Y-121986523D01*
X164550876Y-121909114D01*
X166742533Y-121212428D02*
X166742533Y-121599476D01*
X166510304Y-121135019D02*
X167323104Y-121405952D01*
X166510304Y-121676885D01*
X167245695Y-121909114D02*
X167284400Y-121947819D01*
X167323104Y-122025228D01*
X167323104Y-122218752D01*
X167284400Y-122296161D01*
X167245695Y-122334866D01*
X167168285Y-122373571D01*
X167090876Y-122373571D01*
X166974761Y-122334866D01*
X166510304Y-121870409D01*
X166510304Y-122373571D01*
X169282533Y-121212428D02*
X169282533Y-121599476D01*
X169050304Y-121135019D02*
X169863104Y-121405952D01*
X169050304Y-121676885D01*
X169863104Y-121870409D02*
X169863104Y-122373571D01*
X169553466Y-122102638D01*
X169553466Y-122218752D01*
X169514761Y-122296161D01*
X169476057Y-122334866D01*
X169398647Y-122373571D01*
X169205123Y-122373571D01*
X169127714Y-122334866D01*
X169089009Y-122296161D01*
X169050304Y-122218752D01*
X169050304Y-121986523D01*
X169089009Y-121909114D01*
X169127714Y-121870409D01*
X171629009Y-120298028D02*
X171590304Y-120414142D01*
X171590304Y-120607666D01*
X171629009Y-120685076D01*
X171667714Y-120723780D01*
X171745123Y-120762485D01*
X171822533Y-120762485D01*
X171899942Y-120723780D01*
X171938647Y-120685076D01*
X171977352Y-120607666D01*
X172016057Y-120452847D01*
X172054761Y-120375438D01*
X172093466Y-120336733D01*
X172170876Y-120298028D01*
X172248285Y-120298028D01*
X172325695Y-120336733D01*
X172364400Y-120375438D01*
X172403104Y-120452847D01*
X172403104Y-120646371D01*
X172364400Y-120762485D01*
X171590304Y-121110828D02*
X172403104Y-121110828D01*
X172403104Y-121304352D01*
X172364400Y-121420466D01*
X172286990Y-121497876D01*
X172209580Y-121536580D01*
X172054761Y-121575285D01*
X171938647Y-121575285D01*
X171783828Y-121536580D01*
X171706419Y-121497876D01*
X171629009Y-121420466D01*
X171590304Y-121304352D01*
X171590304Y-121110828D01*
X171822533Y-121884923D02*
X171822533Y-122271971D01*
X171590304Y-121807514D02*
X172403104Y-122078447D01*
X171590304Y-122349380D01*
X174169009Y-120317380D02*
X174130304Y-120433495D01*
X174130304Y-120627019D01*
X174169009Y-120704428D01*
X174207714Y-120743133D01*
X174285123Y-120781838D01*
X174362533Y-120781838D01*
X174439942Y-120743133D01*
X174478647Y-120704428D01*
X174517352Y-120627019D01*
X174556057Y-120472200D01*
X174594761Y-120394790D01*
X174633466Y-120356085D01*
X174710876Y-120317380D01*
X174788285Y-120317380D01*
X174865695Y-120356085D01*
X174904400Y-120394790D01*
X174943104Y-120472200D01*
X174943104Y-120665723D01*
X174904400Y-120781838D01*
X174207714Y-121594638D02*
X174169009Y-121555933D01*
X174130304Y-121439819D01*
X174130304Y-121362409D01*
X174169009Y-121246295D01*
X174246419Y-121168885D01*
X174323828Y-121130180D01*
X174478647Y-121091476D01*
X174594761Y-121091476D01*
X174749580Y-121130180D01*
X174826990Y-121168885D01*
X174904400Y-121246295D01*
X174943104Y-121362409D01*
X174943104Y-121439819D01*
X174904400Y-121555933D01*
X174865695Y-121594638D01*
X174130304Y-122330028D02*
X174130304Y-121942980D01*
X174943104Y-121942980D01*
X156350304Y-77505076D02*
X157163104Y-77505076D01*
X157163104Y-77698600D01*
X157124400Y-77814714D01*
X157046990Y-77892123D01*
X156969580Y-77930828D01*
X156814761Y-77969533D01*
X156698647Y-77969533D01*
X156543828Y-77930828D01*
X156466419Y-77892123D01*
X156389009Y-77814714D01*
X156350304Y-77698600D01*
X156350304Y-77505076D01*
X157163104Y-78240466D02*
X157163104Y-78782333D01*
X156350304Y-78433990D01*
X158890304Y-77505076D02*
X159703104Y-77505076D01*
X159703104Y-77698600D01*
X159664400Y-77814714D01*
X159586990Y-77892123D01*
X159509580Y-77930828D01*
X159354761Y-77969533D01*
X159238647Y-77969533D01*
X159083828Y-77930828D01*
X159006419Y-77892123D01*
X158929009Y-77814714D01*
X158890304Y-77698600D01*
X158890304Y-77505076D01*
X159703104Y-78666219D02*
X159703104Y-78511400D01*
X159664400Y-78433990D01*
X159625695Y-78395285D01*
X159509580Y-78317876D01*
X159354761Y-78279171D01*
X159045123Y-78279171D01*
X158967714Y-78317876D01*
X158929009Y-78356580D01*
X158890304Y-78433990D01*
X158890304Y-78588809D01*
X158929009Y-78666219D01*
X158967714Y-78704923D01*
X159045123Y-78743628D01*
X159238647Y-78743628D01*
X159316057Y-78704923D01*
X159354761Y-78666219D01*
X159393466Y-78588809D01*
X159393466Y-78433990D01*
X159354761Y-78356580D01*
X159316057Y-78317876D01*
X159238647Y-78279171D01*
X161430304Y-77466371D02*
X162243104Y-77466371D01*
X161430304Y-77930828D01*
X162243104Y-77930828D01*
X161507714Y-78782333D02*
X161469009Y-78743628D01*
X161430304Y-78627514D01*
X161430304Y-78550104D01*
X161469009Y-78433990D01*
X161546419Y-78356580D01*
X161623828Y-78317876D01*
X161778647Y-78279171D01*
X161894761Y-78279171D01*
X162049580Y-78317876D01*
X162126990Y-78356580D01*
X162204400Y-78433990D01*
X162243104Y-78550104D01*
X162243104Y-78627514D01*
X162204400Y-78743628D01*
X162165695Y-78782333D01*
X163970304Y-77505076D02*
X164783104Y-77505076D01*
X164783104Y-77698600D01*
X164744400Y-77814714D01*
X164666990Y-77892123D01*
X164589580Y-77930828D01*
X164434761Y-77969533D01*
X164318647Y-77969533D01*
X164163828Y-77930828D01*
X164086419Y-77892123D01*
X164009009Y-77814714D01*
X163970304Y-77698600D01*
X163970304Y-77505076D01*
X164512171Y-78666219D02*
X163970304Y-78666219D01*
X164821809Y-78472695D02*
X164241238Y-78279171D01*
X164241238Y-78782333D01*
X166510304Y-77659895D02*
X166897352Y-77388961D01*
X166510304Y-77195438D02*
X167323104Y-77195438D01*
X167323104Y-77505076D01*
X167284400Y-77582485D01*
X167245695Y-77621190D01*
X167168285Y-77659895D01*
X167052171Y-77659895D01*
X166974761Y-77621190D01*
X166936057Y-77582485D01*
X166897352Y-77505076D01*
X166897352Y-77195438D01*
X167323104Y-77892123D02*
X167323104Y-78356580D01*
X166510304Y-78124352D02*
X167323104Y-78124352D01*
X166549009Y-78588809D02*
X166510304Y-78704923D01*
X166510304Y-78898447D01*
X166549009Y-78975857D01*
X166587714Y-79014561D01*
X166665123Y-79053266D01*
X166742533Y-79053266D01*
X166819942Y-79014561D01*
X166858647Y-78975857D01*
X166897352Y-78898447D01*
X166936057Y-78743628D01*
X166974761Y-78666219D01*
X167013466Y-78627514D01*
X167090876Y-78588809D01*
X167168285Y-78588809D01*
X167245695Y-78627514D01*
X167284400Y-78666219D01*
X167323104Y-78743628D01*
X167323104Y-78937152D01*
X167284400Y-79053266D01*
X169127714Y-77659895D02*
X169089009Y-77621190D01*
X169050304Y-77505076D01*
X169050304Y-77427666D01*
X169089009Y-77311552D01*
X169166419Y-77234142D01*
X169243828Y-77195438D01*
X169398647Y-77156733D01*
X169514761Y-77156733D01*
X169669580Y-77195438D01*
X169746990Y-77234142D01*
X169824400Y-77311552D01*
X169863104Y-77427666D01*
X169863104Y-77505076D01*
X169824400Y-77621190D01*
X169785695Y-77659895D01*
X169863104Y-77892123D02*
X169863104Y-78356580D01*
X169050304Y-78124352D02*
X169863104Y-78124352D01*
X169089009Y-78588809D02*
X169050304Y-78704923D01*
X169050304Y-78898447D01*
X169089009Y-78975857D01*
X169127714Y-79014561D01*
X169205123Y-79053266D01*
X169282533Y-79053266D01*
X169359942Y-79014561D01*
X169398647Y-78975857D01*
X169437352Y-78898447D01*
X169476057Y-78743628D01*
X169514761Y-78666219D01*
X169553466Y-78627514D01*
X169630876Y-78588809D01*
X169708285Y-78588809D01*
X169785695Y-78627514D01*
X169824400Y-78666219D01*
X169863104Y-78743628D01*
X169863104Y-78937152D01*
X169824400Y-79053266D01*
X172403104Y-77485723D02*
X172403104Y-77950180D01*
X171590304Y-77717952D02*
X172403104Y-77717952D01*
X172403104Y-78143704D02*
X171590304Y-78685571D01*
X172403104Y-78685571D02*
X171590304Y-78143704D01*
X174130304Y-77969533D02*
X174517352Y-77698600D01*
X174130304Y-77505076D02*
X174943104Y-77505076D01*
X174943104Y-77814714D01*
X174904400Y-77892123D01*
X174865695Y-77930828D01*
X174788285Y-77969533D01*
X174672171Y-77969533D01*
X174594761Y-77930828D01*
X174556057Y-77892123D01*
X174517352Y-77814714D01*
X174517352Y-77505076D01*
X174943104Y-78240466D02*
X174130304Y-78782333D01*
X174943104Y-78782333D02*
X174130304Y-78240466D01*
X115826419Y-122238104D02*
X115555485Y-121425304D01*
X115284552Y-122238104D01*
X115207142Y-121347895D02*
X114587866Y-121347895D01*
X114433047Y-121464009D02*
X114316933Y-121425304D01*
X114123409Y-121425304D01*
X114046000Y-121464009D01*
X114007295Y-121502714D01*
X113968590Y-121580123D01*
X113968590Y-121657533D01*
X114007295Y-121734942D01*
X114046000Y-121773647D01*
X114123409Y-121812352D01*
X114278228Y-121851057D01*
X114355638Y-121889761D01*
X114394342Y-121928466D01*
X114433047Y-122005876D01*
X114433047Y-122083285D01*
X114394342Y-122160695D01*
X114355638Y-122199400D01*
X114278228Y-122238104D01*
X114084704Y-122238104D01*
X113968590Y-122199400D01*
X113155790Y-121425304D02*
X113426723Y-121812352D01*
X113620247Y-121425304D02*
X113620247Y-122238104D01*
X113310609Y-122238104D01*
X113233200Y-122199400D01*
X113194495Y-122160695D01*
X113155790Y-122083285D01*
X113155790Y-121967171D01*
X113194495Y-121889761D01*
X113233200Y-121851057D01*
X113310609Y-121812352D01*
X113620247Y-121812352D01*
X112342990Y-121502714D02*
X112381695Y-121464009D01*
X112497809Y-121425304D01*
X112575219Y-121425304D01*
X112691333Y-121464009D01*
X112768742Y-121541419D01*
X112807447Y-121618828D01*
X112846152Y-121773647D01*
X112846152Y-121889761D01*
X112807447Y-122044580D01*
X112768742Y-122121990D01*
X112691333Y-122199400D01*
X112575219Y-122238104D01*
X112497809Y-122238104D01*
X112381695Y-122199400D01*
X112342990Y-122160695D01*
X170232009Y-94073133D02*
X170193304Y-94189247D01*
X170193304Y-94382771D01*
X170232009Y-94460180D01*
X170270714Y-94498885D01*
X170348123Y-94537590D01*
X170425533Y-94537590D01*
X170502942Y-94498885D01*
X170541647Y-94460180D01*
X170580352Y-94382771D01*
X170619057Y-94227952D01*
X170657761Y-94150542D01*
X170696466Y-94111838D01*
X170773876Y-94073133D01*
X170851285Y-94073133D01*
X170928695Y-94111838D01*
X170967400Y-94150542D01*
X171006104Y-94227952D01*
X171006104Y-94421476D01*
X170967400Y-94537590D01*
X170425533Y-94847228D02*
X170425533Y-95234276D01*
X170193304Y-94769819D02*
X171006104Y-95040752D01*
X170193304Y-95311685D01*
X170193304Y-96047076D02*
X170580352Y-95776142D01*
X170193304Y-95582619D02*
X171006104Y-95582619D01*
X171006104Y-95892257D01*
X170967400Y-95969666D01*
X170928695Y-96008371D01*
X170851285Y-96047076D01*
X170735171Y-96047076D01*
X170657761Y-96008371D01*
X170619057Y-95969666D01*
X170580352Y-95892257D01*
X170580352Y-95582619D01*
X170425533Y-96356714D02*
X170425533Y-96743761D01*
X170193304Y-96279304D02*
X171006104Y-96550238D01*
X170193304Y-96821171D01*
X170502942Y-97092104D02*
X170502942Y-97711380D01*
X170193304Y-98562885D02*
X170580352Y-98291952D01*
X170193304Y-98098428D02*
X171006104Y-98098428D01*
X171006104Y-98408066D01*
X170967400Y-98485476D01*
X170928695Y-98524180D01*
X170851285Y-98562885D01*
X170735171Y-98562885D01*
X170657761Y-98524180D01*
X170619057Y-98485476D01*
X170580352Y-98408066D01*
X170580352Y-98098428D01*
X170193304Y-98833819D02*
X170735171Y-99259571D01*
X170735171Y-98833819D02*
X170193304Y-99259571D01*
X137085009Y-103688847D02*
X137046304Y-103804961D01*
X137046304Y-103998485D01*
X137085009Y-104075895D01*
X137123714Y-104114600D01*
X137201123Y-104153304D01*
X137278533Y-104153304D01*
X137355942Y-104114600D01*
X137394647Y-104075895D01*
X137433352Y-103998485D01*
X137472057Y-103843666D01*
X137510761Y-103766257D01*
X137549466Y-103727552D01*
X137626876Y-103688847D01*
X137704285Y-103688847D01*
X137781695Y-103727552D01*
X137820400Y-103766257D01*
X137859104Y-103843666D01*
X137859104Y-104037190D01*
X137820400Y-104153304D01*
X137278533Y-104462942D02*
X137278533Y-104849990D01*
X137046304Y-104385533D02*
X137859104Y-104656466D01*
X137046304Y-104927400D01*
X137046304Y-105662790D02*
X137433352Y-105391857D01*
X137046304Y-105198333D02*
X137859104Y-105198333D01*
X137859104Y-105507971D01*
X137820400Y-105585380D01*
X137781695Y-105624085D01*
X137704285Y-105662790D01*
X137588171Y-105662790D01*
X137510761Y-105624085D01*
X137472057Y-105585380D01*
X137433352Y-105507971D01*
X137433352Y-105198333D01*
X137278533Y-105972428D02*
X137278533Y-106359476D01*
X137046304Y-105895019D02*
X137859104Y-106165952D01*
X137046304Y-106436885D01*
X136968895Y-106514295D02*
X136968895Y-107133571D01*
X137859104Y-107327095D02*
X137201123Y-107327095D01*
X137123714Y-107365800D01*
X137085009Y-107404504D01*
X137046304Y-107481914D01*
X137046304Y-107636733D01*
X137085009Y-107714142D01*
X137123714Y-107752847D01*
X137201123Y-107791552D01*
X137859104Y-107791552D01*
X137085009Y-108139895D02*
X137046304Y-108256009D01*
X137046304Y-108449533D01*
X137085009Y-108526942D01*
X137123714Y-108565647D01*
X137201123Y-108604352D01*
X137278533Y-108604352D01*
X137355942Y-108565647D01*
X137394647Y-108526942D01*
X137433352Y-108449533D01*
X137472057Y-108294714D01*
X137510761Y-108217304D01*
X137549466Y-108178600D01*
X137626876Y-108139895D01*
X137704285Y-108139895D01*
X137781695Y-108178600D01*
X137820400Y-108217304D01*
X137859104Y-108294714D01*
X137859104Y-108488238D01*
X137820400Y-108604352D01*
X137472057Y-109223628D02*
X137433352Y-109339742D01*
X137394647Y-109378447D01*
X137317238Y-109417152D01*
X137201123Y-109417152D01*
X137123714Y-109378447D01*
X137085009Y-109339742D01*
X137046304Y-109262333D01*
X137046304Y-108952695D01*
X137859104Y-108952695D01*
X137859104Y-109223628D01*
X137820400Y-109301038D01*
X137781695Y-109339742D01*
X137704285Y-109378447D01*
X137626876Y-109378447D01*
X137549466Y-109339742D01*
X137510761Y-109301038D01*
X137472057Y-109223628D01*
X137472057Y-108952695D01*
X140609561Y-118168057D02*
X140493447Y-118129352D01*
X140454742Y-118090647D01*
X140416038Y-118013238D01*
X140416038Y-117897123D01*
X140454742Y-117819714D01*
X140493447Y-117781009D01*
X140570857Y-117742304D01*
X140880495Y-117742304D01*
X140880495Y-118555104D01*
X140609561Y-118555104D01*
X140532152Y-118516400D01*
X140493447Y-118477695D01*
X140454742Y-118400285D01*
X140454742Y-118322876D01*
X140493447Y-118245466D01*
X140532152Y-118206761D01*
X140609561Y-118168057D01*
X140880495Y-118168057D01*
X140106400Y-117974533D02*
X139719352Y-117974533D01*
X140183809Y-117742304D02*
X139912876Y-118555104D01*
X139641942Y-117742304D01*
X139487123Y-118555104D02*
X139022666Y-118555104D01*
X139254895Y-117742304D02*
X139254895Y-118555104D01*
X138867847Y-118555104D02*
X138403390Y-118555104D01*
X138635619Y-117742304D02*
X138635619Y-118555104D01*
X129103361Y-118803057D02*
X129722638Y-118803057D01*
X135453361Y-118803057D02*
X136072638Y-118803057D01*
X135763000Y-119112695D02*
X135763000Y-118493419D01*
X118250304Y-102046314D02*
X119063104Y-102046314D01*
X118250304Y-102510771D01*
X119063104Y-102510771D01*
X118250304Y-102897819D02*
X119063104Y-102897819D01*
X118250304Y-103284866D02*
X119063104Y-103284866D01*
X118250304Y-103749323D01*
X119063104Y-103749323D01*
X118482533Y-104097666D02*
X118482533Y-104484714D01*
X118250304Y-104020257D02*
X119063104Y-104291190D01*
X118250304Y-104562123D01*
X118172895Y-104639533D02*
X118172895Y-105258809D01*
X119063104Y-105452333D02*
X118405123Y-105452333D01*
X118327714Y-105491038D01*
X118289009Y-105529742D01*
X118250304Y-105607152D01*
X118250304Y-105761971D01*
X118289009Y-105839380D01*
X118327714Y-105878085D01*
X118405123Y-105916790D01*
X119063104Y-105916790D01*
X118289009Y-106265133D02*
X118250304Y-106381247D01*
X118250304Y-106574771D01*
X118289009Y-106652180D01*
X118327714Y-106690885D01*
X118405123Y-106729590D01*
X118482533Y-106729590D01*
X118559942Y-106690885D01*
X118598647Y-106652180D01*
X118637352Y-106574771D01*
X118676057Y-106419952D01*
X118714761Y-106342542D01*
X118753466Y-106303838D01*
X118830876Y-106265133D01*
X118908285Y-106265133D01*
X118985695Y-106303838D01*
X119024400Y-106342542D01*
X119063104Y-106419952D01*
X119063104Y-106613476D01*
X119024400Y-106729590D01*
X118676057Y-107348866D02*
X118637352Y-107464980D01*
X118598647Y-107503685D01*
X118521238Y-107542390D01*
X118405123Y-107542390D01*
X118327714Y-107503685D01*
X118289009Y-107464980D01*
X118250304Y-107387571D01*
X118250304Y-107077933D01*
X119063104Y-107077933D01*
X119063104Y-107348866D01*
X119024400Y-107426276D01*
X118985695Y-107464980D01*
X118908285Y-107503685D01*
X118830876Y-107503685D01*
X118753466Y-107464980D01*
X118714761Y-107426276D01*
X118676057Y-107348866D01*
X118676057Y-107077933D01*
X118289009Y-113577914D02*
X118250304Y-113694028D01*
X118250304Y-113887552D01*
X118289009Y-113964961D01*
X118327714Y-114003666D01*
X118405123Y-114042371D01*
X118482533Y-114042371D01*
X118559942Y-114003666D01*
X118598647Y-113964961D01*
X118637352Y-113887552D01*
X118676057Y-113732733D01*
X118714761Y-113655323D01*
X118753466Y-113616619D01*
X118830876Y-113577914D01*
X118908285Y-113577914D01*
X118985695Y-113616619D01*
X119024400Y-113655323D01*
X119063104Y-113732733D01*
X119063104Y-113926257D01*
X119024400Y-114042371D01*
X118482533Y-114352009D02*
X118482533Y-114739057D01*
X118250304Y-114274600D02*
X119063104Y-114545533D01*
X118250304Y-114816466D01*
X118250304Y-115551857D02*
X118637352Y-115280923D01*
X118250304Y-115087400D02*
X119063104Y-115087400D01*
X119063104Y-115397038D01*
X119024400Y-115474447D01*
X118985695Y-115513152D01*
X118908285Y-115551857D01*
X118792171Y-115551857D01*
X118714761Y-115513152D01*
X118676057Y-115474447D01*
X118637352Y-115397038D01*
X118637352Y-115087400D01*
X118482533Y-115861495D02*
X118482533Y-116248542D01*
X118250304Y-115784085D02*
X119063104Y-116055019D01*
X118250304Y-116325952D01*
X118172895Y-116403361D02*
X118172895Y-117022638D01*
X119063104Y-117216161D02*
X118405123Y-117216161D01*
X118327714Y-117254866D01*
X118289009Y-117293571D01*
X118250304Y-117370980D01*
X118250304Y-117525800D01*
X118289009Y-117603209D01*
X118327714Y-117641914D01*
X118405123Y-117680619D01*
X119063104Y-117680619D01*
X118482533Y-118028961D02*
X118482533Y-118416009D01*
X118250304Y-117951552D02*
X119063104Y-118222485D01*
X118250304Y-118493419D01*
X118250304Y-119228809D02*
X118637352Y-118957876D01*
X118250304Y-118764352D02*
X119063104Y-118764352D01*
X119063104Y-119073990D01*
X119024400Y-119151400D01*
X118985695Y-119190104D01*
X118908285Y-119228809D01*
X118792171Y-119228809D01*
X118714761Y-119190104D01*
X118676057Y-119151400D01*
X118637352Y-119073990D01*
X118637352Y-118764352D01*
X119063104Y-119461038D02*
X119063104Y-119925495D01*
X118250304Y-119693266D02*
X119063104Y-119693266D01*
D11*
X154432000Y-106045000D02*
X154432000Y-120015000D01*
X147066000Y-106045000D02*
X154432000Y-106045000D01*
X142240000Y-110871000D02*
X147066000Y-106045000D01*
X142240000Y-120015000D02*
X142240000Y-110871000D01*
X154432000Y-120015000D02*
X142240000Y-120015000D01*
D10*
X138229219Y-77229304D02*
X138229219Y-78042104D01*
X137958285Y-77461533D01*
X137687352Y-78042104D01*
X137687352Y-77229304D01*
X137184190Y-77693761D02*
X137261600Y-77732466D01*
X137300304Y-77771171D01*
X137339009Y-77848580D01*
X137339009Y-77887285D01*
X137300304Y-77964695D01*
X137261600Y-78003400D01*
X137184190Y-78042104D01*
X137029371Y-78042104D01*
X136951961Y-78003400D01*
X136913257Y-77964695D01*
X136874552Y-77887285D01*
X136874552Y-77848580D01*
X136913257Y-77771171D01*
X136951961Y-77732466D01*
X137029371Y-77693761D01*
X137184190Y-77693761D01*
X137261600Y-77655057D01*
X137300304Y-77616352D01*
X137339009Y-77538942D01*
X137339009Y-77384123D01*
X137300304Y-77306714D01*
X137261600Y-77268009D01*
X137184190Y-77229304D01*
X137029371Y-77229304D01*
X136951961Y-77268009D01*
X136913257Y-77306714D01*
X136874552Y-77384123D01*
X136874552Y-77538942D01*
X136913257Y-77616352D01*
X136951961Y-77655057D01*
X137029371Y-77693761D01*
X136603619Y-78042104D02*
X136100457Y-78042104D01*
X136371390Y-77732466D01*
X136255276Y-77732466D01*
X136177866Y-77693761D01*
X136139161Y-77655057D01*
X136100457Y-77577647D01*
X136100457Y-77384123D01*
X136139161Y-77306714D01*
X136177866Y-77268009D01*
X136255276Y-77229304D01*
X136487504Y-77229304D01*
X136564914Y-77268009D01*
X136603619Y-77306714D01*
X135597295Y-78042104D02*
X135519885Y-78042104D01*
X135442476Y-78003400D01*
X135403771Y-77964695D01*
X135365066Y-77887285D01*
X135326361Y-77732466D01*
X135326361Y-77538942D01*
X135365066Y-77384123D01*
X135403771Y-77306714D01*
X135442476Y-77268009D01*
X135519885Y-77229304D01*
X135597295Y-77229304D01*
X135674704Y-77268009D01*
X135713409Y-77306714D01*
X135752114Y-77384123D01*
X135790819Y-77538942D01*
X135790819Y-77732466D01*
X135752114Y-77887285D01*
X135713409Y-77964695D01*
X135674704Y-78003400D01*
X135597295Y-78042104D01*
X134552266Y-77229304D02*
X135016723Y-77229304D01*
X134784495Y-77229304D02*
X134784495Y-78042104D01*
X134861904Y-77925990D01*
X134939314Y-77848580D01*
X135016723Y-77809876D01*
X134242628Y-77964695D02*
X134203923Y-78003400D01*
X134126514Y-78042104D01*
X133932990Y-78042104D01*
X133855580Y-78003400D01*
X133816876Y-77964695D01*
X133778171Y-77887285D01*
X133778171Y-77809876D01*
X133816876Y-77693761D01*
X134281333Y-77229304D01*
X133778171Y-77229304D01*
X133275009Y-78042104D02*
X133197600Y-78042104D01*
X133120190Y-78003400D01*
X133081485Y-77964695D01*
X133042780Y-77887285D01*
X133004076Y-77732466D01*
X133004076Y-77538942D01*
X133042780Y-77384123D01*
X133081485Y-77306714D01*
X133120190Y-77268009D01*
X133197600Y-77229304D01*
X133275009Y-77229304D01*
X133352419Y-77268009D01*
X133391123Y-77306714D01*
X133429828Y-77384123D01*
X133468533Y-77538942D01*
X133468533Y-77732466D01*
X133429828Y-77887285D01*
X133391123Y-77964695D01*
X133352419Y-78003400D01*
X133275009Y-78042104D01*
X182512304Y-78808942D02*
X182512304Y-78344485D01*
X182512304Y-78576714D02*
X183325104Y-78576714D01*
X183208990Y-78499304D01*
X183131580Y-78421895D01*
X183092876Y-78344485D01*
X183325104Y-79312104D02*
X183325104Y-79389514D01*
X183286400Y-79466923D01*
X183247695Y-79505628D01*
X183170285Y-79544333D01*
X183015466Y-79583038D01*
X182821942Y-79583038D01*
X182667123Y-79544333D01*
X182589714Y-79505628D01*
X182551009Y-79466923D01*
X182512304Y-79389514D01*
X182512304Y-79312104D01*
X182551009Y-79234695D01*
X182589714Y-79195990D01*
X182667123Y-79157285D01*
X182821942Y-79118580D01*
X183015466Y-79118580D01*
X183170285Y-79157285D01*
X183247695Y-79195990D01*
X183286400Y-79234695D01*
X183325104Y-79312104D01*
X183325104Y-80086200D02*
X183325104Y-80163609D01*
X183286400Y-80241019D01*
X183247695Y-80279723D01*
X183170285Y-80318428D01*
X183015466Y-80357133D01*
X182821942Y-80357133D01*
X182667123Y-80318428D01*
X182589714Y-80279723D01*
X182551009Y-80241019D01*
X182512304Y-80163609D01*
X182512304Y-80086200D01*
X182551009Y-80008790D01*
X182589714Y-79970085D01*
X182667123Y-79931380D01*
X182821942Y-79892676D01*
X183015466Y-79892676D01*
X183170285Y-79931380D01*
X183247695Y-79970085D01*
X183286400Y-80008790D01*
X183325104Y-80086200D01*
X183054171Y-81053819D02*
X182512304Y-81053819D01*
X183363809Y-80860295D02*
X182783238Y-80666771D01*
X182783238Y-81169933D01*
X183325104Y-81402161D02*
X183325104Y-81944028D01*
X182512304Y-81595685D01*
X182512304Y-82292371D02*
X182512304Y-82447190D01*
X182551009Y-82524600D01*
X182589714Y-82563304D01*
X182705828Y-82640714D01*
X182860647Y-82679419D01*
X183170285Y-82679419D01*
X183247695Y-82640714D01*
X183286400Y-82602009D01*
X183325104Y-82524600D01*
X183325104Y-82369780D01*
X183286400Y-82292371D01*
X183247695Y-82253666D01*
X183170285Y-82214961D01*
X182976761Y-82214961D01*
X182899352Y-82253666D01*
X182860647Y-82292371D01*
X182821942Y-82369780D01*
X182821942Y-82524600D01*
X182860647Y-82602009D01*
X182899352Y-82640714D01*
X182976761Y-82679419D01*
X183325104Y-83414809D02*
X183325104Y-83027761D01*
X182938057Y-82989057D01*
X182976761Y-83027761D01*
X183015466Y-83105171D01*
X183015466Y-83298695D01*
X182976761Y-83376104D01*
X182938057Y-83414809D01*
X182860647Y-83453514D01*
X182667123Y-83453514D01*
X182589714Y-83414809D01*
X182551009Y-83376104D01*
X182512304Y-83298695D01*
X182512304Y-83105171D01*
X182551009Y-83027761D01*
X182589714Y-82989057D01*
X126804057Y-119359438D02*
X126765352Y-119475552D01*
X126726647Y-119514257D01*
X126649238Y-119552961D01*
X126533123Y-119552961D01*
X126455714Y-119514257D01*
X126417009Y-119475552D01*
X126378304Y-119398142D01*
X126378304Y-119088504D01*
X127191104Y-119088504D01*
X127191104Y-119359438D01*
X127152400Y-119436847D01*
X127113695Y-119475552D01*
X127036285Y-119514257D01*
X126958876Y-119514257D01*
X126881466Y-119475552D01*
X126842761Y-119436847D01*
X126804057Y-119359438D01*
X126804057Y-119088504D01*
X126610533Y-119862600D02*
X126610533Y-120249647D01*
X126378304Y-119785190D02*
X127191104Y-120056123D01*
X126378304Y-120327057D01*
X127191104Y-120481876D02*
X127191104Y-120946333D01*
X126378304Y-120714104D02*
X127191104Y-120714104D01*
X127191104Y-121101152D02*
X127191104Y-121565609D01*
X126378304Y-121333380D02*
X127191104Y-121333380D01*
X115917133Y-122949304D02*
X115917133Y-123762104D01*
X115607495Y-123762104D01*
X115530085Y-123723400D01*
X115491380Y-123684695D01*
X115452676Y-123607285D01*
X115452676Y-123491171D01*
X115491380Y-123413761D01*
X115530085Y-123375057D01*
X115607495Y-123336352D01*
X115917133Y-123336352D01*
X115220447Y-123762104D02*
X114949514Y-122949304D01*
X114678580Y-123762104D01*
X113788371Y-122949304D02*
X113788371Y-123762104D01*
X113401323Y-122949304D02*
X113401323Y-123762104D01*
X112936866Y-122949304D01*
X112936866Y-123762104D01*
X169601847Y-120383904D02*
X169098685Y-120383904D01*
X169369619Y-120074266D01*
X169253504Y-120074266D01*
X169176095Y-120035561D01*
X169137390Y-119996857D01*
X169098685Y-119919447D01*
X169098685Y-119725923D01*
X169137390Y-119648514D01*
X169176095Y-119609809D01*
X169253504Y-119571104D01*
X169485733Y-119571104D01*
X169563142Y-119609809D01*
X169601847Y-119648514D01*
X168750342Y-119648514D02*
X168711638Y-119609809D01*
X168750342Y-119571104D01*
X168789047Y-119609809D01*
X168750342Y-119648514D01*
X168750342Y-119571104D01*
X168247180Y-120035561D02*
X168324590Y-120074266D01*
X168363295Y-120112971D01*
X168402000Y-120190380D01*
X168402000Y-120229085D01*
X168363295Y-120306495D01*
X168324590Y-120345200D01*
X168247180Y-120383904D01*
X168092361Y-120383904D01*
X168014952Y-120345200D01*
X167976247Y-120306495D01*
X167937542Y-120229085D01*
X167937542Y-120190380D01*
X167976247Y-120112971D01*
X168014952Y-120074266D01*
X168092361Y-120035561D01*
X168247180Y-120035561D01*
X168324590Y-119996857D01*
X168363295Y-119958152D01*
X168402000Y-119880742D01*
X168402000Y-119725923D01*
X168363295Y-119648514D01*
X168324590Y-119609809D01*
X168247180Y-119571104D01*
X168092361Y-119571104D01*
X168014952Y-119609809D01*
X167976247Y-119648514D01*
X167937542Y-119725923D01*
X167937542Y-119880742D01*
X167976247Y-119958152D01*
X168014952Y-119996857D01*
X168092361Y-120035561D01*
X167705314Y-120383904D02*
X167434380Y-119571104D01*
X167163447Y-120383904D01*
X169737314Y-118238209D02*
X169621200Y-118199504D01*
X169427676Y-118199504D01*
X169350266Y-118238209D01*
X169311561Y-118276914D01*
X169272857Y-118354323D01*
X169272857Y-118431733D01*
X169311561Y-118509142D01*
X169350266Y-118547847D01*
X169427676Y-118586552D01*
X169582495Y-118625257D01*
X169659904Y-118663961D01*
X169698609Y-118702666D01*
X169737314Y-118780076D01*
X169737314Y-118857485D01*
X169698609Y-118934895D01*
X169659904Y-118973600D01*
X169582495Y-119012304D01*
X169388971Y-119012304D01*
X169272857Y-118973600D01*
X168963219Y-118431733D02*
X168576171Y-118431733D01*
X169040628Y-118199504D02*
X168769695Y-119012304D01*
X168498761Y-118199504D01*
X167763371Y-118199504D02*
X168034304Y-118586552D01*
X168227828Y-118199504D02*
X168227828Y-119012304D01*
X167918190Y-119012304D01*
X167840780Y-118973600D01*
X167802076Y-118934895D01*
X167763371Y-118857485D01*
X167763371Y-118741371D01*
X167802076Y-118663961D01*
X167840780Y-118625257D01*
X167918190Y-118586552D01*
X168227828Y-118586552D01*
X167453733Y-118431733D02*
X167066685Y-118431733D01*
X167531142Y-118199504D02*
X167260209Y-119012304D01*
X166989276Y-118199504D01*
X136511695Y-90226847D02*
X136550400Y-90265552D01*
X136589104Y-90342961D01*
X136589104Y-90536485D01*
X136550400Y-90613895D01*
X136511695Y-90652600D01*
X136434285Y-90691304D01*
X136356876Y-90691304D01*
X136240761Y-90652600D01*
X135776304Y-90188142D01*
X135776304Y-90691304D01*
X135853714Y-91039647D02*
X135815009Y-91078352D01*
X135776304Y-91039647D01*
X135815009Y-91000942D01*
X135853714Y-91039647D01*
X135776304Y-91039647D01*
X136589104Y-91813742D02*
X136589104Y-91426695D01*
X136202057Y-91387990D01*
X136240761Y-91426695D01*
X136279466Y-91504104D01*
X136279466Y-91697628D01*
X136240761Y-91775038D01*
X136202057Y-91813742D01*
X136124647Y-91852447D01*
X135931123Y-91852447D01*
X135853714Y-91813742D01*
X135815009Y-91775038D01*
X135776304Y-91697628D01*
X135776304Y-91504104D01*
X135815009Y-91426695D01*
X135853714Y-91387990D01*
X136589104Y-92084676D02*
X135776304Y-92355609D01*
X136589104Y-92626542D01*
X135776304Y-93516752D02*
X136589104Y-93516752D01*
X135776304Y-93981209D01*
X136589104Y-93981209D01*
X135776304Y-94368257D02*
X136589104Y-94368257D01*
X135776304Y-94755304D02*
X136589104Y-94755304D01*
X135776304Y-95219761D01*
X136589104Y-95219761D01*
X136008533Y-95568104D02*
X136008533Y-95955152D01*
X135776304Y-95490695D02*
X136589104Y-95761628D01*
X135776304Y-96032561D01*
D12*
X161036000Y-109463000D02*
X161036000Y-111263000D01*
D13*
X136650000Y-112740221D02*
X136650000Y-113065779D01*
X137670000Y-112740221D02*
X137670000Y-113065779D01*
D11*
X157988000Y-76835000D02*
X175768000Y-76835000D01*
X175768000Y-76835000D02*
X175768000Y-74295000D01*
X175768000Y-74295000D02*
X157988000Y-74295000D01*
X155168000Y-77115000D02*
X156718000Y-77115000D01*
X157988000Y-76835000D02*
X157988000Y-74295000D01*
X156718000Y-74015000D02*
X155168000Y-74015000D01*
X155168000Y-74015000D02*
X155168000Y-77115000D01*
X162812000Y-81244221D02*
X162812000Y-81569779D01*
X163832000Y-81244221D02*
X163832000Y-81569779D01*
X168486000Y-82507000D02*
X168486000Y-81907000D01*
X168486000Y-82507000D02*
X168236000Y-82507000D01*
X166286000Y-82507000D02*
X166536000Y-82507000D01*
X166286000Y-82507000D02*
X166286000Y-81907000D01*
X166286000Y-80307000D02*
X166536000Y-80307000D01*
X166286000Y-80307000D02*
X166286000Y-80907000D01*
X168486000Y-80917000D02*
X168486000Y-80307000D01*
X125664000Y-82677000D02*
G75*
G03X125664000Y-82677000I-950000J0D01*
G01*
X122616000Y-82677000D02*
G75*
G03X122616000Y-82677000I-950000J0D01*
G01*
X119568000Y-82677000D02*
G75*
G03X119568000Y-82677000I-950000J0D01*
G01*
X128712000Y-82677000D02*
G75*
G03X128712000Y-82677000I-950000J0D01*
G01*
X166196000Y-117715000D02*
X170406000Y-117715000D01*
X166196000Y-114695000D02*
X166196000Y-117715000D01*
X170406000Y-114695000D02*
X166196000Y-114695000D01*
X139557000Y-110673000D02*
X139082000Y-110673000D01*
X139082000Y-110673000D02*
X139082000Y-102373000D01*
X139082000Y-102373000D02*
X139557000Y-102373000D01*
X141807000Y-110673000D02*
X142282000Y-110673000D01*
X142282000Y-110673000D02*
X142282000Y-102373000D01*
X142282000Y-102373000D02*
X141807000Y-102373000D01*
X138782000Y-108823000D02*
X138782000Y-106823000D01*
X116236000Y-120859000D02*
X114236000Y-120884000D01*
X116236000Y-112059000D02*
X114236000Y-112059000D01*
X112236000Y-112059000D02*
X111086000Y-112059000D01*
X111086000Y-112059000D02*
X111086000Y-120859000D01*
X111086000Y-120859000D02*
X112236000Y-120859000D01*
X116236000Y-109175000D02*
X114236000Y-109200000D01*
X116236000Y-100375000D02*
X114236000Y-100375000D01*
X112236000Y-100375000D02*
X111086000Y-100375000D01*
X111086000Y-100375000D02*
X111086000Y-109175000D01*
X111086000Y-109175000D02*
X112236000Y-109175000D01*
X121424000Y-122853000D02*
X121424000Y-120733000D01*
X119364000Y-122853000D02*
X121424000Y-122853000D01*
X119364000Y-120733000D02*
X121424000Y-120733000D01*
X119364000Y-122853000D02*
X119364000Y-120733000D01*
X118364000Y-122853000D02*
X117304000Y-122853000D01*
X117304000Y-122853000D02*
X117304000Y-121793000D01*
X137624000Y-121329000D02*
X137624000Y-120269000D01*
X138684000Y-121329000D02*
X137624000Y-121329000D01*
X139684000Y-121329000D02*
X139684000Y-119209000D01*
X139684000Y-119209000D02*
X141744000Y-119209000D01*
X139684000Y-121329000D02*
X141744000Y-121329000D01*
X141744000Y-121329000D02*
X141744000Y-119209000D01*
X162548000Y-120821000D02*
X162548000Y-119761000D01*
X163608000Y-120821000D02*
X162548000Y-120821000D01*
X164608000Y-120821000D02*
X164608000Y-118701000D01*
X164608000Y-118701000D02*
X166668000Y-118701000D01*
X164608000Y-120821000D02*
X166668000Y-120821000D01*
X166668000Y-120821000D02*
X166668000Y-118701000D01*
X139490000Y-94151000D02*
X138430000Y-94151000D01*
X139490000Y-93091000D02*
X139490000Y-94151000D01*
X139490000Y-92091000D02*
X137370000Y-92091000D01*
X137370000Y-92091000D02*
X137370000Y-90031000D01*
X139490000Y-92091000D02*
X139490000Y-90031000D01*
X139490000Y-90031000D02*
X137370000Y-90031000D01*
X136419000Y-121529000D02*
X136419000Y-120679000D01*
X136419000Y-120679000D02*
X134094000Y-120679000D01*
X134094000Y-120679000D02*
X134094000Y-118289000D01*
X128249000Y-121529000D02*
X128249000Y-120679000D01*
X128249000Y-120679000D02*
X130574000Y-120679000D01*
X136419000Y-125049000D02*
X136419000Y-125899000D01*
X136419000Y-125899000D02*
X128249000Y-125899000D01*
X128249000Y-125899000D02*
X128249000Y-125049000D01*
X123566422Y-97103000D02*
X124083578Y-97103000D01*
X123566422Y-95683000D02*
X124083578Y-95683000D01*
X124083578Y-97715000D02*
X123566422Y-97715000D01*
X124083578Y-99135000D02*
X123566422Y-99135000D01*
X159253422Y-118439000D02*
X159770578Y-118439000D01*
X159253422Y-117019000D02*
X159770578Y-117019000D01*
X135296000Y-100065000D02*
X135296000Y-102515000D01*
X138516000Y-101865000D02*
X138516000Y-100065000D01*
X122566000Y-114849000D02*
X120116000Y-114849000D01*
X120766000Y-118069000D02*
X122566000Y-118069000D01*
X122566000Y-103165000D02*
X120116000Y-103165000D01*
X120766000Y-106385000D02*
X122566000Y-106385000D01*
X162156000Y-112911000D02*
X162156000Y-113911000D01*
X159916000Y-114911000D02*
X159916000Y-112911000D01*
X159349221Y-116461000D02*
X159674779Y-116461000D01*
X159349221Y-115441000D02*
X159674779Y-115441000D01*
X162976779Y-115441000D02*
X162651221Y-115441000D01*
X162976779Y-116461000D02*
X162651221Y-116461000D01*
X159349221Y-120017000D02*
X159674779Y-120017000D01*
X159349221Y-118997000D02*
X159674779Y-118997000D01*
X160944779Y-107567000D02*
X160619221Y-107567000D01*
X160944779Y-108587000D02*
X160619221Y-108587000D01*
X115824000Y-125603000D02*
X115824000Y-124587000D01*
X116332000Y-125095000D02*
X115316000Y-125095000D01*
X113792000Y-125095000D02*
X112776000Y-125095000D01*
X114284000Y-125095000D02*
G75*
G03X114284000Y-125095000I-1000000J0D01*
G01*
X116808000Y-125095000D02*
G75*
G03X116808000Y-125095000I-1000000J0D01*
G01*
X114808000Y-125095000D02*
X114299000Y-125095000D01*
X151745000Y-110928000D02*
X152470000Y-110928000D01*
X152470000Y-110928000D02*
X152470000Y-111653000D01*
X147975000Y-116148000D02*
X147250000Y-116148000D01*
X147250000Y-116148000D02*
X147250000Y-115423000D01*
X151745000Y-116148000D02*
X152470000Y-116148000D01*
X152470000Y-116148000D02*
X152470000Y-115423000D01*
X147975000Y-110928000D02*
X147250000Y-110928000D01*
X117304000Y-125901000D02*
X117304000Y-124841000D01*
X118364000Y-125901000D02*
X117304000Y-125901000D01*
X119364000Y-125901000D02*
X119364000Y-123781000D01*
X119364000Y-123781000D02*
X121424000Y-123781000D01*
X119364000Y-125901000D02*
X121424000Y-125901000D01*
X121424000Y-125901000D02*
X121424000Y-123781000D01*
X125204000Y-94535000D02*
X125204000Y-94035000D01*
X125204000Y-84535000D02*
X125204000Y-85035000D01*
X111204500Y-94533720D02*
X125202440Y-94533720D01*
X111204500Y-84536280D02*
X111204500Y-94533720D01*
X125202440Y-84536280D02*
X111204500Y-84536280D01*
X126204000Y-94533720D02*
X126204000Y-84536280D01*
X126204000Y-84535000D02*
X125204000Y-84535000D01*
X126204000Y-94535000D02*
X125204000Y-94535000D01*
X164847500Y-87185500D02*
G75*
G03X164847500Y-87185500I-700000J0D01*
G01*
X130228000Y-104624000D02*
X130228000Y-103399000D01*
X127103000Y-104624000D02*
X127103000Y-107974000D01*
X130453000Y-104624000D02*
X130453000Y-107974000D01*
X127103000Y-104624000D02*
X127403000Y-104624000D01*
X127103000Y-107974000D02*
X127403000Y-107974000D01*
X130453000Y-107974000D02*
X130153000Y-107974000D01*
X130453000Y-104624000D02*
X130228000Y-104624000D01*
X179072000Y-78521779D02*
X179072000Y-78196221D01*
X178052000Y-78521779D02*
X178052000Y-78196221D01*
X177548000Y-78521779D02*
X177548000Y-78196221D01*
X176528000Y-78521779D02*
X176528000Y-78196221D01*
X148831246Y-85033816D02*
X148601041Y-85264021D01*
X149552495Y-85755065D02*
X149322290Y-85985270D01*
X136146000Y-113065779D02*
X136146000Y-112740221D01*
X135126000Y-113065779D02*
X135126000Y-112740221D01*
X129538000Y-111978221D02*
X129538000Y-112303779D01*
X130558000Y-111978221D02*
X130558000Y-112303779D01*
X138936000Y-83784221D02*
X138936000Y-84109779D01*
X139956000Y-83784221D02*
X139956000Y-84109779D01*
X121828779Y-111631000D02*
X121503221Y-111631000D01*
X121828779Y-112651000D02*
X121503221Y-112651000D01*
X123166000Y-120357000D02*
X120616000Y-120357000D01*
X123166000Y-118657000D02*
X120616000Y-118657000D01*
X123166000Y-120357000D02*
X123166000Y-118657000D01*
X117563000Y-97436000D02*
X115278000Y-97436000D01*
X117563000Y-98906000D02*
X117563000Y-97436000D01*
X115278000Y-98906000D02*
X117563000Y-98906000D01*
X117563000Y-95912000D02*
X115278000Y-95912000D01*
X117563000Y-97382000D02*
X117563000Y-95912000D01*
X115278000Y-97382000D02*
X117563000Y-97382000D01*
X177827000Y-73826000D02*
X177827000Y-76111000D01*
X179297000Y-73826000D02*
X177827000Y-73826000D01*
X179297000Y-76111000D02*
X179297000Y-73826000D01*
X176303000Y-73826000D02*
X176303000Y-76111000D01*
X177773000Y-73826000D02*
X176303000Y-73826000D01*
X177773000Y-76111000D02*
X177773000Y-73826000D01*
X130783000Y-116928000D02*
X130783000Y-114643000D01*
X129313000Y-116928000D02*
X130783000Y-116928000D01*
X129313000Y-114643000D02*
X129313000Y-116928000D01*
X133438000Y-99211000D02*
X133438000Y-101761000D01*
X131738000Y-99211000D02*
X131738000Y-101761000D01*
X133438000Y-99211000D02*
X131738000Y-99211000D01*
X123166000Y-108673000D02*
X120616000Y-108673000D01*
X123166000Y-106973000D02*
X120616000Y-106973000D01*
X123166000Y-108673000D02*
X123166000Y-106973000D01*
X128615221Y-102745000D02*
X128940779Y-102745000D01*
X128615221Y-101725000D02*
X128940779Y-101725000D01*
X128615221Y-101221000D02*
X128940779Y-101221000D01*
X128615221Y-100201000D02*
X128940779Y-100201000D01*
X121828779Y-113155000D02*
X121503221Y-113155000D01*
X121828779Y-114175000D02*
X121503221Y-114175000D01*
X167477221Y-109603000D02*
X167802779Y-109603000D01*
X167477221Y-108583000D02*
X167802779Y-108583000D01*
X167477221Y-111127000D02*
X167802779Y-111127000D01*
X167477221Y-110107000D02*
X167802779Y-110107000D01*
X167477221Y-112651000D02*
X167802779Y-112651000D01*
X167477221Y-111631000D02*
X167802779Y-111631000D01*
X167477221Y-114175000D02*
X167802779Y-114175000D01*
X167477221Y-113155000D02*
X167802779Y-113155000D01*
X167438800Y-106614179D02*
X167438800Y-106288621D01*
X166418800Y-106614179D02*
X166418800Y-106288621D01*
X121828779Y-99947000D02*
X121503221Y-99947000D01*
X121828779Y-100967000D02*
X121503221Y-100967000D01*
X164336000Y-81244221D02*
X164336000Y-81569779D01*
X165356000Y-81244221D02*
X165356000Y-81569779D01*
X119471221Y-98681000D02*
X119796779Y-98681000D01*
X119471221Y-97661000D02*
X119796779Y-97661000D01*
X119471221Y-97157000D02*
X119796779Y-97157000D01*
X119471221Y-96137000D02*
X119796779Y-96137000D01*
X177200779Y-111250000D02*
X176875221Y-111250000D01*
X177200779Y-112270000D02*
X176875221Y-112270000D01*
X179024000Y-100111779D02*
X179024000Y-99786221D01*
X178004000Y-100111779D02*
X178004000Y-99786221D01*
X149678671Y-83599804D02*
X149908876Y-83830009D01*
X150399920Y-82878555D02*
X150630125Y-83108760D01*
X114970779Y-83183000D02*
X114645221Y-83183000D01*
X114970779Y-84203000D02*
X114645221Y-84203000D01*
X114970779Y-81659000D02*
X114645221Y-81659000D01*
X114970779Y-82679000D02*
X114645221Y-82679000D01*
X178310000Y-109636779D02*
X178310000Y-109311221D01*
X177290000Y-109636779D02*
X177290000Y-109311221D01*
X177914779Y-101725000D02*
X177589221Y-101725000D01*
X177914779Y-102745000D02*
X177589221Y-102745000D01*
X176480000Y-99786221D02*
X176480000Y-100111779D01*
X177500000Y-99786221D02*
X177500000Y-100111779D01*
X175976000Y-100111779D02*
X175976000Y-99786221D01*
X174956000Y-100111779D02*
X174956000Y-99786221D01*
X173432000Y-99786221D02*
X173432000Y-100111779D01*
X174452000Y-99786221D02*
X174452000Y-100111779D01*
X150399920Y-87062901D02*
X150630125Y-86832696D01*
X149678671Y-86341652D02*
X149908876Y-86111447D01*
X147753615Y-83956186D02*
X147523410Y-84186391D01*
X148474864Y-84677435D02*
X148244659Y-84907640D01*
X150530779Y-117219000D02*
X150205221Y-117219000D01*
X150530779Y-118239000D02*
X150205221Y-118239000D01*
X132679221Y-115953000D02*
X133004779Y-115953000D01*
X132679221Y-114933000D02*
X133004779Y-114933000D01*
X145196779Y-116457000D02*
X144871221Y-116457000D01*
X145196779Y-117477000D02*
X144871221Y-117477000D01*
X144871221Y-111889000D02*
X145196779Y-111889000D01*
X144871221Y-110869000D02*
X145196779Y-110869000D01*
X151640000Y-108493779D02*
X151640000Y-108168221D01*
X150620000Y-108493779D02*
X150620000Y-108168221D01*
X138432000Y-84109779D02*
X138432000Y-83784221D01*
X137412000Y-84109779D02*
X137412000Y-83784221D01*
X134876000Y-100873779D02*
X134876000Y-100548221D01*
X133856000Y-100873779D02*
X133856000Y-100548221D01*
X128051779Y-84453000D02*
X127726221Y-84453000D01*
X128051779Y-85473000D02*
X127726221Y-85473000D01*
X121503221Y-102491000D02*
X121828779Y-102491000D01*
X121503221Y-101471000D02*
X121828779Y-101471000D01*
X133602000Y-104104221D02*
X133602000Y-104429779D01*
X134622000Y-104104221D02*
X134622000Y-104429779D01*
X131232000Y-111749000D02*
X131232000Y-113549000D01*
X134452000Y-113549000D02*
X134452000Y-111099000D01*
X183413000Y-120260000D02*
X183413000Y-123580000D01*
X190633000Y-120260000D02*
X190633000Y-123580000D01*
X185363000Y-125530000D02*
X188683000Y-125530000D01*
X185363000Y-118310000D02*
X188683000Y-118310000D01*
X135675000Y-81334000D02*
X131025000Y-81334000D01*
X136750000Y-88159000D02*
X131025000Y-88159000D01*
X135675000Y-81334000D02*
X135675000Y-81359000D01*
X131025000Y-81334000D02*
X131025000Y-81359000D01*
X131025000Y-88159000D02*
X131025000Y-88059000D01*
X121843000Y-79035000D02*
X121743000Y-79035000D01*
X120243000Y-74635000D02*
X120243000Y-79035000D01*
X123343000Y-79035000D02*
X123343000Y-74635000D01*
X121843000Y-74635000D02*
X121743000Y-74635000D01*
X148073000Y-81080000D02*
X151393000Y-81080000D01*
X148073000Y-73860000D02*
X151393000Y-73860000D01*
X153343000Y-79130000D02*
X153343000Y-75810000D01*
X146123000Y-79130000D02*
X146123000Y-75810000D01*
X117933000Y-74635000D02*
X118033000Y-74635000D01*
X119533000Y-79035000D02*
X119533000Y-74635000D01*
X116433000Y-74635000D02*
X116433000Y-79035000D01*
X117933000Y-79035000D02*
X118033000Y-79035000D01*
X141287000Y-76176000D02*
X134087000Y-76176000D01*
X141287000Y-73176000D02*
X141287000Y-76176000D01*
X133287000Y-73176000D02*
X141287000Y-73176000D01*
X133287000Y-75376000D02*
X133287000Y-73176000D01*
X134087000Y-76176000D02*
X133287000Y-75376000D01*
X173166000Y-80374000D02*
X171266000Y-80374000D01*
X171766000Y-82694000D02*
X173166000Y-82694000D01*
X132650000Y-93489000D02*
X134050000Y-93489000D01*
X134050000Y-91169000D02*
X132150000Y-91169000D01*
X183795000Y-73859000D02*
X184595000Y-73059000D01*
X184595000Y-73059000D02*
X193195000Y-73059000D01*
X193195000Y-73059000D02*
X193195000Y-109059000D01*
X193195000Y-109059000D02*
X183795000Y-109059000D01*
X183795000Y-109059000D02*
X183795000Y-73859000D01*
X114123000Y-74635000D02*
X114223000Y-74635000D01*
X115723000Y-79035000D02*
X115723000Y-74635000D01*
X112623000Y-74635000D02*
X112623000Y-79035000D01*
X114123000Y-79035000D02*
X114223000Y-79035000D01*
X169574000Y-104757000D02*
X143354000Y-104757000D01*
X167664000Y-88537000D02*
X143354000Y-88537000D01*
X143354000Y-104757000D02*
X143354000Y-88537000D01*
X169574000Y-104757000D02*
X169574000Y-90447000D01*
X169574000Y-90447000D02*
X167664000Y-88537000D01*
X146380000Y-115673000D02*
X146380000Y-112673000D01*
X143180000Y-115673000D02*
X143180000Y-112673000D01*
X150090000Y-106731000D02*
X147090000Y-106731000D01*
X150090000Y-109931000D02*
X147090000Y-109931000D01*
X137388000Y-122275000D02*
X137388000Y-125375000D01*
X138938000Y-122275000D02*
X137388000Y-122275000D01*
X140208000Y-125095000D02*
X140208000Y-122555000D01*
X137388000Y-125375000D02*
X138938000Y-125375000D01*
X157988000Y-122555000D02*
X140208000Y-122555000D01*
X157988000Y-125095000D02*
X157988000Y-122555000D01*
X140208000Y-125095000D02*
X157988000Y-125095000D01*
X160248000Y-122275000D02*
X160248000Y-125375000D01*
X161798000Y-122275000D02*
X160248000Y-122275000D01*
X163068000Y-125095000D02*
X163068000Y-122555000D01*
X160248000Y-125375000D02*
X161798000Y-125375000D01*
X175768000Y-122555000D02*
X163068000Y-122555000D01*
X175768000Y-125095000D02*
X175768000Y-122555000D01*
X163068000Y-125095000D02*
X175768000Y-125095000D01*
X155168000Y-74015000D02*
X155168000Y-77115000D01*
X156718000Y-74015000D02*
X155168000Y-74015000D01*
X157988000Y-76835000D02*
X157988000Y-74295000D01*
X155168000Y-77115000D02*
X156718000Y-77115000D01*
X175768000Y-74295000D02*
X157988000Y-74295000D01*
X175768000Y-76835000D02*
X175768000Y-74295000D01*
X157988000Y-76835000D02*
X175768000Y-76835000D01*
X127254000Y-123825000D02*
G75*
G03X127254000Y-123825000I-2286000J0D01*
G01*
X179324000Y-118745000D02*
G75*
G03X179324000Y-118745000I-2286000J0D01*
G01*
X128524000Y-75565000D02*
G75*
G03X128524000Y-75565000I-2286000J0D01*
G01*
X179324000Y-90805000D02*
G75*
G03X179324000Y-90805000I-2286000J0D01*
G01*
D10*
X160011533Y-108317695D02*
X159624485Y-108317695D01*
X159624485Y-107504895D01*
X160205057Y-107504895D02*
X160708219Y-107504895D01*
X160437285Y-107814533D01*
X160553400Y-107814533D01*
X160630809Y-107853238D01*
X160669514Y-107891942D01*
X160708219Y-107969352D01*
X160708219Y-108162876D01*
X160669514Y-108240285D01*
X160630809Y-108278990D01*
X160553400Y-108317695D01*
X160321171Y-108317695D01*
X160243761Y-108278990D01*
X160205057Y-108240285D01*
D11*
X139042380Y-113545857D02*
X138566190Y-113879190D01*
X139042380Y-114117285D02*
X138042380Y-114117285D01*
X138042380Y-113736333D01*
X138090000Y-113641095D01*
X138137619Y-113593476D01*
X138232857Y-113545857D01*
X138375714Y-113545857D01*
X138470952Y-113593476D01*
X138518571Y-113641095D01*
X138566190Y-113736333D01*
X138566190Y-114117285D01*
X138137619Y-113164904D02*
X138090000Y-113117285D01*
X138042380Y-113022047D01*
X138042380Y-112783952D01*
X138090000Y-112688714D01*
X138137619Y-112641095D01*
X138232857Y-112593476D01*
X138328095Y-112593476D01*
X138470952Y-112641095D01*
X139042380Y-113212523D01*
X139042380Y-112593476D01*
X138042380Y-112260142D02*
X138042380Y-111641095D01*
X138423333Y-111974428D01*
X138423333Y-111831571D01*
X138470952Y-111736333D01*
X138518571Y-111688714D01*
X138613809Y-111641095D01*
X138851904Y-111641095D01*
X138947142Y-111688714D01*
X138994761Y-111736333D01*
X139042380Y-111831571D01*
X139042380Y-112117285D01*
X138994761Y-112212523D01*
X138947142Y-112260142D01*
D10*
X155285923Y-77229304D02*
X155285923Y-78042104D01*
X154976285Y-78042104D01*
X154898876Y-78003400D01*
X154860171Y-77964695D01*
X154821466Y-77887285D01*
X154821466Y-77771171D01*
X154860171Y-77693761D01*
X154898876Y-77655057D01*
X154976285Y-77616352D01*
X155285923Y-77616352D01*
X154550533Y-78042104D02*
X154047371Y-78042104D01*
X154318304Y-77732466D01*
X154202190Y-77732466D01*
X154124780Y-77693761D01*
X154086076Y-77655057D01*
X154047371Y-77577647D01*
X154047371Y-77384123D01*
X154086076Y-77306714D01*
X154124780Y-77268009D01*
X154202190Y-77229304D01*
X154434419Y-77229304D01*
X154511828Y-77268009D01*
X154550533Y-77306714D01*
X162954304Y-83678485D02*
X163341352Y-83407552D01*
X162954304Y-83214028D02*
X163767104Y-83214028D01*
X163767104Y-83523666D01*
X163728400Y-83601076D01*
X163689695Y-83639780D01*
X163612285Y-83678485D01*
X163496171Y-83678485D01*
X163418761Y-83639780D01*
X163380057Y-83601076D01*
X163341352Y-83523666D01*
X163341352Y-83214028D01*
X162954304Y-84452580D02*
X162954304Y-83988123D01*
X162954304Y-84220352D02*
X163767104Y-84220352D01*
X163650990Y-84142942D01*
X163573580Y-84065533D01*
X163534876Y-83988123D01*
X162954304Y-84839628D02*
X162954304Y-84994447D01*
X162993009Y-85071857D01*
X163031714Y-85110561D01*
X163147828Y-85187971D01*
X163302647Y-85226676D01*
X163612285Y-85226676D01*
X163689695Y-85187971D01*
X163728400Y-85149266D01*
X163767104Y-85071857D01*
X163767104Y-84917038D01*
X163728400Y-84839628D01*
X163689695Y-84800923D01*
X163612285Y-84762219D01*
X163418761Y-84762219D01*
X163341352Y-84800923D01*
X163302647Y-84839628D01*
X163263942Y-84917038D01*
X163263942Y-85071857D01*
X163302647Y-85149266D01*
X163341352Y-85187971D01*
X163418761Y-85226676D01*
X169831104Y-80400676D02*
X169173123Y-80400676D01*
X169095714Y-80439380D01*
X169057009Y-80478085D01*
X169018304Y-80555495D01*
X169018304Y-80710314D01*
X169057009Y-80787723D01*
X169095714Y-80826428D01*
X169173123Y-80865133D01*
X169831104Y-80865133D01*
X169018304Y-81677933D02*
X169018304Y-81213476D01*
X169018304Y-81445704D02*
X169831104Y-81445704D01*
X169714990Y-81368295D01*
X169637580Y-81290885D01*
X169598876Y-81213476D01*
X169018304Y-82452028D02*
X169018304Y-81987571D01*
X169018304Y-82219800D02*
X169831104Y-82219800D01*
X169714990Y-82142390D01*
X169637580Y-82064980D01*
X169598876Y-81987571D01*
X123635104Y-81651323D02*
X123635104Y-82115780D01*
X122822304Y-81883552D02*
X123635104Y-81883552D01*
X122822304Y-82386714D02*
X123635104Y-82386714D01*
X123635104Y-82696352D01*
X123596400Y-82773761D01*
X123557695Y-82812466D01*
X123480285Y-82851171D01*
X123364171Y-82851171D01*
X123286761Y-82812466D01*
X123248057Y-82773761D01*
X123209352Y-82696352D01*
X123209352Y-82386714D01*
X123364171Y-83547857D02*
X122822304Y-83547857D01*
X123673809Y-83354333D02*
X123093238Y-83160809D01*
X123093238Y-83663971D01*
X120587104Y-81651323D02*
X120587104Y-82115780D01*
X119774304Y-81883552D02*
X120587104Y-81883552D01*
X119774304Y-82386714D02*
X120587104Y-82386714D01*
X120587104Y-82696352D01*
X120548400Y-82773761D01*
X120509695Y-82812466D01*
X120432285Y-82851171D01*
X120316171Y-82851171D01*
X120238761Y-82812466D01*
X120200057Y-82773761D01*
X120161352Y-82696352D01*
X120161352Y-82386714D01*
X120587104Y-83122104D02*
X120587104Y-83625266D01*
X120277466Y-83354333D01*
X120277466Y-83470447D01*
X120238761Y-83547857D01*
X120200057Y-83586561D01*
X120122647Y-83625266D01*
X119929123Y-83625266D01*
X119851714Y-83586561D01*
X119813009Y-83547857D01*
X119774304Y-83470447D01*
X119774304Y-83238219D01*
X119813009Y-83160809D01*
X119851714Y-83122104D01*
X117539104Y-81651323D02*
X117539104Y-82115780D01*
X116726304Y-81883552D02*
X117539104Y-81883552D01*
X116726304Y-82386714D02*
X117539104Y-82386714D01*
X117539104Y-82696352D01*
X117500400Y-82773761D01*
X117461695Y-82812466D01*
X117384285Y-82851171D01*
X117268171Y-82851171D01*
X117190761Y-82812466D01*
X117152057Y-82773761D01*
X117113352Y-82696352D01*
X117113352Y-82386714D01*
X117461695Y-83160809D02*
X117500400Y-83199514D01*
X117539104Y-83276923D01*
X117539104Y-83470447D01*
X117500400Y-83547857D01*
X117461695Y-83586561D01*
X117384285Y-83625266D01*
X117306876Y-83625266D01*
X117190761Y-83586561D01*
X116726304Y-83122104D01*
X116726304Y-83625266D01*
X126683104Y-81651323D02*
X126683104Y-82115780D01*
X125870304Y-81883552D02*
X126683104Y-81883552D01*
X125870304Y-82386714D02*
X126683104Y-82386714D01*
X126683104Y-82696352D01*
X126644400Y-82773761D01*
X126605695Y-82812466D01*
X126528285Y-82851171D01*
X126412171Y-82851171D01*
X126334761Y-82812466D01*
X126296057Y-82773761D01*
X126257352Y-82696352D01*
X126257352Y-82386714D01*
X125870304Y-83625266D02*
X125870304Y-83160809D01*
X125870304Y-83393038D02*
X126683104Y-83393038D01*
X126566990Y-83315628D01*
X126489580Y-83238219D01*
X126450876Y-83160809D01*
X172480514Y-115914714D02*
X172519219Y-115876009D01*
X172635333Y-115837304D01*
X172712742Y-115837304D01*
X172828857Y-115876009D01*
X172906266Y-115953419D01*
X172944971Y-116030828D01*
X172983676Y-116185647D01*
X172983676Y-116301761D01*
X172944971Y-116456580D01*
X172906266Y-116533990D01*
X172828857Y-116611400D01*
X172712742Y-116650104D01*
X172635333Y-116650104D01*
X172519219Y-116611400D01*
X172480514Y-116572695D01*
X171706419Y-115837304D02*
X172170876Y-115837304D01*
X171938647Y-115837304D02*
X171938647Y-116650104D01*
X172016057Y-116533990D01*
X172093466Y-116456580D01*
X172170876Y-116417876D01*
X171009733Y-116650104D02*
X171164552Y-116650104D01*
X171241961Y-116611400D01*
X171280666Y-116572695D01*
X171358076Y-116456580D01*
X171396780Y-116301761D01*
X171396780Y-115992123D01*
X171358076Y-115914714D01*
X171319371Y-115876009D01*
X171241961Y-115837304D01*
X171087142Y-115837304D01*
X171009733Y-115876009D01*
X170971028Y-115914714D01*
X170932323Y-115992123D01*
X170932323Y-116185647D01*
X170971028Y-116263057D01*
X171009733Y-116301761D01*
X171087142Y-116340466D01*
X171241961Y-116340466D01*
X171319371Y-116301761D01*
X171358076Y-116263057D01*
X171396780Y-116185647D01*
X141139333Y-117158104D02*
X141139333Y-116577533D01*
X141178038Y-116461419D01*
X141255447Y-116384009D01*
X141371561Y-116345304D01*
X141448971Y-116345304D01*
X140752285Y-116345304D02*
X140752285Y-117158104D01*
X140442647Y-117158104D01*
X140365238Y-117119400D01*
X140326533Y-117080695D01*
X140287828Y-117003285D01*
X140287828Y-116887171D01*
X140326533Y-116809761D01*
X140365238Y-116771057D01*
X140442647Y-116732352D01*
X140752285Y-116732352D01*
X140016895Y-117158104D02*
X139513733Y-117158104D01*
X139784666Y-116848466D01*
X139668552Y-116848466D01*
X139591142Y-116809761D01*
X139552438Y-116771057D01*
X139513733Y-116693647D01*
X139513733Y-116500123D01*
X139552438Y-116422714D01*
X139591142Y-116384009D01*
X139668552Y-116345304D01*
X139900780Y-116345304D01*
X139978190Y-116384009D01*
X140016895Y-116422714D01*
X166031333Y-118682104D02*
X166031333Y-118101533D01*
X166070038Y-117985419D01*
X166147447Y-117908009D01*
X166263561Y-117869304D01*
X166340971Y-117869304D01*
X165644285Y-117869304D02*
X165644285Y-118682104D01*
X165334647Y-118682104D01*
X165257238Y-118643400D01*
X165218533Y-118604695D01*
X165179828Y-118527285D01*
X165179828Y-118411171D01*
X165218533Y-118333761D01*
X165257238Y-118295057D01*
X165334647Y-118256352D01*
X165644285Y-118256352D01*
X164870190Y-118604695D02*
X164831485Y-118643400D01*
X164754076Y-118682104D01*
X164560552Y-118682104D01*
X164483142Y-118643400D01*
X164444438Y-118604695D01*
X164405733Y-118527285D01*
X164405733Y-118449876D01*
X164444438Y-118333761D01*
X164908895Y-117869304D01*
X164405733Y-117869304D01*
X137752666Y-94705895D02*
X137752666Y-95286466D01*
X137713961Y-95402580D01*
X137636552Y-95479990D01*
X137520438Y-95518695D01*
X137443028Y-95518695D01*
X138139714Y-95518695D02*
X138139714Y-94705895D01*
X138449352Y-94705895D01*
X138526761Y-94744600D01*
X138565466Y-94783304D01*
X138604171Y-94860714D01*
X138604171Y-94976828D01*
X138565466Y-95054238D01*
X138526761Y-95092942D01*
X138449352Y-95131647D01*
X138139714Y-95131647D01*
X139378266Y-95518695D02*
X138913809Y-95518695D01*
X139146038Y-95518695D02*
X139146038Y-94705895D01*
X139068628Y-94822009D01*
X138991219Y-94899419D01*
X138913809Y-94938123D01*
X127268514Y-96025304D02*
X127539447Y-96412352D01*
X127732971Y-96025304D02*
X127732971Y-96838104D01*
X127423333Y-96838104D01*
X127345923Y-96799400D01*
X127307219Y-96760695D01*
X127268514Y-96683285D01*
X127268514Y-96567171D01*
X127307219Y-96489761D01*
X127345923Y-96451057D01*
X127423333Y-96412352D01*
X127732971Y-96412352D01*
X126958876Y-96760695D02*
X126920171Y-96799400D01*
X126842761Y-96838104D01*
X126649238Y-96838104D01*
X126571828Y-96799400D01*
X126533123Y-96760695D01*
X126494419Y-96683285D01*
X126494419Y-96605876D01*
X126533123Y-96489761D01*
X126997580Y-96025304D01*
X126494419Y-96025304D01*
X126184780Y-96760695D02*
X126146076Y-96799400D01*
X126068666Y-96838104D01*
X125875142Y-96838104D01*
X125797733Y-96799400D01*
X125759028Y-96760695D01*
X125720323Y-96683285D01*
X125720323Y-96605876D01*
X125759028Y-96489761D01*
X126223485Y-96025304D01*
X125720323Y-96025304D01*
X127268514Y-98057304D02*
X127539447Y-98444352D01*
X127732971Y-98057304D02*
X127732971Y-98870104D01*
X127423333Y-98870104D01*
X127345923Y-98831400D01*
X127307219Y-98792695D01*
X127268514Y-98715285D01*
X127268514Y-98599171D01*
X127307219Y-98521761D01*
X127345923Y-98483057D01*
X127423333Y-98444352D01*
X127732971Y-98444352D01*
X126958876Y-98792695D02*
X126920171Y-98831400D01*
X126842761Y-98870104D01*
X126649238Y-98870104D01*
X126571828Y-98831400D01*
X126533123Y-98792695D01*
X126494419Y-98715285D01*
X126494419Y-98637876D01*
X126533123Y-98521761D01*
X126997580Y-98057304D01*
X126494419Y-98057304D01*
X125720323Y-98057304D02*
X126184780Y-98057304D01*
X125952552Y-98057304D02*
X125952552Y-98870104D01*
X126029961Y-98753990D01*
X126107371Y-98676580D01*
X126184780Y-98637876D01*
X157107466Y-117361304D02*
X157378400Y-117748352D01*
X157571923Y-117361304D02*
X157571923Y-118174104D01*
X157262285Y-118174104D01*
X157184876Y-118135400D01*
X157146171Y-118096695D01*
X157107466Y-118019285D01*
X157107466Y-117903171D01*
X157146171Y-117825761D01*
X157184876Y-117787057D01*
X157262285Y-117748352D01*
X157571923Y-117748352D01*
X156410780Y-117903171D02*
X156410780Y-117361304D01*
X156604304Y-118212809D02*
X156797828Y-117632238D01*
X156294666Y-117632238D01*
X138541276Y-98870104D02*
X138541276Y-98212123D01*
X138502571Y-98134714D01*
X138463866Y-98096009D01*
X138386457Y-98057304D01*
X138231638Y-98057304D01*
X138154228Y-98096009D01*
X138115523Y-98134714D01*
X138076819Y-98212123D01*
X138076819Y-98870104D01*
X137341428Y-98599171D02*
X137341428Y-98057304D01*
X137534952Y-98908809D02*
X137728476Y-98328238D01*
X137225314Y-98328238D01*
X125079276Y-116904104D02*
X125079276Y-116246123D01*
X125040571Y-116168714D01*
X125001866Y-116130009D01*
X124924457Y-116091304D01*
X124769638Y-116091304D01*
X124692228Y-116130009D01*
X124653523Y-116168714D01*
X124614819Y-116246123D01*
X124614819Y-116904104D01*
X124266476Y-116826695D02*
X124227771Y-116865400D01*
X124150361Y-116904104D01*
X123956838Y-116904104D01*
X123879428Y-116865400D01*
X123840723Y-116826695D01*
X123802019Y-116749285D01*
X123802019Y-116671876D01*
X123840723Y-116555761D01*
X124305180Y-116091304D01*
X123802019Y-116091304D01*
X125079276Y-105220104D02*
X125079276Y-104562123D01*
X125040571Y-104484714D01*
X125001866Y-104446009D01*
X124924457Y-104407304D01*
X124769638Y-104407304D01*
X124692228Y-104446009D01*
X124653523Y-104484714D01*
X124614819Y-104562123D01*
X124614819Y-105220104D01*
X123802019Y-104407304D02*
X124266476Y-104407304D01*
X124034247Y-104407304D02*
X124034247Y-105220104D01*
X124111657Y-105103990D01*
X124189066Y-105026580D01*
X124266476Y-104987876D01*
X159581104Y-112411723D02*
X158923123Y-112411723D01*
X158845714Y-112450428D01*
X158807009Y-112489133D01*
X158768304Y-112566542D01*
X158768304Y-112721361D01*
X158807009Y-112798771D01*
X158845714Y-112837476D01*
X158923123Y-112876180D01*
X159581104Y-112876180D01*
X159232761Y-113379342D02*
X159271466Y-113301933D01*
X159310171Y-113263228D01*
X159387580Y-113224523D01*
X159426285Y-113224523D01*
X159503695Y-113263228D01*
X159542400Y-113301933D01*
X159581104Y-113379342D01*
X159581104Y-113534161D01*
X159542400Y-113611571D01*
X159503695Y-113650276D01*
X159426285Y-113688980D01*
X159387580Y-113688980D01*
X159310171Y-113650276D01*
X159271466Y-113611571D01*
X159232761Y-113534161D01*
X159232761Y-113379342D01*
X159194057Y-113301933D01*
X159155352Y-113263228D01*
X159077942Y-113224523D01*
X158923123Y-113224523D01*
X158845714Y-113263228D01*
X158807009Y-113301933D01*
X158768304Y-113379342D01*
X158768304Y-113534161D01*
X158807009Y-113611571D01*
X158845714Y-113650276D01*
X158923123Y-113688980D01*
X159077942Y-113688980D01*
X159155352Y-113650276D01*
X159194057Y-113611571D01*
X159232761Y-113534161D01*
X157107466Y-115583304D02*
X157378400Y-115970352D01*
X157571923Y-115583304D02*
X157571923Y-116396104D01*
X157262285Y-116396104D01*
X157184876Y-116357400D01*
X157146171Y-116318695D01*
X157107466Y-116241285D01*
X157107466Y-116125171D01*
X157146171Y-116047761D01*
X157184876Y-116009057D01*
X157262285Y-115970352D01*
X157571923Y-115970352D01*
X156372076Y-116396104D02*
X156759123Y-116396104D01*
X156797828Y-116009057D01*
X156759123Y-116047761D01*
X156681714Y-116086466D01*
X156488190Y-116086466D01*
X156410780Y-116047761D01*
X156372076Y-116009057D01*
X156333371Y-115931647D01*
X156333371Y-115738123D01*
X156372076Y-115660714D01*
X156410780Y-115622009D01*
X156488190Y-115583304D01*
X156681714Y-115583304D01*
X156759123Y-115622009D01*
X156797828Y-115660714D01*
X163336514Y-117090714D02*
X163375219Y-117052009D01*
X163491333Y-117013304D01*
X163568742Y-117013304D01*
X163684857Y-117052009D01*
X163762266Y-117129419D01*
X163800971Y-117206828D01*
X163839676Y-117361647D01*
X163839676Y-117477761D01*
X163800971Y-117632580D01*
X163762266Y-117709990D01*
X163684857Y-117787400D01*
X163568742Y-117826104D01*
X163491333Y-117826104D01*
X163375219Y-117787400D01*
X163336514Y-117748695D01*
X162562419Y-117013304D02*
X163026876Y-117013304D01*
X162794647Y-117013304D02*
X162794647Y-117826104D01*
X162872057Y-117709990D01*
X162949466Y-117632580D01*
X163026876Y-117593876D01*
X161827028Y-117826104D02*
X162214076Y-117826104D01*
X162252780Y-117439057D01*
X162214076Y-117477761D01*
X162136666Y-117516466D01*
X161943142Y-117516466D01*
X161865733Y-117477761D01*
X161827028Y-117439057D01*
X161788323Y-117361647D01*
X161788323Y-117168123D01*
X161827028Y-117090714D01*
X161865733Y-117052009D01*
X161943142Y-117013304D01*
X162136666Y-117013304D01*
X162214076Y-117052009D01*
X162252780Y-117090714D01*
X157240514Y-119216714D02*
X157279219Y-119178009D01*
X157395333Y-119139304D01*
X157472742Y-119139304D01*
X157588857Y-119178009D01*
X157666266Y-119255419D01*
X157704971Y-119332828D01*
X157743676Y-119487647D01*
X157743676Y-119603761D01*
X157704971Y-119758580D01*
X157666266Y-119835990D01*
X157588857Y-119913400D01*
X157472742Y-119952104D01*
X157395333Y-119952104D01*
X157279219Y-119913400D01*
X157240514Y-119874695D01*
X156466419Y-119139304D02*
X156930876Y-119139304D01*
X156698647Y-119139304D02*
X156698647Y-119952104D01*
X156776057Y-119835990D01*
X156853466Y-119758580D01*
X156930876Y-119719876D01*
X155769733Y-119681171D02*
X155769733Y-119139304D01*
X155963257Y-119990809D02*
X156156780Y-119410238D01*
X155653619Y-119410238D01*
X158510514Y-107786714D02*
X158549219Y-107748009D01*
X158665333Y-107709304D01*
X158742742Y-107709304D01*
X158858857Y-107748009D01*
X158936266Y-107825419D01*
X158974971Y-107902828D01*
X159013676Y-108057647D01*
X159013676Y-108173761D01*
X158974971Y-108328580D01*
X158936266Y-108405990D01*
X158858857Y-108483400D01*
X158742742Y-108522104D01*
X158665333Y-108522104D01*
X158549219Y-108483400D01*
X158510514Y-108444695D01*
X157736419Y-107709304D02*
X158200876Y-107709304D01*
X157968647Y-107709304D02*
X157968647Y-108522104D01*
X158046057Y-108405990D01*
X158123466Y-108328580D01*
X158200876Y-108289876D01*
X157465485Y-108522104D02*
X156962323Y-108522104D01*
X157233257Y-108212466D01*
X157117142Y-108212466D01*
X157039733Y-108173761D01*
X157001028Y-108135057D01*
X156962323Y-108057647D01*
X156962323Y-107864123D01*
X157001028Y-107786714D01*
X157039733Y-107748009D01*
X157117142Y-107709304D01*
X157349371Y-107709304D01*
X157426780Y-107748009D01*
X157465485Y-107786714D01*
X146874895Y-118094276D02*
X147532876Y-118094276D01*
X147610285Y-118055571D01*
X147648990Y-118016866D01*
X147687695Y-117939457D01*
X147687695Y-117784638D01*
X147648990Y-117707228D01*
X147610285Y-117668523D01*
X147532876Y-117629819D01*
X146874895Y-117629819D01*
X146874895Y-116894428D02*
X146874895Y-117049247D01*
X146913600Y-117126657D01*
X146952304Y-117165361D01*
X147068419Y-117242771D01*
X147223238Y-117281476D01*
X147532876Y-117281476D01*
X147610285Y-117242771D01*
X147648990Y-117204066D01*
X147687695Y-117126657D01*
X147687695Y-116971838D01*
X147648990Y-116894428D01*
X147610285Y-116855723D01*
X147532876Y-116817019D01*
X147339352Y-116817019D01*
X147261942Y-116855723D01*
X147223238Y-116894428D01*
X147184533Y-116971838D01*
X147184533Y-117126657D01*
X147223238Y-117204066D01*
X147261942Y-117242771D01*
X147339352Y-117281476D01*
X153534533Y-113142485D02*
X153534533Y-113529533D01*
X153302304Y-113065076D02*
X154115104Y-113336009D01*
X153302304Y-113606942D01*
X153728057Y-113877876D02*
X153728057Y-114148809D01*
X153302304Y-114264923D02*
X153302304Y-113877876D01*
X154115104Y-113877876D01*
X154115104Y-114264923D01*
X153302304Y-114613266D02*
X154115104Y-114613266D01*
X153534533Y-114884200D01*
X154115104Y-115155133D01*
X153302304Y-115155133D01*
X153302304Y-115967933D02*
X153302304Y-115503476D01*
X153302304Y-115735704D02*
X154115104Y-115735704D01*
X153998990Y-115658295D01*
X153921580Y-115580885D01*
X153882876Y-115503476D01*
X154115104Y-116471095D02*
X154115104Y-116548504D01*
X154076400Y-116625914D01*
X154037695Y-116664619D01*
X153960285Y-116703323D01*
X153805466Y-116742028D01*
X153611942Y-116742028D01*
X153457123Y-116703323D01*
X153379714Y-116664619D01*
X153341009Y-116625914D01*
X153302304Y-116548504D01*
X153302304Y-116471095D01*
X153341009Y-116393685D01*
X153379714Y-116354980D01*
X153457123Y-116316276D01*
X153611942Y-116277571D01*
X153805466Y-116277571D01*
X153960285Y-116316276D01*
X154037695Y-116354980D01*
X154076400Y-116393685D01*
X154115104Y-116471095D01*
X153302304Y-117129076D02*
X153302304Y-117283895D01*
X153341009Y-117361304D01*
X153379714Y-117400009D01*
X153495828Y-117477419D01*
X153650647Y-117516123D01*
X153960285Y-117516123D01*
X154037695Y-117477419D01*
X154076400Y-117438714D01*
X154115104Y-117361304D01*
X154115104Y-117206485D01*
X154076400Y-117129076D01*
X154037695Y-117090371D01*
X153960285Y-117051666D01*
X153766761Y-117051666D01*
X153689352Y-117090371D01*
X153650647Y-117129076D01*
X153611942Y-117206485D01*
X153611942Y-117361304D01*
X153650647Y-117438714D01*
X153689352Y-117477419D01*
X153766761Y-117516123D01*
X153844171Y-118212809D02*
X153302304Y-118212809D01*
X154153809Y-118019285D02*
X153573238Y-117825761D01*
X153573238Y-118328923D01*
X153302304Y-119064314D02*
X153302304Y-118599857D01*
X153302304Y-118832085D02*
X154115104Y-118832085D01*
X153998990Y-118754676D01*
X153921580Y-118677266D01*
X153882876Y-118599857D01*
X126759304Y-87038542D02*
X127572104Y-87038542D01*
X126759304Y-87503000D01*
X127572104Y-87503000D01*
X126759304Y-87890047D02*
X127572104Y-87890047D01*
X126759304Y-88277095D02*
X127572104Y-88277095D01*
X126759304Y-88741552D01*
X127572104Y-88741552D01*
X126991533Y-89089895D02*
X126991533Y-89476942D01*
X126759304Y-89012485D02*
X127572104Y-89283419D01*
X126759304Y-89554352D01*
X127068942Y-89825285D02*
X127068942Y-90444561D01*
X127185057Y-91102542D02*
X127146352Y-91218657D01*
X127107647Y-91257361D01*
X127030238Y-91296066D01*
X126914123Y-91296066D01*
X126836714Y-91257361D01*
X126798009Y-91218657D01*
X126759304Y-91141247D01*
X126759304Y-90831609D01*
X127572104Y-90831609D01*
X127572104Y-91102542D01*
X127533400Y-91179952D01*
X127494695Y-91218657D01*
X127417285Y-91257361D01*
X127339876Y-91257361D01*
X127262466Y-91218657D01*
X127223761Y-91179952D01*
X127185057Y-91102542D01*
X127185057Y-90831609D01*
X127572104Y-91567000D02*
X127572104Y-92070161D01*
X127262466Y-91799228D01*
X127262466Y-91915342D01*
X127223761Y-91992752D01*
X127185057Y-92031457D01*
X127107647Y-92070161D01*
X126914123Y-92070161D01*
X126836714Y-92031457D01*
X126798009Y-91992752D01*
X126759304Y-91915342D01*
X126759304Y-91683114D01*
X126798009Y-91605704D01*
X126836714Y-91567000D01*
X162315676Y-87694104D02*
X161851219Y-87694104D01*
X162083447Y-86881304D02*
X162083447Y-87694104D01*
X161580285Y-86881304D02*
X161580285Y-87694104D01*
X161270647Y-87694104D01*
X161193238Y-87655400D01*
X161154533Y-87616695D01*
X161115828Y-87539285D01*
X161115828Y-87423171D01*
X161154533Y-87345761D01*
X161193238Y-87307057D01*
X161270647Y-87268352D01*
X161580285Y-87268352D01*
X160380438Y-87694104D02*
X160767485Y-87694104D01*
X160806190Y-87307057D01*
X160767485Y-87345761D01*
X160690076Y-87384466D01*
X160496552Y-87384466D01*
X160419142Y-87345761D01*
X160380438Y-87307057D01*
X160341733Y-87229647D01*
X160341733Y-87036123D01*
X160380438Y-86958714D01*
X160419142Y-86920009D01*
X160496552Y-86881304D01*
X160690076Y-86881304D01*
X160767485Y-86920009D01*
X160806190Y-86958714D01*
X126683104Y-105679723D02*
X126025123Y-105679723D01*
X125947714Y-105718428D01*
X125909009Y-105757133D01*
X125870304Y-105834542D01*
X125870304Y-105989361D01*
X125909009Y-106066771D01*
X125947714Y-106105476D01*
X126025123Y-106144180D01*
X126683104Y-106144180D01*
X126683104Y-106918276D02*
X126683104Y-106531228D01*
X126296057Y-106492523D01*
X126334761Y-106531228D01*
X126373466Y-106608638D01*
X126373466Y-106802161D01*
X126334761Y-106879571D01*
X126296057Y-106918276D01*
X126218647Y-106956980D01*
X126025123Y-106956980D01*
X125947714Y-106918276D01*
X125909009Y-106879571D01*
X125870304Y-106802161D01*
X125870304Y-106608638D01*
X125909009Y-106531228D01*
X125947714Y-106492523D01*
X179464304Y-77836485D02*
X179851352Y-77565552D01*
X179464304Y-77372028D02*
X180277104Y-77372028D01*
X180277104Y-77681666D01*
X180238400Y-77759076D01*
X180199695Y-77797780D01*
X180122285Y-77836485D01*
X180006171Y-77836485D01*
X179928761Y-77797780D01*
X179890057Y-77759076D01*
X179851352Y-77681666D01*
X179851352Y-77372028D01*
X179464304Y-78610580D02*
X179464304Y-78146123D01*
X179464304Y-78378352D02*
X180277104Y-78378352D01*
X180160990Y-78300942D01*
X180083580Y-78223533D01*
X180044876Y-78146123D01*
X180006171Y-79307266D02*
X179464304Y-79307266D01*
X180315809Y-79113742D02*
X179735238Y-78920219D01*
X179735238Y-79423380D01*
X175226514Y-103391304D02*
X175497447Y-103778352D01*
X175690971Y-103391304D02*
X175690971Y-104204104D01*
X175381333Y-104204104D01*
X175303923Y-104165400D01*
X175265219Y-104126695D01*
X175226514Y-104049285D01*
X175226514Y-103933171D01*
X175265219Y-103855761D01*
X175303923Y-103817057D01*
X175381333Y-103778352D01*
X175690971Y-103778352D01*
X174452419Y-103391304D02*
X174916876Y-103391304D01*
X174684647Y-103391304D02*
X174684647Y-104204104D01*
X174762057Y-104087990D01*
X174839466Y-104010580D01*
X174916876Y-103971876D01*
X174142780Y-104126695D02*
X174104076Y-104165400D01*
X174026666Y-104204104D01*
X173833142Y-104204104D01*
X173755733Y-104165400D01*
X173717028Y-104126695D01*
X173678323Y-104049285D01*
X173678323Y-103971876D01*
X173717028Y-103855761D01*
X174181485Y-103391304D01*
X173678323Y-103391304D01*
X147210585Y-86855725D02*
X147675848Y-86937831D01*
X147539006Y-86527305D02*
X148113742Y-87102041D01*
X147894795Y-87320988D01*
X147812690Y-87348357D01*
X147757953Y-87348357D01*
X147675848Y-87320988D01*
X147593743Y-87238883D01*
X147566374Y-87156778D01*
X147566374Y-87102041D01*
X147593743Y-87019936D01*
X147812690Y-86800989D01*
X146663217Y-87403093D02*
X146991638Y-87074673D01*
X146827428Y-87238883D02*
X147402164Y-87813619D01*
X147374795Y-87676777D01*
X147374795Y-87567304D01*
X147402164Y-87485199D01*
X146882164Y-88333619D02*
X146827428Y-88388356D01*
X146745322Y-88415724D01*
X146690586Y-88415724D01*
X146608480Y-88388356D01*
X146471638Y-88306250D01*
X146334796Y-88169408D01*
X146252691Y-88032566D01*
X146225323Y-87950461D01*
X146225323Y-87895724D01*
X146252691Y-87813619D01*
X146307428Y-87758882D01*
X146389533Y-87731514D01*
X146444270Y-87731514D01*
X146526375Y-87758882D01*
X146663217Y-87840988D01*
X146800059Y-87977830D01*
X146882164Y-88114672D01*
X146909533Y-88196777D01*
X146909533Y-88251514D01*
X146882164Y-88333619D01*
X135268304Y-115053533D02*
X135655352Y-114782600D01*
X135268304Y-114589076D02*
X136081104Y-114589076D01*
X136081104Y-114898714D01*
X136042400Y-114976123D01*
X136003695Y-115014828D01*
X135926285Y-115053533D01*
X135810171Y-115053533D01*
X135732761Y-115014828D01*
X135694057Y-114976123D01*
X135655352Y-114898714D01*
X135655352Y-114589076D01*
X136081104Y-115324466D02*
X136081104Y-115827628D01*
X135771466Y-115556695D01*
X135771466Y-115672809D01*
X135732761Y-115750219D01*
X135694057Y-115788923D01*
X135616647Y-115827628D01*
X135423123Y-115827628D01*
X135345714Y-115788923D01*
X135307009Y-115750219D01*
X135268304Y-115672809D01*
X135268304Y-115440580D01*
X135307009Y-115363171D01*
X135345714Y-115324466D01*
X128156304Y-112005533D02*
X128543352Y-111734600D01*
X128156304Y-111541076D02*
X128969104Y-111541076D01*
X128969104Y-111850714D01*
X128930400Y-111928123D01*
X128891695Y-111966828D01*
X128814285Y-112005533D01*
X128698171Y-112005533D01*
X128620761Y-111966828D01*
X128582057Y-111928123D01*
X128543352Y-111850714D01*
X128543352Y-111541076D01*
X128891695Y-112315171D02*
X128930400Y-112353876D01*
X128969104Y-112431285D01*
X128969104Y-112624809D01*
X128930400Y-112702219D01*
X128891695Y-112740923D01*
X128814285Y-112779628D01*
X128736876Y-112779628D01*
X128620761Y-112740923D01*
X128156304Y-112276466D01*
X128156304Y-112779628D01*
X139078304Y-81525533D02*
X139465352Y-81254600D01*
X139078304Y-81061076D02*
X139891104Y-81061076D01*
X139891104Y-81370714D01*
X139852400Y-81448123D01*
X139813695Y-81486828D01*
X139736285Y-81525533D01*
X139620171Y-81525533D01*
X139542761Y-81486828D01*
X139504057Y-81448123D01*
X139465352Y-81370714D01*
X139465352Y-81061076D01*
X139078304Y-82299628D02*
X139078304Y-81835171D01*
X139078304Y-82067400D02*
X139891104Y-82067400D01*
X139774990Y-81989990D01*
X139697580Y-81912580D01*
X139658876Y-81835171D01*
X125137333Y-112199057D02*
X125408266Y-112199057D01*
X125408266Y-111773304D02*
X125408266Y-112586104D01*
X125021219Y-112586104D01*
X124440647Y-112199057D02*
X124324533Y-112160352D01*
X124285828Y-112121647D01*
X124247123Y-112044238D01*
X124247123Y-111928123D01*
X124285828Y-111850714D01*
X124324533Y-111812009D01*
X124401942Y-111773304D01*
X124711580Y-111773304D01*
X124711580Y-112586104D01*
X124440647Y-112586104D01*
X124363238Y-112547400D01*
X124324533Y-112508695D01*
X124285828Y-112431285D01*
X124285828Y-112353876D01*
X124324533Y-112276466D01*
X124363238Y-112237761D01*
X124440647Y-112199057D01*
X124711580Y-112199057D01*
X123937485Y-112508695D02*
X123898780Y-112547400D01*
X123821371Y-112586104D01*
X123627847Y-112586104D01*
X123550438Y-112547400D01*
X123511733Y-112508695D01*
X123473028Y-112431285D01*
X123473028Y-112353876D01*
X123511733Y-112237761D01*
X123976190Y-111773304D01*
X123473028Y-111773304D01*
X125059923Y-119139304D02*
X125059923Y-119952104D01*
X124866400Y-119952104D01*
X124750285Y-119913400D01*
X124672876Y-119835990D01*
X124634171Y-119758580D01*
X124595466Y-119603761D01*
X124595466Y-119487647D01*
X124634171Y-119332828D01*
X124672876Y-119255419D01*
X124750285Y-119178009D01*
X124866400Y-119139304D01*
X125059923Y-119139304D01*
X124324533Y-119952104D02*
X123821371Y-119952104D01*
X124092304Y-119642466D01*
X123976190Y-119642466D01*
X123898780Y-119603761D01*
X123860076Y-119565057D01*
X123821371Y-119487647D01*
X123821371Y-119294123D01*
X123860076Y-119216714D01*
X123898780Y-119178009D01*
X123976190Y-119139304D01*
X124208419Y-119139304D01*
X124285828Y-119178009D01*
X124324533Y-119216714D01*
X113939561Y-97803304D02*
X114326609Y-97803304D01*
X114326609Y-98616104D01*
X113668628Y-98229057D02*
X113397695Y-98229057D01*
X113281580Y-97803304D02*
X113668628Y-97803304D01*
X113668628Y-98616104D01*
X113281580Y-98616104D01*
X112933238Y-97803304D02*
X112933238Y-98616104D01*
X112739714Y-98616104D01*
X112623600Y-98577400D01*
X112546190Y-98499990D01*
X112507485Y-98422580D01*
X112468780Y-98267761D01*
X112468780Y-98151647D01*
X112507485Y-97996828D01*
X112546190Y-97919419D01*
X112623600Y-97842009D01*
X112739714Y-97803304D01*
X112933238Y-97803304D01*
X112197847Y-98616104D02*
X111694685Y-98616104D01*
X111965619Y-98306466D01*
X111849504Y-98306466D01*
X111772095Y-98267761D01*
X111733390Y-98229057D01*
X111694685Y-98151647D01*
X111694685Y-97958123D01*
X111733390Y-97880714D01*
X111772095Y-97842009D01*
X111849504Y-97803304D01*
X112081733Y-97803304D01*
X112159142Y-97842009D01*
X112197847Y-97880714D01*
X113939561Y-96279304D02*
X114326609Y-96279304D01*
X114326609Y-97092104D01*
X113668628Y-96705057D02*
X113397695Y-96705057D01*
X113281580Y-96279304D02*
X113668628Y-96279304D01*
X113668628Y-97092104D01*
X113281580Y-97092104D01*
X112933238Y-96279304D02*
X112933238Y-97092104D01*
X112739714Y-97092104D01*
X112623600Y-97053400D01*
X112546190Y-96975990D01*
X112507485Y-96898580D01*
X112468780Y-96743761D01*
X112468780Y-96627647D01*
X112507485Y-96472828D01*
X112546190Y-96395419D01*
X112623600Y-96318009D01*
X112739714Y-96279304D01*
X112933238Y-96279304D01*
X112159142Y-97014695D02*
X112120438Y-97053400D01*
X112043028Y-97092104D01*
X111849504Y-97092104D01*
X111772095Y-97053400D01*
X111733390Y-97014695D01*
X111694685Y-96937285D01*
X111694685Y-96859876D01*
X111733390Y-96743761D01*
X112197847Y-96279304D01*
X111694685Y-96279304D01*
X178904900Y-80461152D02*
X178943604Y-80383742D01*
X178943604Y-80267628D01*
X178904900Y-80151514D01*
X178827490Y-80074104D01*
X178750080Y-80035400D01*
X178595261Y-79996695D01*
X178479147Y-79996695D01*
X178324328Y-80035400D01*
X178246919Y-80074104D01*
X178169509Y-80151514D01*
X178130804Y-80267628D01*
X178130804Y-80345038D01*
X178169509Y-80461152D01*
X178208214Y-80499857D01*
X178479147Y-80499857D01*
X178479147Y-80345038D01*
X178130804Y-80848200D02*
X178943604Y-80848200D01*
X178943604Y-81157838D01*
X178904900Y-81235247D01*
X178866195Y-81273952D01*
X178788785Y-81312657D01*
X178672671Y-81312657D01*
X178595261Y-81273952D01*
X178556557Y-81235247D01*
X178517852Y-81157838D01*
X178517852Y-80848200D01*
X178130804Y-81661000D02*
X178943604Y-81661000D01*
X178943604Y-82202866D02*
X178943604Y-82357685D01*
X178904900Y-82435095D01*
X178827490Y-82512504D01*
X178672671Y-82551209D01*
X178401738Y-82551209D01*
X178246919Y-82512504D01*
X178169509Y-82435095D01*
X178130804Y-82357685D01*
X178130804Y-82202866D01*
X178169509Y-82125457D01*
X178246919Y-82048047D01*
X178401738Y-82009342D01*
X178672671Y-82009342D01*
X178827490Y-82048047D01*
X178904900Y-82125457D01*
X178943604Y-82202866D01*
X178866195Y-82860847D02*
X178904900Y-82899552D01*
X178943604Y-82976961D01*
X178943604Y-83170485D01*
X178904900Y-83247895D01*
X178866195Y-83286600D01*
X178788785Y-83325304D01*
X178711376Y-83325304D01*
X178595261Y-83286600D01*
X178130804Y-82822142D01*
X178130804Y-83325304D01*
X177444400Y-80461152D02*
X177483104Y-80383742D01*
X177483104Y-80267628D01*
X177444400Y-80151514D01*
X177366990Y-80074104D01*
X177289580Y-80035400D01*
X177134761Y-79996695D01*
X177018647Y-79996695D01*
X176863828Y-80035400D01*
X176786419Y-80074104D01*
X176709009Y-80151514D01*
X176670304Y-80267628D01*
X176670304Y-80345038D01*
X176709009Y-80461152D01*
X176747714Y-80499857D01*
X177018647Y-80499857D01*
X177018647Y-80345038D01*
X176670304Y-80848200D02*
X177483104Y-80848200D01*
X177483104Y-81157838D01*
X177444400Y-81235247D01*
X177405695Y-81273952D01*
X177328285Y-81312657D01*
X177212171Y-81312657D01*
X177134761Y-81273952D01*
X177096057Y-81235247D01*
X177057352Y-81157838D01*
X177057352Y-80848200D01*
X176670304Y-81661000D02*
X177483104Y-81661000D01*
X177483104Y-82202866D02*
X177483104Y-82357685D01*
X177444400Y-82435095D01*
X177366990Y-82512504D01*
X177212171Y-82551209D01*
X176941238Y-82551209D01*
X176786419Y-82512504D01*
X176709009Y-82435095D01*
X176670304Y-82357685D01*
X176670304Y-82202866D01*
X176709009Y-82125457D01*
X176786419Y-82048047D01*
X176941238Y-82009342D01*
X177212171Y-82009342D01*
X177366990Y-82048047D01*
X177444400Y-82125457D01*
X177483104Y-82202866D01*
X176670304Y-83325304D02*
X176670304Y-82860847D01*
X176670304Y-83093076D02*
X177483104Y-83093076D01*
X177366990Y-83015666D01*
X177289580Y-82938257D01*
X177250876Y-82860847D01*
X128250304Y-114533438D02*
X128250304Y-114146390D01*
X129063104Y-114146390D01*
X128676057Y-114804371D02*
X128676057Y-115075304D01*
X128250304Y-115191419D02*
X128250304Y-114804371D01*
X129063104Y-114804371D01*
X129063104Y-115191419D01*
X128250304Y-115539761D02*
X129063104Y-115539761D01*
X129063104Y-115733285D01*
X129024400Y-115849400D01*
X128946990Y-115926809D01*
X128869580Y-115965514D01*
X128714761Y-116004219D01*
X128598647Y-116004219D01*
X128443828Y-115965514D01*
X128366419Y-115926809D01*
X128289009Y-115849400D01*
X128250304Y-115733285D01*
X128250304Y-115539761D01*
X128250304Y-116778314D02*
X128250304Y-116313857D01*
X128250304Y-116546085D02*
X129063104Y-116546085D01*
X128946990Y-116468676D01*
X128869580Y-116391266D01*
X128830876Y-116313857D01*
X133187923Y-98057304D02*
X133187923Y-98870104D01*
X132994400Y-98870104D01*
X132878285Y-98831400D01*
X132800876Y-98753990D01*
X132762171Y-98676580D01*
X132723466Y-98521761D01*
X132723466Y-98405647D01*
X132762171Y-98250828D01*
X132800876Y-98173419D01*
X132878285Y-98096009D01*
X132994400Y-98057304D01*
X133187923Y-98057304D01*
X132413828Y-98792695D02*
X132375123Y-98831400D01*
X132297714Y-98870104D01*
X132104190Y-98870104D01*
X132026780Y-98831400D01*
X131988076Y-98792695D01*
X131949371Y-98715285D01*
X131949371Y-98637876D01*
X131988076Y-98521761D01*
X132452533Y-98057304D01*
X131949371Y-98057304D01*
X125059923Y-107455304D02*
X125059923Y-108268104D01*
X124866400Y-108268104D01*
X124750285Y-108229400D01*
X124672876Y-108151990D01*
X124634171Y-108074580D01*
X124595466Y-107919761D01*
X124595466Y-107803647D01*
X124634171Y-107648828D01*
X124672876Y-107571419D01*
X124750285Y-107494009D01*
X124866400Y-107455304D01*
X125059923Y-107455304D01*
X123821371Y-107455304D02*
X124285828Y-107455304D01*
X124053600Y-107455304D02*
X124053600Y-108268104D01*
X124131009Y-108151990D01*
X124208419Y-108074580D01*
X124285828Y-108035876D01*
X131453466Y-102071714D02*
X131492171Y-102033009D01*
X131608285Y-101994304D01*
X131685695Y-101994304D01*
X131801809Y-102033009D01*
X131879219Y-102110419D01*
X131917923Y-102187828D01*
X131956628Y-102342647D01*
X131956628Y-102458761D01*
X131917923Y-102613580D01*
X131879219Y-102690990D01*
X131801809Y-102768400D01*
X131685695Y-102807104D01*
X131608285Y-102807104D01*
X131492171Y-102768400D01*
X131453466Y-102729695D01*
X130756780Y-102807104D02*
X130911600Y-102807104D01*
X130989009Y-102768400D01*
X131027714Y-102729695D01*
X131105123Y-102613580D01*
X131143828Y-102458761D01*
X131143828Y-102149123D01*
X131105123Y-102071714D01*
X131066419Y-102033009D01*
X130989009Y-101994304D01*
X130834190Y-101994304D01*
X130756780Y-102033009D01*
X130718076Y-102071714D01*
X130679371Y-102149123D01*
X130679371Y-102342647D01*
X130718076Y-102420057D01*
X130756780Y-102458761D01*
X130834190Y-102497466D01*
X130989009Y-102497466D01*
X131066419Y-102458761D01*
X131105123Y-102420057D01*
X131143828Y-102342647D01*
X130928533Y-100874285D02*
X130889828Y-100912990D01*
X130773714Y-100951695D01*
X130696304Y-100951695D01*
X130580190Y-100912990D01*
X130502780Y-100835580D01*
X130464076Y-100758171D01*
X130425371Y-100603352D01*
X130425371Y-100487238D01*
X130464076Y-100332419D01*
X130502780Y-100255009D01*
X130580190Y-100177600D01*
X130696304Y-100138895D01*
X130773714Y-100138895D01*
X130889828Y-100177600D01*
X130928533Y-100216304D01*
X131625219Y-100409828D02*
X131625219Y-100951695D01*
X131431695Y-100100190D02*
X131238171Y-100680761D01*
X131741333Y-100680761D01*
X124595466Y-113374714D02*
X124634171Y-113336009D01*
X124750285Y-113297304D01*
X124827695Y-113297304D01*
X124943809Y-113336009D01*
X125021219Y-113413419D01*
X125059923Y-113490828D01*
X125098628Y-113645647D01*
X125098628Y-113761761D01*
X125059923Y-113916580D01*
X125021219Y-113993990D01*
X124943809Y-114071400D01*
X124827695Y-114110104D01*
X124750285Y-114110104D01*
X124634171Y-114071400D01*
X124595466Y-114032695D01*
X124324533Y-114110104D02*
X123821371Y-114110104D01*
X124092304Y-113800466D01*
X123976190Y-113800466D01*
X123898780Y-113761761D01*
X123860076Y-113723057D01*
X123821371Y-113645647D01*
X123821371Y-113452123D01*
X123860076Y-113374714D01*
X123898780Y-113336009D01*
X123976190Y-113297304D01*
X124208419Y-113297304D01*
X124285828Y-113336009D01*
X124324533Y-113374714D01*
X171171714Y-108802714D02*
X171210419Y-108764009D01*
X171326533Y-108725304D01*
X171403942Y-108725304D01*
X171520057Y-108764009D01*
X171597466Y-108841419D01*
X171636171Y-108918828D01*
X171674876Y-109073647D01*
X171674876Y-109189761D01*
X171636171Y-109344580D01*
X171597466Y-109421990D01*
X171520057Y-109499400D01*
X171403942Y-109538104D01*
X171326533Y-109538104D01*
X171210419Y-109499400D01*
X171171714Y-109460695D01*
X170862076Y-109460695D02*
X170823371Y-109499400D01*
X170745961Y-109538104D01*
X170552438Y-109538104D01*
X170475028Y-109499400D01*
X170436323Y-109460695D01*
X170397619Y-109383285D01*
X170397619Y-109305876D01*
X170436323Y-109189761D01*
X170900780Y-108725304D01*
X170397619Y-108725304D01*
X169662228Y-109538104D02*
X170049276Y-109538104D01*
X170087980Y-109151057D01*
X170049276Y-109189761D01*
X169971866Y-109228466D01*
X169778342Y-109228466D01*
X169700933Y-109189761D01*
X169662228Y-109151057D01*
X169623523Y-109073647D01*
X169623523Y-108880123D01*
X169662228Y-108802714D01*
X169700933Y-108764009D01*
X169778342Y-108725304D01*
X169971866Y-108725304D01*
X170049276Y-108764009D01*
X170087980Y-108802714D01*
X170917714Y-110326714D02*
X170956419Y-110288009D01*
X171072533Y-110249304D01*
X171149942Y-110249304D01*
X171266057Y-110288009D01*
X171343466Y-110365419D01*
X171382171Y-110442828D01*
X171420876Y-110597647D01*
X171420876Y-110713761D01*
X171382171Y-110868580D01*
X171343466Y-110945990D01*
X171266057Y-111023400D01*
X171149942Y-111062104D01*
X171072533Y-111062104D01*
X170956419Y-111023400D01*
X170917714Y-110984695D01*
X170608076Y-110984695D02*
X170569371Y-111023400D01*
X170491961Y-111062104D01*
X170298438Y-111062104D01*
X170221028Y-111023400D01*
X170182323Y-110984695D01*
X170143619Y-110907285D01*
X170143619Y-110829876D01*
X170182323Y-110713761D01*
X170646780Y-110249304D01*
X170143619Y-110249304D01*
X169446933Y-110791171D02*
X169446933Y-110249304D01*
X169640457Y-111100809D02*
X169833980Y-110520238D01*
X169330819Y-110520238D01*
X170917714Y-111850714D02*
X170956419Y-111812009D01*
X171072533Y-111773304D01*
X171149942Y-111773304D01*
X171266057Y-111812009D01*
X171343466Y-111889419D01*
X171382171Y-111966828D01*
X171420876Y-112121647D01*
X171420876Y-112237761D01*
X171382171Y-112392580D01*
X171343466Y-112469990D01*
X171266057Y-112547400D01*
X171149942Y-112586104D01*
X171072533Y-112586104D01*
X170956419Y-112547400D01*
X170917714Y-112508695D01*
X170608076Y-112508695D02*
X170569371Y-112547400D01*
X170491961Y-112586104D01*
X170298438Y-112586104D01*
X170221028Y-112547400D01*
X170182323Y-112508695D01*
X170143619Y-112431285D01*
X170143619Y-112353876D01*
X170182323Y-112237761D01*
X170646780Y-111773304D01*
X170143619Y-111773304D01*
X169833980Y-112508695D02*
X169795276Y-112547400D01*
X169717866Y-112586104D01*
X169524342Y-112586104D01*
X169446933Y-112547400D01*
X169408228Y-112508695D01*
X169369523Y-112431285D01*
X169369523Y-112353876D01*
X169408228Y-112237761D01*
X169872685Y-111773304D01*
X169369523Y-111773304D01*
X170917714Y-113374714D02*
X170956419Y-113336009D01*
X171072533Y-113297304D01*
X171149942Y-113297304D01*
X171266057Y-113336009D01*
X171343466Y-113413419D01*
X171382171Y-113490828D01*
X171420876Y-113645647D01*
X171420876Y-113761761D01*
X171382171Y-113916580D01*
X171343466Y-113993990D01*
X171266057Y-114071400D01*
X171149942Y-114110104D01*
X171072533Y-114110104D01*
X170956419Y-114071400D01*
X170917714Y-114032695D01*
X170143619Y-113297304D02*
X170608076Y-113297304D01*
X170375847Y-113297304D02*
X170375847Y-114110104D01*
X170453257Y-113993990D01*
X170530666Y-113916580D01*
X170608076Y-113877876D01*
X169756571Y-113297304D02*
X169601752Y-113297304D01*
X169524342Y-113336009D01*
X169485638Y-113374714D01*
X169408228Y-113490828D01*
X169369523Y-113645647D01*
X169369523Y-113955285D01*
X169408228Y-114032695D01*
X169446933Y-114071400D01*
X169524342Y-114110104D01*
X169679161Y-114110104D01*
X169756571Y-114071400D01*
X169795276Y-114032695D01*
X169833980Y-113955285D01*
X169833980Y-113761761D01*
X169795276Y-113684352D01*
X169756571Y-113645647D01*
X169679161Y-113606942D01*
X169524342Y-113606942D01*
X169446933Y-113645647D01*
X169408228Y-113684352D01*
X169369523Y-113761761D01*
X165556857Y-105774066D02*
X165556857Y-105503133D01*
X165131104Y-105503133D02*
X165943904Y-105503133D01*
X165943904Y-105890180D01*
X165556857Y-106470752D02*
X165518152Y-106586866D01*
X165479447Y-106625571D01*
X165402038Y-106664276D01*
X165285923Y-106664276D01*
X165208514Y-106625571D01*
X165169809Y-106586866D01*
X165131104Y-106509457D01*
X165131104Y-106199819D01*
X165943904Y-106199819D01*
X165943904Y-106470752D01*
X165905200Y-106548161D01*
X165866495Y-106586866D01*
X165789085Y-106625571D01*
X165711676Y-106625571D01*
X165634266Y-106586866D01*
X165595561Y-106548161D01*
X165556857Y-106470752D01*
X165556857Y-106199819D01*
X165672971Y-107360961D02*
X165131104Y-107360961D01*
X165982609Y-107167438D02*
X165402038Y-106973914D01*
X165402038Y-107477076D01*
X124883333Y-100515057D02*
X125154266Y-100515057D01*
X125154266Y-100089304D02*
X125154266Y-100902104D01*
X124767219Y-100902104D01*
X124186647Y-100515057D02*
X124070533Y-100476352D01*
X124031828Y-100437647D01*
X123993123Y-100360238D01*
X123993123Y-100244123D01*
X124031828Y-100166714D01*
X124070533Y-100128009D01*
X124147942Y-100089304D01*
X124457580Y-100089304D01*
X124457580Y-100902104D01*
X124186647Y-100902104D01*
X124109238Y-100863400D01*
X124070533Y-100824695D01*
X124031828Y-100747285D01*
X124031828Y-100669876D01*
X124070533Y-100592466D01*
X124109238Y-100553761D01*
X124186647Y-100515057D01*
X124457580Y-100515057D01*
X123219028Y-100089304D02*
X123683485Y-100089304D01*
X123451257Y-100089304D02*
X123451257Y-100902104D01*
X123528666Y-100785990D01*
X123606076Y-100708580D01*
X123683485Y-100669876D01*
X164478304Y-83678485D02*
X164865352Y-83407552D01*
X164478304Y-83214028D02*
X165291104Y-83214028D01*
X165291104Y-83523666D01*
X165252400Y-83601076D01*
X165213695Y-83639780D01*
X165136285Y-83678485D01*
X165020171Y-83678485D01*
X164942761Y-83639780D01*
X164904057Y-83601076D01*
X164865352Y-83523666D01*
X164865352Y-83214028D01*
X164478304Y-84452580D02*
X164478304Y-83988123D01*
X164478304Y-84220352D02*
X165291104Y-84220352D01*
X165174990Y-84142942D01*
X165097580Y-84065533D01*
X165058876Y-83988123D01*
X165291104Y-84723514D02*
X165291104Y-85265380D01*
X164478304Y-84917038D01*
X120156514Y-98819304D02*
X120427447Y-99206352D01*
X120620971Y-98819304D02*
X120620971Y-99632104D01*
X120311333Y-99632104D01*
X120233923Y-99593400D01*
X120195219Y-99554695D01*
X120156514Y-99477285D01*
X120156514Y-99361171D01*
X120195219Y-99283761D01*
X120233923Y-99245057D01*
X120311333Y-99206352D01*
X120620971Y-99206352D01*
X119846876Y-99554695D02*
X119808171Y-99593400D01*
X119730761Y-99632104D01*
X119537238Y-99632104D01*
X119459828Y-99593400D01*
X119421123Y-99554695D01*
X119382419Y-99477285D01*
X119382419Y-99399876D01*
X119421123Y-99283761D01*
X119885580Y-98819304D01*
X119382419Y-98819304D01*
X118879257Y-99632104D02*
X118801847Y-99632104D01*
X118724438Y-99593400D01*
X118685733Y-99554695D01*
X118647028Y-99477285D01*
X118608323Y-99322466D01*
X118608323Y-99128942D01*
X118647028Y-98974123D01*
X118685733Y-98896714D01*
X118724438Y-98858009D01*
X118801847Y-98819304D01*
X118879257Y-98819304D01*
X118956666Y-98858009D01*
X118995371Y-98896714D01*
X119034076Y-98974123D01*
X119072780Y-99128942D01*
X119072780Y-99322466D01*
X119034076Y-99477285D01*
X118995371Y-99554695D01*
X118956666Y-99593400D01*
X118879257Y-99632104D01*
X120156514Y-95009304D02*
X120427447Y-95396352D01*
X120620971Y-95009304D02*
X120620971Y-95822104D01*
X120311333Y-95822104D01*
X120233923Y-95783400D01*
X120195219Y-95744695D01*
X120156514Y-95667285D01*
X120156514Y-95551171D01*
X120195219Y-95473761D01*
X120233923Y-95435057D01*
X120311333Y-95396352D01*
X120620971Y-95396352D01*
X119382419Y-95009304D02*
X119846876Y-95009304D01*
X119614647Y-95009304D02*
X119614647Y-95822104D01*
X119692057Y-95705990D01*
X119769466Y-95628580D01*
X119846876Y-95589876D01*
X118917961Y-95473761D02*
X118995371Y-95512466D01*
X119034076Y-95551171D01*
X119072780Y-95628580D01*
X119072780Y-95667285D01*
X119034076Y-95744695D01*
X118995371Y-95783400D01*
X118917961Y-95822104D01*
X118763142Y-95822104D01*
X118685733Y-95783400D01*
X118647028Y-95744695D01*
X118608323Y-95667285D01*
X118608323Y-95628580D01*
X118647028Y-95551171D01*
X118685733Y-95512466D01*
X118763142Y-95473761D01*
X118917961Y-95473761D01*
X118995371Y-95435057D01*
X119034076Y-95396352D01*
X119072780Y-95318942D01*
X119072780Y-95164123D01*
X119034076Y-95086714D01*
X118995371Y-95048009D01*
X118917961Y-95009304D01*
X118763142Y-95009304D01*
X118685733Y-95048009D01*
X118647028Y-95086714D01*
X118608323Y-95164123D01*
X118608323Y-95318942D01*
X118647028Y-95396352D01*
X118685733Y-95435057D01*
X118763142Y-95473761D01*
X177173466Y-112822304D02*
X177560514Y-112822304D01*
X177560514Y-113635104D01*
X176554190Y-113635104D02*
X176709009Y-113635104D01*
X176786419Y-113596400D01*
X176825123Y-113557695D01*
X176902533Y-113441580D01*
X176941238Y-113286761D01*
X176941238Y-112977123D01*
X176902533Y-112899714D01*
X176863828Y-112861009D01*
X176786419Y-112822304D01*
X176631600Y-112822304D01*
X176554190Y-112861009D01*
X176515485Y-112899714D01*
X176476780Y-112977123D01*
X176476780Y-113170647D01*
X176515485Y-113248057D01*
X176554190Y-113286761D01*
X176631600Y-113325466D01*
X176786419Y-113325466D01*
X176863828Y-113286761D01*
X176902533Y-113248057D01*
X176941238Y-113170647D01*
X178146304Y-97273533D02*
X178146304Y-96886485D01*
X178959104Y-96886485D01*
X178959104Y-97931514D02*
X178959104Y-97544466D01*
X178572057Y-97505761D01*
X178610761Y-97544466D01*
X178649466Y-97621876D01*
X178649466Y-97815400D01*
X178610761Y-97892809D01*
X178572057Y-97931514D01*
X178494647Y-97970219D01*
X178301123Y-97970219D01*
X178223714Y-97931514D01*
X178185009Y-97892809D01*
X178146304Y-97815400D01*
X178146304Y-97621876D01*
X178185009Y-97544466D01*
X178223714Y-97505761D01*
X151001350Y-81987329D02*
X151275034Y-81713645D01*
X151849770Y-82288382D01*
X150946613Y-82808381D02*
X150563456Y-82425224D01*
X151302402Y-82890486D02*
X151028719Y-82343119D01*
X150672929Y-82698908D01*
X112790514Y-83402714D02*
X112829219Y-83364009D01*
X112945333Y-83325304D01*
X113022742Y-83325304D01*
X113138857Y-83364009D01*
X113216266Y-83441419D01*
X113254971Y-83518828D01*
X113293676Y-83673647D01*
X113293676Y-83789761D01*
X113254971Y-83944580D01*
X113216266Y-84021990D01*
X113138857Y-84099400D01*
X113022742Y-84138104D01*
X112945333Y-84138104D01*
X112829219Y-84099400D01*
X112790514Y-84060695D01*
X112519580Y-84138104D02*
X112016419Y-84138104D01*
X112287352Y-83828466D01*
X112171238Y-83828466D01*
X112093828Y-83789761D01*
X112055123Y-83751057D01*
X112016419Y-83673647D01*
X112016419Y-83480123D01*
X112055123Y-83402714D01*
X112093828Y-83364009D01*
X112171238Y-83325304D01*
X112403466Y-83325304D01*
X112480876Y-83364009D01*
X112519580Y-83402714D01*
X111319733Y-83867171D02*
X111319733Y-83325304D01*
X111513257Y-84176809D02*
X111706780Y-83596238D01*
X111203619Y-83596238D01*
X112790514Y-81878714D02*
X112829219Y-81840009D01*
X112945333Y-81801304D01*
X113022742Y-81801304D01*
X113138857Y-81840009D01*
X113216266Y-81917419D01*
X113254971Y-81994828D01*
X113293676Y-82149647D01*
X113293676Y-82265761D01*
X113254971Y-82420580D01*
X113216266Y-82497990D01*
X113138857Y-82575400D01*
X113022742Y-82614104D01*
X112945333Y-82614104D01*
X112829219Y-82575400D01*
X112790514Y-82536695D01*
X112519580Y-82614104D02*
X112016419Y-82614104D01*
X112287352Y-82304466D01*
X112171238Y-82304466D01*
X112093828Y-82265761D01*
X112055123Y-82227057D01*
X112016419Y-82149647D01*
X112016419Y-81956123D01*
X112055123Y-81878714D01*
X112093828Y-81840009D01*
X112171238Y-81801304D01*
X112403466Y-81801304D01*
X112480876Y-81840009D01*
X112519580Y-81878714D01*
X111745485Y-82614104D02*
X111242323Y-82614104D01*
X111513257Y-82304466D01*
X111397142Y-82304466D01*
X111319733Y-82265761D01*
X111281028Y-82227057D01*
X111242323Y-82149647D01*
X111242323Y-81956123D01*
X111281028Y-81878714D01*
X111319733Y-81840009D01*
X111397142Y-81801304D01*
X111629371Y-81801304D01*
X111706780Y-81840009D01*
X111745485Y-81878714D01*
X176079714Y-108951485D02*
X176041009Y-108912780D01*
X176002304Y-108796666D01*
X176002304Y-108719257D01*
X176041009Y-108603142D01*
X176118419Y-108525733D01*
X176195828Y-108487028D01*
X176350647Y-108448323D01*
X176466761Y-108448323D01*
X176621580Y-108487028D01*
X176698990Y-108525733D01*
X176776400Y-108603142D01*
X176815104Y-108719257D01*
X176815104Y-108796666D01*
X176776400Y-108912780D01*
X176737695Y-108951485D01*
X176815104Y-109222419D02*
X176815104Y-109725580D01*
X176505466Y-109454647D01*
X176505466Y-109570761D01*
X176466761Y-109648171D01*
X176428057Y-109686876D01*
X176350647Y-109725580D01*
X176157123Y-109725580D01*
X176079714Y-109686876D01*
X176041009Y-109648171D01*
X176002304Y-109570761D01*
X176002304Y-109338533D01*
X176041009Y-109261123D01*
X176079714Y-109222419D01*
X176737695Y-110035219D02*
X176776400Y-110073923D01*
X176815104Y-110151333D01*
X176815104Y-110344857D01*
X176776400Y-110422266D01*
X176737695Y-110460971D01*
X176660285Y-110499676D01*
X176582876Y-110499676D01*
X176466761Y-110460971D01*
X176002304Y-109996514D01*
X176002304Y-110499676D01*
X178274514Y-103468714D02*
X178313219Y-103430009D01*
X178429333Y-103391304D01*
X178506742Y-103391304D01*
X178622857Y-103430009D01*
X178700266Y-103507419D01*
X178738971Y-103584828D01*
X178777676Y-103739647D01*
X178777676Y-103855761D01*
X178738971Y-104010580D01*
X178700266Y-104087990D01*
X178622857Y-104165400D01*
X178506742Y-104204104D01*
X178429333Y-104204104D01*
X178313219Y-104165400D01*
X178274514Y-104126695D01*
X178003580Y-104204104D02*
X177500419Y-104204104D01*
X177771352Y-103894466D01*
X177655238Y-103894466D01*
X177577828Y-103855761D01*
X177539123Y-103817057D01*
X177500419Y-103739647D01*
X177500419Y-103546123D01*
X177539123Y-103468714D01*
X177577828Y-103430009D01*
X177655238Y-103391304D01*
X177887466Y-103391304D01*
X177964876Y-103430009D01*
X178003580Y-103468714D01*
X176726323Y-103391304D02*
X177190780Y-103391304D01*
X176958552Y-103391304D02*
X176958552Y-104204104D01*
X177035961Y-104087990D01*
X177113371Y-104010580D01*
X177190780Y-103971876D01*
X176699714Y-96378485D02*
X176661009Y-96339780D01*
X176622304Y-96223666D01*
X176622304Y-96146257D01*
X176661009Y-96030142D01*
X176738419Y-95952733D01*
X176815828Y-95914028D01*
X176970647Y-95875323D01*
X177086761Y-95875323D01*
X177241580Y-95914028D01*
X177318990Y-95952733D01*
X177396400Y-96030142D01*
X177435104Y-96146257D01*
X177435104Y-96223666D01*
X177396400Y-96339780D01*
X177357695Y-96378485D01*
X177435104Y-96649419D02*
X177435104Y-97152580D01*
X177125466Y-96881647D01*
X177125466Y-96997761D01*
X177086761Y-97075171D01*
X177048057Y-97113876D01*
X176970647Y-97152580D01*
X176777123Y-97152580D01*
X176699714Y-97113876D01*
X176661009Y-97075171D01*
X176622304Y-96997761D01*
X176622304Y-96765533D01*
X176661009Y-96688123D01*
X176699714Y-96649419D01*
X177435104Y-97655742D02*
X177435104Y-97733152D01*
X177396400Y-97810561D01*
X177357695Y-97849266D01*
X177280285Y-97887971D01*
X177125466Y-97926676D01*
X176931942Y-97926676D01*
X176777123Y-97887971D01*
X176699714Y-97849266D01*
X176661009Y-97810561D01*
X176622304Y-97733152D01*
X176622304Y-97655742D01*
X176661009Y-97578333D01*
X176699714Y-97539628D01*
X176777123Y-97500923D01*
X176931942Y-97462219D01*
X177125466Y-97462219D01*
X177280285Y-97500923D01*
X177357695Y-97539628D01*
X177396400Y-97578333D01*
X177435104Y-97655742D01*
X175175714Y-96378485D02*
X175137009Y-96339780D01*
X175098304Y-96223666D01*
X175098304Y-96146257D01*
X175137009Y-96030142D01*
X175214419Y-95952733D01*
X175291828Y-95914028D01*
X175446647Y-95875323D01*
X175562761Y-95875323D01*
X175717580Y-95914028D01*
X175794990Y-95952733D01*
X175872400Y-96030142D01*
X175911104Y-96146257D01*
X175911104Y-96223666D01*
X175872400Y-96339780D01*
X175833695Y-96378485D01*
X175833695Y-96688123D02*
X175872400Y-96726828D01*
X175911104Y-96804238D01*
X175911104Y-96997761D01*
X175872400Y-97075171D01*
X175833695Y-97113876D01*
X175756285Y-97152580D01*
X175678876Y-97152580D01*
X175562761Y-97113876D01*
X175098304Y-96649419D01*
X175098304Y-97152580D01*
X175098304Y-97539628D02*
X175098304Y-97694447D01*
X175137009Y-97771857D01*
X175175714Y-97810561D01*
X175291828Y-97887971D01*
X175446647Y-97926676D01*
X175756285Y-97926676D01*
X175833695Y-97887971D01*
X175872400Y-97849266D01*
X175911104Y-97771857D01*
X175911104Y-97617038D01*
X175872400Y-97539628D01*
X175833695Y-97500923D01*
X175756285Y-97462219D01*
X175562761Y-97462219D01*
X175485352Y-97500923D01*
X175446647Y-97539628D01*
X175407942Y-97617038D01*
X175407942Y-97771857D01*
X175446647Y-97849266D01*
X175485352Y-97887971D01*
X175562761Y-97926676D01*
X173651714Y-96378485D02*
X173613009Y-96339780D01*
X173574304Y-96223666D01*
X173574304Y-96146257D01*
X173613009Y-96030142D01*
X173690419Y-95952733D01*
X173767828Y-95914028D01*
X173922647Y-95875323D01*
X174038761Y-95875323D01*
X174193580Y-95914028D01*
X174270990Y-95952733D01*
X174348400Y-96030142D01*
X174387104Y-96146257D01*
X174387104Y-96223666D01*
X174348400Y-96339780D01*
X174309695Y-96378485D01*
X174309695Y-96688123D02*
X174348400Y-96726828D01*
X174387104Y-96804238D01*
X174387104Y-96997761D01*
X174348400Y-97075171D01*
X174309695Y-97113876D01*
X174232285Y-97152580D01*
X174154876Y-97152580D01*
X174038761Y-97113876D01*
X173574304Y-96649419D01*
X173574304Y-97152580D01*
X174038761Y-97617038D02*
X174077466Y-97539628D01*
X174116171Y-97500923D01*
X174193580Y-97462219D01*
X174232285Y-97462219D01*
X174309695Y-97500923D01*
X174348400Y-97539628D01*
X174387104Y-97617038D01*
X174387104Y-97771857D01*
X174348400Y-97849266D01*
X174309695Y-97887971D01*
X174232285Y-97926676D01*
X174193580Y-97926676D01*
X174116171Y-97887971D01*
X174077466Y-97849266D01*
X174038761Y-97771857D01*
X174038761Y-97617038D01*
X174000057Y-97539628D01*
X173961352Y-97500923D01*
X173883942Y-97462219D01*
X173729123Y-97462219D01*
X173651714Y-97500923D01*
X173613009Y-97539628D01*
X173574304Y-97617038D01*
X173574304Y-97771857D01*
X173613009Y-97849266D01*
X173651714Y-97887971D01*
X173729123Y-97926676D01*
X173883942Y-97926676D01*
X173961352Y-97887971D01*
X174000057Y-97849266D01*
X174038761Y-97771857D01*
X152373711Y-83816763D02*
X152373711Y-83762026D01*
X152428448Y-83652553D01*
X152483184Y-83597816D01*
X152592658Y-83543079D01*
X152702132Y-83543079D01*
X152784237Y-83570448D01*
X152921079Y-83652553D01*
X153003184Y-83734658D01*
X153085289Y-83871500D01*
X153112658Y-83953605D01*
X153112658Y-84063079D01*
X153057921Y-84172552D01*
X153003184Y-84227289D01*
X152893710Y-84282026D01*
X152838974Y-84282026D01*
X152620026Y-84500973D02*
X152620026Y-84555710D01*
X152592658Y-84637815D01*
X152455816Y-84774657D01*
X152373711Y-84802025D01*
X152318974Y-84802025D01*
X152236869Y-84774657D01*
X152182132Y-84719920D01*
X152127395Y-84610447D01*
X152127395Y-83953605D01*
X151771606Y-84309394D01*
X152154764Y-85075709D02*
X151771606Y-85458867D01*
X151443185Y-84637815D01*
X147265321Y-82959150D02*
X147265321Y-82904413D01*
X147320058Y-82794940D01*
X147374794Y-82740203D01*
X147484268Y-82685466D01*
X147593742Y-82685466D01*
X147675847Y-82712835D01*
X147812689Y-82794940D01*
X147894794Y-82877045D01*
X147976899Y-83013887D01*
X148004268Y-83095992D01*
X148004268Y-83205466D01*
X147949531Y-83314939D01*
X147894794Y-83369676D01*
X147785320Y-83424413D01*
X147730584Y-83424413D01*
X147511636Y-83643360D02*
X147511636Y-83698097D01*
X147484268Y-83780202D01*
X147347426Y-83917044D01*
X147265321Y-83944412D01*
X147210584Y-83944412D01*
X147128479Y-83917044D01*
X147073742Y-83862307D01*
X147019005Y-83752834D01*
X147019005Y-83095992D01*
X146663216Y-83451781D01*
X146745321Y-84519149D02*
X146854795Y-84409675D01*
X146882163Y-84327570D01*
X146882163Y-84272833D01*
X146854795Y-84135991D01*
X146772690Y-83999149D01*
X146553743Y-83780202D01*
X146471637Y-83752834D01*
X146416901Y-83752834D01*
X146334795Y-83780202D01*
X146225322Y-83889676D01*
X146197953Y-83971781D01*
X146197953Y-84026518D01*
X146225322Y-84108623D01*
X146362164Y-84245465D01*
X146444269Y-84272833D01*
X146499006Y-84272833D01*
X146581111Y-84245465D01*
X146690585Y-84135991D01*
X146717953Y-84053886D01*
X146717953Y-83999149D01*
X146690585Y-83917044D01*
X151652514Y-118454714D02*
X151691219Y-118416009D01*
X151807333Y-118377304D01*
X151884742Y-118377304D01*
X152000857Y-118416009D01*
X152078266Y-118493419D01*
X152116971Y-118570828D01*
X152155676Y-118725647D01*
X152155676Y-118841761D01*
X152116971Y-118996580D01*
X152078266Y-119073990D01*
X152000857Y-119151400D01*
X151884742Y-119190104D01*
X151807333Y-119190104D01*
X151691219Y-119151400D01*
X151652514Y-119112695D01*
X150878419Y-118377304D02*
X151342876Y-118377304D01*
X151110647Y-118377304D02*
X151110647Y-119190104D01*
X151188057Y-119073990D01*
X151265466Y-118996580D01*
X151342876Y-118957876D01*
X150568780Y-119112695D02*
X150530076Y-119151400D01*
X150452666Y-119190104D01*
X150259142Y-119190104D01*
X150181733Y-119151400D01*
X150143028Y-119112695D01*
X150104323Y-119035285D01*
X150104323Y-118957876D01*
X150143028Y-118841761D01*
X150607485Y-118377304D01*
X150104323Y-118377304D01*
X133364514Y-116422714D02*
X133403219Y-116384009D01*
X133519333Y-116345304D01*
X133596742Y-116345304D01*
X133712857Y-116384009D01*
X133790266Y-116461419D01*
X133828971Y-116538828D01*
X133867676Y-116693647D01*
X133867676Y-116809761D01*
X133828971Y-116964580D01*
X133790266Y-117041990D01*
X133712857Y-117119400D01*
X133596742Y-117158104D01*
X133519333Y-117158104D01*
X133403219Y-117119400D01*
X133364514Y-117080695D01*
X132590419Y-116345304D02*
X133054876Y-116345304D01*
X132822647Y-116345304D02*
X132822647Y-117158104D01*
X132900057Y-117041990D01*
X132977466Y-116964580D01*
X133054876Y-116925876D01*
X131816323Y-116345304D02*
X132280780Y-116345304D01*
X132048552Y-116345304D02*
X132048552Y-117158104D01*
X132125961Y-117041990D01*
X132203371Y-116964580D01*
X132280780Y-116925876D01*
X145556514Y-118106714D02*
X145595219Y-118068009D01*
X145711333Y-118029304D01*
X145788742Y-118029304D01*
X145904857Y-118068009D01*
X145982266Y-118145419D01*
X146020971Y-118222828D01*
X146059676Y-118377647D01*
X146059676Y-118493761D01*
X146020971Y-118648580D01*
X145982266Y-118725990D01*
X145904857Y-118803400D01*
X145788742Y-118842104D01*
X145711333Y-118842104D01*
X145595219Y-118803400D01*
X145556514Y-118764695D01*
X144782419Y-118029304D02*
X145246876Y-118029304D01*
X145014647Y-118029304D02*
X145014647Y-118842104D01*
X145092057Y-118725990D01*
X145169466Y-118648580D01*
X145246876Y-118609876D01*
X144279257Y-118842104D02*
X144201847Y-118842104D01*
X144124438Y-118803400D01*
X144085733Y-118764695D01*
X144047028Y-118687285D01*
X144008323Y-118532466D01*
X144008323Y-118338942D01*
X144047028Y-118184123D01*
X144085733Y-118106714D01*
X144124438Y-118068009D01*
X144201847Y-118029304D01*
X144279257Y-118029304D01*
X144356666Y-118068009D01*
X144395371Y-118106714D01*
X144434076Y-118184123D01*
X144472780Y-118338942D01*
X144472780Y-118532466D01*
X144434076Y-118687285D01*
X144395371Y-118764695D01*
X144356666Y-118803400D01*
X144279257Y-118842104D01*
X145169466Y-109564714D02*
X145208171Y-109526009D01*
X145324285Y-109487304D01*
X145401695Y-109487304D01*
X145517809Y-109526009D01*
X145595219Y-109603419D01*
X145633923Y-109680828D01*
X145672628Y-109835647D01*
X145672628Y-109951761D01*
X145633923Y-110106580D01*
X145595219Y-110183990D01*
X145517809Y-110261400D01*
X145401695Y-110300104D01*
X145324285Y-110300104D01*
X145208171Y-110261400D01*
X145169466Y-110222695D01*
X144782419Y-109487304D02*
X144627600Y-109487304D01*
X144550190Y-109526009D01*
X144511485Y-109564714D01*
X144434076Y-109680828D01*
X144395371Y-109835647D01*
X144395371Y-110145285D01*
X144434076Y-110222695D01*
X144472780Y-110261400D01*
X144550190Y-110300104D01*
X144705009Y-110300104D01*
X144782419Y-110261400D01*
X144821123Y-110222695D01*
X144859828Y-110145285D01*
X144859828Y-109951761D01*
X144821123Y-109874352D01*
X144782419Y-109835647D01*
X144705009Y-109796942D01*
X144550190Y-109796942D01*
X144472780Y-109835647D01*
X144434076Y-109874352D01*
X144395371Y-109951761D01*
X152944285Y-108466466D02*
X152982990Y-108505171D01*
X153021695Y-108621285D01*
X153021695Y-108698695D01*
X152982990Y-108814809D01*
X152905580Y-108892219D01*
X152828171Y-108930923D01*
X152673352Y-108969628D01*
X152557238Y-108969628D01*
X152402419Y-108930923D01*
X152325009Y-108892219D01*
X152247600Y-108814809D01*
X152208895Y-108698695D01*
X152208895Y-108621285D01*
X152247600Y-108505171D01*
X152286304Y-108466466D01*
X152557238Y-108002009D02*
X152518533Y-108079419D01*
X152479828Y-108118123D01*
X152402419Y-108156828D01*
X152363714Y-108156828D01*
X152286304Y-108118123D01*
X152247600Y-108079419D01*
X152208895Y-108002009D01*
X152208895Y-107847190D01*
X152247600Y-107769780D01*
X152286304Y-107731076D01*
X152363714Y-107692371D01*
X152402419Y-107692371D01*
X152479828Y-107731076D01*
X152518533Y-107769780D01*
X152557238Y-107847190D01*
X152557238Y-108002009D01*
X152595942Y-108079419D01*
X152634647Y-108118123D01*
X152712057Y-108156828D01*
X152866876Y-108156828D01*
X152944285Y-108118123D01*
X152982990Y-108079419D01*
X153021695Y-108002009D01*
X153021695Y-107847190D01*
X152982990Y-107769780D01*
X152944285Y-107731076D01*
X152866876Y-107692371D01*
X152712057Y-107692371D01*
X152634647Y-107731076D01*
X152595942Y-107769780D01*
X152557238Y-107847190D01*
X137631714Y-81271533D02*
X137593009Y-81232828D01*
X137554304Y-81116714D01*
X137554304Y-81039304D01*
X137593009Y-80923190D01*
X137670419Y-80845780D01*
X137747828Y-80807076D01*
X137902647Y-80768371D01*
X138018761Y-80768371D01*
X138173580Y-80807076D01*
X138250990Y-80845780D01*
X138328400Y-80923190D01*
X138367104Y-81039304D01*
X138367104Y-81116714D01*
X138328400Y-81232828D01*
X138289695Y-81271533D01*
X138367104Y-81542466D02*
X138367104Y-82084333D01*
X137554304Y-81735990D01*
X134501466Y-98134714D02*
X134540171Y-98096009D01*
X134656285Y-98057304D01*
X134733695Y-98057304D01*
X134849809Y-98096009D01*
X134927219Y-98173419D01*
X134965923Y-98250828D01*
X135004628Y-98405647D01*
X135004628Y-98521761D01*
X134965923Y-98676580D01*
X134927219Y-98753990D01*
X134849809Y-98831400D01*
X134733695Y-98870104D01*
X134656285Y-98870104D01*
X134540171Y-98831400D01*
X134501466Y-98792695D01*
X133766076Y-98870104D02*
X134153123Y-98870104D01*
X134191828Y-98483057D01*
X134153123Y-98521761D01*
X134075714Y-98560466D01*
X133882190Y-98560466D01*
X133804780Y-98521761D01*
X133766076Y-98483057D01*
X133727371Y-98405647D01*
X133727371Y-98212123D01*
X133766076Y-98134714D01*
X133804780Y-98096009D01*
X133882190Y-98057304D01*
X134075714Y-98057304D01*
X134153123Y-98096009D01*
X134191828Y-98134714D01*
X125213533Y-85253285D02*
X125174828Y-85291990D01*
X125058714Y-85330695D01*
X124981304Y-85330695D01*
X124865190Y-85291990D01*
X124787780Y-85214580D01*
X124749076Y-85137171D01*
X124710371Y-84982352D01*
X124710371Y-84866238D01*
X124749076Y-84711419D01*
X124787780Y-84634009D01*
X124865190Y-84556600D01*
X124981304Y-84517895D01*
X125058714Y-84517895D01*
X125174828Y-84556600D01*
X125213533Y-84595304D01*
X125523171Y-84595304D02*
X125561876Y-84556600D01*
X125639285Y-84517895D01*
X125832809Y-84517895D01*
X125910219Y-84556600D01*
X125948923Y-84595304D01*
X125987628Y-84672714D01*
X125987628Y-84750123D01*
X125948923Y-84866238D01*
X125484466Y-85330695D01*
X125987628Y-85330695D01*
X124595466Y-101690714D02*
X124634171Y-101652009D01*
X124750285Y-101613304D01*
X124827695Y-101613304D01*
X124943809Y-101652009D01*
X125021219Y-101729419D01*
X125059923Y-101806828D01*
X125098628Y-101961647D01*
X125098628Y-102077761D01*
X125059923Y-102232580D01*
X125021219Y-102309990D01*
X124943809Y-102387400D01*
X124827695Y-102426104D01*
X124750285Y-102426104D01*
X124634171Y-102387400D01*
X124595466Y-102348695D01*
X123821371Y-101613304D02*
X124285828Y-101613304D01*
X124053600Y-101613304D02*
X124053600Y-102426104D01*
X124131009Y-102309990D01*
X124208419Y-102232580D01*
X124285828Y-102193876D01*
X135440057Y-103589666D02*
X135440057Y-103318733D01*
X135014304Y-103318733D02*
X135827104Y-103318733D01*
X135827104Y-103705780D01*
X135440057Y-104286352D02*
X135401352Y-104402466D01*
X135362647Y-104441171D01*
X135285238Y-104479876D01*
X135169123Y-104479876D01*
X135091714Y-104441171D01*
X135053009Y-104402466D01*
X135014304Y-104325057D01*
X135014304Y-104015419D01*
X135827104Y-104015419D01*
X135827104Y-104286352D01*
X135788400Y-104363761D01*
X135749695Y-104402466D01*
X135672285Y-104441171D01*
X135594876Y-104441171D01*
X135517466Y-104402466D01*
X135478761Y-104363761D01*
X135440057Y-104286352D01*
X135440057Y-104015419D01*
X135827104Y-104750809D02*
X135827104Y-105253971D01*
X135517466Y-104983038D01*
X135517466Y-105099152D01*
X135478761Y-105176561D01*
X135440057Y-105215266D01*
X135362647Y-105253971D01*
X135169123Y-105253971D01*
X135091714Y-105215266D01*
X135053009Y-105176561D01*
X135014304Y-105099152D01*
X135014304Y-104866923D01*
X135053009Y-104789514D01*
X135091714Y-104750809D01*
X134477276Y-110554104D02*
X134477276Y-109896123D01*
X134438571Y-109818714D01*
X134399866Y-109780009D01*
X134322457Y-109741304D01*
X134167638Y-109741304D01*
X134090228Y-109780009D01*
X134051523Y-109818714D01*
X134012819Y-109896123D01*
X134012819Y-110554104D01*
X133703180Y-110554104D02*
X133161314Y-110554104D01*
X133509657Y-109741304D01*
X181934533Y-120731038D02*
X181934533Y-121118085D01*
X181702304Y-120653628D02*
X182515104Y-120924561D01*
X181702304Y-121195495D01*
X181702304Y-121466428D02*
X182515104Y-121466428D01*
X181702304Y-121930885D01*
X182515104Y-121930885D01*
X182515104Y-122201819D02*
X182515104Y-122666276D01*
X181702304Y-122434047D02*
X182515104Y-122434047D01*
X182244171Y-123285552D02*
X181702304Y-123285552D01*
X182553809Y-123092028D02*
X181973238Y-122898504D01*
X181973238Y-123401666D01*
X136763276Y-89454104D02*
X136763276Y-88796123D01*
X136724571Y-88718714D01*
X136685866Y-88680009D01*
X136608457Y-88641304D01*
X136453638Y-88641304D01*
X136376228Y-88680009D01*
X136337523Y-88718714D01*
X136298819Y-88796123D01*
X136298819Y-89454104D01*
X135989180Y-89454104D02*
X135486019Y-89454104D01*
X135756952Y-89144466D01*
X135640838Y-89144466D01*
X135563428Y-89105761D01*
X135524723Y-89067057D01*
X135486019Y-88989647D01*
X135486019Y-88796123D01*
X135524723Y-88718714D01*
X135563428Y-88680009D01*
X135640838Y-88641304D01*
X135873066Y-88641304D01*
X135950476Y-88680009D01*
X135989180Y-88718714D01*
X124418876Y-80023304D02*
X124418876Y-80836104D01*
X124109238Y-80836104D01*
X124031828Y-80797400D01*
X123993123Y-80758695D01*
X123954419Y-80681285D01*
X123954419Y-80565171D01*
X123993123Y-80487761D01*
X124031828Y-80449057D01*
X124109238Y-80410352D01*
X124418876Y-80410352D01*
X123683485Y-80836104D02*
X123489961Y-80023304D01*
X123335142Y-80603876D01*
X123180323Y-80023304D01*
X122986800Y-80836104D01*
X122212704Y-80023304D02*
X122483638Y-80410352D01*
X122677161Y-80023304D02*
X122677161Y-80836104D01*
X122367523Y-80836104D01*
X122290114Y-80797400D01*
X122251409Y-80758695D01*
X122212704Y-80681285D01*
X122212704Y-80565171D01*
X122251409Y-80487761D01*
X122290114Y-80449057D01*
X122367523Y-80410352D01*
X122677161Y-80410352D01*
X122057885Y-79945895D02*
X121438609Y-79945895D01*
X121090266Y-80836104D02*
X120935447Y-80836104D01*
X120858038Y-80797400D01*
X120780628Y-80719990D01*
X120741923Y-80565171D01*
X120741923Y-80294238D01*
X120780628Y-80139419D01*
X120858038Y-80062009D01*
X120935447Y-80023304D01*
X121090266Y-80023304D01*
X121167676Y-80062009D01*
X121245085Y-80139419D01*
X121283790Y-80294238D01*
X121283790Y-80565171D01*
X121245085Y-80719990D01*
X121167676Y-80797400D01*
X121090266Y-80836104D01*
X120393580Y-80023304D02*
X120393580Y-80836104D01*
X119929123Y-80023304D01*
X119929123Y-80836104D01*
X144847533Y-76154038D02*
X144847533Y-76541085D01*
X144615304Y-76076628D02*
X145428104Y-76347561D01*
X144615304Y-76618495D01*
X144615304Y-76889428D02*
X145428104Y-76889428D01*
X144615304Y-77353885D01*
X145428104Y-77353885D01*
X145428104Y-77624819D02*
X145428104Y-78089276D01*
X144615304Y-77857047D02*
X145428104Y-77857047D01*
X145350695Y-78321504D02*
X145389400Y-78360209D01*
X145428104Y-78437619D01*
X145428104Y-78631142D01*
X145389400Y-78708552D01*
X145350695Y-78747257D01*
X145273285Y-78785961D01*
X145195876Y-78785961D01*
X145079761Y-78747257D01*
X144615304Y-78282800D01*
X144615304Y-78785961D01*
X118939733Y-80062009D02*
X118823619Y-80023304D01*
X118630095Y-80023304D01*
X118552685Y-80062009D01*
X118513980Y-80100714D01*
X118475276Y-80178123D01*
X118475276Y-80255533D01*
X118513980Y-80332942D01*
X118552685Y-80371647D01*
X118630095Y-80410352D01*
X118784914Y-80449057D01*
X118862323Y-80487761D01*
X118901028Y-80526466D01*
X118939733Y-80603876D01*
X118939733Y-80681285D01*
X118901028Y-80758695D01*
X118862323Y-80797400D01*
X118784914Y-80836104D01*
X118591390Y-80836104D01*
X118475276Y-80797400D01*
X118204342Y-80836104D02*
X118010819Y-80023304D01*
X117856000Y-80603876D01*
X117701180Y-80023304D01*
X117507657Y-80836104D01*
X117275428Y-80836104D02*
X116772266Y-80836104D01*
X117043200Y-80526466D01*
X116927085Y-80526466D01*
X116849676Y-80487761D01*
X116810971Y-80449057D01*
X116772266Y-80371647D01*
X116772266Y-80178123D01*
X116810971Y-80100714D01*
X116849676Y-80062009D01*
X116927085Y-80023304D01*
X117159314Y-80023304D01*
X117236723Y-80062009D01*
X117275428Y-80100714D01*
X132151533Y-73360038D02*
X132151533Y-73747085D01*
X131919304Y-73282628D02*
X132732104Y-73553561D01*
X131919304Y-73824495D01*
X131919304Y-74095428D02*
X132732104Y-74095428D01*
X131919304Y-74559885D01*
X132732104Y-74559885D01*
X132732104Y-74830819D02*
X132732104Y-75295276D01*
X131919304Y-75063047D02*
X132732104Y-75063047D01*
X131919304Y-75991961D02*
X131919304Y-75527504D01*
X131919304Y-75759733D02*
X132732104Y-75759733D01*
X132615990Y-75682323D01*
X132538580Y-75604914D01*
X132499876Y-75527504D01*
X143651514Y-75070304D02*
X143922447Y-75457352D01*
X144115971Y-75070304D02*
X144115971Y-75883104D01*
X143806333Y-75883104D01*
X143728923Y-75844400D01*
X143690219Y-75805695D01*
X143651514Y-75728285D01*
X143651514Y-75612171D01*
X143690219Y-75534761D01*
X143728923Y-75496057D01*
X143806333Y-75457352D01*
X144115971Y-75457352D01*
X142877419Y-75070304D02*
X143341876Y-75070304D01*
X143109647Y-75070304D02*
X143109647Y-75883104D01*
X143187057Y-75766990D01*
X143264466Y-75689580D01*
X143341876Y-75650876D01*
X142103323Y-75070304D02*
X142567780Y-75070304D01*
X142335552Y-75070304D02*
X142335552Y-75883104D01*
X142412961Y-75766990D01*
X142490371Y-75689580D01*
X142567780Y-75650876D01*
X142935789Y-87419210D02*
X143401052Y-87501316D01*
X143264210Y-87090790D02*
X143838946Y-87665526D01*
X143619999Y-87884473D01*
X143537894Y-87911841D01*
X143483157Y-87911841D01*
X143401052Y-87884473D01*
X143318947Y-87802368D01*
X143291578Y-87720263D01*
X143291578Y-87665526D01*
X143318947Y-87583421D01*
X143537894Y-87364474D01*
X142662105Y-87692894D02*
X142552632Y-87802368D01*
X142525263Y-87884473D01*
X142525263Y-87939210D01*
X142552632Y-88076052D01*
X142634737Y-88212894D01*
X142853684Y-88431841D01*
X142935789Y-88459209D01*
X142990526Y-88459209D01*
X143072631Y-88431841D01*
X143182105Y-88322367D01*
X143209473Y-88240262D01*
X143209473Y-88185525D01*
X143182105Y-88103420D01*
X143045263Y-87966578D01*
X142963158Y-87939210D01*
X142908421Y-87939210D01*
X142826316Y-87966578D01*
X142716842Y-88076052D01*
X142689474Y-88158157D01*
X142689474Y-88212894D01*
X142716842Y-88294999D01*
X140486474Y-87466525D02*
X140951737Y-87548631D01*
X140814895Y-87138105D02*
X141389631Y-87712841D01*
X141170684Y-87931788D01*
X141088579Y-87959156D01*
X141033842Y-87959156D01*
X140951737Y-87931788D01*
X140869632Y-87849683D01*
X140842263Y-87767578D01*
X140842263Y-87712841D01*
X140869632Y-87630736D01*
X141088579Y-87411789D01*
X140486474Y-88123367D02*
X140568579Y-88095998D01*
X140623316Y-88095998D01*
X140705421Y-88123367D01*
X140732790Y-88150735D01*
X140760158Y-88232840D01*
X140760158Y-88287577D01*
X140732790Y-88369682D01*
X140623316Y-88479156D01*
X140541211Y-88506524D01*
X140486474Y-88506524D01*
X140404369Y-88479156D01*
X140377001Y-88451788D01*
X140349632Y-88369682D01*
X140349632Y-88314946D01*
X140377001Y-88232840D01*
X140486474Y-88123367D01*
X140513843Y-88041262D01*
X140513843Y-87986525D01*
X140486474Y-87904420D01*
X140377001Y-87794946D01*
X140294895Y-87767578D01*
X140240159Y-87767578D01*
X140158053Y-87794946D01*
X140048580Y-87904420D01*
X140021211Y-87986525D01*
X140021211Y-88041262D01*
X140048580Y-88123367D01*
X140158053Y-88232840D01*
X140240159Y-88260209D01*
X140294895Y-88260209D01*
X140377001Y-88232840D01*
X172543409Y-79088895D02*
X172620819Y-79127600D01*
X172698228Y-79205009D01*
X172814342Y-79321123D01*
X172891752Y-79359828D01*
X172969161Y-79359828D01*
X172930457Y-79166304D02*
X173007866Y-79205009D01*
X173085276Y-79282419D01*
X173123980Y-79437238D01*
X173123980Y-79708171D01*
X173085276Y-79862990D01*
X173007866Y-79940400D01*
X172930457Y-79979104D01*
X172775638Y-79979104D01*
X172698228Y-79940400D01*
X172620819Y-79862990D01*
X172582114Y-79708171D01*
X172582114Y-79437238D01*
X172620819Y-79282419D01*
X172698228Y-79205009D01*
X172775638Y-79166304D01*
X172930457Y-79166304D01*
X172272476Y-79901695D02*
X172233771Y-79940400D01*
X172156361Y-79979104D01*
X171962838Y-79979104D01*
X171885428Y-79940400D01*
X171846723Y-79901695D01*
X171808019Y-79824285D01*
X171808019Y-79746876D01*
X171846723Y-79630761D01*
X172311180Y-79166304D01*
X171808019Y-79166304D01*
X133427409Y-89883895D02*
X133504819Y-89922600D01*
X133582228Y-90000009D01*
X133698342Y-90116123D01*
X133775752Y-90154828D01*
X133853161Y-90154828D01*
X133814457Y-89961304D02*
X133891866Y-90000009D01*
X133969276Y-90077419D01*
X134007980Y-90232238D01*
X134007980Y-90503171D01*
X133969276Y-90657990D01*
X133891866Y-90735400D01*
X133814457Y-90774104D01*
X133659638Y-90774104D01*
X133582228Y-90735400D01*
X133504819Y-90657990D01*
X133466114Y-90503171D01*
X133466114Y-90232238D01*
X133504819Y-90077419D01*
X133582228Y-90000009D01*
X133659638Y-89961304D01*
X133814457Y-89961304D01*
X132692019Y-89961304D02*
X133156476Y-89961304D01*
X132924247Y-89961304D02*
X132924247Y-90774104D01*
X133001657Y-90657990D01*
X133079066Y-90580580D01*
X133156476Y-90541876D01*
X182744533Y-73741038D02*
X182744533Y-74128085D01*
X182512304Y-73663628D02*
X183325104Y-73934561D01*
X182512304Y-74205495D01*
X182512304Y-74476428D02*
X183325104Y-74476428D01*
X182512304Y-74940885D01*
X183325104Y-74940885D01*
X183325104Y-75211819D02*
X183325104Y-75676276D01*
X182512304Y-75444047D02*
X183325104Y-75444047D01*
X183325104Y-75869800D02*
X183325104Y-76372961D01*
X183015466Y-76102028D01*
X183015466Y-76218142D01*
X182976761Y-76295552D01*
X182938057Y-76334257D01*
X182860647Y-76372961D01*
X182667123Y-76372961D01*
X182589714Y-76334257D01*
X182551009Y-76295552D01*
X182512304Y-76218142D01*
X182512304Y-75985914D01*
X182551009Y-75908504D01*
X182589714Y-75869800D01*
X114618104Y-80023304D02*
X114889038Y-80410352D01*
X115082561Y-80023304D02*
X115082561Y-80836104D01*
X114772923Y-80836104D01*
X114695514Y-80797400D01*
X114656809Y-80758695D01*
X114618104Y-80681285D01*
X114618104Y-80565171D01*
X114656809Y-80487761D01*
X114695514Y-80449057D01*
X114772923Y-80410352D01*
X115082561Y-80410352D01*
X114308466Y-80062009D02*
X114192352Y-80023304D01*
X113998828Y-80023304D01*
X113921419Y-80062009D01*
X113882714Y-80100714D01*
X113844009Y-80178123D01*
X113844009Y-80255533D01*
X113882714Y-80332942D01*
X113921419Y-80371647D01*
X113998828Y-80410352D01*
X114153647Y-80449057D01*
X114231057Y-80487761D01*
X114269761Y-80526466D01*
X114308466Y-80603876D01*
X114308466Y-80681285D01*
X114269761Y-80758695D01*
X114231057Y-80797400D01*
X114153647Y-80836104D01*
X113960123Y-80836104D01*
X113844009Y-80797400D01*
X113611780Y-80836104D02*
X113147323Y-80836104D01*
X113379552Y-80023304D02*
X113379552Y-80836104D01*
X171297789Y-103340789D02*
X171215683Y-103806052D01*
X171626209Y-103669210D02*
X171051473Y-104243946D01*
X170832526Y-104024999D01*
X170805158Y-103942894D01*
X170805158Y-103888157D01*
X170832526Y-103806052D01*
X170914631Y-103723947D01*
X170996736Y-103696578D01*
X171051473Y-103696578D01*
X171133578Y-103723947D01*
X171352525Y-103942894D01*
X170531474Y-103723947D02*
X170148316Y-103340789D01*
X170969368Y-103012368D01*
X172029966Y-100697304D02*
X172300900Y-101084352D01*
X172494423Y-100697304D02*
X172494423Y-101510104D01*
X172184785Y-101510104D01*
X172107376Y-101471400D01*
X172068671Y-101432695D01*
X172029966Y-101355285D01*
X172029966Y-101239171D01*
X172068671Y-101161761D01*
X172107376Y-101123057D01*
X172184785Y-101084352D01*
X172494423Y-101084352D01*
X171333280Y-101510104D02*
X171488100Y-101510104D01*
X171565509Y-101471400D01*
X171604214Y-101432695D01*
X171681623Y-101316580D01*
X171720328Y-101161761D01*
X171720328Y-100852123D01*
X171681623Y-100774714D01*
X171642919Y-100736009D01*
X171565509Y-100697304D01*
X171410690Y-100697304D01*
X171333280Y-100736009D01*
X171294576Y-100774714D01*
X171255871Y-100852123D01*
X171255871Y-101045647D01*
X171294576Y-101123057D01*
X171333280Y-101161761D01*
X171410690Y-101200466D01*
X171565509Y-101200466D01*
X171642919Y-101161761D01*
X171681623Y-101123057D01*
X171720328Y-101045647D01*
X171133104Y-88407723D02*
X170475123Y-88407723D01*
X170397714Y-88446428D01*
X170359009Y-88485133D01*
X170320304Y-88562542D01*
X170320304Y-88717361D01*
X170359009Y-88794771D01*
X170397714Y-88833476D01*
X170475123Y-88872180D01*
X171133104Y-88872180D01*
X170320304Y-89297933D02*
X170320304Y-89452752D01*
X170359009Y-89530161D01*
X170397714Y-89568866D01*
X170513828Y-89646276D01*
X170668647Y-89684980D01*
X170978285Y-89684980D01*
X171055695Y-89646276D01*
X171094400Y-89607571D01*
X171133104Y-89530161D01*
X171133104Y-89375342D01*
X171094400Y-89297933D01*
X171055695Y-89259228D01*
X170978285Y-89220523D01*
X170784761Y-89220523D01*
X170707352Y-89259228D01*
X170668647Y-89297933D01*
X170629942Y-89375342D01*
X170629942Y-89530161D01*
X170668647Y-89607571D01*
X170707352Y-89646276D01*
X170784761Y-89684980D01*
X143318895Y-117153266D02*
X143318895Y-117540314D01*
X142506095Y-117540314D01*
X142583504Y-116921038D02*
X142544800Y-116882333D01*
X142506095Y-116804923D01*
X142506095Y-116611400D01*
X142544800Y-116533990D01*
X142583504Y-116495285D01*
X142660914Y-116456580D01*
X142738323Y-116456580D01*
X142854438Y-116495285D01*
X143318895Y-116959742D01*
X143318895Y-116456580D01*
X146671695Y-108466466D02*
X146671695Y-108853514D01*
X145858895Y-108853514D01*
X146671695Y-107769780D02*
X146671695Y-108234238D01*
X146671695Y-108002009D02*
X145858895Y-108002009D01*
X145975009Y-108079419D01*
X146052419Y-108156828D01*
X146091123Y-108234238D01*
X158658076Y-124192695D02*
X158658076Y-123379895D01*
X158967714Y-123379895D01*
X159045123Y-123418600D01*
X159083828Y-123457304D01*
X159122533Y-123534714D01*
X159122533Y-123650828D01*
X159083828Y-123728238D01*
X159045123Y-123766942D01*
X158967714Y-123805647D01*
X158658076Y-123805647D01*
X159896628Y-124192695D02*
X159432171Y-124192695D01*
X159664400Y-124192695D02*
X159664400Y-123379895D01*
X159586990Y-123496009D01*
X159509580Y-123573419D01*
X159432171Y-123612123D01*
X176692076Y-124192695D02*
X176692076Y-123379895D01*
X177001714Y-123379895D01*
X177079123Y-123418600D01*
X177117828Y-123457304D01*
X177156533Y-123534714D01*
X177156533Y-123650828D01*
X177117828Y-123728238D01*
X177079123Y-123766942D01*
X177001714Y-123805647D01*
X176692076Y-123805647D01*
X177466171Y-123457304D02*
X177504876Y-123418600D01*
X177582285Y-123379895D01*
X177775809Y-123379895D01*
X177853219Y-123418600D01*
X177891923Y-123457304D01*
X177930628Y-123534714D01*
X177930628Y-123612123D01*
X177891923Y-123728238D01*
X177427466Y-124192695D01*
X177930628Y-124192695D01*
X155285923Y-77229304D02*
X155285923Y-78042104D01*
X154976285Y-78042104D01*
X154898876Y-78003400D01*
X154860171Y-77964695D01*
X154821466Y-77887285D01*
X154821466Y-77771171D01*
X154860171Y-77693761D01*
X154898876Y-77655057D01*
X154976285Y-77616352D01*
X155285923Y-77616352D01*
X154550533Y-78042104D02*
X154047371Y-78042104D01*
X154318304Y-77732466D01*
X154202190Y-77732466D01*
X154124780Y-77693761D01*
X154086076Y-77655057D01*
X154047371Y-77577647D01*
X154047371Y-77384123D01*
X154086076Y-77306714D01*
X154124780Y-77268009D01*
X154202190Y-77229304D01*
X154434419Y-77229304D01*
X154511828Y-77268009D01*
X154550533Y-77306714D01*
M02*
