M48
; DRILL file {KiCad (5.1.4)-1} date 01/22/20 15:00:05
; FORMAT={2:4/ absolute / inch / suppress leading zeros}
; #@! TF.CreationDate,2020-01-22T15:00:05+01:00
; #@! TF.GenerationSoftware,Kicad,Pcbnew,(5.1.4)-1
FMAT,2
INCH,TZ
T1C0.0079
T2C0.0098
T3C0.0138
T4C0.0173
T5C0.0197
T6C0.0315
T7C0.0400
T8C0.0591
T9C0.0669
T10C0.1200
%
G90
G05
T1
X44200Y-37500
X44200Y-38500
X44300Y-30150
X44300Y-31550
X44600Y-40550
X44600Y-41900
X44600Y-45150
X44600Y-46350
X44850Y-31850
X44900Y-31250
X44950Y-38500
X45100Y-40550
X45100Y-41900
X45100Y-45150
X45100Y-46350
X45200Y-37500
X45200Y-48750
X45300Y-30382
X45464Y-36037
X45600Y-34150
X45700Y-48000
X45800Y-39050
X45950Y-37500
X45950Y-43500
X46000Y-34850
X46000Y-35550
X46200Y-39250
X46200Y-39750
X46300Y-33250
X46300Y-37550
X46616Y-33626
X46616Y-36874
X46700Y-37550
X46700Y-39250
X46700Y-42000
X46700Y-42750
X46700Y-43750
X46700Y-47000
X46800Y-40650
X46950Y-45250
X47000Y-34550
X47000Y-35850
X47000Y-37325
X47100Y-38350
X47100Y-40150
X47100Y-41250
X47400Y-37325
X47650Y-39050
X47673Y-32050
X47749Y-38349
X47800Y-34650
X47825Y-37225
X47825Y-38050
X47847Y-39163
X47900Y-32050
X47900Y-35850
X48100Y-29950
X48200Y-37125
X48250Y-34150
X48583Y-36874
X48600Y-47050
X48700Y-42450
X48948Y-34857
X48948Y-35250
X48948Y-35643
X49000Y-36450
X49250Y-42150
X49300Y-31550
X49700Y-42550
X49850Y-42000
X50000Y-42900
X50000Y-46950
X50050Y-31050
X50300Y-43150
X50575Y-36950
X50700Y-31550
X50750Y-36450
X50850Y-31050
X50881Y-36000
X50900Y-29150
X50900Y-30150
X50900Y-41550
X51094Y-40984
X51100Y-34950
X51100Y-42050
X51125Y-35500
X51400Y-39200
X51400Y-40050
X51400Y-42850
X51500Y-35350
X51500Y-38150
X51500Y-46900
X51600Y-45450
X51700Y-29150
X51700Y-30150
X51700Y-35650
X51800Y-31050
X51900Y-31850
X51900Y-43350
X52000Y-34650
X52000Y-35150
X52100Y-41550
X52100Y-42550
X52150Y-34000
X52300Y-32350
X52300Y-33550
X52300Y-36850
X52600Y-34150
X52600Y-35150
X52625Y-38325
X52700Y-42550
X52800Y-31250
X53000Y-32350
X53100Y-46150
X53200Y-30550
X53200Y-31050
X53700Y-31050
X53700Y-38550
X53900Y-30550
X54050Y-45300
X54100Y-31450
X54150Y-34273
X54150Y-34500
X54175Y-33750
X54175Y-34025
X54200Y-34950
X54500Y-31050
X54500Y-31850
X54700Y-45950
X54775Y-38537
X54775Y-38813
X54800Y-39750
X54875Y-37625
X54900Y-31450
X54900Y-32250
X55100Y-33650
X55200Y-34300
X55200Y-37350
X55250Y-38850
X55300Y-31850
X55300Y-32750
X55300Y-33350
X55300Y-33950
X55600Y-35000
X55600Y-35341
X55600Y-35931
X55600Y-36522
X55600Y-37112
X55600Y-37703
X55600Y-38293
X55600Y-38900
X55700Y-32250
X55700Y-44350
X55800Y-32750
X55800Y-33350
X55900Y-33750
X55900Y-39650
X55900Y-46150
X56100Y-35341
X56100Y-35931
X56100Y-36522
X56100Y-37112
X56100Y-37703
X56100Y-38293
X56100Y-38900
X56125Y-35000
X56300Y-29750
X56300Y-40050
X56500Y-30350
X56500Y-31950
X56500Y-32750
X56500Y-33350
X56500Y-33850
X56500Y-34325
X56500Y-46950
X56600Y-38450
X56600Y-38950
X56700Y-35450
X56700Y-41950
X56700Y-42750
X56895Y-36318
X56900Y-30750
X57000Y-33850
X57000Y-34325
X57100Y-29550
X57450Y-33500
X57700Y-33150
X57700Y-34250
X57900Y-37250
X57900Y-38850
X57950Y-34000
X58376Y-33894
X58450Y-32500
X58450Y-44250
X58450Y-45250
X58500Y-46700
X58700Y-31500
X58700Y-32000
X58700Y-41900
X58950Y-44750
X59000Y-36800
X59000Y-37587
X59000Y-38375
X59000Y-39162
X59200Y-31500
X59200Y-32000
X59300Y-42400
X59400Y-41850
X59435Y-35314
X59450Y-32500
X59450Y-44250
X59450Y-45250
X59600Y-33650
X59600Y-39950
X59700Y-33250
X59800Y-41450
X59850Y-41750
X60000Y-42450
X60000Y-43650
X60152Y-34669
X60175Y-34350
X60200Y-41250
X60280Y-36800
X60280Y-37587
X60280Y-38375
X60280Y-39162
X60300Y-47750
X60425Y-34825
X60450Y-44250
X60500Y-34194
X60502Y-34513
X60560Y-33810
X60800Y-40050
X61000Y-32050
X61000Y-32350
X61203Y-44053
X61300Y-46950
X61350Y-33500
X61559Y-36800
X61559Y-37587
X61559Y-38375
X61559Y-39162
X61600Y-34050
X61700Y-43000
X61700Y-44750
X61800Y-39950
X62100Y-32950
X62100Y-47750
X62200Y-42500
X62500Y-34450
X62500Y-41550
X62800Y-32200
X62839Y-36800
X62839Y-37587
X62839Y-38375
X62839Y-39162
X62900Y-32900
X63150Y-33750
X63200Y-31750
X63350Y-34450
X63500Y-39950
X63500Y-41550
X63700Y-31250
X63850Y-32950
X63850Y-33750
X64000Y-31750
X64118Y-38375
X64118Y-39162
X64200Y-37800
X64300Y-32750
X64400Y-30950
X64500Y-36650
X64600Y-31200
X64700Y-41550
X64900Y-42750
X64900Y-43750
X64900Y-44950
X65100Y-33850
X65300Y-31650
X65300Y-32350
X65300Y-33000
X65300Y-37250
X65300Y-38050
X65300Y-38850
X65858Y-34250
X66200Y-31200
X66900Y-46950
X66900Y-47550
X66950Y-39250
X66950Y-40250
X67100Y-31200
X67264Y-36025
X67264Y-36812
X67264Y-37600
X67264Y-38387
X67289Y-33050
X67289Y-33837
X67289Y-34625
X67289Y-35412
X67300Y-41550
X67300Y-42550
X67300Y-43750
X67450Y-39750
X67450Y-40750
X67700Y-36550
X67950Y-39750
X67950Y-41250
X68100Y-42550
X68100Y-43550
X68100Y-44750
X68100Y-46350
X68100Y-47550
X68450Y-40750
X68450Y-41750
X68500Y-31450
X68543Y-36025
X68543Y-36812
X68543Y-37600
X68543Y-38387
X68568Y-33837
X68568Y-34625
X68568Y-35412
X68700Y-33350
X68900Y-31450
X68950Y-41250
X68950Y-42250
X69300Y-30750
X69300Y-33350
X69300Y-39950
X69300Y-40550
X69400Y-37107
X69400Y-38386
X69450Y-41750
X69450Y-42750
X69450Y-43250
X69450Y-44750
X69741Y-31650
X69900Y-48350
X69950Y-42250
X69950Y-45500
X70100Y-34350
X70187Y-37107
X70187Y-38386
X70300Y-40750
X70450Y-42500
X70450Y-43250
X70450Y-44000
X70450Y-44750
X70450Y-46000
X70900Y-49150
X70950Y-45500
X70950Y-46500
X70950Y-47250
X71450Y-48000
X71700Y-46250
X71700Y-47250
X72200Y-47750
X72200Y-48250
X72300Y-45750
X73900Y-45750
X75581Y-34550
T2
X63203Y-44650
X63597Y-44650
T4
X55300Y-41426
X55300Y-41938
X55300Y-42450
X55694Y-41682
X55694Y-42194
T5
X45428Y-40463
X45428Y-42037
X45428Y-45063
X45428Y-46637
T6
X54600Y-47350
X55387Y-47350
X46600Y-49150
X47387Y-49150
X64413Y-47150
X65200Y-47150
X46600Y-47950
X47387Y-47950
X54500Y-35863
X54500Y-36650
T7
X61700Y-29750
X62700Y-29750
X63700Y-29750
X64700Y-29750
X65700Y-29750
X66700Y-29750
X67700Y-29750
X68700Y-29750
X63700Y-48750
X64700Y-48750
X65700Y-48750
X66700Y-48750
X67700Y-48750
X68700Y-48750
X54700Y-48750
X55700Y-48750
X56700Y-48750
X57700Y-48750
X58700Y-48750
X59700Y-48750
X60700Y-48750
X61700Y-48750
X61700Y-29750
X62700Y-29750
X63700Y-29750
X64700Y-29750
X65700Y-29750
X66700Y-29750
X67700Y-29750
X68700Y-29750
T8
X73631Y-48000
X58950Y-30500
T9
X72631Y-47000
X72631Y-49000
X74631Y-47000
X74631Y-49000
X57950Y-29500
X57950Y-31500
X59950Y-29500
X59950Y-31500
T10
X49200Y-48750
X69700Y-35750
X69700Y-46750
X49700Y-29750
T3
G00X55190Y-40531
M15
G01X55583Y-40531
M16
G05
G00X55190Y-43346
M15
G01X55583Y-43346
M16
G05
T0
M30
