G04 #@! TF.GenerationSoftware,KiCad,Pcbnew,(5.1.4)-1*
G04 #@! TF.CreationDate,2020-01-22T15:00:02+01:00*
G04 #@! TF.ProjectId,sara-rx-ab,73617261-2d72-4782-9d61-622e6b696361,rev?*
G04 #@! TF.SameCoordinates,Original*
G04 #@! TF.FileFunction,Copper,L4,Bot*
G04 #@! TF.FilePolarity,Positive*
%FSLAX46Y46*%
G04 Gerber Fmt 4.6, Leading zero omitted, Abs format (unit mm)*
G04 Created by KiCad (PCBNEW (5.1.4)-1) date 2020-01-22 15:00:02*
%MOMM*%
%LPD*%
G04 APERTURE LIST*
%ADD10C,0.150000*%
%ADD11R,1.700000X1.500000*%
%ADD12R,1.200000X1.000000*%
%ADD13O,1.727200X2.032000*%
%ADD14R,0.840000X0.840000*%
%ADD15C,0.840000*%
%ADD16O,1.850000X0.850000*%
%ADD17C,0.600000*%
%ADD18R,1.350000X1.350000*%
%ADD19O,1.350000X1.350000*%
%ADD20R,1.600000X0.900000*%
%ADD21R,0.740000X2.400000*%
%ADD22R,8.000000X8.000000*%
%ADD23R,5.500000X6.000000*%
%ADD24C,0.100000*%
%ADD25C,0.590000*%
%ADD26C,0.875000*%
%ADD27C,2.050000*%
%ADD28C,2.250000*%
%ADD29R,0.900000X0.800000*%
%ADD30C,4.064000*%
%ADD31C,0.450000*%
%ADD32C,0.088900*%
%ADD33C,0.200000*%
%ADD34C,0.381000*%
%ADD35C,1.200000*%
%ADD36C,0.203200*%
G04 APERTURE END LIST*
D10*
G36*
X192405000Y-117348000D02*
G01*
X190119000Y-117348000D01*
X190119000Y-116141500D01*
X192405000Y-116141500D01*
X192405000Y-117348000D01*
G37*
X192405000Y-117348000D02*
X190119000Y-117348000D01*
X190119000Y-116141500D01*
X192405000Y-116141500D01*
X192405000Y-117348000D01*
D11*
X164340000Y-102147000D03*
X164340000Y-116547000D03*
D12*
X153490000Y-107717000D03*
X153490000Y-110257000D03*
X153490000Y-112797000D03*
X153490000Y-106447000D03*
X153490000Y-108987000D03*
X153490000Y-111527000D03*
D13*
X156718000Y-75565000D03*
X159258000Y-75565000D03*
X161798000Y-75565000D03*
X164338000Y-75565000D03*
X166878000Y-75565000D03*
X169418000Y-75565000D03*
X171958000Y-75565000D03*
X174498000Y-75565000D03*
D14*
X140462000Y-107823000D03*
D15*
X141462000Y-107173000D03*
X140462000Y-106523000D03*
X141462000Y-105873000D03*
X140462000Y-105223000D03*
D16*
X140682000Y-110098000D03*
X140682000Y-102948000D03*
D17*
X115386000Y-114459000D03*
X115386000Y-118459000D03*
X115386000Y-102775000D03*
X115386000Y-106775000D03*
D18*
X118364000Y-121793000D03*
D19*
X120364000Y-121793000D03*
X140684000Y-120269000D03*
D18*
X138684000Y-120269000D03*
D19*
X165608000Y-119761000D03*
D18*
X163608000Y-119761000D03*
D19*
X138430000Y-91091000D03*
D18*
X138430000Y-93091000D03*
D17*
X160536000Y-113411000D03*
X161536000Y-113411000D03*
D20*
X161036000Y-113411000D03*
D19*
X120364000Y-124841000D03*
D18*
X118364000Y-124841000D03*
D21*
X115062000Y-77171000D03*
X115062000Y-81071000D03*
X116332000Y-77171000D03*
X116332000Y-81071000D03*
X117602000Y-77171000D03*
X117602000Y-81071000D03*
X118872000Y-77171000D03*
X118872000Y-81071000D03*
X120142000Y-77171000D03*
X120142000Y-81071000D03*
D22*
X125998000Y-99695000D03*
D23*
X125998000Y-84395000D03*
X125998000Y-114995000D03*
D24*
G36*
X190940958Y-113647710D02*
G01*
X190955276Y-113649834D01*
X190969317Y-113653351D01*
X190982946Y-113658228D01*
X190996031Y-113664417D01*
X191008447Y-113671858D01*
X191020073Y-113680481D01*
X191030798Y-113690202D01*
X191040519Y-113700927D01*
X191049142Y-113712553D01*
X191056583Y-113724969D01*
X191062772Y-113738054D01*
X191067649Y-113751683D01*
X191071166Y-113765724D01*
X191073290Y-113780042D01*
X191074000Y-113794500D01*
X191074000Y-114089500D01*
X191073290Y-114103958D01*
X191071166Y-114118276D01*
X191067649Y-114132317D01*
X191062772Y-114145946D01*
X191056583Y-114159031D01*
X191049142Y-114171447D01*
X191040519Y-114183073D01*
X191030798Y-114193798D01*
X191020073Y-114203519D01*
X191008447Y-114212142D01*
X190996031Y-114219583D01*
X190982946Y-114225772D01*
X190969317Y-114230649D01*
X190955276Y-114234166D01*
X190940958Y-114236290D01*
X190926500Y-114237000D01*
X190581500Y-114237000D01*
X190567042Y-114236290D01*
X190552724Y-114234166D01*
X190538683Y-114230649D01*
X190525054Y-114225772D01*
X190511969Y-114219583D01*
X190499553Y-114212142D01*
X190487927Y-114203519D01*
X190477202Y-114193798D01*
X190467481Y-114183073D01*
X190458858Y-114171447D01*
X190451417Y-114159031D01*
X190445228Y-114145946D01*
X190440351Y-114132317D01*
X190436834Y-114118276D01*
X190434710Y-114103958D01*
X190434000Y-114089500D01*
X190434000Y-113794500D01*
X190434710Y-113780042D01*
X190436834Y-113765724D01*
X190440351Y-113751683D01*
X190445228Y-113738054D01*
X190451417Y-113724969D01*
X190458858Y-113712553D01*
X190467481Y-113700927D01*
X190477202Y-113690202D01*
X190487927Y-113680481D01*
X190499553Y-113671858D01*
X190511969Y-113664417D01*
X190525054Y-113658228D01*
X190538683Y-113653351D01*
X190552724Y-113649834D01*
X190567042Y-113647710D01*
X190581500Y-113647000D01*
X190926500Y-113647000D01*
X190940958Y-113647710D01*
X190940958Y-113647710D01*
G37*
D25*
X190754000Y-113942000D03*
D24*
G36*
X190940958Y-114617710D02*
G01*
X190955276Y-114619834D01*
X190969317Y-114623351D01*
X190982946Y-114628228D01*
X190996031Y-114634417D01*
X191008447Y-114641858D01*
X191020073Y-114650481D01*
X191030798Y-114660202D01*
X191040519Y-114670927D01*
X191049142Y-114682553D01*
X191056583Y-114694969D01*
X191062772Y-114708054D01*
X191067649Y-114721683D01*
X191071166Y-114735724D01*
X191073290Y-114750042D01*
X191074000Y-114764500D01*
X191074000Y-115059500D01*
X191073290Y-115073958D01*
X191071166Y-115088276D01*
X191067649Y-115102317D01*
X191062772Y-115115946D01*
X191056583Y-115129031D01*
X191049142Y-115141447D01*
X191040519Y-115153073D01*
X191030798Y-115163798D01*
X191020073Y-115173519D01*
X191008447Y-115182142D01*
X190996031Y-115189583D01*
X190982946Y-115195772D01*
X190969317Y-115200649D01*
X190955276Y-115204166D01*
X190940958Y-115206290D01*
X190926500Y-115207000D01*
X190581500Y-115207000D01*
X190567042Y-115206290D01*
X190552724Y-115204166D01*
X190538683Y-115200649D01*
X190525054Y-115195772D01*
X190511969Y-115189583D01*
X190499553Y-115182142D01*
X190487927Y-115173519D01*
X190477202Y-115163798D01*
X190467481Y-115153073D01*
X190458858Y-115141447D01*
X190451417Y-115129031D01*
X190445228Y-115115946D01*
X190440351Y-115102317D01*
X190436834Y-115088276D01*
X190434710Y-115073958D01*
X190434000Y-115059500D01*
X190434000Y-114764500D01*
X190434710Y-114750042D01*
X190436834Y-114735724D01*
X190440351Y-114721683D01*
X190445228Y-114708054D01*
X190451417Y-114694969D01*
X190458858Y-114682553D01*
X190467481Y-114670927D01*
X190477202Y-114660202D01*
X190487927Y-114650481D01*
X190499553Y-114641858D01*
X190511969Y-114634417D01*
X190525054Y-114628228D01*
X190538683Y-114623351D01*
X190552724Y-114619834D01*
X190567042Y-114617710D01*
X190581500Y-114617000D01*
X190926500Y-114617000D01*
X190940958Y-114617710D01*
X190940958Y-114617710D01*
G37*
D25*
X190754000Y-114912000D03*
D24*
G36*
X149871691Y-101253053D02*
G01*
X149892926Y-101256203D01*
X149913750Y-101261419D01*
X149933962Y-101268651D01*
X149953368Y-101277830D01*
X149971781Y-101288866D01*
X149989024Y-101301654D01*
X150004930Y-101316070D01*
X150019346Y-101331976D01*
X150032134Y-101349219D01*
X150043170Y-101367632D01*
X150052349Y-101387038D01*
X150059581Y-101407250D01*
X150064797Y-101428074D01*
X150067947Y-101449309D01*
X150069000Y-101470750D01*
X150069000Y-101983250D01*
X150067947Y-102004691D01*
X150064797Y-102025926D01*
X150059581Y-102046750D01*
X150052349Y-102066962D01*
X150043170Y-102086368D01*
X150032134Y-102104781D01*
X150019346Y-102122024D01*
X150004930Y-102137930D01*
X149989024Y-102152346D01*
X149971781Y-102165134D01*
X149953368Y-102176170D01*
X149933962Y-102185349D01*
X149913750Y-102192581D01*
X149892926Y-102197797D01*
X149871691Y-102200947D01*
X149850250Y-102202000D01*
X149412750Y-102202000D01*
X149391309Y-102200947D01*
X149370074Y-102197797D01*
X149349250Y-102192581D01*
X149329038Y-102185349D01*
X149309632Y-102176170D01*
X149291219Y-102165134D01*
X149273976Y-102152346D01*
X149258070Y-102137930D01*
X149243654Y-102122024D01*
X149230866Y-102104781D01*
X149219830Y-102086368D01*
X149210651Y-102066962D01*
X149203419Y-102046750D01*
X149198203Y-102025926D01*
X149195053Y-102004691D01*
X149194000Y-101983250D01*
X149194000Y-101470750D01*
X149195053Y-101449309D01*
X149198203Y-101428074D01*
X149203419Y-101407250D01*
X149210651Y-101387038D01*
X149219830Y-101367632D01*
X149230866Y-101349219D01*
X149243654Y-101331976D01*
X149258070Y-101316070D01*
X149273976Y-101301654D01*
X149291219Y-101288866D01*
X149309632Y-101277830D01*
X149329038Y-101268651D01*
X149349250Y-101261419D01*
X149370074Y-101256203D01*
X149391309Y-101253053D01*
X149412750Y-101252000D01*
X149850250Y-101252000D01*
X149871691Y-101253053D01*
X149871691Y-101253053D01*
G37*
D26*
X149631500Y-101727000D03*
D24*
G36*
X148296691Y-101253053D02*
G01*
X148317926Y-101256203D01*
X148338750Y-101261419D01*
X148358962Y-101268651D01*
X148378368Y-101277830D01*
X148396781Y-101288866D01*
X148414024Y-101301654D01*
X148429930Y-101316070D01*
X148444346Y-101331976D01*
X148457134Y-101349219D01*
X148468170Y-101367632D01*
X148477349Y-101387038D01*
X148484581Y-101407250D01*
X148489797Y-101428074D01*
X148492947Y-101449309D01*
X148494000Y-101470750D01*
X148494000Y-101983250D01*
X148492947Y-102004691D01*
X148489797Y-102025926D01*
X148484581Y-102046750D01*
X148477349Y-102066962D01*
X148468170Y-102086368D01*
X148457134Y-102104781D01*
X148444346Y-102122024D01*
X148429930Y-102137930D01*
X148414024Y-102152346D01*
X148396781Y-102165134D01*
X148378368Y-102176170D01*
X148358962Y-102185349D01*
X148338750Y-102192581D01*
X148317926Y-102197797D01*
X148296691Y-102200947D01*
X148275250Y-102202000D01*
X147837750Y-102202000D01*
X147816309Y-102200947D01*
X147795074Y-102197797D01*
X147774250Y-102192581D01*
X147754038Y-102185349D01*
X147734632Y-102176170D01*
X147716219Y-102165134D01*
X147698976Y-102152346D01*
X147683070Y-102137930D01*
X147668654Y-102122024D01*
X147655866Y-102104781D01*
X147644830Y-102086368D01*
X147635651Y-102066962D01*
X147628419Y-102046750D01*
X147623203Y-102025926D01*
X147620053Y-102004691D01*
X147619000Y-101983250D01*
X147619000Y-101470750D01*
X147620053Y-101449309D01*
X147623203Y-101428074D01*
X147628419Y-101407250D01*
X147635651Y-101387038D01*
X147644830Y-101367632D01*
X147655866Y-101349219D01*
X147668654Y-101331976D01*
X147683070Y-101316070D01*
X147698976Y-101301654D01*
X147716219Y-101288866D01*
X147734632Y-101277830D01*
X147754038Y-101268651D01*
X147774250Y-101261419D01*
X147795074Y-101256203D01*
X147816309Y-101253053D01*
X147837750Y-101252000D01*
X148275250Y-101252000D01*
X148296691Y-101253053D01*
X148296691Y-101253053D01*
G37*
D26*
X148056500Y-101727000D03*
D24*
G36*
X149871691Y-102777053D02*
G01*
X149892926Y-102780203D01*
X149913750Y-102785419D01*
X149933962Y-102792651D01*
X149953368Y-102801830D01*
X149971781Y-102812866D01*
X149989024Y-102825654D01*
X150004930Y-102840070D01*
X150019346Y-102855976D01*
X150032134Y-102873219D01*
X150043170Y-102891632D01*
X150052349Y-102911038D01*
X150059581Y-102931250D01*
X150064797Y-102952074D01*
X150067947Y-102973309D01*
X150069000Y-102994750D01*
X150069000Y-103507250D01*
X150067947Y-103528691D01*
X150064797Y-103549926D01*
X150059581Y-103570750D01*
X150052349Y-103590962D01*
X150043170Y-103610368D01*
X150032134Y-103628781D01*
X150019346Y-103646024D01*
X150004930Y-103661930D01*
X149989024Y-103676346D01*
X149971781Y-103689134D01*
X149953368Y-103700170D01*
X149933962Y-103709349D01*
X149913750Y-103716581D01*
X149892926Y-103721797D01*
X149871691Y-103724947D01*
X149850250Y-103726000D01*
X149412750Y-103726000D01*
X149391309Y-103724947D01*
X149370074Y-103721797D01*
X149349250Y-103716581D01*
X149329038Y-103709349D01*
X149309632Y-103700170D01*
X149291219Y-103689134D01*
X149273976Y-103676346D01*
X149258070Y-103661930D01*
X149243654Y-103646024D01*
X149230866Y-103628781D01*
X149219830Y-103610368D01*
X149210651Y-103590962D01*
X149203419Y-103570750D01*
X149198203Y-103549926D01*
X149195053Y-103528691D01*
X149194000Y-103507250D01*
X149194000Y-102994750D01*
X149195053Y-102973309D01*
X149198203Y-102952074D01*
X149203419Y-102931250D01*
X149210651Y-102911038D01*
X149219830Y-102891632D01*
X149230866Y-102873219D01*
X149243654Y-102855976D01*
X149258070Y-102840070D01*
X149273976Y-102825654D01*
X149291219Y-102812866D01*
X149309632Y-102801830D01*
X149329038Y-102792651D01*
X149349250Y-102785419D01*
X149370074Y-102780203D01*
X149391309Y-102777053D01*
X149412750Y-102776000D01*
X149850250Y-102776000D01*
X149871691Y-102777053D01*
X149871691Y-102777053D01*
G37*
D26*
X149631500Y-103251000D03*
D24*
G36*
X148296691Y-102777053D02*
G01*
X148317926Y-102780203D01*
X148338750Y-102785419D01*
X148358962Y-102792651D01*
X148378368Y-102801830D01*
X148396781Y-102812866D01*
X148414024Y-102825654D01*
X148429930Y-102840070D01*
X148444346Y-102855976D01*
X148457134Y-102873219D01*
X148468170Y-102891632D01*
X148477349Y-102911038D01*
X148484581Y-102931250D01*
X148489797Y-102952074D01*
X148492947Y-102973309D01*
X148494000Y-102994750D01*
X148494000Y-103507250D01*
X148492947Y-103528691D01*
X148489797Y-103549926D01*
X148484581Y-103570750D01*
X148477349Y-103590962D01*
X148468170Y-103610368D01*
X148457134Y-103628781D01*
X148444346Y-103646024D01*
X148429930Y-103661930D01*
X148414024Y-103676346D01*
X148396781Y-103689134D01*
X148378368Y-103700170D01*
X148358962Y-103709349D01*
X148338750Y-103716581D01*
X148317926Y-103721797D01*
X148296691Y-103724947D01*
X148275250Y-103726000D01*
X147837750Y-103726000D01*
X147816309Y-103724947D01*
X147795074Y-103721797D01*
X147774250Y-103716581D01*
X147754038Y-103709349D01*
X147734632Y-103700170D01*
X147716219Y-103689134D01*
X147698976Y-103676346D01*
X147683070Y-103661930D01*
X147668654Y-103646024D01*
X147655866Y-103628781D01*
X147644830Y-103610368D01*
X147635651Y-103590962D01*
X147628419Y-103570750D01*
X147623203Y-103549926D01*
X147620053Y-103528691D01*
X147619000Y-103507250D01*
X147619000Y-102994750D01*
X147620053Y-102973309D01*
X147623203Y-102952074D01*
X147628419Y-102931250D01*
X147635651Y-102911038D01*
X147644830Y-102891632D01*
X147655866Y-102873219D01*
X147668654Y-102855976D01*
X147683070Y-102840070D01*
X147698976Y-102825654D01*
X147716219Y-102812866D01*
X147734632Y-102801830D01*
X147754038Y-102792651D01*
X147774250Y-102785419D01*
X147795074Y-102780203D01*
X147816309Y-102777053D01*
X147837750Y-102776000D01*
X148275250Y-102776000D01*
X148296691Y-102777053D01*
X148296691Y-102777053D01*
G37*
D26*
X148056500Y-103251000D03*
D24*
G36*
X149871691Y-104301053D02*
G01*
X149892926Y-104304203D01*
X149913750Y-104309419D01*
X149933962Y-104316651D01*
X149953368Y-104325830D01*
X149971781Y-104336866D01*
X149989024Y-104349654D01*
X150004930Y-104364070D01*
X150019346Y-104379976D01*
X150032134Y-104397219D01*
X150043170Y-104415632D01*
X150052349Y-104435038D01*
X150059581Y-104455250D01*
X150064797Y-104476074D01*
X150067947Y-104497309D01*
X150069000Y-104518750D01*
X150069000Y-105031250D01*
X150067947Y-105052691D01*
X150064797Y-105073926D01*
X150059581Y-105094750D01*
X150052349Y-105114962D01*
X150043170Y-105134368D01*
X150032134Y-105152781D01*
X150019346Y-105170024D01*
X150004930Y-105185930D01*
X149989024Y-105200346D01*
X149971781Y-105213134D01*
X149953368Y-105224170D01*
X149933962Y-105233349D01*
X149913750Y-105240581D01*
X149892926Y-105245797D01*
X149871691Y-105248947D01*
X149850250Y-105250000D01*
X149412750Y-105250000D01*
X149391309Y-105248947D01*
X149370074Y-105245797D01*
X149349250Y-105240581D01*
X149329038Y-105233349D01*
X149309632Y-105224170D01*
X149291219Y-105213134D01*
X149273976Y-105200346D01*
X149258070Y-105185930D01*
X149243654Y-105170024D01*
X149230866Y-105152781D01*
X149219830Y-105134368D01*
X149210651Y-105114962D01*
X149203419Y-105094750D01*
X149198203Y-105073926D01*
X149195053Y-105052691D01*
X149194000Y-105031250D01*
X149194000Y-104518750D01*
X149195053Y-104497309D01*
X149198203Y-104476074D01*
X149203419Y-104455250D01*
X149210651Y-104435038D01*
X149219830Y-104415632D01*
X149230866Y-104397219D01*
X149243654Y-104379976D01*
X149258070Y-104364070D01*
X149273976Y-104349654D01*
X149291219Y-104336866D01*
X149309632Y-104325830D01*
X149329038Y-104316651D01*
X149349250Y-104309419D01*
X149370074Y-104304203D01*
X149391309Y-104301053D01*
X149412750Y-104300000D01*
X149850250Y-104300000D01*
X149871691Y-104301053D01*
X149871691Y-104301053D01*
G37*
D26*
X149631500Y-104775000D03*
D24*
G36*
X148296691Y-104301053D02*
G01*
X148317926Y-104304203D01*
X148338750Y-104309419D01*
X148358962Y-104316651D01*
X148378368Y-104325830D01*
X148396781Y-104336866D01*
X148414024Y-104349654D01*
X148429930Y-104364070D01*
X148444346Y-104379976D01*
X148457134Y-104397219D01*
X148468170Y-104415632D01*
X148477349Y-104435038D01*
X148484581Y-104455250D01*
X148489797Y-104476074D01*
X148492947Y-104497309D01*
X148494000Y-104518750D01*
X148494000Y-105031250D01*
X148492947Y-105052691D01*
X148489797Y-105073926D01*
X148484581Y-105094750D01*
X148477349Y-105114962D01*
X148468170Y-105134368D01*
X148457134Y-105152781D01*
X148444346Y-105170024D01*
X148429930Y-105185930D01*
X148414024Y-105200346D01*
X148396781Y-105213134D01*
X148378368Y-105224170D01*
X148358962Y-105233349D01*
X148338750Y-105240581D01*
X148317926Y-105245797D01*
X148296691Y-105248947D01*
X148275250Y-105250000D01*
X147837750Y-105250000D01*
X147816309Y-105248947D01*
X147795074Y-105245797D01*
X147774250Y-105240581D01*
X147754038Y-105233349D01*
X147734632Y-105224170D01*
X147716219Y-105213134D01*
X147698976Y-105200346D01*
X147683070Y-105185930D01*
X147668654Y-105170024D01*
X147655866Y-105152781D01*
X147644830Y-105134368D01*
X147635651Y-105114962D01*
X147628419Y-105094750D01*
X147623203Y-105073926D01*
X147620053Y-105052691D01*
X147619000Y-105031250D01*
X147619000Y-104518750D01*
X147620053Y-104497309D01*
X147623203Y-104476074D01*
X147628419Y-104455250D01*
X147635651Y-104435038D01*
X147644830Y-104415632D01*
X147655866Y-104397219D01*
X147668654Y-104379976D01*
X147683070Y-104364070D01*
X147698976Y-104349654D01*
X147716219Y-104336866D01*
X147734632Y-104325830D01*
X147754038Y-104316651D01*
X147774250Y-104309419D01*
X147795074Y-104304203D01*
X147816309Y-104301053D01*
X147837750Y-104300000D01*
X148275250Y-104300000D01*
X148296691Y-104301053D01*
X148296691Y-104301053D01*
G37*
D26*
X148056500Y-104775000D03*
D24*
G36*
X149871691Y-107857053D02*
G01*
X149892926Y-107860203D01*
X149913750Y-107865419D01*
X149933962Y-107872651D01*
X149953368Y-107881830D01*
X149971781Y-107892866D01*
X149989024Y-107905654D01*
X150004930Y-107920070D01*
X150019346Y-107935976D01*
X150032134Y-107953219D01*
X150043170Y-107971632D01*
X150052349Y-107991038D01*
X150059581Y-108011250D01*
X150064797Y-108032074D01*
X150067947Y-108053309D01*
X150069000Y-108074750D01*
X150069000Y-108587250D01*
X150067947Y-108608691D01*
X150064797Y-108629926D01*
X150059581Y-108650750D01*
X150052349Y-108670962D01*
X150043170Y-108690368D01*
X150032134Y-108708781D01*
X150019346Y-108726024D01*
X150004930Y-108741930D01*
X149989024Y-108756346D01*
X149971781Y-108769134D01*
X149953368Y-108780170D01*
X149933962Y-108789349D01*
X149913750Y-108796581D01*
X149892926Y-108801797D01*
X149871691Y-108804947D01*
X149850250Y-108806000D01*
X149412750Y-108806000D01*
X149391309Y-108804947D01*
X149370074Y-108801797D01*
X149349250Y-108796581D01*
X149329038Y-108789349D01*
X149309632Y-108780170D01*
X149291219Y-108769134D01*
X149273976Y-108756346D01*
X149258070Y-108741930D01*
X149243654Y-108726024D01*
X149230866Y-108708781D01*
X149219830Y-108690368D01*
X149210651Y-108670962D01*
X149203419Y-108650750D01*
X149198203Y-108629926D01*
X149195053Y-108608691D01*
X149194000Y-108587250D01*
X149194000Y-108074750D01*
X149195053Y-108053309D01*
X149198203Y-108032074D01*
X149203419Y-108011250D01*
X149210651Y-107991038D01*
X149219830Y-107971632D01*
X149230866Y-107953219D01*
X149243654Y-107935976D01*
X149258070Y-107920070D01*
X149273976Y-107905654D01*
X149291219Y-107892866D01*
X149309632Y-107881830D01*
X149329038Y-107872651D01*
X149349250Y-107865419D01*
X149370074Y-107860203D01*
X149391309Y-107857053D01*
X149412750Y-107856000D01*
X149850250Y-107856000D01*
X149871691Y-107857053D01*
X149871691Y-107857053D01*
G37*
D26*
X149631500Y-108331000D03*
D24*
G36*
X148296691Y-107857053D02*
G01*
X148317926Y-107860203D01*
X148338750Y-107865419D01*
X148358962Y-107872651D01*
X148378368Y-107881830D01*
X148396781Y-107892866D01*
X148414024Y-107905654D01*
X148429930Y-107920070D01*
X148444346Y-107935976D01*
X148457134Y-107953219D01*
X148468170Y-107971632D01*
X148477349Y-107991038D01*
X148484581Y-108011250D01*
X148489797Y-108032074D01*
X148492947Y-108053309D01*
X148494000Y-108074750D01*
X148494000Y-108587250D01*
X148492947Y-108608691D01*
X148489797Y-108629926D01*
X148484581Y-108650750D01*
X148477349Y-108670962D01*
X148468170Y-108690368D01*
X148457134Y-108708781D01*
X148444346Y-108726024D01*
X148429930Y-108741930D01*
X148414024Y-108756346D01*
X148396781Y-108769134D01*
X148378368Y-108780170D01*
X148358962Y-108789349D01*
X148338750Y-108796581D01*
X148317926Y-108801797D01*
X148296691Y-108804947D01*
X148275250Y-108806000D01*
X147837750Y-108806000D01*
X147816309Y-108804947D01*
X147795074Y-108801797D01*
X147774250Y-108796581D01*
X147754038Y-108789349D01*
X147734632Y-108780170D01*
X147716219Y-108769134D01*
X147698976Y-108756346D01*
X147683070Y-108741930D01*
X147668654Y-108726024D01*
X147655866Y-108708781D01*
X147644830Y-108690368D01*
X147635651Y-108670962D01*
X147628419Y-108650750D01*
X147623203Y-108629926D01*
X147620053Y-108608691D01*
X147619000Y-108587250D01*
X147619000Y-108074750D01*
X147620053Y-108053309D01*
X147623203Y-108032074D01*
X147628419Y-108011250D01*
X147635651Y-107991038D01*
X147644830Y-107971632D01*
X147655866Y-107953219D01*
X147668654Y-107935976D01*
X147683070Y-107920070D01*
X147698976Y-107905654D01*
X147716219Y-107892866D01*
X147734632Y-107881830D01*
X147754038Y-107872651D01*
X147774250Y-107865419D01*
X147795074Y-107860203D01*
X147816309Y-107857053D01*
X147837750Y-107856000D01*
X148275250Y-107856000D01*
X148296691Y-107857053D01*
X148296691Y-107857053D01*
G37*
D26*
X148056500Y-108331000D03*
D24*
G36*
X149871691Y-106079053D02*
G01*
X149892926Y-106082203D01*
X149913750Y-106087419D01*
X149933962Y-106094651D01*
X149953368Y-106103830D01*
X149971781Y-106114866D01*
X149989024Y-106127654D01*
X150004930Y-106142070D01*
X150019346Y-106157976D01*
X150032134Y-106175219D01*
X150043170Y-106193632D01*
X150052349Y-106213038D01*
X150059581Y-106233250D01*
X150064797Y-106254074D01*
X150067947Y-106275309D01*
X150069000Y-106296750D01*
X150069000Y-106809250D01*
X150067947Y-106830691D01*
X150064797Y-106851926D01*
X150059581Y-106872750D01*
X150052349Y-106892962D01*
X150043170Y-106912368D01*
X150032134Y-106930781D01*
X150019346Y-106948024D01*
X150004930Y-106963930D01*
X149989024Y-106978346D01*
X149971781Y-106991134D01*
X149953368Y-107002170D01*
X149933962Y-107011349D01*
X149913750Y-107018581D01*
X149892926Y-107023797D01*
X149871691Y-107026947D01*
X149850250Y-107028000D01*
X149412750Y-107028000D01*
X149391309Y-107026947D01*
X149370074Y-107023797D01*
X149349250Y-107018581D01*
X149329038Y-107011349D01*
X149309632Y-107002170D01*
X149291219Y-106991134D01*
X149273976Y-106978346D01*
X149258070Y-106963930D01*
X149243654Y-106948024D01*
X149230866Y-106930781D01*
X149219830Y-106912368D01*
X149210651Y-106892962D01*
X149203419Y-106872750D01*
X149198203Y-106851926D01*
X149195053Y-106830691D01*
X149194000Y-106809250D01*
X149194000Y-106296750D01*
X149195053Y-106275309D01*
X149198203Y-106254074D01*
X149203419Y-106233250D01*
X149210651Y-106213038D01*
X149219830Y-106193632D01*
X149230866Y-106175219D01*
X149243654Y-106157976D01*
X149258070Y-106142070D01*
X149273976Y-106127654D01*
X149291219Y-106114866D01*
X149309632Y-106103830D01*
X149329038Y-106094651D01*
X149349250Y-106087419D01*
X149370074Y-106082203D01*
X149391309Y-106079053D01*
X149412750Y-106078000D01*
X149850250Y-106078000D01*
X149871691Y-106079053D01*
X149871691Y-106079053D01*
G37*
D26*
X149631500Y-106553000D03*
D24*
G36*
X148296691Y-106079053D02*
G01*
X148317926Y-106082203D01*
X148338750Y-106087419D01*
X148358962Y-106094651D01*
X148378368Y-106103830D01*
X148396781Y-106114866D01*
X148414024Y-106127654D01*
X148429930Y-106142070D01*
X148444346Y-106157976D01*
X148457134Y-106175219D01*
X148468170Y-106193632D01*
X148477349Y-106213038D01*
X148484581Y-106233250D01*
X148489797Y-106254074D01*
X148492947Y-106275309D01*
X148494000Y-106296750D01*
X148494000Y-106809250D01*
X148492947Y-106830691D01*
X148489797Y-106851926D01*
X148484581Y-106872750D01*
X148477349Y-106892962D01*
X148468170Y-106912368D01*
X148457134Y-106930781D01*
X148444346Y-106948024D01*
X148429930Y-106963930D01*
X148414024Y-106978346D01*
X148396781Y-106991134D01*
X148378368Y-107002170D01*
X148358962Y-107011349D01*
X148338750Y-107018581D01*
X148317926Y-107023797D01*
X148296691Y-107026947D01*
X148275250Y-107028000D01*
X147837750Y-107028000D01*
X147816309Y-107026947D01*
X147795074Y-107023797D01*
X147774250Y-107018581D01*
X147754038Y-107011349D01*
X147734632Y-107002170D01*
X147716219Y-106991134D01*
X147698976Y-106978346D01*
X147683070Y-106963930D01*
X147668654Y-106948024D01*
X147655866Y-106930781D01*
X147644830Y-106912368D01*
X147635651Y-106892962D01*
X147628419Y-106872750D01*
X147623203Y-106851926D01*
X147620053Y-106830691D01*
X147619000Y-106809250D01*
X147619000Y-106296750D01*
X147620053Y-106275309D01*
X147623203Y-106254074D01*
X147628419Y-106233250D01*
X147635651Y-106213038D01*
X147644830Y-106193632D01*
X147655866Y-106175219D01*
X147668654Y-106157976D01*
X147683070Y-106142070D01*
X147698976Y-106127654D01*
X147716219Y-106114866D01*
X147734632Y-106103830D01*
X147754038Y-106094651D01*
X147774250Y-106087419D01*
X147795074Y-106082203D01*
X147816309Y-106079053D01*
X147837750Y-106078000D01*
X148275250Y-106078000D01*
X148296691Y-106079053D01*
X148296691Y-106079053D01*
G37*
D26*
X148056500Y-106553000D03*
D27*
X187023000Y-121920000D03*
D28*
X189563000Y-124460000D03*
X189563000Y-119380000D03*
X184483000Y-119380000D03*
X184483000Y-124460000D03*
D27*
X149733000Y-77470000D03*
D28*
X152273000Y-74930000D03*
X147193000Y-74930000D03*
X147193000Y-80010000D03*
X152273000Y-80010000D03*
D29*
X147590000Y-115951000D03*
X149590000Y-116901000D03*
X149590000Y-115001000D03*
X147590000Y-111252000D03*
X149590000Y-112202000D03*
X149590000Y-110302000D03*
D24*
G36*
X192162958Y-116141710D02*
G01*
X192177276Y-116143834D01*
X192191317Y-116147351D01*
X192204946Y-116152228D01*
X192218031Y-116158417D01*
X192230447Y-116165858D01*
X192242073Y-116174481D01*
X192252798Y-116184202D01*
X192262519Y-116194927D01*
X192271142Y-116206553D01*
X192278583Y-116218969D01*
X192284772Y-116232054D01*
X192289649Y-116245683D01*
X192293166Y-116259724D01*
X192295290Y-116274042D01*
X192296000Y-116288500D01*
X192296000Y-116583500D01*
X192295290Y-116597958D01*
X192293166Y-116612276D01*
X192289649Y-116626317D01*
X192284772Y-116639946D01*
X192278583Y-116653031D01*
X192271142Y-116665447D01*
X192262519Y-116677073D01*
X192252798Y-116687798D01*
X192242073Y-116697519D01*
X192230447Y-116706142D01*
X192218031Y-116713583D01*
X192204946Y-116719772D01*
X192191317Y-116724649D01*
X192177276Y-116728166D01*
X192162958Y-116730290D01*
X192148500Y-116731000D01*
X191803500Y-116731000D01*
X191789042Y-116730290D01*
X191774724Y-116728166D01*
X191760683Y-116724649D01*
X191747054Y-116719772D01*
X191733969Y-116713583D01*
X191721553Y-116706142D01*
X191709927Y-116697519D01*
X191699202Y-116687798D01*
X191689481Y-116677073D01*
X191680858Y-116665447D01*
X191673417Y-116653031D01*
X191667228Y-116639946D01*
X191662351Y-116626317D01*
X191658834Y-116612276D01*
X191656710Y-116597958D01*
X191656000Y-116583500D01*
X191656000Y-116288500D01*
X191656710Y-116274042D01*
X191658834Y-116259724D01*
X191662351Y-116245683D01*
X191667228Y-116232054D01*
X191673417Y-116218969D01*
X191680858Y-116206553D01*
X191689481Y-116194927D01*
X191699202Y-116184202D01*
X191709927Y-116174481D01*
X191721553Y-116165858D01*
X191733969Y-116158417D01*
X191747054Y-116152228D01*
X191760683Y-116147351D01*
X191774724Y-116143834D01*
X191789042Y-116141710D01*
X191803500Y-116141000D01*
X192148500Y-116141000D01*
X192162958Y-116141710D01*
X192162958Y-116141710D01*
G37*
D25*
X191976000Y-116436000D03*
D24*
G36*
X192162958Y-115171710D02*
G01*
X192177276Y-115173834D01*
X192191317Y-115177351D01*
X192204946Y-115182228D01*
X192218031Y-115188417D01*
X192230447Y-115195858D01*
X192242073Y-115204481D01*
X192252798Y-115214202D01*
X192262519Y-115224927D01*
X192271142Y-115236553D01*
X192278583Y-115248969D01*
X192284772Y-115262054D01*
X192289649Y-115275683D01*
X192293166Y-115289724D01*
X192295290Y-115304042D01*
X192296000Y-115318500D01*
X192296000Y-115613500D01*
X192295290Y-115627958D01*
X192293166Y-115642276D01*
X192289649Y-115656317D01*
X192284772Y-115669946D01*
X192278583Y-115683031D01*
X192271142Y-115695447D01*
X192262519Y-115707073D01*
X192252798Y-115717798D01*
X192242073Y-115727519D01*
X192230447Y-115736142D01*
X192218031Y-115743583D01*
X192204946Y-115749772D01*
X192191317Y-115754649D01*
X192177276Y-115758166D01*
X192162958Y-115760290D01*
X192148500Y-115761000D01*
X191803500Y-115761000D01*
X191789042Y-115760290D01*
X191774724Y-115758166D01*
X191760683Y-115754649D01*
X191747054Y-115749772D01*
X191733969Y-115743583D01*
X191721553Y-115736142D01*
X191709927Y-115727519D01*
X191699202Y-115717798D01*
X191689481Y-115707073D01*
X191680858Y-115695447D01*
X191673417Y-115683031D01*
X191667228Y-115669946D01*
X191662351Y-115656317D01*
X191658834Y-115642276D01*
X191656710Y-115627958D01*
X191656000Y-115613500D01*
X191656000Y-115318500D01*
X191656710Y-115304042D01*
X191658834Y-115289724D01*
X191662351Y-115275683D01*
X191667228Y-115262054D01*
X191673417Y-115248969D01*
X191680858Y-115236553D01*
X191689481Y-115224927D01*
X191699202Y-115214202D01*
X191709927Y-115204481D01*
X191721553Y-115195858D01*
X191733969Y-115188417D01*
X191747054Y-115182228D01*
X191760683Y-115177351D01*
X191774724Y-115173834D01*
X191789042Y-115171710D01*
X191803500Y-115171000D01*
X192148500Y-115171000D01*
X192162958Y-115171710D01*
X192162958Y-115171710D01*
G37*
D25*
X191976000Y-115466000D03*
D13*
X156718000Y-123825000D03*
X154178000Y-123825000D03*
X151638000Y-123825000D03*
X149098000Y-123825000D03*
X146558000Y-123825000D03*
X144018000Y-123825000D03*
X141478000Y-123825000D03*
X138938000Y-123825000D03*
X174498000Y-123825000D03*
X171958000Y-123825000D03*
X169418000Y-123825000D03*
X166878000Y-123825000D03*
X164338000Y-123825000D03*
X161798000Y-123825000D03*
X174498000Y-75565000D03*
X171958000Y-75565000D03*
X169418000Y-75565000D03*
X166878000Y-75565000D03*
X164338000Y-75565000D03*
X161798000Y-75565000D03*
X159258000Y-75565000D03*
X156718000Y-75565000D03*
D30*
X124968000Y-123825000D03*
X177038000Y-118745000D03*
X126238000Y-75565000D03*
X177038000Y-90805000D03*
D31*
X152019000Y-106045000D03*
X151003000Y-114935000D03*
X149733000Y-113665000D03*
X148463000Y-114935000D03*
X151003000Y-112395000D03*
X148463000Y-112395000D03*
X113284000Y-114681000D03*
X141478000Y-81915000D03*
X140462000Y-80899000D03*
X138430000Y-78867000D03*
X136906000Y-77597000D03*
X139446000Y-79883000D03*
X135128000Y-77597000D03*
X136398000Y-78867000D03*
X137414000Y-79883000D03*
X138430000Y-80899000D03*
X139446000Y-81915000D03*
X140462000Y-83185000D03*
X140462000Y-84709000D03*
X140462000Y-86233000D03*
X141224000Y-88900000D03*
X142557500Y-88900000D03*
X141224000Y-89765000D03*
X142494000Y-89765000D03*
X142494000Y-91265000D03*
X141224000Y-92765000D03*
X142494000Y-92765000D03*
X141224000Y-94265000D03*
X142494000Y-94265000D03*
X141224000Y-95765000D03*
X142494000Y-95765000D03*
X141986000Y-100711000D03*
X143002000Y-101727000D03*
X141732000Y-83185000D03*
X141732000Y-84709000D03*
X141986000Y-85725000D03*
X143510000Y-85979000D03*
X144780000Y-85979000D03*
X145923000Y-85090000D03*
X149098000Y-81280000D03*
X149098000Y-80010000D03*
X150368000Y-80010000D03*
X150368000Y-81280000D03*
X147193000Y-86360000D03*
X146558000Y-86995000D03*
X144780000Y-87185500D03*
X143510000Y-87185500D03*
X146558000Y-84201000D03*
X148463000Y-82550000D03*
X151638000Y-84455000D03*
X151003000Y-82550000D03*
X170053000Y-99695000D03*
X171323000Y-100965000D03*
X172593000Y-100965000D03*
X173863000Y-103505000D03*
X175133000Y-104775000D03*
X176403000Y-106045000D03*
X177673000Y-107315000D03*
X178943000Y-107950000D03*
X178943000Y-109855000D03*
X178943000Y-111760000D03*
X178943000Y-113665000D03*
X180213000Y-115570000D03*
X182118000Y-117475000D03*
X182118000Y-120015000D03*
X183388000Y-121285000D03*
X176022000Y-102997000D03*
X178562000Y-103505000D03*
X176022000Y-101473000D03*
X170053000Y-102235000D03*
X171323000Y-103505000D03*
X172593000Y-104775000D03*
X173863000Y-106045000D03*
X175133000Y-107315000D03*
X176403000Y-108585000D03*
X176403000Y-109855000D03*
X176403000Y-113665000D03*
X177673000Y-115570000D03*
X180213000Y-118110000D03*
X180213000Y-120015000D03*
X181483000Y-121920000D03*
X183388000Y-122555000D03*
X178943000Y-116840000D03*
X141224000Y-91265000D03*
X140208000Y-87122000D03*
X141224000Y-97265000D03*
X142494000Y-97265000D03*
X141224000Y-98806000D03*
X142494000Y-98806000D03*
X149860000Y-93472000D03*
X153110000Y-93472000D03*
X156360000Y-93472000D03*
X159610000Y-93472000D03*
X163830000Y-93091000D03*
X149860000Y-95472000D03*
X153110000Y-95472000D03*
X156360000Y-95472000D03*
X159610000Y-95472000D03*
X149860000Y-97472000D03*
X153110000Y-97472000D03*
X156360000Y-97472000D03*
X159610000Y-97472000D03*
X162860000Y-97472000D03*
X149860000Y-99472000D03*
X153110000Y-99472000D03*
X156360000Y-99472000D03*
X159610000Y-99472000D03*
X162860000Y-99472000D03*
X119634000Y-101981000D03*
X118872000Y-103251000D03*
X119634000Y-104775000D03*
X113284000Y-102997000D03*
X114554000Y-102997000D03*
X114554000Y-106426000D03*
X113284000Y-106426000D03*
X117348000Y-99695000D03*
X118618000Y-99695000D03*
X117348000Y-100965000D03*
X114554000Y-114681000D03*
X114554000Y-117729000D03*
X113284000Y-117729000D03*
X126619000Y-106680000D03*
X126238000Y-108077000D03*
X127000000Y-108966000D03*
X130556000Y-99568000D03*
X130556000Y-101727000D03*
X129286000Y-105537000D03*
X157988000Y-107950000D03*
X156718000Y-109220000D03*
X153543000Y-112395000D03*
X139192000Y-100965000D03*
X119380000Y-87757000D03*
X121666000Y-91059000D03*
X119380000Y-91059000D03*
X116840000Y-88519000D03*
X116840000Y-90297000D03*
X152400000Y-107823000D03*
X174099500Y-93503500D03*
X170849500Y-97503500D03*
X170849500Y-95503500D03*
X174099500Y-95503500D03*
X174099500Y-97503500D03*
X170849500Y-91503500D03*
X174099500Y-91503500D03*
X170849500Y-93503500D03*
X176275500Y-94251500D03*
X178275500Y-94251500D03*
X178275500Y-97501500D03*
X176275500Y-97501500D03*
X174163000Y-87947000D03*
X174163000Y-89947000D03*
X174163000Y-85947000D03*
X170913000Y-85947000D03*
X170913000Y-89947000D03*
X170913000Y-83947000D03*
X170913000Y-87947000D03*
X175006000Y-79883000D03*
X176022000Y-78105000D03*
X165862000Y-94615000D03*
X165862000Y-96647000D03*
X165862000Y-98679000D03*
X161290000Y-101473000D03*
X156972000Y-101473000D03*
X151384000Y-101473000D03*
X147066000Y-98679000D03*
X147066000Y-94615000D03*
X132080000Y-89281000D03*
X133604000Y-89281000D03*
X132842000Y-82169000D03*
X134620000Y-82169000D03*
X132842000Y-85217000D03*
X133604000Y-86741000D03*
X132080000Y-88011000D03*
X137668000Y-88773000D03*
X129794000Y-106807000D03*
X130556000Y-108839000D03*
X124460000Y-92583000D03*
X163068000Y-96012000D03*
X176022000Y-84709000D03*
X129794000Y-88773000D03*
X121475500Y-96647000D03*
X116713000Y-95250000D03*
X114808000Y-95250000D03*
X112268000Y-95250000D03*
X112268000Y-97790000D03*
X114173000Y-97790000D03*
X118618000Y-106680000D03*
X118618000Y-108585000D03*
X118618000Y-111125000D03*
X116713000Y-110490000D03*
X119253000Y-114935000D03*
X118618000Y-119380000D03*
X114808000Y-123825000D03*
X116078000Y-121920000D03*
X178054000Y-87249000D03*
X130810000Y-119126000D03*
X149098000Y-106426000D03*
X150622000Y-107696000D03*
X127127000Y-78867000D03*
X129159000Y-78867000D03*
X131572000Y-78867000D03*
X159512000Y-81788000D03*
X165862000Y-82169000D03*
X165862000Y-80391000D03*
X160528000Y-80645000D03*
X161798000Y-79375000D03*
X164084000Y-79248000D03*
X168148000Y-79248000D03*
X170434000Y-79248000D03*
X155829000Y-85090000D03*
X157734000Y-83693000D03*
X159766000Y-83566000D03*
X162179000Y-83693000D03*
X165862000Y-83820000D03*
X162179000Y-85725000D03*
X160909000Y-87503000D03*
X158750000Y-87503000D03*
X160401000Y-85725000D03*
X143510000Y-83185000D03*
X143510000Y-84709000D03*
X143510000Y-77089000D03*
X145034000Y-75057000D03*
X144526000Y-78105000D03*
X143002000Y-75565000D03*
X143510000Y-81153000D03*
X129286000Y-74041000D03*
X131318000Y-74041000D03*
X131318000Y-76581000D03*
X129286000Y-76581000D03*
X122174000Y-76073000D03*
X112522000Y-76581000D03*
X112522000Y-80137000D03*
X128778000Y-80137000D03*
X125222000Y-80137000D03*
X130810000Y-96901000D03*
X136398000Y-97917000D03*
X132334000Y-105537000D03*
X132334000Y-108077000D03*
X133858000Y-108077000D03*
X144018000Y-106553000D03*
X144018000Y-108585000D03*
X141478000Y-112649000D03*
X141986000Y-117221000D03*
X143510000Y-119253000D03*
X138938000Y-116713000D03*
X137287000Y-115062000D03*
X134874000Y-117221000D03*
X156718000Y-113665000D03*
X155702000Y-119253000D03*
X153162000Y-121285000D03*
X157734000Y-121285000D03*
X172974000Y-108077000D03*
X172974000Y-110617000D03*
X172974000Y-113665000D03*
X172974000Y-117729000D03*
X172974000Y-120777000D03*
X169926000Y-120777000D03*
X169926000Y-119253000D03*
X170942000Y-105537000D03*
X170942000Y-111125000D03*
X170942000Y-108077000D03*
X164846000Y-114173000D03*
X164846000Y-108585000D03*
X164846000Y-111125000D03*
X161290000Y-105537000D03*
X164338000Y-105537000D03*
X158750000Y-105537000D03*
X177546000Y-122809000D03*
X180086000Y-124841000D03*
X183642000Y-116205000D03*
X187706000Y-116205000D03*
X153670000Y-86852552D03*
X139954000Y-85471000D03*
X115479320Y-91533980D03*
X115824000Y-86741000D03*
X114046000Y-79375000D03*
X118405400Y-93659960D03*
X154940000Y-81407000D03*
X121088997Y-81407000D03*
X174498000Y-84709000D03*
X173990000Y-79883000D03*
X163576000Y-78613000D03*
X165354000Y-85979000D03*
X163322000Y-83185000D03*
X171958000Y-92837000D03*
X121666000Y-81407000D03*
X154940000Y-82169008D03*
X122428000Y-94297500D03*
X129857500Y-90170000D03*
X121475500Y-94551500D03*
X129237960Y-91440000D03*
X120396000Y-94805500D03*
X128905000Y-92583000D03*
X128460500Y-93853000D03*
X119380000Y-94805500D03*
X124328680Y-88536780D03*
X153823333Y-85878333D03*
X117602000Y-95377000D03*
X117602000Y-84455000D03*
X143764000Y-97663000D03*
X139128500Y-97884500D03*
X143764000Y-98933000D03*
X139128500Y-98584500D03*
X177142360Y-80391000D03*
X148274707Y-86090540D03*
X124328680Y-90533220D03*
X132842000Y-93599000D03*
X139382500Y-95567500D03*
X140335000Y-98679000D03*
X130810000Y-89789000D03*
X131318000Y-90551000D03*
X123401580Y-93659960D03*
X133667500Y-97345500D03*
X121031000Y-99187000D03*
X121412000Y-88011000D03*
X118618000Y-95377000D03*
X124328680Y-89535000D03*
X131826000Y-80899004D03*
X135128000Y-78867000D03*
X123698000Y-107823000D03*
X131064000Y-115443000D03*
X123444000Y-119507000D03*
X127000000Y-119253000D03*
X122555000Y-86741000D03*
X121282793Y-97406793D03*
X140208000Y-94869000D03*
X144018000Y-90043000D03*
X131826000Y-110109000D03*
X155454500Y-111893500D03*
X121531988Y-99473275D03*
X191976000Y-87757000D03*
X119634000Y-97409000D03*
X118405400Y-85410040D03*
X152400000Y-110871000D03*
X148590000Y-118618000D03*
X127762000Y-109601000D03*
X132461000Y-86360000D03*
X115062000Y-77171000D03*
X162560000Y-80645000D03*
X113919000Y-80899000D03*
X116332000Y-99187000D03*
X125095000Y-107061000D03*
X129780002Y-104099000D03*
X151892000Y-105283000D03*
X150876000Y-106299000D03*
X152908000Y-104775000D03*
X154432000Y-101727000D03*
X134112000Y-79375000D03*
X151384000Y-85471000D03*
X167278252Y-86995000D03*
X144514000Y-92247000D03*
X156464000Y-86487000D03*
X150964000Y-89697000D03*
X137541000Y-87630000D03*
X153479500Y-88455500D03*
X137541000Y-87052997D03*
X152785036Y-88059040D03*
X137604500Y-86423500D03*
X153674420Y-87662589D03*
X137604500Y-85725000D03*
X152844500Y-87249002D03*
D32*
X145478297Y-85328549D02*
X140096451Y-85328549D01*
X153670000Y-86852552D02*
X147002300Y-86852552D01*
X147002300Y-86852552D02*
X145478297Y-85328549D01*
X140096451Y-85328549D02*
X139954000Y-85471000D01*
X115062000Y-81071000D02*
X115062000Y-91116660D01*
X115062000Y-91116660D02*
X115479320Y-91533980D01*
X115824000Y-86741000D02*
X116332000Y-86233000D01*
X116332000Y-86233000D02*
X116332000Y-81071000D01*
X120142000Y-79782100D02*
X119734900Y-79375000D01*
X120142000Y-81071000D02*
X120142000Y-79782100D01*
X119734900Y-79375000D02*
X114046000Y-79375000D01*
X120142000Y-81071000D02*
X120142000Y-91923360D01*
X120142000Y-91923360D02*
X118405400Y-93659960D01*
X144018000Y-123672600D02*
X144018000Y-123825000D01*
X142900400Y-122555000D02*
X144018000Y-123672600D01*
X137160000Y-122555000D02*
X142900400Y-122555000D01*
X135551549Y-120946549D02*
X137160000Y-122555000D01*
X119210451Y-121031000D02*
X119873252Y-121031000D01*
X119210451Y-120980839D02*
X119210451Y-121031000D01*
X119176161Y-120946549D02*
X119210451Y-120980839D01*
X117551839Y-120946549D02*
X119176161Y-120946549D01*
X117517549Y-120980839D02*
X117551839Y-120946549D01*
X117260252Y-121031000D02*
X117517549Y-121031000D01*
X114914549Y-118685297D02*
X117260252Y-121031000D01*
X114914549Y-118597549D02*
X114914549Y-118685297D01*
X114442451Y-118125451D02*
X114914549Y-118597549D01*
X114157549Y-106235703D02*
X114157549Y-106616297D01*
X119957703Y-120946549D02*
X135551549Y-120946549D01*
X114236500Y-117459752D02*
X114157549Y-117538703D01*
X114236500Y-106156752D02*
X114157549Y-106235703D01*
X114236500Y-103362752D02*
X114236500Y-106156752D01*
X113395549Y-102521801D02*
X114236500Y-103362752D01*
X114046000Y-79375000D02*
X113395549Y-80025451D01*
X114157549Y-117538703D02*
X114157549Y-117919297D01*
X113395549Y-80025451D02*
X113395549Y-102521801D01*
X117517549Y-121031000D02*
X117517549Y-120980839D01*
X114157549Y-106616297D02*
X114236500Y-106695248D01*
X114236500Y-106695248D02*
X114236500Y-114411752D01*
X114363703Y-118125451D02*
X114442451Y-118125451D01*
X114236500Y-114411752D02*
X114157549Y-114490703D01*
X119873252Y-121031000D02*
X119957703Y-120946549D01*
X114157549Y-114871297D02*
X114236500Y-114950248D01*
X114157549Y-117919297D02*
X114363703Y-118125451D01*
X114236500Y-114950248D02*
X114236500Y-117459752D01*
X114157549Y-114490703D02*
X114157549Y-114871297D01*
X121313996Y-81182001D02*
X121088997Y-81407000D01*
X124644997Y-77851000D02*
X121313996Y-81182001D01*
X134795252Y-77851000D02*
X124644997Y-77851000D01*
X134937703Y-77993451D02*
X134795252Y-77851000D01*
X135318297Y-77993451D02*
X134937703Y-77993451D01*
X136611341Y-77889089D02*
X135422659Y-77889089D01*
X154940000Y-81407000D02*
X154432000Y-81915000D01*
X154432000Y-81915000D02*
X146863344Y-81915000D01*
X135422659Y-77889089D02*
X135318297Y-77993451D01*
X137200659Y-77889089D02*
X137096297Y-77993451D01*
X146863344Y-81915000D02*
X142837433Y-77889089D01*
X142837433Y-77889089D02*
X137200659Y-77889089D01*
X136715703Y-77993451D02*
X136611341Y-77889089D01*
X137096297Y-77993451D02*
X136715703Y-77993451D01*
X174498000Y-85695252D02*
X174498000Y-84709000D01*
X174498000Y-86198748D02*
X174559451Y-86137297D01*
X174559451Y-86137297D02*
X174559451Y-85756703D01*
X174559451Y-87756703D02*
X174498000Y-87695252D01*
X174559451Y-88137297D02*
X174559451Y-87756703D01*
X174498000Y-123825000D02*
X174498000Y-90198748D01*
X174498000Y-87695252D02*
X174498000Y-86198748D01*
X174559451Y-90137297D02*
X174559451Y-89756703D01*
X174559451Y-85756703D02*
X174498000Y-85695252D01*
X174498000Y-90198748D02*
X174559451Y-90137297D01*
X174559451Y-89756703D02*
X174498000Y-89695252D01*
X174498000Y-89695252D02*
X174498000Y-88198748D01*
X174498000Y-88198748D02*
X174559451Y-88137297D01*
X173990000Y-79883000D02*
X172720000Y-78613000D01*
X172720000Y-78613000D02*
X163576000Y-78613000D01*
X165354000Y-85979000D02*
X163322000Y-83947000D01*
X163322000Y-83947000D02*
X163322000Y-83185000D01*
X171958000Y-123825000D02*
X171958000Y-92837000D01*
X121666000Y-81407000D02*
X124863628Y-78209372D01*
X142852372Y-78209372D02*
X146796549Y-82153549D01*
X154621802Y-82169008D02*
X154940000Y-82169008D01*
X154606343Y-82153549D02*
X154621802Y-82169008D01*
X146796549Y-82153549D02*
X154606343Y-82153549D01*
X124863628Y-78209372D02*
X142852372Y-78209372D01*
X174498000Y-75565000D02*
X174498000Y-81170748D01*
X134769451Y-96161451D02*
X130683000Y-92075000D01*
X141414297Y-96161451D02*
X134769451Y-96161451D01*
X130683000Y-90995500D02*
X129857500Y-90170000D01*
X130683000Y-92075000D02*
X130683000Y-90995500D01*
X142281252Y-96139000D02*
X141436748Y-96139000D01*
X141436748Y-96139000D02*
X141414297Y-96161451D01*
X142303703Y-96161451D02*
X142281252Y-96139000D01*
X142706748Y-96139000D02*
X142684297Y-96161451D01*
X122428000Y-94297500D02*
X122555000Y-94424500D01*
X125603000Y-94424500D02*
X129857500Y-90170000D01*
X174498000Y-81170748D02*
X159529748Y-96139000D01*
X159529748Y-96139000D02*
X142706748Y-96139000D01*
X122555000Y-94424500D02*
X125603000Y-94424500D01*
X142684297Y-96161451D02*
X142303703Y-96161451D01*
X159766000Y-96393000D02*
X134190960Y-96393000D01*
X175533060Y-74983865D02*
X175533060Y-80625940D01*
X174590195Y-74041000D02*
X175533060Y-74983865D01*
X172377100Y-74041000D02*
X174590195Y-74041000D01*
X171958000Y-74460100D02*
X172377100Y-74041000D01*
X175533060Y-80625940D02*
X159766000Y-96393000D01*
X171958000Y-75565000D02*
X171958000Y-74460100D01*
X121475500Y-94551500D02*
X121700499Y-94776499D01*
X121700499Y-94776499D02*
X126076501Y-94776499D01*
X126076501Y-94776499D02*
X129237960Y-91615040D01*
X129237960Y-91615040D02*
X129237960Y-91440000D01*
X134190960Y-96393000D02*
X129462959Y-91664999D01*
X129462959Y-91664999D02*
X129237960Y-91440000D01*
X128905000Y-92583000D02*
X126555500Y-94932500D01*
X126492000Y-94996000D02*
X120586500Y-94996000D01*
X126555500Y-94932500D02*
X126492000Y-94996000D01*
X120586500Y-94996000D02*
X120396000Y-94805500D01*
X160876252Y-96647000D02*
X132969000Y-96647000D01*
X169418000Y-75565000D02*
X169418000Y-75412600D01*
X169418000Y-75412600D02*
X171005510Y-73825090D01*
X176530000Y-80993252D02*
X160876252Y-96647000D01*
X171005510Y-73825090D02*
X174679627Y-73825090D01*
X174679627Y-73825090D02*
X176530000Y-75675463D01*
X176530000Y-75675463D02*
X176530000Y-80993252D01*
X132969000Y-96647000D02*
X129129999Y-92807999D01*
X129129999Y-92807999D02*
X128905000Y-92583000D01*
X128460500Y-93853000D02*
X127127000Y-95186500D01*
X127127000Y-95186500D02*
X127000000Y-95313500D01*
X127000000Y-95313500D02*
X119888000Y-95313500D01*
X119888000Y-95313500D02*
X119380000Y-94805500D01*
X129413000Y-93853000D02*
X128460500Y-93853000D01*
X132422910Y-96862910D02*
X129413000Y-93853000D01*
X141700748Y-97155000D02*
X141408658Y-96862910D01*
X142017252Y-97155000D02*
X141700748Y-97155000D01*
X142684297Y-96868549D02*
X142303703Y-96868549D01*
X142891297Y-97075549D02*
X142684297Y-96868549D01*
X141408658Y-96862910D02*
X132422910Y-96862910D01*
X153300297Y-97075549D02*
X142891297Y-97075549D01*
X176745910Y-81445090D02*
X161036000Y-97155000D01*
X159879748Y-97155000D02*
X159800297Y-97075549D01*
X176745910Y-75586031D02*
X176745910Y-81445090D01*
X174769059Y-73609180D02*
X176745910Y-75586031D01*
X169087820Y-73609180D02*
X174769059Y-73609180D01*
X166878000Y-75565000D02*
X167132000Y-75565000D01*
X153379748Y-97155000D02*
X153300297Y-97075549D01*
X161036000Y-97155000D02*
X159879748Y-97155000D01*
X159800297Y-97075549D02*
X159419703Y-97075549D01*
X159419703Y-97075549D02*
X159340252Y-97155000D01*
X159340252Y-97155000D02*
X156629748Y-97155000D01*
X142303703Y-96868549D02*
X142017252Y-97155000D01*
X156629748Y-97155000D02*
X156550297Y-97075549D01*
X156550297Y-97075549D02*
X156169703Y-97075549D01*
X156169703Y-97075549D02*
X156090252Y-97155000D01*
X167132000Y-75565000D02*
X169087820Y-73609180D01*
X156090252Y-97155000D02*
X153379748Y-97155000D01*
X152959342Y-86487000D02*
X153568009Y-85878333D01*
X153568009Y-85878333D02*
X153823333Y-85878333D01*
X131318000Y-85133612D02*
X131318000Y-80820256D01*
X146034549Y-84693549D02*
X146113297Y-84693549D01*
X147906748Y-86487000D02*
X152959342Y-86487000D01*
X131318000Y-80820256D02*
X131635707Y-80502549D01*
X124328680Y-88536780D02*
X127914832Y-88536780D01*
X127914832Y-88536780D02*
X131318000Y-85133612D01*
X131635707Y-80502549D02*
X141843549Y-80502549D01*
X141843549Y-80502549D02*
X146034549Y-84693549D01*
X146113297Y-84693549D02*
X147906748Y-86487000D01*
X117602000Y-81071000D02*
X117602000Y-84455000D01*
D33*
X142944000Y-97663000D02*
X143764000Y-97663000D01*
X142764962Y-97663000D02*
X142944000Y-97663000D01*
X142710961Y-97717001D02*
X142764962Y-97663000D01*
X139359602Y-97717001D02*
X142710961Y-97717001D01*
X139128500Y-97884500D02*
X139192103Y-97884500D01*
X139192103Y-97884500D02*
X139359602Y-97717001D01*
X139546008Y-98166992D02*
X142897353Y-98166992D01*
X139128500Y-98584500D02*
X139546008Y-98166992D01*
X142897353Y-98166992D02*
X142947673Y-98116672D01*
X142947673Y-98116672D02*
X143764000Y-98933000D01*
D32*
X132842000Y-93599000D02*
X133066999Y-93823999D01*
X133066999Y-93823999D02*
X134810500Y-95567500D01*
X134810500Y-95567500D02*
X139382500Y-95567500D01*
X166878000Y-123672600D02*
X166878000Y-123825000D01*
X164490400Y-121285000D02*
X166878000Y-123672600D01*
X163473388Y-121285000D02*
X164490400Y-121285000D01*
X161417000Y-119228612D02*
X163473388Y-121285000D01*
X157591549Y-103994459D02*
X157591549Y-115364049D01*
X153876270Y-100279180D02*
X157591549Y-103994459D01*
X161417000Y-119189500D02*
X161417000Y-119228612D01*
X150080432Y-100279180D02*
X153876270Y-100279180D01*
X140335000Y-98679000D02*
X140335000Y-98997198D01*
X140778802Y-99441000D02*
X143700500Y-99441000D01*
X143700500Y-99441000D02*
X144462500Y-100203000D01*
X140335000Y-98997198D02*
X140778802Y-99441000D01*
X144462500Y-100203000D02*
X150004252Y-100203000D01*
X157591549Y-115364049D02*
X161417000Y-119189500D01*
X150004252Y-100203000D02*
X150080432Y-100279180D01*
X130810000Y-89789000D02*
X130302000Y-89281000D01*
X129083342Y-89281000D02*
X127813342Y-90551000D01*
X124346460Y-90551000D02*
X124328680Y-90533220D01*
X127813342Y-90551000D02*
X124346460Y-90551000D01*
X130302000Y-89281000D02*
X129083342Y-89281000D01*
X128896135Y-89773549D02*
X124816684Y-93853000D01*
X130047797Y-89773549D02*
X128896135Y-89773549D01*
X131318000Y-90551000D02*
X130825248Y-90551000D01*
X130825248Y-90551000D02*
X130047797Y-89773549D01*
X124816684Y-93853000D02*
X123594620Y-93853000D01*
X123594620Y-93853000D02*
X123401580Y-93659960D01*
X164338000Y-123672600D02*
X164338000Y-123825000D01*
X136461500Y-100139500D02*
X143367752Y-100139500D01*
X133667500Y-97345500D02*
X136461500Y-100139500D01*
X143723342Y-100495090D02*
X153786838Y-100495090D01*
X156321549Y-115656149D02*
X164338000Y-123672600D01*
X153786838Y-100495090D02*
X156321549Y-103029801D01*
X143367752Y-100139500D02*
X143723342Y-100495090D01*
X156321549Y-103029801D02*
X156321549Y-115656149D01*
X121031000Y-99505198D02*
X121031000Y-99187000D01*
X137249431Y-122339087D02*
X135640983Y-120730639D01*
X161798000Y-123825000D02*
X160845500Y-123825000D01*
X160845500Y-123825000D02*
X159658040Y-125012460D01*
X145522940Y-123713745D02*
X144148286Y-122339091D01*
X159658040Y-125012460D02*
X146129265Y-125012460D01*
X121031000Y-116086612D02*
X121031000Y-99505198D01*
X135640983Y-120730639D02*
X125675025Y-120730637D01*
X146129265Y-125012460D02*
X145522940Y-124406135D01*
X144148286Y-122339091D02*
X137249431Y-122339087D01*
X145522940Y-124406135D02*
X145522940Y-123713745D01*
X125675025Y-120730637D02*
X121031000Y-116086612D01*
X121269549Y-84597451D02*
X121920000Y-83947000D01*
X121412000Y-90726252D02*
X121412000Y-88089748D01*
X121269549Y-90868703D02*
X121412000Y-90726252D01*
X121269549Y-91249297D02*
X121269549Y-90868703D01*
X121336180Y-91315928D02*
X121269549Y-91249297D01*
X118618000Y-94034108D02*
X121336180Y-91315928D01*
X118618000Y-94361000D02*
X118618000Y-94034108D01*
X121412000Y-88089748D02*
X121269549Y-87947297D01*
X121269549Y-87947297D02*
X121269549Y-84597451D01*
X118618000Y-95377000D02*
X118618000Y-94361000D01*
X164338000Y-75717400D02*
X164338000Y-75565000D01*
X162471100Y-76669900D02*
X163385500Y-76669900D01*
X153162000Y-85979000D02*
X162471100Y-76669900D01*
X149046656Y-85979000D02*
X153162000Y-85979000D01*
X163385500Y-76669900D02*
X164338000Y-75717400D01*
X142554205Y-79486549D02*
X149046656Y-85979000D01*
X137223703Y-79486549D02*
X142554205Y-79486549D01*
X121920000Y-81739748D02*
X123919200Y-79740548D01*
X121920000Y-83947000D02*
X121920000Y-81739748D01*
X123919200Y-79740548D02*
X132270298Y-79740548D01*
X132270298Y-79740548D02*
X132301201Y-79771451D01*
X132301201Y-79771451D02*
X136938801Y-79771451D01*
X136938801Y-79771451D02*
X137223703Y-79486549D01*
X135352999Y-78642001D02*
X135128000Y-78867000D01*
X159258000Y-79577658D02*
X155841158Y-82994500D01*
X159258000Y-75565000D02*
X159258000Y-79577658D01*
X155841158Y-82994500D02*
X146672842Y-82994500D01*
X146672842Y-82994500D02*
X142148891Y-78470549D01*
X142148891Y-78470549D02*
X135524451Y-78470549D01*
X135524451Y-78470549D02*
X135352999Y-78642001D01*
X131826000Y-81217202D02*
X131826000Y-80899004D01*
X131826000Y-85852000D02*
X131826000Y-81217202D01*
X124328680Y-89535000D02*
X128143000Y-89535000D01*
X128143000Y-89535000D02*
X131826000Y-85852000D01*
D34*
X149098000Y-123672600D02*
X146964400Y-121539000D01*
X149098000Y-123825000D02*
X149098000Y-123672600D01*
X136961232Y-121539000D02*
X135437232Y-120015000D01*
X146964400Y-121539000D02*
X136961232Y-121539000D01*
X135437232Y-120015000D02*
X127762000Y-120015000D01*
X127762000Y-120015000D02*
X127000000Y-119253000D01*
D32*
X122555000Y-86741000D02*
X122174000Y-87122000D01*
X122174000Y-91137748D02*
X118999000Y-94312748D01*
X122174000Y-87122000D02*
X122174000Y-91137748D01*
X118983549Y-95107549D02*
X121282793Y-97406793D01*
X118983549Y-94615203D02*
X118983549Y-95107549D01*
X118999000Y-94312748D02*
X118999000Y-94599752D01*
X118999000Y-94599752D02*
X118983549Y-94615203D01*
X140208000Y-94869000D02*
X143002000Y-94869000D01*
X143002000Y-94869000D02*
X144018000Y-93853000D01*
X144018000Y-93853000D02*
X144018000Y-90043000D01*
D34*
X140684000Y-114204500D02*
X140684000Y-120269000D01*
X131826000Y-110109000D02*
X136588500Y-110109000D01*
X136588500Y-110109000D02*
X140684000Y-114204500D01*
X140684000Y-120269000D02*
X151320500Y-120269000D01*
X155454500Y-116135000D02*
X155454500Y-111893500D01*
X151320500Y-120269000D02*
X155454500Y-116135000D01*
D32*
X127175252Y-110109000D02*
X121531988Y-104465736D01*
X121531988Y-99791473D02*
X121531988Y-99473275D01*
X131826000Y-110109000D02*
X127175252Y-110109000D01*
X121531988Y-104465736D02*
X121531988Y-99791473D01*
D35*
X191976000Y-87757000D02*
X191976000Y-113665000D01*
X191976000Y-113665000D02*
X190706000Y-113665000D01*
D32*
X119634000Y-97409000D02*
X118110000Y-95885000D01*
X118008949Y-93850257D02*
X118008949Y-85826051D01*
X118110000Y-95885000D02*
X118110000Y-93951308D01*
X118110000Y-93951308D02*
X118008949Y-93850257D01*
X118008949Y-85826051D02*
X118405400Y-85429600D01*
X118405400Y-85429600D02*
X118405400Y-85410040D01*
X143312801Y-90161451D02*
X144193252Y-89281000D01*
X141740801Y-90161451D02*
X143312801Y-90161451D01*
X138430000Y-91091000D02*
X140811252Y-91091000D01*
X140811252Y-91091000D02*
X141740801Y-90161451D01*
X149961252Y-89281000D02*
X151231252Y-90551000D01*
X144193252Y-89281000D02*
X149961252Y-89281000D01*
X151231252Y-90551000D02*
X153924000Y-90551000D01*
X153924000Y-90551000D02*
X161544000Y-82931000D01*
X161544000Y-82931000D02*
X161544000Y-81661000D01*
X161544000Y-81661000D02*
X162560000Y-80645000D01*
D36*
X128057000Y-104099000D02*
X129780002Y-104099000D01*
X125095000Y-107061000D02*
X128057000Y-104099000D01*
D32*
X147447540Y-107161960D02*
X147594888Y-107014612D01*
X147447540Y-108748884D02*
X147447540Y-107161960D01*
X148211451Y-109512795D02*
X147447540Y-108748884D01*
X148211451Y-111362351D02*
X148211451Y-109512795D01*
X149051100Y-112202000D02*
X148211451Y-111362351D01*
X147594888Y-107014612D02*
X148056500Y-106553000D01*
X149590000Y-112202000D02*
X149051100Y-112202000D01*
X153390000Y-107717000D02*
X153490000Y-107717000D01*
X152791451Y-108315549D02*
X153390000Y-107717000D01*
X152752839Y-108315549D02*
X152791451Y-108315549D01*
X149590000Y-111478388D02*
X152752839Y-108315549D01*
X149590000Y-112202000D02*
X149590000Y-111478388D01*
X148056500Y-106553000D02*
X149101501Y-105507999D01*
X149101501Y-105507999D02*
X151667001Y-105507999D01*
X151667001Y-105507999D02*
X151892000Y-105283000D01*
X149590000Y-109813100D02*
X149590000Y-110302000D01*
X149590000Y-109658100D02*
X149590000Y-109813100D01*
X152801100Y-106447000D02*
X149590000Y-109658100D01*
X153490000Y-106447000D02*
X152801100Y-106447000D01*
X148056500Y-108906000D02*
X148056500Y-108331000D01*
X148427361Y-109276861D02*
X148056500Y-108906000D01*
X148427361Y-109678261D02*
X148427361Y-109276861D01*
X149051100Y-110302000D02*
X148427361Y-109678261D01*
X149590000Y-110302000D02*
X149051100Y-110302000D01*
X150240460Y-106934540D02*
X150876000Y-106299000D01*
X148702960Y-107684540D02*
X149490460Y-107684540D01*
X149490460Y-107684540D02*
X149975540Y-107199460D01*
X148056500Y-108331000D02*
X148702960Y-107684540D01*
X149975540Y-107199460D02*
X150011884Y-107199460D01*
X150011884Y-107199460D02*
X150240460Y-106970884D01*
X150240460Y-106970884D02*
X150240460Y-106934540D01*
X150606549Y-111770451D02*
X150606549Y-113141549D01*
X153490000Y-108987000D02*
X153390000Y-108987000D01*
X153390000Y-108987000D02*
X150606549Y-111770451D01*
X149590000Y-114512100D02*
X149590000Y-115001000D01*
X150129451Y-113972649D02*
X149590000Y-114512100D01*
X150129451Y-113618647D02*
X150129451Y-113972649D01*
X150606549Y-113141549D02*
X150129451Y-113618647D01*
X149115748Y-115001000D02*
X146558000Y-112443252D01*
X149590000Y-115001000D02*
X149115748Y-115001000D01*
X146558000Y-106273500D02*
X148056500Y-104775000D01*
X146558000Y-112443252D02*
X146558000Y-106273500D01*
X151753540Y-104128540D02*
X152400000Y-104775000D01*
X149975540Y-104128540D02*
X151753540Y-104128540D01*
X149860000Y-104013000D02*
X149975540Y-104128540D01*
X148818500Y-104013000D02*
X149860000Y-104013000D01*
X148056500Y-104775000D02*
X148818500Y-104013000D01*
X152400000Y-104775000D02*
X152908000Y-104775000D01*
X149640000Y-116901000D02*
X149590000Y-116901000D01*
X150606549Y-115934451D02*
X149640000Y-116901000D01*
X150606549Y-114310451D02*
X150606549Y-115934451D01*
X153390000Y-111527000D02*
X150606549Y-114310451D01*
X153490000Y-111527000D02*
X153390000Y-111527000D01*
X148056500Y-103251000D02*
X148056500Y-101727000D01*
X148056500Y-101727000D02*
X148056500Y-100990500D01*
X148056500Y-100990500D02*
X148336000Y-100711000D01*
X148336000Y-100711000D02*
X153416000Y-100711000D01*
X153416000Y-100711000D02*
X154432000Y-101727000D01*
X146050000Y-105257500D02*
X148056500Y-103251000D01*
X146050000Y-113108748D02*
X146050000Y-105257500D01*
X148590000Y-115648748D02*
X146050000Y-113108748D01*
X148590000Y-116439900D02*
X148590000Y-115648748D01*
X149590000Y-116901000D02*
X149051100Y-116901000D01*
X149051100Y-116901000D02*
X148590000Y-116439900D01*
X134112000Y-79375000D02*
X134430198Y-79375000D01*
X142636449Y-79263451D02*
X148843998Y-85471000D01*
X151065802Y-85471000D02*
X151384000Y-85471000D01*
X134541747Y-79263451D02*
X142636449Y-79263451D01*
X134430198Y-79375000D02*
X134541747Y-79263451D01*
X148843998Y-85471000D02*
X151065802Y-85471000D01*
X167278252Y-86995000D02*
X162052000Y-92221252D01*
X162052000Y-92221252D02*
X144539748Y-92221252D01*
X144539748Y-92221252D02*
X144514000Y-92247000D01*
X156464000Y-86487000D02*
X153254000Y-89697000D01*
X153254000Y-89697000D02*
X150964000Y-89697000D01*
D35*
X191976000Y-115189000D02*
X190706000Y-115189000D01*
D32*
X152524073Y-88455500D02*
X153479500Y-88455500D01*
X138366500Y-88455500D02*
X152524073Y-88455500D01*
X137541000Y-87630000D02*
X138366500Y-88455500D01*
X152721536Y-88122540D02*
X152785036Y-88059040D01*
X138610543Y-88122540D02*
X152721536Y-88122540D01*
X137541000Y-87052997D02*
X138610543Y-88122540D01*
X137604500Y-86423500D02*
X139065000Y-87884000D01*
X153356222Y-87662589D02*
X153674420Y-87662589D01*
X152594738Y-87662588D02*
X153356222Y-87662589D01*
X152373326Y-87884000D02*
X152594738Y-87662588D01*
X139065000Y-87884000D02*
X152373326Y-87884000D01*
X152145300Y-87630000D02*
X152526298Y-87249002D01*
X152526298Y-87249002D02*
X152526302Y-87249002D01*
X152526302Y-87249002D02*
X152844500Y-87249002D01*
X137604500Y-85725000D02*
X139509500Y-87630000D01*
X139509500Y-87630000D02*
X152145300Y-87630000D01*
M02*
