G04 #@! TF.GenerationSoftware,KiCad,Pcbnew,(5.1.4)-1*
G04 #@! TF.CreationDate,2020-01-22T15:00:02+01:00*
G04 #@! TF.ProjectId,sara-rx-ab,73617261-2d72-4782-9d61-622e6b696361,rev?*
G04 #@! TF.SameCoordinates,Original*
G04 #@! TF.FileFunction,Copper,L2,Inr*
G04 #@! TF.FilePolarity,Positive*
%FSLAX46Y46*%
G04 Gerber Fmt 4.6, Leading zero omitted, Abs format (unit mm)*
G04 Created by KiCad (PCBNEW (5.1.4)-1) date 2020-01-22 15:00:02*
%MOMM*%
%LPD*%
G04 APERTURE LIST*
%ADD10O,1.727200X2.032000*%
%ADD11R,0.840000X0.840000*%
%ADD12C,0.840000*%
%ADD13O,1.850000X0.850000*%
%ADD14C,0.600000*%
%ADD15R,1.350000X1.350000*%
%ADD16O,1.350000X1.350000*%
%ADD17C,2.050000*%
%ADD18C,2.250000*%
%ADD19C,4.064000*%
%ADD20C,0.450000*%
G04 APERTURE END LIST*
D10*
X156718000Y-75565000D03*
X159258000Y-75565000D03*
X161798000Y-75565000D03*
X164338000Y-75565000D03*
X166878000Y-75565000D03*
X169418000Y-75565000D03*
X171958000Y-75565000D03*
X174498000Y-75565000D03*
D11*
X140462000Y-107823000D03*
D12*
X141462000Y-107173000D03*
X140462000Y-106523000D03*
X141462000Y-105873000D03*
X140462000Y-105223000D03*
D13*
X140682000Y-110098000D03*
X140682000Y-102948000D03*
D14*
X115386000Y-114459000D03*
X115386000Y-118459000D03*
X115386000Y-102775000D03*
X115386000Y-106775000D03*
D15*
X118364000Y-121793000D03*
D16*
X120364000Y-121793000D03*
X140684000Y-120269000D03*
D15*
X138684000Y-120269000D03*
D16*
X165608000Y-119761000D03*
D15*
X163608000Y-119761000D03*
D16*
X138430000Y-91091000D03*
D15*
X138430000Y-93091000D03*
D14*
X160536000Y-113411000D03*
X161536000Y-113411000D03*
D16*
X120364000Y-124841000D03*
D15*
X118364000Y-124841000D03*
D17*
X187023000Y-121920000D03*
D18*
X189563000Y-124460000D03*
X189563000Y-119380000D03*
X184483000Y-119380000D03*
X184483000Y-124460000D03*
D17*
X149733000Y-77470000D03*
D18*
X152273000Y-74930000D03*
X147193000Y-74930000D03*
X147193000Y-80010000D03*
X152273000Y-80010000D03*
D10*
X156718000Y-123825000D03*
X154178000Y-123825000D03*
X151638000Y-123825000D03*
X149098000Y-123825000D03*
X146558000Y-123825000D03*
X144018000Y-123825000D03*
X141478000Y-123825000D03*
X138938000Y-123825000D03*
X174498000Y-123825000D03*
X171958000Y-123825000D03*
X169418000Y-123825000D03*
X166878000Y-123825000D03*
X164338000Y-123825000D03*
X161798000Y-123825000D03*
X174498000Y-75565000D03*
X171958000Y-75565000D03*
X169418000Y-75565000D03*
X166878000Y-75565000D03*
X164338000Y-75565000D03*
X161798000Y-75565000D03*
X159258000Y-75565000D03*
X156718000Y-75565000D03*
D19*
X124968000Y-123825000D03*
X177038000Y-118745000D03*
X126238000Y-75565000D03*
X177038000Y-90805000D03*
D20*
X152019000Y-106045000D03*
X151003000Y-114935000D03*
X149733000Y-113665000D03*
X148463000Y-114935000D03*
X151003000Y-112395000D03*
X148463000Y-112395000D03*
X113284000Y-114681000D03*
X141478000Y-81915000D03*
X140462000Y-80899000D03*
X138430000Y-78867000D03*
X136906000Y-77597000D03*
X139446000Y-79883000D03*
X135128000Y-77597000D03*
X136398000Y-78867000D03*
X137414000Y-79883000D03*
X138430000Y-80899000D03*
X139446000Y-81915000D03*
X140462000Y-83185000D03*
X140462000Y-84709000D03*
X140462000Y-86233000D03*
X141224000Y-88900000D03*
X142557500Y-88900000D03*
X141224000Y-89765000D03*
X142494000Y-89765000D03*
X142494000Y-91265000D03*
X141224000Y-92765000D03*
X142494000Y-92765000D03*
X141224000Y-94265000D03*
X142494000Y-94265000D03*
X141224000Y-95765000D03*
X142494000Y-95765000D03*
X141986000Y-100711000D03*
X143002000Y-101727000D03*
X141732000Y-83185000D03*
X141732000Y-84709000D03*
X141986000Y-85725000D03*
X143510000Y-85979000D03*
X144780000Y-85979000D03*
X145923000Y-85090000D03*
X149098000Y-81280000D03*
X149098000Y-80010000D03*
X150368000Y-80010000D03*
X150368000Y-81280000D03*
X147193000Y-86360000D03*
X146558000Y-86995000D03*
X144780000Y-87185500D03*
X143510000Y-87185500D03*
X146558000Y-84201000D03*
X148463000Y-82550000D03*
X151638000Y-84455000D03*
X151003000Y-82550000D03*
X170053000Y-99695000D03*
X171323000Y-100965000D03*
X172593000Y-100965000D03*
X173863000Y-103505000D03*
X175133000Y-104775000D03*
X176403000Y-106045000D03*
X177673000Y-107315000D03*
X178943000Y-107950000D03*
X178943000Y-109855000D03*
X178943000Y-111760000D03*
X178943000Y-113665000D03*
X180213000Y-115570000D03*
X182118000Y-117475000D03*
X182118000Y-120015000D03*
X183388000Y-121285000D03*
X176022000Y-102997000D03*
X178562000Y-103505000D03*
X176022000Y-101473000D03*
X170053000Y-102235000D03*
X171323000Y-103505000D03*
X172593000Y-104775000D03*
X173863000Y-106045000D03*
X175133000Y-107315000D03*
X176403000Y-108585000D03*
X176403000Y-109855000D03*
X176403000Y-113665000D03*
X177673000Y-115570000D03*
X180213000Y-118110000D03*
X180213000Y-120015000D03*
X181483000Y-121920000D03*
X183388000Y-122555000D03*
X178943000Y-116840000D03*
X141224000Y-91265000D03*
X140208000Y-87122000D03*
X141224000Y-97265000D03*
X142494000Y-97265000D03*
X141224000Y-98806000D03*
X142494000Y-98806000D03*
X149860000Y-93472000D03*
X153110000Y-93472000D03*
X156360000Y-93472000D03*
X159610000Y-93472000D03*
X163830000Y-93091000D03*
X149860000Y-95472000D03*
X153110000Y-95472000D03*
X156360000Y-95472000D03*
X159610000Y-95472000D03*
X149860000Y-97472000D03*
X153110000Y-97472000D03*
X156360000Y-97472000D03*
X159610000Y-97472000D03*
X162860000Y-97472000D03*
X149860000Y-99472000D03*
X153110000Y-99472000D03*
X156360000Y-99472000D03*
X159610000Y-99472000D03*
X162860000Y-99472000D03*
X119634000Y-101981000D03*
X118872000Y-103251000D03*
X119634000Y-104775000D03*
X113284000Y-102997000D03*
X114554000Y-102997000D03*
X114554000Y-106426000D03*
X113284000Y-106426000D03*
X117348000Y-99695000D03*
X118618000Y-99695000D03*
X117348000Y-100965000D03*
X114554000Y-114681000D03*
X114554000Y-117729000D03*
X113284000Y-117729000D03*
X126619000Y-106680000D03*
X126238000Y-108077000D03*
X127000000Y-108966000D03*
X130556000Y-99568000D03*
X130556000Y-101727000D03*
X129286000Y-105537000D03*
X157988000Y-107950000D03*
X156718000Y-109220000D03*
X153543000Y-112395000D03*
X139192000Y-100965000D03*
X119380000Y-87757000D03*
X121666000Y-91059000D03*
X119380000Y-91059000D03*
X116840000Y-88519000D03*
X116840000Y-90297000D03*
X152400000Y-107823000D03*
X174099500Y-93503500D03*
X170849500Y-97503500D03*
X170849500Y-95503500D03*
X174099500Y-95503500D03*
X174099500Y-97503500D03*
X170849500Y-91503500D03*
X174099500Y-91503500D03*
X170849500Y-93503500D03*
X176275500Y-94251500D03*
X178275500Y-94251500D03*
X178275500Y-97501500D03*
X176275500Y-97501500D03*
X174163000Y-87947000D03*
X174163000Y-89947000D03*
X174163000Y-85947000D03*
X170913000Y-85947000D03*
X170913000Y-89947000D03*
X170913000Y-83947000D03*
X170913000Y-87947000D03*
X175006000Y-79883000D03*
X176022000Y-78105000D03*
X165862000Y-94615000D03*
X165862000Y-96647000D03*
X165862000Y-98679000D03*
X161290000Y-101473000D03*
X156972000Y-101473000D03*
X151384000Y-101473000D03*
X147066000Y-98679000D03*
X147066000Y-94615000D03*
X132080000Y-89281000D03*
X133604000Y-89281000D03*
X132842000Y-82169000D03*
X134620000Y-82169000D03*
X132842000Y-85217000D03*
X133604000Y-86741000D03*
X132080000Y-88011000D03*
X137668000Y-88773000D03*
X129794000Y-106807000D03*
X130556000Y-108839000D03*
X124460000Y-92583000D03*
X163068000Y-96012000D03*
X176022000Y-84709000D03*
X129794000Y-88773000D03*
X121475500Y-96647000D03*
X116713000Y-95250000D03*
X114808000Y-95250000D03*
X112268000Y-95250000D03*
X112268000Y-97790000D03*
X114173000Y-97790000D03*
X118618000Y-106680000D03*
X118618000Y-108585000D03*
X118618000Y-111125000D03*
X116713000Y-110490000D03*
X119253000Y-114935000D03*
X118618000Y-119380000D03*
X114808000Y-123825000D03*
X116078000Y-121920000D03*
X178054000Y-87249000D03*
X130810000Y-119126000D03*
X149098000Y-106426000D03*
X150622000Y-107696000D03*
X127127000Y-78867000D03*
X129159000Y-78867000D03*
X131572000Y-78867000D03*
X159512000Y-81788000D03*
X165862000Y-82169000D03*
X165862000Y-80391000D03*
X160528000Y-80645000D03*
X161798000Y-79375000D03*
X164084000Y-79248000D03*
X168148000Y-79248000D03*
X170434000Y-79248000D03*
X155829000Y-85090000D03*
X157734000Y-83693000D03*
X159766000Y-83566000D03*
X162179000Y-83693000D03*
X165862000Y-83820000D03*
X162179000Y-85725000D03*
X160909000Y-87503000D03*
X158750000Y-87503000D03*
X160401000Y-85725000D03*
X143510000Y-83185000D03*
X143510000Y-84709000D03*
X143510000Y-77089000D03*
X145034000Y-75057000D03*
X144526000Y-78105000D03*
X143002000Y-75565000D03*
X143510000Y-81153000D03*
X129286000Y-74041000D03*
X131318000Y-74041000D03*
X131318000Y-76581000D03*
X129286000Y-76581000D03*
X122174000Y-76073000D03*
X112522000Y-76581000D03*
X112522000Y-80137000D03*
X128778000Y-80137000D03*
X125222000Y-80137000D03*
X130810000Y-96901000D03*
X136398000Y-97917000D03*
X132334000Y-105537000D03*
X132334000Y-108077000D03*
X133858000Y-108077000D03*
X144018000Y-106553000D03*
X144018000Y-108585000D03*
X141478000Y-112649000D03*
X141986000Y-117221000D03*
X143510000Y-119253000D03*
X138938000Y-116713000D03*
X137287000Y-115062000D03*
X134874000Y-117221000D03*
X156718000Y-113665000D03*
X155702000Y-119253000D03*
X153162000Y-121285000D03*
X157734000Y-121285000D03*
X172974000Y-108077000D03*
X172974000Y-110617000D03*
X172974000Y-113665000D03*
X172974000Y-117729000D03*
X172974000Y-120777000D03*
X169926000Y-120777000D03*
X169926000Y-119253000D03*
X170942000Y-105537000D03*
X170942000Y-111125000D03*
X170942000Y-108077000D03*
X164846000Y-114173000D03*
X164846000Y-108585000D03*
X164846000Y-111125000D03*
X161290000Y-105537000D03*
X164338000Y-105537000D03*
X158750000Y-105537000D03*
X177546000Y-122809000D03*
X180086000Y-124841000D03*
X183642000Y-116205000D03*
X187706000Y-116205000D03*
X153670000Y-86852552D03*
X139954000Y-85471000D03*
X115479320Y-91533980D03*
X115824000Y-86741000D03*
X114046000Y-79375000D03*
X118405400Y-93659960D03*
X154940000Y-81407000D03*
X121088997Y-81407000D03*
X174498000Y-84709000D03*
X173990000Y-79883000D03*
X163576000Y-78613000D03*
X165354000Y-85979000D03*
X163322000Y-83185000D03*
X171958000Y-92837000D03*
X121666000Y-81407000D03*
X154940000Y-82169008D03*
X122428000Y-94297500D03*
X129857500Y-90170000D03*
X121475500Y-94551500D03*
X129237960Y-91440000D03*
X120396000Y-94805500D03*
X128905000Y-92583000D03*
X128460500Y-93853000D03*
X119380000Y-94805500D03*
X124328680Y-88536780D03*
X153823333Y-85878333D03*
X117602000Y-95377000D03*
X117602000Y-84455000D03*
X143764000Y-97663000D03*
X139128500Y-97884500D03*
X143764000Y-98933000D03*
X139128500Y-98584500D03*
X177142360Y-80391000D03*
X148274707Y-86090540D03*
X124328680Y-90533220D03*
X132842000Y-93599000D03*
X139382500Y-95567500D03*
X140335000Y-98679000D03*
X130810000Y-89789000D03*
X131318000Y-90551000D03*
X123401580Y-93659960D03*
X133667500Y-97345500D03*
X121031000Y-99187000D03*
X121412000Y-88011000D03*
X118618000Y-95377000D03*
X124328680Y-89535000D03*
X131826000Y-80899004D03*
X135128000Y-78867000D03*
X123698000Y-107823000D03*
X131064000Y-115443000D03*
X123444000Y-119507000D03*
X127000000Y-119253000D03*
X122555000Y-86741000D03*
X121282793Y-97406793D03*
X140208000Y-94869000D03*
X144018000Y-90043000D03*
X131826000Y-110109000D03*
X155454500Y-111893500D03*
X121531988Y-99473275D03*
X191976000Y-87757000D03*
X119634000Y-97409000D03*
X118405400Y-85410040D03*
X152400000Y-110871000D03*
X148590000Y-118618000D03*
X127762000Y-109601000D03*
X132461000Y-86360000D03*
X115062000Y-77171000D03*
X162560000Y-80645000D03*
X113919000Y-80899000D03*
X116332000Y-99187000D03*
X125095000Y-107061000D03*
X129780002Y-104099000D03*
X151892000Y-105283000D03*
X150876000Y-106299000D03*
X152908000Y-104775000D03*
X154432000Y-101727000D03*
X134112000Y-79375000D03*
X151384000Y-85471000D03*
X167278252Y-86995000D03*
X144514000Y-92247000D03*
X156464000Y-86487000D03*
X150964000Y-89697000D03*
X137541000Y-87630000D03*
X153479500Y-88455500D03*
X137541000Y-87052997D03*
X152785036Y-88059040D03*
X137604500Y-86423500D03*
X153674420Y-87662589D03*
X137604500Y-85725000D03*
X152844500Y-87249002D03*
M02*
